  0
SECTION
  2
HEADER
  9
$ACADVER
  1
AC1009
  0
ENDSEC
  0
SECTION
  2
ENTITIES
  0
POLYLINE
  5
90
  8
Layer_0
  62
0
  66
1
  10
0
  20
0
  30
0
  0
VERTEX
  5
90
  8
Layer_0
  10
330.59076
  20
215.93782
  0
VERTEX
  5
91
  8
Layer_0
  10
13.090744
  20
215.93782
  0
VERTEX
  5
92
  8
Layer_0
  10
13.090744
  20
279.43781
  0
VERTEX
  5
93
  8
Layer_0
  10
330.59076
  20
279.43781
  0
VERTEX
  5
94
  8
Layer_0
  10
330.59076
  20
215.93782
  0
SEQEND
  0
POLYLINE
  5
96
  8
Layer_0
  62
0
  66
1
  10
0
  20
0
  30
0
  0
VERTEX
  5
96
  8
Layer_0
  10
407.25
  20
224.25
  0
VERTEX
  5
97
  8
Layer_0
  10
346.75
  20
224.25
  0
VERTEX
  5
98
  8
Layer_0
  10
346.75
  20
281.75
  0
VERTEX
  5
99
  8
Layer_0
  10
407.25
  20
281.75
  0
VERTEX
  5
9a
  8
Layer_0
  10
407.25
  20
224.25
  0
SEQEND
  0
POLYLINE
  5
9c
  8
Layer_1
  62
52
  66
1
  10
0
  20
0
  30
0
  0
VERTEX
  5
9c
  8
Layer_1
  10
198.71875
  20
226.68782
  0
VERTEX
  5
9d
  8
Layer_1
  10
135.71875
  20
226.68782
  0
VERTEX
  5
9e
  8
Layer_1
  10
135.71875
  20
267.68781
  0
VERTEX
  5
9f
  8
Layer_1
  10
198.71875
  20
267.68781
  0
VERTEX
  5
a0
  8
Layer_1
  10
198.71875
  20
226.68782
  0
SEQEND
  0
POLYLINE
  5
a2
  8
Layer_0
  62
0
  66
1
  10
0
  20
0
  30
0
  0
VERTEX
  5
a2
  8
Layer_0
  10
289.69998
  20
80.25
  0
VERTEX
  5
a3
  8
Layer_0
  10
10.300018
  20
80.25
  0
VERTEX
  5
a4
  8
Layer_0
  10
10.300018
  20
143.75
  0
VERTEX
  5
a5
  8
Layer_0
  10
289.69998
  20
143.75
  0
VERTEX
  5
a6
  8
Layer_0
  10
289.69998
  20
80.25
  0
SEQEND
  0
POLYLINE
  5
a8
  8
Layer_0
  62
0
  66
1
  10
0
  20
0
  30
0
  0
VERTEX
  5
a8
  8
Layer_0
  10
288.69998
  20
9.2500038
  0
VERTEX
  5
a9
  8
Layer_0
  10
9.3000183
  20
9.2500038
  0
VERTEX
  5
aa
  8
Layer_0
  10
9.3000183
  20
72.75
  0
VERTEX
  5
ab
  8
Layer_0
  10
288.69998
  20
72.75
  0
VERTEX
  5
ac
  8
Layer_0
  10
288.69998
  20
9.2500038
  0
SEQEND
  0
CIRCLE
  5
ae
  8
Layer_0
  62
0
  10
21.112
  20
198.166
  30
0
  40
2.5
  0
CIRCLE
  5
ae
  8
Layer_0
  62
0
  10
21.112
  20
178.166
  30
0
  40
2.5
  0
POLYLINE
  5
ae
  8
Layer_0
  62
0
  66
1
  10
0
  20
0
  30
0
  0
VERTEX
  5
ae
  8
Layer_0
  10
288.69998
  20
150.25
  0
VERTEX
  5
af
  8
Layer_0
  10
9.3000183
  20
150.25
  0
VERTEX
  5
b0
  8
Layer_0
  10
9.3000183
  20
213.75
  0
VERTEX
  5
b1
  8
Layer_0
  10
288.69998
  20
213.75
  0
VERTEX
  5
b2
  8
Layer_0
  10
288.69998
  20
150.25
  0
SEQEND
  0
POLYLINE
  5
b4
  8
Layer_2
  62
12
  66
1
  10
0
  20
0
  30
0
  0
VERTEX
  5
b4
  8
Layer_2
  10
30.703236
  20
195.31589
  42
0.14762395
  0
VERTEX
  5
b5
  8
Layer_2
  10
31.993519
  20
195.8674
  0
VERTEX
  5
b6
  8
Layer_2
  10
31.993519
  20
197.19797
  0
VERTEX
  5
b7
  8
Layer_2
  10
30.474476
  20
197.19553
  0
VERTEX
  5
b8
  8
Layer_2
  10
30.474476
  20
196.77487
  0
VERTEX
  5
b9
  8
Layer_2
  10
31.528919
  20
196.77487
  0
VERTEX
  5
ba
  8
Layer_2
  10
31.528919
  20
196.1069
  42
-0.32420203
  0
VERTEX
  5
bb
  8
Layer_2
  10
29.663197
  20
195.98044
  42
-0.22321472
  0
VERTEX
  5
bc
  8
Layer_2
  10
29.176136
  20
196.94357
  42
-0.20905322
  0
VERTEX
  5
bd
  8
Layer_2
  10
29.528919
  20
198.24997
  42
-0.37132753
  0
VERTEX
  5
be
  8
Layer_2
  10
31.24474
  20
198.33908
  42
-0.12444321
  0
VERTEX
  5
bf
  8
Layer_2
  10
31.511585
  20
197.8342
  0
VERTEX
  5
c0
  8
Layer_2
  10
31.939808
  20
197.95163
  42
0.32976328
  0
VERTEX
  5
c1
  8
Layer_2
  10
30.842396
  20
198.9841
  42
0.20264016
  0
VERTEX
  5
c2
  8
Layer_2
  10
29.331898
  20
198.67087
  42
0.22350815
  0
VERTEX
  5
c3
  8
Layer_2
  10
28.67638
  20
197.14426
  42
0.24210405
  0
VERTEX
  5
c4
  8
Layer_2
  10
29.345814
  20
195.65915
  42
0.17859656
  0
VERTEX
  5
c5
  8
Layer_2
  10
30.703236
  20
195.31589
  0
SEQEND
  0
POLYLINE
  5
c7
  8
Layer_2
  62
12
  66
1
  10
0
  20
0
  30
0
  0
VERTEX
  5
c7
  8
Layer_2
  10
36.637562
  20
195.33371
  42
0.2020466
  0
VERTEX
  5
c8
  8
Layer_2
  10
37.139027
  20
195.69601
  0
VERTEX
  5
c9
  8
Layer_2
  10
37.139027
  20
195.36813
  0
VERTEX
  5
ca
  8
Layer_2
  10
37.547474
  20
195.36813
  0
VERTEX
  5
cb
  8
Layer_2
  10
37.547474
  20
198.95456
  0
VERTEX
  5
cc
  8
Layer_2
  10
37.109486
  20
198.95456
  0
VERTEX
  5
cd
  8
Layer_2
  10
37.109486
  20
197.66769
  0
VERTEX
  5
ce
  8
Layer_2
  10
36.977406
  20
197.81174
  42
0.3710094
  0
VERTEX
  5
cf
  8
Layer_2
  10
35.691517
  20
197.76242
  42
0.2032489
  0
VERTEX
  5
d0
  8
Layer_2
  10
35.294544
  20
196.66476
  42
0.25541554
  0
VERTEX
  5
d1
  8
Layer_2
  10
35.841175
  20
195.48068
  42
0.20338351
  0
VERTEX
  5
d2
  8
Layer_2
  10
36.637562
  20
195.33371
  0
SEQEND
  0
POLYLINE
  5
d4
  8
Layer_2
  62
12
  66
1
  10
0
  20
0
  30
0
  0
VERTEX
  5
d4
  8
Layer_2
  10
33.088245
  20
196.78708
  0
VERTEX
  5
d5
  8
Layer_2
  10
33.100941
  20
197.01657
  42
-0.20152924
  0
VERTEX
  5
d6
  8
Layer_2
  10
33.307751
  20
197.47218
  42
-0.20152921
  0
VERTEX
  5
d7
  8
Layer_2
  10
33.777943
  20
197.64328
  42
-0.20254539
  0
VERTEX
  5
d8
  8
Layer_2
  10
34.139679
  20
197.52592
  42
-0.20254525
  0
VERTEX
  5
d9
  8
Layer_2
  10
34.305775
  20
197.18381
  42
-0.032065453
  0
VERTEX
  5
da
  8
Layer_2
  10
34.318714
  20
196.94846
  0
VERTEX
  5
db
  8
Layer_2
  10
34.318714
  20
195.36813
  0
VERTEX
  5
dc
  8
Layer_2
  10
34.7589
  20
195.36813
  42
0.005177707
  0
VERTEX
  5
dd
  8
Layer_2
  10
34.757435
  20
197.10715
  42
0.28412591
  0
VERTEX
  5
de
  8
Layer_2
  10
34.39513
  20
197.89499
  42
0.30623693
  0
VERTEX
  5
df
  8
Layer_2
  10
33.203236
  20
197.78415
  0
VERTEX
  5
e0
  8
Layer_2
  10
33.044056
  20
197.59689
  0
VERTEX
  5
e1
  8
Layer_2
  10
33.044056
  20
197.96628
  0
VERTEX
  5
e2
  8
Layer_2
  10
32.647816
  20
197.96628
  0
VERTEX
  5
e3
  8
Layer_2
  10
32.647816
  20
195.36813
  0
VERTEX
  5
e4
  8
Layer_2
  10
33.088245
  20
195.36813
  0
VERTEX
  5
e5
  8
Layer_2
  10
33.088245
  20
196.78708
  0
SEQEND
  0
POLYLINE
  5
e7
  8
Layer_2
  62
12
  70
1
  66
1
  10
0
  20
0
  30
0
  0
VERTEX
  5
e7
  8
Layer_2
  10
36.31554
  20
195.68698
  0
VERTEX
  5
e8
  8
Layer_2
  10
36.186634
  20
195.73337
  42
-0.25890986
  0
VERTEX
  5
e9
  8
Layer_2
  10
35.76012
  20
196.43112
  42
-0.12923053
  0
VERTEX
  5
ea
  8
Layer_2
  10
35.857777
  20
197.28342
  42
-0.36046413
  0
VERTEX
  5
eb
  8
Layer_2
  10
36.578968
  20
197.64474
  42
-0.28286848
  0
VERTEX
  5
ec
  8
Layer_2
  10
37.094837
  20
197.09055
  42
-0.16446018
  0
VERTEX
  5
ed
  8
Layer_2
  10
37.032825
  20
196.04123
  42
-0.34998029
  0
SEQEND
  0
POLYLINE
  5
ef
  8
Layer_2
  62
12
  66
1
  10
0
  20
0
  30
0
  0
VERTEX
  5
ef
  8
Layer_2
  10
30.156963
  20
178.99422
  0
VERTEX
  5
f0
  8
Layer_2
  10
29.873028
  20
178.99422
  0
VERTEX
  5
f1
  8
Layer_2
  10
29.805401
  20
178.87703
  42
-0.1307374
  0
VERTEX
  5
f2
  8
Layer_2
  10
28.835918
  20
178.09407
  0
VERTEX
  5
f3
  8
Layer_2
  10
28.835918
  20
177.66829
  42
0.087504939
  0
VERTEX
  5
f4
  8
Layer_2
  10
29.716534
  20
178.19905
  0
VERTEX
  5
f5
  8
Layer_2
  10
29.716534
  20
175.39314
  0
VERTEX
  5
f6
  8
Layer_2
  10
30.156963
  20
175.39314
  0
VERTEX
  5
f7
  8
Layer_2
  10
30.156963
  20
178.99422
  0
SEQEND
  0
POLYLINE
  5
f9
  8
Layer_2
  62
12
  66
1
  10
0
  20
0
  30
0
  0
VERTEX
  5
f9
  8
Layer_2
  10
33.618145
  20
175.81648
  0
VERTEX
  5
fa
  8
Layer_2
  10
31.859112
  20
175.81648
  42
-0.078223474
  0
VERTEX
  5
fb
  8
Layer_2
  10
32.553936
  20
176.50642
  0
VERTEX
  5
fc
  8
Layer_2
  10
32.774395
  20
176.69612
  42
0.10641009
  0
VERTEX
  5
fd
  8
Layer_2
  10
33.525127
  20
177.57527
  42
0.38241153
  0
VERTEX
  5
fe
  8
Layer_2
  10
33.148418
  20
178.83308
  42
0.29492675
  0
VERTEX
  5
ff
  8
Layer_2
  10
31.680645
  20
178.72884
  42
0.19733556
  0
VERTEX
  5
100
  8
Layer_2
  10
31.330791
  20
177.95686
  0
VERTEX
  5
101
  8
Layer_2
  10
31.783428
  20
177.91048
  0
VERTEX
  5
102
  8
Layer_2
  10
31.796368
  20
178.07014
  42
-0.39329737
  0
VERTEX
  5
103
  8
Layer_2
  10
32.485332
  20
178.62971
  42
-0.20658555
  0
VERTEX
  5
104
  8
Layer_2
  10
32.957161
  20
178.46487
  42
-0.20658569
  0
VERTEX
  5
105
  8
Layer_2
  10
33.160625
  20
178.00838
  42
-0.18150256
  0
VERTEX
  5
106
  8
Layer_2
  10
32.828594
  20
177.32625
  42
-0.026417706
  0
VERTEX
  5
107
  8
Layer_2
  10
31.8325
  20
176.42928
  0
VERTEX
  5
108
  8
Layer_2
  10
31.699688
  20
176.29817
  42
0.19668381
  0
VERTEX
  5
109
  8
Layer_2
  10
31.24754
  20
175.39314
  0
VERTEX
  5
10a
  8
Layer_2
  10
33.618145
  20
175.39314
  0
VERTEX
  5
10b
  8
Layer_2
  10
33.618145
  20
175.81648
  0
SEQEND
  0
POLYLINE
  5
10d
  8
Layer_2
  62
12
  66
1
  10
0
  20
0
  30
0
  0
VERTEX
  5
10d
  8
Layer_2
  10
41.325665
  20
178.97957
  0
VERTEX
  5
10e
  8
Layer_2
  10
40.885235
  20
178.97957
  0
VERTEX
  5
10f
  8
Layer_2
  10
40.885235
  20
175.39314
  0
VERTEX
  5
110
  8
Layer_2
  10
41.325665
  20
175.39314
  0
VERTEX
  5
111
  8
Layer_2
  10
41.325665
  20
178.97957
  0
SEQEND
  0
POLYLINE
  5
113
  8
Layer_2
  62
12
  66
1
  10
0
  20
0
  30
0
  0
VERTEX
  5
113
  8
Layer_2
  10
42.846172
  20
175.36873
  0
VERTEX
  5
114
  8
Layer_2
  10
43.022198
  20
175.39803
  0
VERTEX
  5
115
  8
Layer_2
  10
42.958721
  20
175.78719
  0
VERTEX
  5
116
  8
Layer_2
  10
42.850323
  20
175.77425
  42
-0.36623343
  0
VERTEX
  5
117
  8
Layer_2
  10
42.539043
  20
175.88728
  42
-0.078437295
  0
VERTEX
  5
118
  8
Layer_2
  10
42.51585
  20
176.12947
  0
VERTEX
  5
119
  8
Layer_2
  10
42.51585
  20
177.64876
  0
VERTEX
  5
11a
  8
Layer_2
  10
42.958721
  20
177.64876
  0
VERTEX
  5
11b
  8
Layer_2
  10
42.958721
  20
177.99129
  0
VERTEX
  5
11c
  8
Layer_2
  10
42.51585
  20
177.99129
  0
VERTEX
  5
11d
  8
Layer_2
  10
42.51585
  20
178.89876
  0
VERTEX
  5
11e
  8
Layer_2
  10
42.078106
  20
178.6346
  0
VERTEX
  5
11f
  8
Layer_2
  10
42.078106
  20
177.99129
  0
VERTEX
  5
120
  8
Layer_2
  10
41.755108
  20
177.99129
  0
VERTEX
  5
121
  8
Layer_2
  10
41.755108
  20
177.64876
  0
VERTEX
  5
122
  8
Layer_2
  10
42.078106
  20
177.64876
  0
VERTEX
  5
123
  8
Layer_2
  10
42.078106
  20
176.15413
  42
0.082946516
  0
VERTEX
  5
124
  8
Layer_2
  10
42.131817
  20
175.63411
  42
0.3032247
  0
VERTEX
  5
125
  8
Layer_2
  10
42.689678
  20
175.35896
  0
VERTEX
  5
126
  8
Layer_2
  10
42.846172
  20
175.36873
  0
SEQEND
  0
POLYLINE
  5
128
  8
Layer_2
  62
12
  66
1
  10
0
  20
0
  30
0
  0
VERTEX
  5
128
  8
Layer_2
  10
39.310528
  20
175.34456
  42
0.38627556
  0
VERTEX
  5
129
  8
Layer_2
  10
40.350323
  20
176.49153
  42
0.15829241
  0
VERTEX
  5
12a
  8
Layer_2
  10
40.168438
  20
177.50667
  42
0.26840592
  0
VERTEX
  5
12b
  8
Layer_2
  10
39.14378
  20
178.04988
  42
0.20329727
  0
VERTEX
  5
12c
  8
Layer_2
  10
38.285839
  20
177.71645
  42
0.20329716
  0
VERTEX
  5
12d
  8
Layer_2
  10
37.931866
  20
176.86678
  42
0.14752359
  0
VERTEX
  5
12e
  8
Layer_2
  10
38.114727
  20
175.87849
  42
0.2718473
  0
VERTEX
  5
12f
  8
Layer_2
  10
39.14378
  20
175.33455
  0
VERTEX
  5
130
  8
Layer_2
  10
39.310528
  20
175.34456
  0
SEQEND
  0
POLYLINE
  5
132
  8
Layer_2
  62
12
  66
1
  10
0
  20
0
  30
0
  0
VERTEX
  5
132
  8
Layer_2
  10
44.483379
  20
175.34114
  42
0.31500837
  0
VERTEX
  5
133
  8
Layer_2
  10
45.34959
  20
175.9427
  42
0.40155857
  0
VERTEX
  5
134
  8
Layer_2
  10
44.986553
  20
176.76448
  42
0.021958562
  0
VERTEX
  5
135
  8
Layer_2
  10
43.945538
  20
177.08113
  0
VERTEX
  5
136
  8
Layer_2
  10
43.845928
  20
177.13387
  42
-0.39955882
  0
VERTEX
  5
137
  8
Layer_2
  10
43.755352
  20
177.47859
  42
-0.25380473
  0
VERTEX
  5
138
  8
Layer_2
  10
44.144756
  20
177.68172
  42
-0.25344198
  0
VERTEX
  5
139
  8
Layer_2
  10
44.746563
  20
177.5135
  42
-0.13814345
  0
VERTEX
  5
13a
  8
Layer_2
  10
44.853252
  20
177.26228
  0
VERTEX
  5
13b
  8
Layer_2
  10
45.283672
  20
177.32088
  42
0.34259606
  0
VERTEX
  5
13c
  8
Layer_2
  10
44.670635
  20
178.00032
  42
0.20515701
  0
VERTEX
  5
13d
  8
Layer_2
  10
43.593243
  20
177.86897
  42
0.35449219
  0
VERTEX
  5
13e
  8
Layer_2
  10
43.351788
  20
177.03377
  42
0.23782933
  0
VERTEX
  5
13f
  8
Layer_2
  10
43.93919
  20
176.60823
  42
0.014426963
  0
VERTEX
  5
140
  8
Layer_2
  10
44.512188
  20
176.45076
  0
VERTEX
  5
141
  8
Layer_2
  10
44.641582
  20
176.41145
  42
-0.21439465
  0
VERTEX
  5
142
  8
Layer_2
  10
44.868034
  20
176.28416
  42
-0.21437992
  0
VERTEX
  5
143
  8
Layer_2
  10
44.919903
  20
176.02962
  42
-0.32433556
  0
VERTEX
  5
144
  8
Layer_2
  10
44.474102
  20
175.70442
  42
-0.26235329
  0
VERTEX
  5
145
  8
Layer_2
  10
43.788067
  20
175.91341
  42
-0.1311843
  0
VERTEX
  5
146
  8
Layer_2
  10
43.659405
  20
176.23714
  0
VERTEX
  5
147
  8
Layer_2
  10
43.223858
  20
176.16878
  42
0.31293244
  0
VERTEX
  5
148
  8
Layer_2
  10
43.888409
  20
175.38704
  42
0.081587394
  0
VERTEX
  5
149
  8
Layer_2
  10
44.483379
  20
175.34114
  0
SEQEND
  0
POLYLINE
  5
14b
  8
Layer_2
  62
12
  66
1
  10
0
  20
0
  30
0
  0
VERTEX
  5
14b
  8
Layer_2
  10
37.750713
  20
177.99129
  0
VERTEX
  5
14c
  8
Layer_2
  10
37.298077
  20
177.99129
  42
0.0067037282
  0
VERTEX
  5
14d
  8
Layer_2
  10
36.627178
  20
176.13826
  0
VERTEX
  5
14e
  8
Layer_2
  10
36.556866
  20
175.91194
  0
VERTEX
  5
14f
  8
Layer_2
  10
36.477276
  20
176.17854
  42
0.0094044949
  0
VERTEX
  5
150
  8
Layer_2
  10
35.832745
  20
177.99129
  0
VERTEX
  5
151
  8
Layer_2
  10
35.367901
  20
177.99129
  0
VERTEX
  5
152
  8
Layer_2
  10
36.356182
  20
175.39314
  0
VERTEX
  5
153
  8
Layer_2
  10
36.767315
  20
175.39314
  0
VERTEX
  5
154
  8
Layer_2
  10
37.750713
  20
177.99129
  0
SEQEND
  0
POLYLINE
  5
156
  8
Layer_2
  62
12
  70
1
  66
1
  10
0
  20
0
  30
0
  0
VERTEX
  5
156
  8
Layer_2
  10
38.985821
  20
175.71199
  0
VERTEX
  5
157
  8
Layer_2
  10
38.841778
  20
175.75862
  42
-0.26906458
  0
VERTEX
  5
158
  8
Layer_2
  10
38.391827
  20
176.45833
  42
-0.14313639
  0
VERTEX
  5
159
  8
Layer_2
  10
38.500713
  20
177.29915
  42
-0.34089355
  0
VERTEX
  5
15a
  8
Layer_2
  10
39.299786
  20
177.67
  42
-0.33241266
  0
VERTEX
  5
15b
  8
Layer_2
  10
39.893291
  20
176.93318
  42
-0.14099724
  0
VERTEX
  5
15c
  8
Layer_2
  10
39.784649
  20
176.08723
  42
-0.34384992
  0
SEQEND
  0
POLYLINE
  5
15e
  8
Layer_2
  62
12
  66
1
  10
0
  20
0
  30
0
  0
VERTEX
  5
15e
  8
Layer_2
  10
248.52701
  20
196.86554
  0
VERTEX
  5
15f
  8
Layer_2
  10
250.20987
  20
196.86554
  0
VERTEX
  5
160
  8
Layer_2
  10
250.20987
  20
197.28864
  0
VERTEX
  5
161
  8
Layer_2
  10
248.52701
  20
197.28864
  0
VERTEX
  5
162
  8
Layer_2
  10
248.52701
  20
198.39923
  0
VERTEX
  5
163
  8
Layer_2
  10
250.47183
  20
198.39923
  0
VERTEX
  5
164
  8
Layer_2
  10
250.47183
  20
198.82257
  0
VERTEX
  5
165
  8
Layer_2
  10
248.0524
  20
198.82257
  0
VERTEX
  5
166
  8
Layer_2
  10
248.0524
  20
195.23615
  0
VERTEX
  5
167
  8
Layer_2
  10
248.52701
  20
195.23615
  0
VERTEX
  5
168
  8
Layer_2
  10
248.52701
  20
196.86554
  0
SEQEND
  0
POLYLINE
  5
16a
  8
Layer_2
  62
12
  66
1
  10
0
  20
0
  30
0
  0
VERTEX
  5
16a
  8
Layer_2
  10
252.01749
  20
195.19904
  42
0.13555023
  0
VERTEX
  5
16b
  8
Layer_2
  10
252.72305
  20
195.5567
  0
VERTEX
  5
16c
  8
Layer_2
  10
252.75479
  20
195.38483
  0
VERTEX
  5
16d
  8
Layer_2
  10
252.81094
  20
195.23615
  0
VERTEX
  5
16e
  8
Layer_2
  10
253.2709
  20
195.23615
  0
VERTEX
  5
16f
  8
Layer_2
  10
253.20157
  20
195.38873
  42
-0.068942672
  0
VERTEX
  5
170
  8
Layer_2
  10
253.1315
  20
196.32477
  0
VERTEX
  5
171
  8
Layer_2
  10
253.1315
  20
196.91193
  42
0.1729921
  0
VERTEX
  5
172
  8
Layer_2
  10
252.97256
  20
197.61774
  42
0.20520907
  0
VERTEX
  5
173
  8
Layer_2
  10
252.12613
  20
197.89288
  42
0.18465184
  0
VERTEX
  5
174
  8
Layer_2
  10
251.22232
  20
197.61945
  42
0.15368383
  0
VERTEX
  5
175
  8
Layer_2
  10
250.95425
  20
197.09308
  0
VERTEX
  5
176
  8
Layer_2
  10
251.38492
  20
197.03424
  0
VERTEX
  5
177
  8
Layer_2
  10
251.4252
  20
197.16193
  42
-0.33155617
  0
VERTEX
  5
178
  8
Layer_2
  10
251.91739
  20
197.52155
  42
-0.20838652
  0
VERTEX
  5
179
  8
Layer_2
  10
252.56387
  20
197.37921
  42
-0.21260123
  0
VERTEX
  5
17a
  8
Layer_2
  10
252.68619
  20
196.88507
  42
-0.036065035
  0
VERTEX
  5
17b
  8
Layer_2
  10
251.58267
  20
196.68439
  0
VERTEX
  5
17c
  8
Layer_2
  10
251.50967
  20
196.6673
  42
0.19887249
  0
VERTEX
  5
17d
  8
Layer_2
  10
251.01343
  20
196.345
  42
0.19887264
  0
VERTEX
  5
17e
  8
Layer_2
  10
250.89297
  20
195.76569
  42
0.33479806
  0
VERTEX
  5
17f
  8
Layer_2
  10
251.56485
  20
195.19073
  42
0.075481977
  0
VERTEX
  5
180
  8
Layer_2
  10
252.01749
  20
195.19904
  0
SEQEND
  0
POLYLINE
  5
182
  8
Layer_2
  62
12
  66
1
  10
0
  20
0
  30
0
  0
VERTEX
  5
182
  8
Layer_2
  10
254.27359
  20
196.65509
  0
VERTEX
  5
183
  8
Layer_2
  10
254.28629
  20
196.88458
  42
-0.20146364
  0
VERTEX
  5
184
  8
Layer_2
  10
254.49327
  20
197.34019
  42
-0.20146394
  0
VERTEX
  5
185
  8
Layer_2
  10
254.96353
  20
197.51129
  42
-0.20238494
  0
VERTEX
  5
186
  8
Layer_2
  10
255.32516
  20
197.39381
  42
-0.20238251
  0
VERTEX
  5
187
  8
Layer_2
  10
255.49136
  20
197.05182
  42
-0.030953042
  0
VERTEX
  5
188
  8
Layer_2
  10
255.50406
  20
196.81647
  0
VERTEX
  5
189
  8
Layer_2
  10
255.50406
  20
195.23615
  0
VERTEX
  5
18a
  8
Layer_2
  10
255.94449
  20
195.23615
  42
0.0051777091
  0
VERTEX
  5
18b
  8
Layer_2
  10
255.94302
  20
196.97516
  42
0.28396212
  0
VERTEX
  5
18c
  8
Layer_2
  10
255.58047
  20
197.763
  42
0.30621209
  0
VERTEX
  5
18d
  8
Layer_2
  10
254.38858
  20
197.65216
  0
VERTEX
  5
18e
  8
Layer_2
  10
254.22964
  20
197.4649
  0
VERTEX
  5
18f
  8
Layer_2
  10
254.22964
  20
197.83429
  0
VERTEX
  5
190
  8
Layer_2
  10
253.8334
  20
197.83429
  0
VERTEX
  5
191
  8
Layer_2
  10
253.8334
  20
195.23615
  0
VERTEX
  5
192
  8
Layer_2
  10
254.27359
  20
195.23615
  0
VERTEX
  5
193
  8
Layer_2
  10
254.27359
  20
196.65509
  0
SEQEND
  0
POLYLINE
  5
195
  8
Layer_2
  62
12
  70
1
  66
1
  10
0
  20
0
  30
0
  0
VERTEX
  5
195
  8
Layer_2
  10
251.75089
  20
195.52985
  42
-0.40276894
  0
VERTEX
  5
196
  8
Layer_2
  10
251.34805
  20
195.93341
  42
-0.38317112
  0
VERTEX
  5
197
  8
Layer_2
  10
251.73526
  20
196.33209
  42
-0.020281619
  0
VERTEX
  5
198
  8
Layer_2
  10
252.1918
  20
196.40997
  0
VERTEX
  5
199
  8
Layer_2
  10
252.38663
  20
196.44952
  42
0.039279836
  0
VERTEX
  5
19a
  8
Layer_2
  10
252.68619
  20
196.5401
  42
-0.1619548
  0
VERTEX
  5
19b
  8
Layer_2
  10
252.56241
  20
195.84674
  42
-0.27552714
  0
SEQEND
  0
POLYLINE
  5
19d
  8
Layer_2
  62
12
  66
1
  10
0
  20
0
  30
0
  0
VERTEX
  5
19d
  8
Layer_2
  10
248.94592
  20
178.78812
  0
VERTEX
  5
19e
  8
Layer_2
  10
249.98303
  20
175.73514
  0
VERTEX
  5
19f
  8
Layer_2
  10
250.41125
  20
175.73514
  0
VERTEX
  5
1a0
  8
Layer_2
  10
251.45325
  20
178.73685
  0
VERTEX
  5
1a1
  8
Layer_2
  10
251.45325
  20
175.73514
  0
VERTEX
  5
1a2
  8
Layer_2
  10
251.91077
  20
175.73514
  0
VERTEX
  5
1a3
  8
Layer_2
  10
251.91077
  20
179.32156
  0
VERTEX
  5
1a4
  8
Layer_2
  10
251.27234
  20
179.32156
  42
0.0068409416
  0
VERTEX
  5
1a5
  8
Layer_2
  10
250.22278
  20
176.2515
  0
VERTEX
  5
1a6
  8
Layer_2
  10
250.10632
  20
176.616
  0
VERTEX
  5
1a7
  8
Layer_2
  10
249.20276
  20
179.32156
  0
VERTEX
  5
1a8
  8
Layer_2
  10
248.4884
  20
179.32156
  0
VERTEX
  5
1a9
  8
Layer_2
  10
248.4884
  20
175.73514
  0
VERTEX
  5
1aa
  8
Layer_2
  10
248.94592
  20
175.73514
  0
VERTEX
  5
1ab
  8
Layer_2
  10
248.94592
  20
178.78812
  0
SEQEND
  0
POLYLINE
  5
1ad
  8
Layer_2
  62
12
  66
1
  10
0
  20
0
  30
0
  0
VERTEX
  5
1ad
  8
Layer_2
  10
255.85364
  20
179.32156
  0
VERTEX
  5
1ae
  8
Layer_2
  10
255.41321
  20
179.32156
  0
VERTEX
  5
1af
  8
Layer_2
  10
255.41321
  20
178.81522
  0
VERTEX
  5
1b0
  8
Layer_2
  10
255.85364
  20
178.81522
  0
VERTEX
  5
1b1
  8
Layer_2
  10
255.85364
  20
179.32156
  0
SEQEND
  0
POLYLINE
  5
1b3
  8
Layer_2
  62
12
  66
1
  10
0
  20
0
  30
0
  0
VERTEX
  5
1b3
  8
Layer_2
  10
261.15198
  20
179.32156
  0
VERTEX
  5
1b4
  8
Layer_2
  10
260.71155
  20
179.32156
  0
VERTEX
  5
1b5
  8
Layer_2
  10
260.71155
  20
175.73514
  0
VERTEX
  5
1b6
  8
Layer_2
  10
261.15198
  20
175.73514
  0
VERTEX
  5
1b7
  8
Layer_2
  10
261.15198
  20
179.32156
  0
SEQEND
  0
POLYLINE
  5
1b9
  8
Layer_2
  62
12
  66
1
  10
0
  20
0
  30
0
  0
VERTEX
  5
1b9
  8
Layer_2
  10
262.26624
  20
179.32156
  0
VERTEX
  5
1ba
  8
Layer_2
  10
261.82605
  20
179.32156
  0
VERTEX
  5
1bb
  8
Layer_2
  10
261.82605
  20
178.81522
  0
VERTEX
  5
1bc
  8
Layer_2
  10
262.26624
  20
178.81522
  0
VERTEX
  5
1bd
  8
Layer_2
  10
262.26624
  20
179.32156
  0
SEQEND
  0
POLYLINE
  5
1bf
  8
Layer_2
  62
12
  66
1
  10
0
  20
0
  30
0
  0
VERTEX
  5
1bf
  8
Layer_2
  10
266.1217
  20
177.15652
  0
VERTEX
  5
1c0
  8
Layer_2
  10
266.1261
  20
177.30106
  42
-0.20768451
  0
VERTEX
  5
1c1
  8
Layer_2
  10
266.31189
  20
177.80624
  42
-0.20768505
  0
VERTEX
  5
1c2
  8
Layer_2
  10
266.80896
  20
178.01273
  42
-0.20458954
  0
VERTEX
  5
1c3
  8
Layer_2
  10
267.18134
  20
177.89023
  42
-0.20458969
  0
VERTEX
  5
1c4
  8
Layer_2
  10
267.34802
  20
177.53543
  0
VERTEX
  5
1c5
  8
Layer_2
  10
267.35706
  20
177.38162
  0
VERTEX
  5
1c6
  8
Layer_2
  10
267.35706
  20
175.73514
  0
VERTEX
  5
1c7
  8
Layer_2
  10
267.79724
  20
175.73514
  42
0.015644199
  0
VERTEX
  5
1c8
  8
Layer_2
  10
267.79163
  20
177.56107
  42
0.19937605
  0
VERTEX
  5
1c9
  8
Layer_2
  10
267.58832
  20
178.13089
  42
0.19937564
  0
VERTEX
  5
1ca
  8
Layer_2
  10
267.03918
  20
178.3848
  42
0.26003625
  0
VERTEX
  5
1cb
  8
Layer_2
  10
266.1217
  20
178.0347
  0
VERTEX
  5
1cc
  8
Layer_2
  10
266.1217
  20
179.32156
  0
VERTEX
  5
1cd
  8
Layer_2
  10
265.68127
  20
179.32156
  0
VERTEX
  5
1ce
  8
Layer_2
  10
265.68127
  20
175.73514
  0
VERTEX
  5
1cf
  8
Layer_2
  10
266.1217
  20
175.73514
  0
VERTEX
  5
1d0
  8
Layer_2
  10
266.1217
  20
177.15652
  0
SEQEND
  0
POLYLINE
  5
1d2
  8
Layer_2
  62
12
  66
1
  10
0
  20
0
  30
0
  0
VERTEX
  5
1d2
  8
Layer_2
  10
269.33582
  20
175.71072
  0
VERTEX
  5
1d3
  8
Layer_2
  10
269.51184
  20
175.74002
  0
VERTEX
  5
1d4
  8
Layer_2
  10
269.44836
  20
176.12918
  0
VERTEX
  5
1d5
  8
Layer_2
  10
269.33997
  20
176.11624
  42
-0.36635995
  0
VERTEX
  5
1d6
  8
Layer_2
  10
269.02869
  20
176.22928
  42
-0.078732965
  0
VERTEX
  5
1d7
  8
Layer_2
  10
269.00549
  20
176.47147
  0
VERTEX
  5
1d8
  8
Layer_2
  10
269.00549
  20
177.99075
  0
VERTEX
  5
1d9
  8
Layer_2
  10
269.44836
  20
177.99075
  0
VERTEX
  5
1da
  8
Layer_2
  10
269.44836
  20
178.33328
  0
VERTEX
  5
1db
  8
Layer_2
  10
269.00549
  20
178.33328
  0
VERTEX
  5
1dc
  8
Layer_2
  10
269.00549
  20
179.24075
  0
VERTEX
  5
1dd
  8
Layer_2
  10
268.5675
  20
178.97659
  0
VERTEX
  5
1de
  8
Layer_2
  10
268.5675
  20
178.33328
  0
VERTEX
  5
1df
  8
Layer_2
  10
268.24475
  20
178.33328
  0
VERTEX
  5
1e0
  8
Layer_2
  10
268.24475
  20
177.99075
  0
VERTEX
  5
1e1
  8
Layer_2
  10
268.5675
  20
177.99075
  0
VERTEX
  5
1e2
  8
Layer_2
  10
268.5675
  20
176.49612
  42
0.08344966
  0
VERTEX
  5
1e3
  8
Layer_2
  10
268.62146
  20
175.9761
  42
0.30348411
  0
VERTEX
  5
1e4
  8
Layer_2
  10
269.17908
  20
175.70096
  0
VERTEX
  5
1e5
  8
Layer_2
  10
269.33582
  20
175.71072
  0
SEQEND
  0
POLYLINE
  5
1e7
  8
Layer_2
  62
12
  66
1
  10
0
  20
0
  30
0
  0
VERTEX
  5
1e7
  8
Layer_2
  10
253.59509
  20
175.69803
  42
0.13549924
  0
VERTEX
  5
1e8
  8
Layer_2
  10
254.30042
  20
176.05569
  0
VERTEX
  5
1e9
  8
Layer_2
  10
254.33215
  20
175.88382
  0
VERTEX
  5
1ea
  8
Layer_2
  10
254.38855
  20
175.73514
  0
VERTEX
  5
1eb
  8
Layer_2
  10
254.84851
  20
175.73514
  0
VERTEX
  5
1ec
  8
Layer_2
  10
254.77893
  20
175.88773
  42
-0.068814007
  0
VERTEX
  5
1ed
  8
Layer_2
  10
254.70886
  20
176.82376
  0
VERTEX
  5
1ee
  8
Layer_2
  10
254.70886
  20
177.41092
  42
0.17357206
  0
VERTEX
  5
1ef
  8
Layer_2
  10
254.54993
  20
178.11673
  42
0.20537495
  0
VERTEX
  5
1f0
  8
Layer_2
  10
253.70349
  20
178.39188
  42
0.18464949
  0
VERTEX
  5
1f1
  8
Layer_2
  10
252.79968
  20
178.11844
  42
0.15359343
  0
VERTEX
  5
1f2
  8
Layer_2
  10
252.53186
  20
177.59207
  0
VERTEX
  5
1f3
  8
Layer_2
  10
252.96228
  20
177.53323
  0
VERTEX
  5
1f4
  8
Layer_2
  10
253.00256
  20
177.66092
  42
-0.3313588
  0
VERTEX
  5
1f5
  8
Layer_2
  10
253.49475
  20
178.02054
  42
-0.20833613
  0
VERTEX
  5
1f6
  8
Layer_2
  10
254.14148
  20
177.8782
  42
-0.21238675
  0
VERTEX
  5
1f7
  8
Layer_2
  10
254.26379
  20
177.38406
  42
-0.036059147
  0
VERTEX
  5
1f8
  8
Layer_2
  10
253.16028
  20
177.18338
  0
VERTEX
  5
1f9
  8
Layer_2
  10
253.08704
  20
177.16629
  42
0.198764
  0
VERTEX
  5
1fa
  8
Layer_2
  10
252.59093
  20
176.8439
  42
0.198764
  0
VERTEX
  5
1fb
  8
Layer_2
  10
252.47034
  20
176.26468
  42
0.33470158
  0
VERTEX
  5
1fc
  8
Layer_2
  10
253.14221
  20
175.68973
  42
0.0754413
  0
VERTEX
  5
1fd
  8
Layer_2
  10
253.59509
  20
175.69803
  0
SEQEND
  0
POLYLINE
  5
1ff
  8
Layer_2
  62
12
  66
1
  10
0
  20
0
  30
0
  0
VERTEX
  5
1ff
  8
Layer_2
  10
256.95325
  20
177.15408
  0
VERTEX
  5
200
  8
Layer_2
  10
256.96594
  20
177.38358
  42
-0.20146403
  0
VERTEX
  5
201
  8
Layer_2
  10
257.17294
  20
177.83919
  42
-0.20146376
  0
VERTEX
  5
202
  8
Layer_2
  10
257.64319
  20
178.01028
  42
-0.20238386
  0
VERTEX
  5
203
  8
Layer_2
  10
258.00482
  20
177.89281
  42
-0.20238364
  0
VERTEX
  5
204
  8
Layer_2
  10
258.17102
  20
177.55081
  42
-0.030953704
  0
VERTEX
  5
205
  8
Layer_2
  10
258.18372
  20
177.31546
  0
VERTEX
  5
206
  8
Layer_2
  10
258.18372
  20
175.73514
  0
VERTEX
  5
207
  8
Layer_2
  10
258.62415
  20
175.73514
  42
0.0051777049
  0
VERTEX
  5
208
  8
Layer_2
  10
258.62268
  20
177.47415
  42
0.28396204
  0
VERTEX
  5
209
  8
Layer_2
  10
258.26013
  20
178.26199
  42
0.30621209
  0
VERTEX
  5
20a
  8
Layer_2
  10
257.06824
  20
178.15115
  0
VERTEX
  5
20b
  8
Layer_2
  10
256.9093
  20
177.9639
  0
VERTEX
  5
20c
  8
Layer_2
  10
256.9093
  20
178.33328
  0
VERTEX
  5
20d
  8
Layer_2
  10
256.51306
  20
178.33328
  0
VERTEX
  5
20e
  8
Layer_2
  10
256.51306
  20
175.73514
  0
VERTEX
  5
20f
  8
Layer_2
  10
256.95325
  20
175.73514
  0
VERTEX
  5
210
  8
Layer_2
  10
256.95325
  20
177.15408
  0
SEQEND
  0
POLYLINE
  5
212
  8
Layer_2
  62
12
  66
1
  10
0
  20
0
  30
0
  0
VERTEX
  5
212
  8
Layer_2
  10
264.06042
  20
174.68997
  42
0.38219541
  0
VERTEX
  5
213
  8
Layer_2
  10
265.01575
  20
175.56912
  42
0.034891583
  0
VERTEX
  5
214
  8
Layer_2
  10
265.04675
  20
176.08743
  0
VERTEX
  5
215
  8
Layer_2
  10
265.04675
  20
178.33328
  0
VERTEX
  5
216
  8
Layer_2
  10
264.6405
  20
178.33328
  0
VERTEX
  5
217
  8
Layer_2
  10
264.6405
  20
178.02005
  0
VERTEX
  5
218
  8
Layer_2
  10
264.48132
  20
178.18265
  42
0.40471126
  0
VERTEX
  5
219
  8
Layer_2
  10
263.05627
  20
178.0137
  42
0.31643492
  0
VERTEX
  5
21a
  8
Layer_2
  10
263.05042
  20
176.12186
  42
0.34173499
  0
VERTEX
  5
21b
  8
Layer_2
  10
264.27478
  20
175.82034
  42
0.108143
  0
VERTEX
  5
21c
  8
Layer_2
  10
264.599
  20
176.07523
  42
-0.10795609
  0
VERTEX
  5
21d
  8
Layer_2
  10
264.53113
  20
175.40628
  42
-0.32267385
  0
VERTEX
  5
21e
  8
Layer_2
  10
263.87
  20
175.04544
  42
-0.28004795
  0
VERTEX
  5
21f
  8
Layer_2
  10
263.32385
  20
175.28519
  42
-0.08457036
  0
VERTEX
  5
220
  8
Layer_2
  10
263.27307
  20
175.45633
  0
VERTEX
  5
221
  8
Layer_2
  10
262.84509
  20
175.52005
  42
0.32779658
  0
VERTEX
  5
222
  8
Layer_2
  10
263.27576
  20
174.79861
  42
0.1320963
  0
VERTEX
  5
223
  8
Layer_2
  10
264.06042
  20
174.68997
  0
SEQEND
  0
POLYLINE
  5
225
  8
Layer_2
  62
12
  66
1
  10
0
  20
0
  30
0
  0
VERTEX
  5
225
  8
Layer_2
  10
255.85364
  20
178.33328
  0
VERTEX
  5
226
  8
Layer_2
  10
255.41321
  20
178.33328
  0
VERTEX
  5
227
  8
Layer_2
  10
255.41321
  20
175.73514
  0
VERTEX
  5
228
  8
Layer_2
  10
255.85364
  20
175.73514
  0
VERTEX
  5
229
  8
Layer_2
  10
255.85364
  20
178.33328
  0
SEQEND
  0
POLYLINE
  5
22b
  8
Layer_2
  62
12
  66
1
  10
0
  20
0
  30
0
  0
VERTEX
  5
22b
  8
Layer_2
  10
262.26624
  20
178.33328
  0
VERTEX
  5
22c
  8
Layer_2
  10
261.82605
  20
178.33328
  0
VERTEX
  5
22d
  8
Layer_2
  10
261.82605
  20
175.73514
  0
VERTEX
  5
22e
  8
Layer_2
  10
262.26624
  20
175.73514
  0
VERTEX
  5
22f
  8
Layer_2
  10
262.26624
  20
178.33328
  0
SEQEND
  0
POLYLINE
  5
231
  8
Layer_2
  62
12
  66
1
  10
0
  20
0
  30
0
  0
VERTEX
  5
231
  8
Layer_2
  10
263.77502
  20
176.11453
  0
VERTEX
  5
232
  8
Layer_2
  10
263.64124
  20
176.15848
  42
-0.27229446
  0
VERTEX
  5
233
  8
Layer_2
  10
263.22229
  20
176.84232
  42
-0.14195981
  0
VERTEX
  5
234
  8
Layer_2
  10
263.32507
  20
177.6553
  42
-0.34709006
  0
VERTEX
  5
235
  8
Layer_2
  10
264.05774
  20
178.01224
  42
-0.32768189
  0
VERTEX
  5
236
  8
Layer_2
  10
264.62244
  20
177.28983
  42
-0.13850602
  0
VERTEX
  5
237
  8
Layer_2
  10
264.52014
  20
176.46683
  42
-0.34417924
  0
VERTEX
  5
238
  8
Layer_2
  10
263.77502
  20
176.11453
  0
SEQEND
  0
POLYLINE
  5
23a
  8
Layer_2
  62
12
  70
1
  66
1
  10
0
  20
0
  30
0
  0
VERTEX
  5
23a
  8
Layer_2
  10
253.32849
  20
176.02884
  0
VERTEX
  5
23b
  8
Layer_2
  10
253.22327
  20
176.05081
  42
-0.20313727
  0
VERTEX
  5
23c
  8
Layer_2
  10
252.97748
  20
176.23643
  42
-0.20313653
  0
VERTEX
  5
23d
  8
Layer_2
  10
252.9408
  20
176.54227
  42
-0.29772784
  0
VERTEX
  5
23e
  8
Layer_2
  10
253.41882
  20
176.85257
  0
VERTEX
  5
23f
  8
Layer_2
  10
253.76941
  20
176.90897
  42
0.053028151
  0
VERTEX
  5
240
  8
Layer_2
  10
254.26379
  20
177.03909
  42
-0.16176647
  0
VERTEX
  5
241
  8
Layer_2
  10
254.13977
  20
176.34573
  42
-0.27574774
  0
SEQEND
  0
CIRCLE
  5
243
  8
Layer_0
  62
0
  10
275
  20
198
  30
0
  40
2.5
  0
CIRCLE
  5
243
  8
Layer_0
  62
0
  10
275
  20
178
  30
0
  40
2.5
  0
POLYLINE
  5
243
  8
Layer_2
  62
12
  66
1
  10
0
  20
0
  30
0
  0
VERTEX
  5
243
  8
Layer_2
  10
338.06442
  20
152.18317
  42
0.23601986
  0
VERTEX
  5
244
  8
Layer_2
  10
338.88419
  20
152.74706
  42
0.23601916
  0
VERTEX
  5
245
  8
Layer_2
  10
338.92331
  20
153.74127
  42
0.22849729
  0
VERTEX
  5
246
  8
Layer_2
  10
338.35202
  20
154.16852
  0
VERTEX
  5
247
  8
Layer_2
  10
338.46701
  20
154.2298
  42
0.3862896
  0
VERTEX
  5
248
  8
Layer_2
  10
338.77267
  20
155.24689
  42
0.34174772
  0
VERTEX
  5
249
  8
Layer_2
  10
337.59274
  20
155.81207
  42
0.33588436
  0
VERTEX
  5
24a
  8
Layer_2
  10
336.71799
  20
154.89752
  0
VERTEX
  5
24b
  8
Layer_2
  10
337.15842
  20
154.8194
  0
VERTEX
  5
24c
  8
Layer_2
  10
337.1904
  20
154.97076
  42
-0.19777681
  0
VERTEX
  5
24d
  8
Layer_2
  10
337.46011
  20
155.36613
  42
-0.19777706
  0
VERTEX
  5
24e
  8
Layer_2
  10
337.93039
  20
155.45514
  42
-0.3785965
  0
VERTEX
  5
24f
  8
Layer_2
  10
338.39377
  20
154.90485
  42
-0.37178707
  0
VERTEX
  5
250
  8
Layer_2
  10
337.92966
  20
154.34235
  42
-0.10158627
  0
VERTEX
  5
251
  8
Layer_2
  10
337.59128
  20
154.31036
  0
VERTEX
  5
252
  8
Layer_2
  10
337.54245
  20
153.92389
  0
VERTEX
  5
253
  8
Layer_2
  10
337.7131
  20
153.96075
  42
-0.20300911
  0
VERTEX
  5
254
  8
Layer_2
  10
338.24252
  20
153.86681
  42
-0.20300844
  0
VERTEX
  5
255
  8
Layer_2
  10
338.54269
  20
153.42072
  42
-0.1991957
  0
VERTEX
  5
256
  8
Layer_2
  10
338.43704
  20
152.86082
  42
-0.19919728
  0
VERTEX
  5
257
  8
Layer_2
  10
337.96579
  20
152.54059
  42
-0.19863228
  0
VERTEX
  5
258
  8
Layer_2
  10
337.45471
  20
152.6312
  42
-0.19863253
  0
VERTEX
  5
259
  8
Layer_2
  10
337.15891
  20
153.05768
  0
VERTEX
  5
25a
  8
Layer_2
  10
337.11423
  20
153.23175
  0
VERTEX
  5
25b
  8
Layer_2
  10
336.67404
  20
153.17291
  42
0.29632249
  0
VERTEX
  5
25c
  8
Layer_2
  10
337.38181
  20
152.23297
  42
0.12320536
  0
VERTEX
  5
25d
  8
Layer_2
  10
338.06442
  20
152.18317
  0
SEQEND
  0
POLYLINE
  5
25f
  8
Layer_2
  62
12
  66
1
  10
0
  20
0
  30
0
  0
VERTEX
  5
25f
  8
Layer_2
  10
314.18918
  20
155.38922
  0
VERTEX
  5
260
  8
Layer_2
  10
315.3757
  20
155.38922
  0
VERTEX
  5
261
  8
Layer_2
  10
315.3757
  20
155.81256
  0
VERTEX
  5
262
  8
Layer_2
  10
312.53293
  20
155.81256
  0
VERTEX
  5
263
  8
Layer_2
  10
312.53293
  20
155.38922
  0
VERTEX
  5
264
  8
Layer_2
  10
313.71457
  20
155.38922
  0
VERTEX
  5
265
  8
Layer_2
  10
313.71457
  20
152.22614
  0
VERTEX
  5
266
  8
Layer_2
  10
314.18918
  20
152.22614
  0
VERTEX
  5
267
  8
Layer_2
  10
314.18918
  20
155.38922
  0
SEQEND
  0
POLYLINE
  5
269
  8
Layer_2
  62
12
  66
1
  10
0
  20
0
  30
0
  0
VERTEX
  5
269
  8
Layer_2
  10
351.46774
  20
155.0174
  0
VERTEX
  5
26a
  8
Layer_2
  10
351.46774
  20
155.81256
  0
VERTEX
  5
26b
  8
Layer_2
  10
350.92209
  20
155.81256
  0
VERTEX
  5
26c
  8
Layer_2
  10
350.92209
  20
155.0174
  0
VERTEX
  5
26d
  8
Layer_2
  10
351.05661
  20
153.11676
  0
VERTEX
  5
26e
  8
Layer_2
  10
351.34055
  20
153.11676
  0
VERTEX
  5
26f
  8
Layer_2
  10
351.46774
  20
155.0174
  0
SEQEND
  0
POLYLINE
  5
271
  8
Layer_2
  62
12
  66
1
  10
0
  20
0
  30
0
  0
VERTEX
  5
271
  8
Layer_2
  10
316.29245
  20
153.64752
  0
VERTEX
  5
272
  8
Layer_2
  10
316.29684
  20
153.79205
  42
-0.20767635
  0
VERTEX
  5
273
  8
Layer_2
  10
316.48264
  20
154.29723
  42
-0.20767929
  0
VERTEX
  5
274
  8
Layer_2
  10
316.97971
  20
154.50372
  42
-0.20465051
  0
VERTEX
  5
275
  8
Layer_2
  10
317.35214
  20
154.3813
  42
-0.20464679
  0
VERTEX
  5
276
  8
Layer_2
  10
317.51877
  20
154.02643
  0
VERTEX
  5
277
  8
Layer_2
  10
317.5278
  20
153.87262
  0
VERTEX
  5
278
  8
Layer_2
  10
317.5278
  20
152.22614
  0
VERTEX
  5
279
  8
Layer_2
  10
317.96799
  20
152.22614
  42
0.015644199
  0
VERTEX
  5
27a
  8
Layer_2
  10
317.96237
  20
154.05206
  42
0.19937398
  0
VERTEX
  5
27b
  8
Layer_2
  10
317.75906
  20
154.62189
  42
0.19937764
  0
VERTEX
  5
27c
  8
Layer_2
  10
317.20993
  20
154.87579
  42
0.2598788
  0
VERTEX
  5
27d
  8
Layer_2
  10
316.29245
  20
154.5257
  0
VERTEX
  5
27e
  8
Layer_2
  10
316.29245
  20
155.81256
  0
VERTEX
  5
27f
  8
Layer_2
  10
315.85202
  20
155.81256
  0
VERTEX
  5
280
  8
Layer_2
  10
315.85202
  20
152.22614
  0
VERTEX
  5
281
  8
Layer_2
  10
316.29245
  20
152.22614
  0
VERTEX
  5
282
  8
Layer_2
  10
316.29245
  20
153.64752
  0
SEQEND
  0
POLYLINE
  5
284
  8
Layer_2
  62
12
  66
1
  10
0
  20
0
  30
0
  0
VERTEX
  5
284
  8
Layer_2
  10
319.10031
  20
155.81256
  0
VERTEX
  5
285
  8
Layer_2
  10
318.66013
  20
155.81256
  0
VERTEX
  5
286
  8
Layer_2
  10
318.66013
  20
155.30621
  0
VERTEX
  5
287
  8
Layer_2
  10
319.10031
  20
155.30621
  0
VERTEX
  5
288
  8
Layer_2
  10
319.10031
  20
155.81256
  0
SEQEND
  0
POLYLINE
  5
28a
  8
Layer_2
  62
12
  66
1
  10
0
  20
0
  30
0
  0
VERTEX
  5
28a
  8
Layer_2
  10
350.06491
  20
155.0174
  0
VERTEX
  5
28b
  8
Layer_2
  10
350.06491
  20
155.81256
  0
VERTEX
  5
28c
  8
Layer_2
  10
349.51926
  20
155.81256
  0
VERTEX
  5
28d
  8
Layer_2
  10
349.51926
  20
155.0174
  0
VERTEX
  5
28e
  8
Layer_2
  10
349.65378
  20
153.11676
  0
VERTEX
  5
28f
  8
Layer_2
  10
349.93771
  20
153.11676
  0
VERTEX
  5
290
  8
Layer_2
  10
350.06491
  20
155.0174
  0
SEQEND
  0
POLYLINE
  5
292
  8
Layer_2
  62
12
  66
1
  10
0
  20
0
  30
0
  0
VERTEX
  5
292
  8
Layer_2
  10
322.70773
  20
153.25616
  0
VERTEX
  5
293
  8
Layer_2
  10
323.01828
  20
153.5545
  0
VERTEX
  5
294
  8
Layer_2
  10
323.87692
  20
152.22614
  0
VERTEX
  5
295
  8
Layer_2
  10
324.42014
  20
152.22614
  0
VERTEX
  5
296
  8
Layer_2
  10
323.32663
  20
153.86041
  0
VERTEX
  5
297
  8
Layer_2
  10
324.31979
  20
154.82428
  0
VERTEX
  5
298
  8
Layer_2
  10
323.74973
  20
154.82428
  0
VERTEX
  5
299
  8
Layer_2
  10
322.70773
  20
153.7674
  0
VERTEX
  5
29a
  8
Layer_2
  10
322.70773
  20
155.81256
  0
VERTEX
  5
29b
  8
Layer_2
  10
322.2673
  20
155.81256
  0
VERTEX
  5
29c
  8
Layer_2
  10
322.2673
  20
152.22614
  0
VERTEX
  5
29d
  8
Layer_2
  10
322.70773
  20
152.22614
  0
VERTEX
  5
29e
  8
Layer_2
  10
322.70773
  20
153.25616
  0
SEQEND
  0
POLYLINE
  5
2a0
  8
Layer_2
  62
12
  66
1
  10
0
  20
0
  30
0
  0
VERTEX
  5
2a0
  8
Layer_2
  10
331.46457
  20
152.17413
  42
0.31513624
  0
VERTEX
  5
2a1
  8
Layer_2
  10
332.33054
  20
152.7757
  42
0.40155777
  0
VERTEX
  5
2a2
  8
Layer_2
  10
331.9675
  20
153.59747
  42
0.021959614
  0
VERTEX
  5
2a3
  8
Layer_2
  10
330.92648
  20
153.91412
  0
VERTEX
  5
2a4
  8
Layer_2
  10
330.82687
  20
153.96686
  42
-0.39955989
  0
VERTEX
  5
2a5
  8
Layer_2
  10
330.7363
  20
154.31158
  42
-0.25377112
  0
VERTEX
  5
2a6
  8
Layer_2
  10
331.1257
  20
154.51471
  42
-0.25344217
  0
VERTEX
  5
2a7
  8
Layer_2
  10
331.72751
  20
154.3465
  42
-0.1381438
  0
VERTEX
  5
2a8
  8
Layer_2
  10
331.8342
  20
154.09528
  0
VERTEX
  5
2a9
  8
Layer_2
  10
332.26462
  20
154.15387
  42
0.34259623
  0
VERTEX
  5
2aa
  8
Layer_2
  10
331.65158
  20
154.83331
  42
0.20515711
  0
VERTEX
  5
2ab
  8
Layer_2
  10
330.57419
  20
154.70197
  42
0.35449148
  0
VERTEX
  5
2ac
  8
Layer_2
  10
330.33273
  20
153.86676
  42
0.23782976
  0
VERTEX
  5
2ad
  8
Layer_2
  10
330.92014
  20
153.44122
  42
0.014429249
  0
VERTEX
  5
2ae
  8
Layer_2
  10
331.49313
  20
153.28375
  0
VERTEX
  5
2af
  8
Layer_2
  10
331.62253
  20
153.24445
  42
-0.2143857
  0
VERTEX
  5
2b0
  8
Layer_2
  10
331.84897
  20
153.11716
  42
-0.21438684
  0
VERTEX
  5
2b1
  8
Layer_2
  10
331.90085
  20
152.86261
  42
-0.3243352
  0
VERTEX
  5
2b2
  8
Layer_2
  10
331.45505
  20
152.53741
  42
-0.26235362
  0
VERTEX
  5
2b3
  8
Layer_2
  10
330.76901
  20
152.7464
  42
-0.13118486
  0
VERTEX
  5
2b4
  8
Layer_2
  10
330.64035
  20
153.07013
  0
VERTEX
  5
2b5
  8
Layer_2
  10
330.2048
  20
153.00177
  42
0.31293295
  0
VERTEX
  5
2b6
  8
Layer_2
  10
330.86935
  20
152.22003
  42
0.081557963
  0
VERTEX
  5
2b7
  8
Layer_2
  10
331.46457
  20
152.17413
  0
SEQEND
  0
POLYLINE
  5
2b9
  8
Layer_2
  62
12
  66
1
  10
0
  20
0
  30
0
  0
VERTEX
  5
2b9
  8
Layer_2
  10
344.24826
  20
153.57404
  0
VERTEX
  5
2ba
  8
Layer_2
  10
344.25266
  20
153.74103
  42
-0.20855398
  0
VERTEX
  5
2bb
  8
Layer_2
  10
344.47433
  20
154.34894
  42
-0.3941817
  0
VERTEX
  5
2bc
  8
Layer_2
  10
345.24387
  20
154.35455
  42
-0.15523932
  0
VERTEX
  5
2bd
  8
Layer_2
  10
345.35153
  20
153.91412
  0
VERTEX
  5
2be
  8
Layer_2
  10
345.35153
  20
152.22614
  0
VERTEX
  5
2bf
  8
Layer_2
  10
345.79172
  20
152.22614
  0
VERTEX
  5
2c0
  8
Layer_2
  10
345.79172
  20
153.73566
  42
-0.19676537
  0
VERTEX
  5
2c1
  8
Layer_2
  10
345.97287
  20
154.31915
  42
-0.33075427
  0
VERTEX
  5
2c2
  8
Layer_2
  10
346.69211
  20
154.43024
  42
-0.25493631
  0
VERTEX
  5
2c3
  8
Layer_2
  10
346.88742
  20
153.98566
  42
-0.010931171
  0
VERTEX
  5
2c4
  8
Layer_2
  10
346.89011
  20
152.22614
  0
VERTEX
  5
2c5
  8
Layer_2
  10
347.32809
  20
152.22614
  0
VERTEX
  5
2c6
  8
Layer_2
  10
347.32809
  20
154.00958
  42
0.19585746
  0
VERTEX
  5
2c7
  8
Layer_2
  10
347.12009
  20
154.66876
  42
0.31736219
  0
VERTEX
  5
2c8
  8
Layer_2
  10
346.07809
  20
154.7691
  42
0.11654437
  0
VERTEX
  5
2c9
  8
Layer_2
  10
345.72336
  20
154.4278
  0
VERTEX
  5
2ca
  8
Layer_2
  10
345.67868
  20
154.5296
  42
0.31698509
  0
VERTEX
  5
2cb
  8
Layer_2
  10
344.86325
  20
154.87555
  42
0.22414312
  0
VERTEX
  5
2cc
  8
Layer_2
  10
344.20163
  20
154.45978
  0
VERTEX
  5
2cd
  8
Layer_2
  10
344.20163
  20
154.82428
  0
VERTEX
  5
2ce
  8
Layer_2
  10
343.80783
  20
154.82428
  0
VERTEX
  5
2cf
  8
Layer_2
  10
343.80783
  20
152.22614
  0
VERTEX
  5
2d0
  8
Layer_2
  10
344.24826
  20
152.22614
  0
VERTEX
  5
2d1
  8
Layer_2
  10
344.24826
  20
153.57404
  0
SEQEND
  0
POLYLINE
  5
2d3
  8
Layer_2
  62
12
  66
1
  10
0
  20
0
  30
0
  0
VERTEX
  5
2d3
  8
Layer_2
  10
321.01144
  20
152.18341
  42
0.33865563
  0
VERTEX
  5
2d4
  8
Layer_2
  10
321.88815
  20
153.12164
  0
VERTEX
  5
2d5
  8
Layer_2
  10
321.45505
  20
153.1778
  0
VERTEX
  5
2d6
  8
Layer_2
  10
321.42404
  20
153.0235
  42
-0.20337877
  0
VERTEX
  5
2d7
  8
Layer_2
  10
321.13831
  20
152.61845
  42
-0.20338234
  0
VERTEX
  5
2d8
  8
Layer_2
  10
320.64816
  20
152.54449
  42
-0.29639295
  0
VERTEX
  5
2d9
  8
Layer_2
  10
320.1279
  20
153.07574
  42
-0.16147357
  0
VERTEX
  5
2da
  8
Layer_2
  10
320.19479
  20
154.14581
  42
-0.36666489
  0
VERTEX
  5
2db
  8
Layer_2
  10
321.03049
  20
154.48785
  42
-0.26776182
  0
VERTEX
  5
2dc
  8
Layer_2
  10
321.41843
  20
153.99493
  0
VERTEX
  5
2dd
  8
Layer_2
  10
321.84665
  20
154.06085
  42
0.29109078
  0
VERTEX
  5
2de
  8
Layer_2
  10
321.19406
  20
154.82941
  42
0.32826912
  0
VERTEX
  5
2df
  8
Layer_2
  10
319.84348
  20
154.39972
  42
0.24169596
  0
VERTEX
  5
2e0
  8
Layer_2
  10
319.80759
  20
152.70929
  42
0.27736075
  0
VERTEX
  5
2e1
  8
Layer_2
  10
320.80685
  20
152.16754
  0
VERTEX
  5
2e2
  8
Layer_2
  10
321.01144
  20
152.18341
  0
SEQEND
  0
POLYLINE
  5
2e4
  8
Layer_2
  62
12
  66
1
  10
0
  20
0
  30
0
  0
VERTEX
  5
2e4
  8
Layer_2
  10
325.21017
  20
153.64508
  0
VERTEX
  5
2e5
  8
Layer_2
  10
325.22287
  20
153.87457
  42
-0.20146423
  0
VERTEX
  5
2e6
  8
Layer_2
  10
325.42987
  20
154.33018
  42
-0.20146389
  0
VERTEX
  5
2e7
  8
Layer_2
  10
325.90012
  20
154.50128
  42
-0.20260814
  0
VERTEX
  5
2e8
  8
Layer_2
  10
326.26175
  20
154.38388
  42
-0.20261001
  0
VERTEX
  5
2e9
  8
Layer_2
  10
326.4277
  20
154.04181
  42
-0.032062461
  0
VERTEX
  5
2ea
  8
Layer_2
  10
326.44064
  20
153.80646
  0
VERTEX
  5
2eb
  8
Layer_2
  10
326.44064
  20
152.22614
  0
VERTEX
  5
2ec
  8
Layer_2
  10
326.88107
  20
152.22614
  42
0.0060476691
  0
VERTEX
  5
2ed
  8
Layer_2
  10
326.87936
  20
153.96515
  42
0.28420662
  0
VERTEX
  5
2ee
  8
Layer_2
  10
326.51706
  20
154.75299
  42
0.30622602
  0
VERTEX
  5
2ef
  8
Layer_2
  10
325.32516
  20
154.64215
  0
VERTEX
  5
2f0
  8
Layer_2
  10
325.16623
  20
154.4549
  0
VERTEX
  5
2f1
  8
Layer_2
  10
325.16623
  20
154.82428
  0
VERTEX
  5
2f2
  8
Layer_2
  10
324.76974
  20
154.82428
  0
VERTEX
  5
2f3
  8
Layer_2
  10
324.76974
  20
152.22614
  0
VERTEX
  5
2f4
  8
Layer_2
  10
325.21017
  20
152.22614
  0
VERTEX
  5
2f5
  8
Layer_2
  10
325.21017
  20
153.64508
  0
SEQEND
  0
POLYLINE
  5
2f7
  8
Layer_2
  62
12
  66
1
  10
0
  20
0
  30
0
  0
VERTEX
  5
2f7
  8
Layer_2
  10
340.03976
  20
153.57404
  0
VERTEX
  5
2f8
  8
Layer_2
  10
340.04416
  20
153.74103
  42
-0.20831729
  0
VERTEX
  5
2f9
  8
Layer_2
  10
340.26608
  20
154.34894
  42
-0.39429632
  0
VERTEX
  5
2fa
  8
Layer_2
  10
341.03537
  20
154.35455
  42
-0.15621492
  0
VERTEX
  5
2fb
  8
Layer_2
  10
341.14304
  20
153.91412
  0
VERTEX
  5
2fc
  8
Layer_2
  10
341.14304
  20
152.22614
  0
VERTEX
  5
2fd
  8
Layer_2
  10
341.58347
  20
152.22614
  0
VERTEX
  5
2fe
  8
Layer_2
  10
341.58347
  20
153.73566
  42
-0.19705217
  0
VERTEX
  5
2ff
  8
Layer_2
  10
341.76437
  20
154.31915
  42
-0.33060592
  0
VERTEX
  5
300
  8
Layer_2
  10
342.48361
  20
154.43024
  42
-0.25449331
  0
VERTEX
  5
301
  8
Layer_2
  10
342.67917
  20
153.98566
  42
-0.01093583
  0
VERTEX
  5
302
  8
Layer_2
  10
342.68185
  20
152.22614
  0
VERTEX
  5
303
  8
Layer_2
  10
343.1196
  20
152.22614
  0
VERTEX
  5
304
  8
Layer_2
  10
343.1196
  20
154.00958
  42
0.1954874
  0
VERTEX
  5
305
  8
Layer_2
  10
342.91183
  20
154.66876
  42
0.31728308
  0
VERTEX
  5
306
  8
Layer_2
  10
341.8696
  20
154.7691
  42
0.11654437
  0
VERTEX
  5
307
  8
Layer_2
  10
341.51486
  20
154.4278
  0
VERTEX
  5
308
  8
Layer_2
  10
341.47018
  20
154.5296
  42
0.31699083
  0
VERTEX
  5
309
  8
Layer_2
  10
340.65475
  20
154.87555
  42
0.224356
  0
VERTEX
  5
30a
  8
Layer_2
  10
339.99338
  20
154.45978
  0
VERTEX
  5
30b
  8
Layer_2
  10
339.99338
  20
154.82428
  0
VERTEX
  5
30c
  8
Layer_2
  10
339.59933
  20
154.82428
  0
VERTEX
  5
30d
  8
Layer_2
  10
339.59933
  20
152.22614
  0
VERTEX
  5
30e
  8
Layer_2
  10
340.03976
  20
152.22614
  0
VERTEX
  5
30f
  8
Layer_2
  10
340.03976
  20
153.57404
  0
SEQEND
  0
POLYLINE
  5
311
  8
Layer_2
  62
12
  66
1
  10
0
  20
0
  30
0
  0
VERTEX
  5
311
  8
Layer_2
  10
328.88278
  20
152.18121
  42
0.32064254
  0
VERTEX
  5
312
  8
Layer_2
  10
329.80881
  20
153.00665
  0
VERTEX
  5
313
  8
Layer_2
  10
329.35397
  20
153.06281
  0
VERTEX
  5
314
  8
Layer_2
  10
329.29929
  20
152.93292
  42
-0.19898003
  0
VERTEX
  5
315
  8
Layer_2
  10
328.90683
  20
152.56694
  42
-0.19897983
  0
VERTEX
  5
316
  8
Layer_2
  10
328.37057
  20
152.58649
  42
-0.25674379
  0
VERTEX
  5
317
  8
Layer_2
  10
327.90793
  20
153.21124
  0
VERTEX
  5
318
  8
Layer_2
  10
327.88376
  20
153.41266
  0
VERTEX
  5
319
  8
Layer_2
  10
329.82126
  20
153.41266
  42
0.13954123
  0
VERTEX
  5
31a
  8
Layer_2
  10
329.63791
  20
154.33282
  42
0.27552084
  0
VERTEX
  5
31b
  8
Layer_2
  10
328.64206
  20
154.88287
  42
0.39755719
  0
VERTEX
  5
31c
  8
Layer_2
  10
327.44968
  20
153.81256
  42
0.16506589
  0
VERTEX
  5
31d
  8
Layer_2
  10
327.61642
  20
152.71173
  42
0.27348374
  0
VERTEX
  5
31e
  8
Layer_2
  10
328.66647
  20
152.16754
  0
VERTEX
  5
31f
  8
Layer_2
  10
328.88278
  20
152.18121
  0
SEQEND
  0
POLYLINE
  5
321
  8
Layer_2
  62
12
  66
1
  10
0
  20
0
  30
0
  0
VERTEX
  5
321
  8
Layer_2
  10
333.96945
  20
152.17413
  42
0.3152116
  0
VERTEX
  5
322
  8
Layer_2
  10
334.83542
  20
152.7757
  42
0.40176185
  0
VERTEX
  5
323
  8
Layer_2
  10
334.47238
  20
153.59747
  42
0.022044904
  0
VERTEX
  5
324
  8
Layer_2
  10
333.43161
  20
153.91412
  0
VERTEX
  5
325
  8
Layer_2
  10
333.332
  20
153.96686
  42
-0.40113463
  0
VERTEX
  5
326
  8
Layer_2
  10
333.24142
  20
154.31158
  42
-0.25425984
  0
VERTEX
  5
327
  8
Layer_2
  10
333.63083
  20
154.51471
  42
-0.25368203
  0
VERTEX
  5
328
  8
Layer_2
  10
334.23239
  20
154.3465
  42
-0.13970256
  0
VERTEX
  5
329
  8
Layer_2
  10
334.33908
  20
154.09528
  0
VERTEX
  5
32a
  8
Layer_2
  10
334.76974
  20
154.15387
  42
0.34237788
  0
VERTEX
  5
32b
  8
Layer_2
  10
334.15646
  20
154.83331
  42
0.2052581
  0
VERTEX
  5
32c
  8
Layer_2
  10
333.07932
  20
154.70197
  42
0.35415978
  0
VERTEX
  5
32d
  8
Layer_2
  10
332.83762
  20
153.86676
  42
0.2376292
  0
VERTEX
  5
32e
  8
Layer_2
  10
333.42526
  20
153.44122
  42
0.014687693
  0
VERTEX
  5
32f
  8
Layer_2
  10
333.99826
  20
153.28375
  0
VERTEX
  5
330
  8
Layer_2
  10
334.12766
  20
153.24445
  42
-0.21452466
  0
VERTEX
  5
331
  8
Layer_2
  10
334.354
  20
153.11711
  42
-0.21452447
  0
VERTEX
  5
332
  8
Layer_2
  10
334.40573
  20
152.86261
  42
-0.32490562
  0
VERTEX
  5
333
  8
Layer_2
  10
333.95993
  20
152.53741
  42
-0.2623401
  0
VERTEX
  5
334
  8
Layer_2
  10
333.2739
  20
152.7464
  42
-0.13184033
  0
VERTEX
  5
335
  8
Layer_2
  10
333.14548
  20
153.07013
  0
VERTEX
  5
336
  8
Layer_2
  10
332.70993
  20
153.00177
  42
0.3132701
  0
VERTEX
  5
337
  8
Layer_2
  10
333.37448
  20
152.22003
  42
0.08158315
  0
VERTEX
  5
338
  8
Layer_2
  10
333.96945
  20
152.17413
  0
SEQEND
  0
POLYLINE
  5
33a
  8
Layer_2
  62
12
  66
1
  10
0
  20
0
  30
0
  0
VERTEX
  5
33a
  8
Layer_2
  10
319.10031
  20
154.82428
  0
VERTEX
  5
33b
  8
Layer_2
  10
318.66013
  20
154.82428
  0
VERTEX
  5
33c
  8
Layer_2
  10
318.66013
  20
152.22614
  0
VERTEX
  5
33d
  8
Layer_2
  10
319.10031
  20
152.22614
  0
VERTEX
  5
33e
  8
Layer_2
  10
319.10031
  20
154.82428
  0
SEQEND
  0
POLYLINE
  5
340
  8
Layer_2
  62
12
  66
1
  10
0
  20
0
  30
0
  0
VERTEX
  5
340
  8
Layer_2
  10
327.90817
  20
153.77472
  0
VERTEX
  5
341
  8
Layer_2
  10
327.93063
  20
153.9361
  42
-0.36505933
  0
VERTEX
  5
342
  8
Layer_2
  10
328.64694
  20
154.52081
  42
-0.38113041
  0
VERTEX
  5
343
  8
Layer_2
  10
329.33737
  20
153.92828
  0
VERTEX
  5
344
  8
Layer_2
  10
329.35886
  20
153.77472
  0
VERTEX
  5
345
  8
Layer_2
  10
327.90817
  20
153.77472
  0
SEQEND
  0
POLYLINE
  5
347
  8
Layer_2
  62
12
  66
1
  10
0
  20
0
  30
0
  0
VERTEX
  5
347
  8
Layer_2
  10
350.04538
  20
152.72784
  0
VERTEX
  5
348
  8
Layer_2
  10
349.53903
  20
152.72784
  0
VERTEX
  5
349
  8
Layer_2
  10
349.53903
  20
152.22614
  0
VERTEX
  5
34a
  8
Layer_2
  10
350.04538
  20
152.22614
  0
VERTEX
  5
34b
  8
Layer_2
  10
350.04538
  20
152.72784
  0
SEQEND
  0
POLYLINE
  5
34d
  8
Layer_2
  62
12
  70
1
  66
1
  10
0
  20
0
  30
0
  0
VERTEX
  5
34d
  8
Layer_2
  10
351.44821
  20
152.72784
  0
VERTEX
  5
34e
  8
Layer_2
  10
350.94162
  20
152.72784
  0
VERTEX
  5
34f
  8
Layer_2
  10
350.94162
  20
152.22614
  0
VERTEX
  5
350
  8
Layer_2
  10
351.44821
  20
152.22614
  0
SEQEND
  0
POLYLINE
  5
352
  8
Layer_0
  62
0
  66
1
  10
0
  20
0
  30
0
  0
VERTEX
  5
352
  8
Layer_0
  10
415.25
  20
156.25
  0
VERTEX
  5
353
  8
Layer_0
  10
354.75
  20
156.25
  0
VERTEX
  5
354
  8
Layer_0
  10
354.75
  20
213.75
  0
VERTEX
  5
355
  8
Layer_0
  10
415.25
  20
213.75
  0
VERTEX
  5
356
  8
Layer_0
  10
415.25
  20
156.25
  0
SEQEND
  0
CIRCLE
  5
358
  8
Layer_0
  62
0
  10
117.84074
  20
263.68781
  30
0
  40
3.5
  0
CIRCLE
  5
358
  8
Layer_0
  62
0
  10
117.84074
  20
252.35483
  30
0
  40
3.5
  0
CIRCLE
  5
358
  8
Layer_0
  62
0
  10
117.84074
  20
241.02081
  30
0
  40
3.5
  0
CIRCLE
  5
358
  8
Layer_0
  62
0
  10
117.84074
  20
229.68782
  30
0
  40
3.5
  0
POLYLINE
  5
358
  8
Layer_0
  62
0
  66
1
  10
0
  20
0
  30
0
  0
VERTEX
  5
358
  8
Layer_0
  10
300
  20
176
  0
VERTEX
  5
359
  8
Layer_0
  10
310
  20
176
  0
VERTEX
  5
35a
  8
Layer_0
  10
300
  20
166
  0
VERTEX
  5
35b
  8
Layer_0
  10
300
  20
176
  0
SEQEND
  0
CIRCLE
  5
35d
  8
Layer_0
  62
0
  10
303
  20
173
  30
0
  40
1.25
  0
POLYLINE
  5
35d
  8
Layer_0
  62
0
  66
1
  10
0
  20
0
  30
0
  0
VERTEX
  5
35d
  8
Layer_0
  10
300
  20
201
  0
VERTEX
  5
35e
  8
Layer_0
  10
310
  20
201
  0
VERTEX
  5
35f
  8
Layer_0
  10
300
  20
191
  0
VERTEX
  5
360
  8
Layer_0
  10
300
  20
201
  0
SEQEND
  0
CIRCLE
  5
362
  8
Layer_0
  62
0
  10
303
  20
198
  30
0
  40
1.25
  0
POLYLINE
  5
362
  8
Layer_0
  62
0
  66
1
  10
0
  20
0
  30
0
  0
VERTEX
  5
362
  8
Layer_0
  10
300
  20
214
  0
VERTEX
  5
363
  8
Layer_0
  10
310
  20
214
  0
VERTEX
  5
364
  8
Layer_0
  10
300
  20
204
  0
VERTEX
  5
365
  8
Layer_0
  10
300
  20
214
  0
SEQEND
  0
CIRCLE
  5
367
  8
Layer_0
  62
0
  10
303
  20
211
  30
0
  40
1.25
  0
POLYLINE
  5
367
  8
Layer_0
  62
0
  66
1
  10
0
  20
0
  30
0
  0
VERTEX
  5
367
  8
Layer_0
  10
300
  20
190
  0
VERTEX
  5
368
  8
Layer_0
  10
310
  20
190
  0
VERTEX
  5
369
  8
Layer_0
  10
300
  20
180
  0
VERTEX
  5
36a
  8
Layer_0
  10
300
  20
190
  0
SEQEND
  0
CIRCLE
  5
36c
  8
Layer_0
  62
0
  10
303
  20
187
  30
0
  40
1.25
  0
POLYLINE
  5
36c
  8
Layer_1
  62
52
  66
1
  10
0
  20
0
  30
0
  0
VERTEX
  5
36c
  8
Layer_1
  10
34.840729
  20
218.68787
  0
VERTEX
  5
36d
  8
Layer_1
  10
44.840729
  20
218.68787
  0
VERTEX
  5
36e
  8
Layer_1
  10
34.840729
  20
228.68787
  0
VERTEX
  5
36f
  8
Layer_1
  10
34.840729
  20
218.68787
  0
SEQEND
  0
CIRCLE
  5
371
  8
Layer_1
  62
52
  10
37.840729
  20
221.68787
  30
0
  40
1.25
  0
CIRCLE
  5
371
  8
Layer_0
  62
0
  10
37.840729
  20
221.68787
  30
0
  40
1.25
  0
POLYLINE
  5
371
  8
Layer_1
  62
52
  66
1
  10
0
  20
0
  30
0
  0
VERTEX
  5
371
  8
Layer_1
  10
34.840729
  20
276.68781
  0
VERTEX
  5
372
  8
Layer_1
  10
44.840729
  20
276.68781
  0
VERTEX
  5
373
  8
Layer_1
  10
34.840729
  20
266.68781
  0
VERTEX
  5
374
  8
Layer_1
  10
34.840729
  20
276.68781
  0
SEQEND
  0
CIRCLE
  5
376
  8
Layer_1
  62
52
  10
37.840729
  20
273.68781
  30
0
  40
1.25
  0
CIRCLE
  5
376
  8
Layer_0
  62
0
  10
37.840729
  20
273.68781
  30
0
  40
1.25
  0
POLYLINE
  5
376
  8
Layer_1
  62
52
  66
1
  10
0
  20
0
  30
0
  0
VERTEX
  5
376
  8
Layer_1
  10
308.8407
  20
276.68781
  0
VERTEX
  5
377
  8
Layer_1
  10
298.8407
  20
276.68781
  0
VERTEX
  5
378
  8
Layer_1
  10
308.8407
  20
266.68781
  0
VERTEX
  5
379
  8
Layer_1
  10
308.8407
  20
276.68781
  0
SEQEND
  0
CIRCLE
  5
37b
  8
Layer_1
  62
52
  10
305.8407
  20
273.68781
  30
0
  40
1.25
  0
CIRCLE
  5
37b
  8
Layer_0
  62
0
  10
305.8407
  20
273.68781
  30
0
  40
1.25
  0
POLYLINE
  5
37b
  8
Layer_1
  62
52
  66
1
  10
0
  20
0
  30
0
  0
VERTEX
  5
37b
  8
Layer_1
  10
308.8407
  20
218.68787
  0
VERTEX
  5
37c
  8
Layer_1
  10
298.8407
  20
218.68787
  0
VERTEX
  5
37d
  8
Layer_1
  10
308.8407
  20
228.68787
  0
VERTEX
  5
37e
  8
Layer_1
  10
308.8407
  20
218.68787
  0
SEQEND
  0
CIRCLE
  5
380
  8
Layer_1
  62
52
  10
305.8407
  20
221.68787
  30
0
  40
1.25
  0
CIRCLE
  5
380
  8
Layer_0
  62
0
  10
305.8407
  20
221.68787
  30
0
  40
1.25
  0
POLYLINE
  5
380
  8
Layer_1
  62
52
  66
1
  10
0
  20
0
  30
0
  0
VERTEX
  5
380
  8
Layer_1
  10
311.54071
  20
215.93782
  0
VERTEX
  5
381
  8
Layer_1
  10
32.140762
  20
215.93782
  0
VERTEX
  5
382
  8
Layer_1
  10
32.140762
  20
279.43781
  0
VERTEX
  5
383
  8
Layer_1
  10
311.54071
  20
279.43781
  0
VERTEX
  5
384
  8
Layer_1
  10
311.54071
  20
215.93782
  0
SEQEND
  0
POLYLINE
  5
386
  8
Layer_2
  62
12
  66
1
  10
0
  20
0
  30
0
  0
VERTEX
  5
386
  8
Layer_2
  10
193.81662
  20
258.95474
  42
0.33291906
  0
VERTEX
  5
387
  8
Layer_2
  10
195.24387
  20
260.27066
  42
0.2368865
  0
VERTEX
  5
388
  8
Layer_2
  10
194.8342
  20
262.12418
  42
0.38585243
  0
VERTEX
  5
389
  8
Layer_2
  10
192.47849
  20
262.25845
  42
0.22501739
  0
VERTEX
  5
38a
  8
Layer_2
  10
191.87595
  20
260.74503
  42
0.26094279
  0
VERTEX
  5
38b
  8
Layer_2
  10
192.68405
  20
259.18497
  42
0.16859328
  0
VERTEX
  5
38c
  8
Layer_2
  10
193.81662
  20
258.95474
  0
SEQEND
  0
POLYLINE
  5
38e
  8
Layer_2
  62
12
  66
1
  10
0
  20
0
  30
0
  0
VERTEX
  5
38e
  8
Layer_2
  10
193.33371
  20
259.36929
  0
VERTEX
  5
38f
  8
Layer_2
  10
193.10446
  20
259.43912
  42
-0.26429961
  0
VERTEX
  5
390
  8
Layer_2
  10
192.38596
  20
260.4313
  42
-0.16006012
  0
VERTEX
  5
391
  8
Layer_2
  10
192.56833
  20
261.68961
  42
-0.3663167
  0
VERTEX
  5
392
  8
Layer_2
  10
194.0842
  20
262.13589
  42
-0.25199077
  0
VERTEX
  5
393
  8
Layer_2
  10
194.77365
  20
261.19815
  42
-0.16801562
  0
VERTEX
  5
394
  8
Layer_2
  10
194.61618
  20
259.92984
  42
-0.32866917
  0
VERTEX
  5
395
  8
Layer_2
  10
193.33371
  20
259.36929
  0
SEQEND
  0
POLYLINE
  5
397
  8
Layer_2
  62
12
  70
1
  66
1
  10
0
  20
0
  30
0
  0
VERTEX
  5
397
  8
Layer_2
  10
196.30344
  20
260.41788
  0
VERTEX
  5
398
  8
Layer_2
  10
196.31613
  20
260.64688
  42
-0.20141474
  0
VERTEX
  5
399
  8
Layer_2
  10
196.52269
  20
261.1015
  42
-0.20141493
  0
VERTEX
  5
39a
  8
Layer_2
  10
196.99191
  20
261.27237
  42
-0.20262049
  0
VERTEX
  5
39b
  8
Layer_2
  10
197.35291
  20
261.15512
  42
-0.20262047
  0
VERTEX
  5
39c
  8
Layer_2
  10
197.51852
  20
260.81363
  42
-0.032117165
  0
VERTEX
  5
39d
  8
Layer_2
  10
197.53146
  20
260.57901
  0
VERTEX
  5
39e
  8
Layer_2
  10
197.53146
  20
259.00186
  0
VERTEX
  5
39f
  8
Layer_2
  10
197.97092
  20
259.00186
  42
0.0051892398
  0
VERTEX
  5
3a0
  8
Layer_2
  10
197.96945
  20
260.73721
  42
0.28413991
  0
VERTEX
  5
3a1
  8
Layer_2
  10
197.60764
  20
261.52359
  42
0.3062529
  0
VERTEX
  5
3a2
  8
Layer_2
  10
196.41818
  20
261.41299
  0
VERTEX
  5
3a3
  8
Layer_2
  10
196.25949
  20
261.22598
  0
VERTEX
  5
3a4
  8
Layer_2
  10
196.25949
  20
261.59464
  0
VERTEX
  5
3a5
  8
Layer_2
  10
195.86398
  20
261.59464
  0
VERTEX
  5
3a6
  8
Layer_2
  10
195.86398
  20
259.00186
  0
VERTEX
  5
3a7
  8
Layer_2
  10
196.30344
  20
259.00186
  0
SEQEND
  0
POLYLINE
  5
3a9
  8
Layer_2
  62
12
  66
1
  10
0
  20
0
  30
0
  0
VERTEX
  5
3a9
  8
Layer_2
  10
192.19919
  20
247.12183
  0
VERTEX
  5
3aa
  8
Layer_2
  10
193.87888
  20
247.12183
  0
VERTEX
  5
3ab
  8
Layer_2
  10
193.87888
  20
247.54419
  0
VERTEX
  5
3ac
  8
Layer_2
  10
192.19919
  20
247.54419
  0
VERTEX
  5
3ad
  8
Layer_2
  10
192.19919
  20
248.65259
  0
VERTEX
  5
3ae
  8
Layer_2
  10
194.14011
  20
248.65259
  0
VERTEX
  5
3af
  8
Layer_2
  10
194.14011
  20
249.07495
  0
VERTEX
  5
3b0
  8
Layer_2
  10
191.72556
  20
249.07495
  0
VERTEX
  5
3b1
  8
Layer_2
  10
191.72556
  20
245.49585
  0
VERTEX
  5
3b2
  8
Layer_2
  10
192.19919
  20
245.49585
  0
VERTEX
  5
3b3
  8
Layer_2
  10
192.19919
  20
247.12183
  0
SEQEND
  0
POLYLINE
  5
3b5
  8
Layer_2
  62
12
  66
1
  10
0
  20
0
  30
0
  0
VERTEX
  5
3b5
  8
Layer_2
  10
195.68283
  20
245.4585
  42
0.13531745
  0
VERTEX
  5
3b6
  8
Layer_2
  10
196.38693
  20
245.81567
  0
VERTEX
  5
3b7
  8
Layer_2
  10
196.41867
  20
245.64404
  0
VERTEX
  5
3b8
  8
Layer_2
  10
196.47482
  20
245.49585
  0
VERTEX
  5
3b9
  8
Layer_2
  10
196.93381
  20
245.49585
  0
VERTEX
  5
3ba
  8
Layer_2
  10
196.86447
  20
245.64819
  42
-0.069229622
  0
VERTEX
  5
3bb
  8
Layer_2
  10
196.79465
  20
246.58228
  0
VERTEX
  5
3bc
  8
Layer_2
  10
196.79465
  20
247.16821
  42
0.17298697
  0
VERTEX
  5
3bd
  8
Layer_2
  10
196.63596
  20
247.87256
  42
0.2051482
  0
VERTEX
  5
3be
  8
Layer_2
  10
195.79123
  20
248.14722
  42
0.18434668
  0
VERTEX
  5
3bf
  8
Layer_2
  10
194.88913
  20
247.87451
  42
0.15349092
  0
VERTEX
  5
3c0
  8
Layer_2
  10
194.6218
  20
247.34888
  0
VERTEX
  5
3c1
  8
Layer_2
  10
195.05148
  20
247.29028
  0
VERTEX
  5
3c2
  8
Layer_2
  10
195.09152
  20
247.41772
  42
-0.33137574
  0
VERTEX
  5
3c3
  8
Layer_2
  10
195.58273
  20
247.77661
  42
-0.20818305
  0
VERTEX
  5
3c4
  8
Layer_2
  10
196.22824
  20
247.63452
  42
-0.21236859
  0
VERTEX
  5
3c5
  8
Layer_2
  10
196.35031
  20
247.14136
  42
-0.035922281
  0
VERTEX
  5
3c6
  8
Layer_2
  10
195.24875
  20
246.94092
  0
VERTEX
  5
3c7
  8
Layer_2
  10
195.17599
  20
246.92407
  42
0.19867882
  0
VERTEX
  5
3c8
  8
Layer_2
  10
194.68088
  20
246.6024
  42
0.19867875
  0
VERTEX
  5
3c9
  8
Layer_2
  10
194.56027
  20
246.02441
  42
0.33442376
  0
VERTEX
  5
3ca
  8
Layer_2
  10
195.23093
  20
245.4502
  42
0.074510856
  0
VERTEX
  5
3cb
  8
Layer_2
  10
195.68283
  20
245.4585
  0
SEQEND
  0
POLYLINE
  5
3cd
  8
Layer_2
  62
12
  66
1
  10
0
  20
0
  30
0
  0
VERTEX
  5
3cd
  8
Layer_2
  10
197.9343
  20
246.91187
  0
VERTEX
  5
3ce
  8
Layer_2
  10
197.94724
  20
247.14087
  42
-0.20146551
  0
VERTEX
  5
3cf
  8
Layer_2
  10
198.15366
  20
247.59546
  42
-0.20146582
  0
VERTEX
  5
3d0
  8
Layer_2
  10
198.62277
  20
247.76636
  42
-0.20247785
  0
VERTEX
  5
3d1
  8
Layer_2
  10
198.9838
  20
247.64908
  42
-0.20247706
  0
VERTEX
  5
3d2
  8
Layer_2
  10
199.14963
  20
247.30762
  42
-0.031001742
  0
VERTEX
  5
3d3
  8
Layer_2
  10
199.16232
  20
247.073
  0
VERTEX
  5
3d4
  8
Layer_2
  10
199.16232
  20
245.49585
  0
VERTEX
  5
3d5
  8
Layer_2
  10
199.60178
  20
245.49585
  42
0.0051892375
  0
VERTEX
  5
3d6
  8
Layer_2
  10
199.60031
  20
247.2312
  42
0.28391614
  0
VERTEX
  5
3d7
  8
Layer_2
  10
199.23874
  20
248.01758
  42
0.30618648
  0
VERTEX
  5
3d8
  8
Layer_2
  10
198.04904
  20
247.90698
  0
VERTEX
  5
3d9
  8
Layer_2
  10
197.89035
  20
247.71997
  0
VERTEX
  5
3da
  8
Layer_2
  10
197.89035
  20
248.08862
  0
VERTEX
  5
3db
  8
Layer_2
  10
197.49484
  20
248.08862
  0
VERTEX
  5
3dc
  8
Layer_2
  10
197.49484
  20
245.49585
  0
VERTEX
  5
3dd
  8
Layer_2
  10
197.9343
  20
245.49585
  0
VERTEX
  5
3de
  8
Layer_2
  10
197.9343
  20
246.91187
  0
SEQEND
  0
POLYLINE
  5
3e0
  8
Layer_2
  62
12
  70
1
  66
1
  10
0
  20
0
  30
0
  0
VERTEX
  5
3e0
  8
Layer_2
  10
195.41672
  20
245.78882
  0
VERTEX
  5
3e1
  8
Layer_2
  10
195.31174
  20
245.81079
  42
-0.2030765
  0
VERTEX
  5
3e2
  8
Layer_2
  10
195.06656
  20
245.99611
  42
-0.2030769
  0
VERTEX
  5
3e3
  8
Layer_2
  10
195.03
  20
246.30127
  42
-0.29787728
  0
VERTEX
  5
3e4
  8
Layer_2
  10
195.50681
  20
246.61084
  0
VERTEX
  5
3e5
  8
Layer_2
  10
195.85666
  20
246.66699
  42
0.053023131
  0
VERTEX
  5
3e6
  8
Layer_2
  10
196.35031
  20
246.79712
  42
-0.16174014
  0
VERTEX
  5
3e7
  8
Layer_2
  10
196.22653
  20
246.10522
  42
-0.27565203
  0
SEQEND
  0
POLYLINE
  5
3e9
  8
Layer_2
  62
12
  66
1
  10
0
  20
0
  30
0
  0
VERTEX
  5
3e9
  8
Layer_2
  10
194.13884
  20
231.20822
  0
VERTEX
  5
3ea
  8
Layer_2
  10
192.37614
  20
231.20822
  0
VERTEX
  5
3eb
  8
Layer_2
  10
192.37614
  20
234.36496
  0
VERTEX
  5
3ec
  8
Layer_2
  10
191.90251
  20
234.36496
  0
VERTEX
  5
3ed
  8
Layer_2
  10
191.90251
  20
230.78586
  0
VERTEX
  5
3ee
  8
Layer_2
  10
194.13884
  20
230.78586
  0
VERTEX
  5
3ef
  8
Layer_2
  10
194.13884
  20
231.20822
  0
SEQEND
  0
POLYLINE
  5
3f1
  8
Layer_2
  62
12
  66
1
  10
0
  20
0
  30
0
  0
VERTEX
  5
3f1
  8
Layer_2
  10
195.10783
  20
234.36496
  0
VERTEX
  5
3f2
  8
Layer_2
  10
194.66838
  20
234.36496
  0
VERTEX
  5
3f3
  8
Layer_2
  10
194.66838
  20
233.85959
  0
VERTEX
  5
3f4
  8
Layer_2
  10
195.10783
  20
233.85959
  0
VERTEX
  5
3f5
  8
Layer_2
  10
195.10783
  20
234.36496
  0
SEQEND
  0
POLYLINE
  5
3f7
  8
Layer_2
  62
12
  66
1
  10
0
  20
0
  30
0
  0
VERTEX
  5
3f7
  8
Layer_2
  10
198.95549
  20
232.20432
  0
VERTEX
  5
3f8
  8
Layer_2
  10
198.95988
  20
232.3486
  42
-0.20768475
  0
VERTEX
  5
3f9
  8
Layer_2
  10
199.14539
  20
232.85278
  42
-0.20768505
  0
VERTEX
  5
3fa
  8
Layer_2
  10
199.64153
  20
233.05881
  42
-0.20459525
  0
VERTEX
  5
3fb
  8
Layer_2
  10
200.01311
  20
232.93657
  42
-0.20459548
  0
VERTEX
  5
3fc
  8
Layer_2
  10
200.17937
  20
232.58249
  0
VERTEX
  5
3fd
  8
Layer_2
  10
200.1884
  20
232.42892
  0
VERTEX
  5
3fe
  8
Layer_2
  10
200.1884
  20
230.78586
  0
VERTEX
  5
3ff
  8
Layer_2
  10
200.62785
  20
230.78586
  42
0.016344783
  0
VERTEX
  5
400
  8
Layer_2
  10
200.62199
  20
232.60812
  42
0.19941848
  0
VERTEX
  5
401
  8
Layer_2
  10
200.41911
  20
233.17682
  42
0.19941848
  0
VERTEX
  5
402
  8
Layer_2
  10
199.87102
  20
233.43015
  42
0.25996516
  0
VERTEX
  5
403
  8
Layer_2
  10
198.95549
  20
233.08078
  0
VERTEX
  5
404
  8
Layer_2
  10
198.95549
  20
234.36496
  0
VERTEX
  5
405
  8
Layer_2
  10
198.51604
  20
234.36496
  0
VERTEX
  5
406
  8
Layer_2
  10
198.51604
  20
230.78586
  0
VERTEX
  5
407
  8
Layer_2
  10
198.95549
  20
230.78586
  0
VERTEX
  5
408
  8
Layer_2
  10
198.95549
  20
232.20432
  0
SEQEND
  0
POLYLINE
  5
40a
  8
Layer_2
  62
12
  66
1
  10
0
  20
0
  30
0
  0
VERTEX
  5
40a
  8
Layer_2
  10
202.16301
  20
230.76144
  0
VERTEX
  5
40b
  8
Layer_2
  10
202.33879
  20
230.79074
  0
VERTEX
  5
40c
  8
Layer_2
  10
202.27531
  20
231.17892
  0
VERTEX
  5
40d
  8
Layer_2
  10
202.1674
  20
231.16599
  42
-0.36718879
  0
VERTEX
  5
40e
  8
Layer_2
  10
201.85661
  20
231.27902
  42
-0.07894347
  0
VERTEX
  5
40f
  8
Layer_2
  10
201.83342
  20
231.52072
  0
VERTEX
  5
410
  8
Layer_2
  10
201.83342
  20
233.03683
  0
VERTEX
  5
411
  8
Layer_2
  10
202.27531
  20
233.03683
  0
VERTEX
  5
412
  8
Layer_2
  10
202.27531
  20
233.37863
  0
VERTEX
  5
413
  8
Layer_2
  10
201.83342
  20
233.37863
  0
VERTEX
  5
414
  8
Layer_2
  10
201.83342
  20
234.28439
  0
VERTEX
  5
415
  8
Layer_2
  10
201.39641
  20
234.02072
  0
VERTEX
  5
416
  8
Layer_2
  10
201.39641
  20
233.37863
  0
VERTEX
  5
417
  8
Layer_2
  10
201.07414
  20
233.37863
  0
VERTEX
  5
418
  8
Layer_2
  10
201.07414
  20
233.03683
  0
VERTEX
  5
419
  8
Layer_2
  10
201.39641
  20
233.03683
  0
VERTEX
  5
41a
  8
Layer_2
  10
201.39641
  20
231.54514
  42
0.083018943
  0
VERTEX
  5
41b
  8
Layer_2
  10
201.45012
  20
231.02634
  42
0.30377003
  0
VERTEX
  5
41c
  8
Layer_2
  10
202.00676
  20
230.75168
  0
VERTEX
  5
41d
  8
Layer_2
  10
202.16301
  20
230.76144
  0
SEQEND
  0
POLYLINE
  5
41f
  8
Layer_2
  62
12
  66
1
  10
0
  20
0
  30
0
  0
VERTEX
  5
41f
  8
Layer_2
  10
196.89836
  20
229.74265
  42
0.38211759
  0
VERTEX
  5
420
  8
Layer_2
  10
197.85173
  20
230.62009
  42
0.034967916
  0
VERTEX
  5
421
  8
Layer_2
  10
197.88274
  20
231.13742
  0
VERTEX
  5
422
  8
Layer_2
  10
197.88274
  20
233.37863
  0
VERTEX
  5
423
  8
Layer_2
  10
197.47746
  20
233.37863
  0
VERTEX
  5
424
  8
Layer_2
  10
197.47746
  20
233.06613
  0
VERTEX
  5
425
  8
Layer_2
  10
197.31828
  20
233.22849
  42
0.40457378
  0
VERTEX
  5
426
  8
Layer_2
  10
195.89616
  20
233.05978
  42
0.31638919
  0
VERTEX
  5
427
  8
Layer_2
  10
195.89055
  20
231.1716
  42
0.34135969
  0
VERTEX
  5
428
  8
Layer_2
  10
197.11247
  20
230.87057
  42
0.10675489
  0
VERTEX
  5
429
  8
Layer_2
  10
197.43596
  20
231.12521
  42
-0.10731541
  0
VERTEX
  5
42a
  8
Layer_2
  10
197.36809
  20
230.45749
  42
-0.32272965
  0
VERTEX
  5
42b
  8
Layer_2
  10
196.70842
  20
230.09738
  42
-0.28038311
  0
VERTEX
  5
42c
  8
Layer_2
  10
196.16325
  20
230.33664
  42
-0.086384191
  0
VERTEX
  5
42d
  8
Layer_2
  10
196.11272
  20
230.50754
  0
VERTEX
  5
42e
  8
Layer_2
  10
195.68547
  20
230.57101
  42
0.32776894
  0
VERTEX
  5
42f
  8
Layer_2
  10
196.11516
  20
229.85104
  42
0.132003
  0
VERTEX
  5
430
  8
Layer_2
  10
196.89836
  20
229.74265
  0
SEQEND
  0
POLYLINE
  5
432
  8
Layer_2
  62
12
  66
1
  10
0
  20
0
  30
0
  0
VERTEX
  5
432
  8
Layer_2
  10
203.79729
  20
230.73386
  42
0.31511821
  0
VERTEX
  5
433
  8
Layer_2
  10
204.66154
  20
231.3342
  42
0.40163789
  0
VERTEX
  5
434
  8
Layer_2
  10
204.29924
  20
232.15427
  42
0.022281912
  0
VERTEX
  5
435
  8
Layer_2
  10
203.26042
  20
232.47043
  0
VERTEX
  5
436
  8
Layer_2
  10
203.16081
  20
232.52292
  42
-0.39948604
  0
VERTEX
  5
437
  8
Layer_2
  10
203.07048
  20
232.86716
  42
-0.25413226
  0
VERTEX
  5
438
  8
Layer_2
  10
203.45915
  20
233.06955
  42
-0.25349016
  0
VERTEX
  5
439
  8
Layer_2
  10
204.05974
  20
232.90207
  42
-0.13716635
  0
VERTEX
  5
43a
  8
Layer_2
  10
204.16618
  20
232.65109
  0
VERTEX
  5
43b
  8
Layer_2
  10
204.59587
  20
232.70969
  42
0.34253862
  0
VERTEX
  5
43c
  8
Layer_2
  10
203.98381
  20
233.38766
  42
0.20536546
  0
VERTEX
  5
43d
  8
Layer_2
  10
202.90886
  20
233.25656
  42
0.3543679
  0
VERTEX
  5
43e
  8
Layer_2
  10
202.66765
  20
232.42307
  42
0.23783571
  0
VERTEX
  5
43f
  8
Layer_2
  10
203.25407
  20
231.99826
  42
0.013344905
  0
VERTEX
  5
440
  8
Layer_2
  10
203.82585
  20
231.84128
  0
VERTEX
  5
441
  8
Layer_2
  10
203.955
  20
231.80197
  42
-0.21462064
  0
VERTEX
  5
442
  8
Layer_2
  10
204.18098
  20
231.67493
  42
-0.2146136
  0
VERTEX
  5
443
  8
Layer_2
  10
204.23259
  20
231.42087
  42
-0.32472921
  0
VERTEX
  5
444
  8
Layer_2
  10
203.78777
  20
231.09641
  42
-0.26271437
  0
VERTEX
  5
445
  8
Layer_2
  10
203.1032
  20
231.3049
  42
-0.13221585
  0
VERTEX
  5
446
  8
Layer_2
  10
202.97478
  20
231.62814
  0
VERTEX
  5
447
  8
Layer_2
  10
202.54021
  20
231.55978
  42
0.31339932
  0
VERTEX
  5
448
  8
Layer_2
  10
203.20329
  20
230.77975
  42
0.081727529
  0
VERTEX
  5
449
  8
Layer_2
  10
203.79729
  20
230.73386
  0
SEQEND
  0
POLYLINE
  5
44b
  8
Layer_2
  62
12
  66
1
  10
0
  20
0
  30
0
  0
VERTEX
  5
44b
  8
Layer_2
  10
195.10783
  20
233.37863
  0
VERTEX
  5
44c
  8
Layer_2
  10
194.66838
  20
233.37863
  0
VERTEX
  5
44d
  8
Layer_2
  10
194.66838
  20
230.78586
  0
VERTEX
  5
44e
  8
Layer_2
  10
195.10783
  20
230.78586
  0
VERTEX
  5
44f
  8
Layer_2
  10
195.10783
  20
233.37863
  0
SEQEND
  0
POLYLINE
  5
451
  8
Layer_2
  62
12
  70
1
  66
1
  10
0
  20
0
  30
0
  0
VERTEX
  5
451
  8
Layer_2
  10
196.61345
  20
231.16428
  0
VERTEX
  5
452
  8
Layer_2
  10
196.48015
  20
231.20822
  42
-0.27249696
  0
VERTEX
  5
453
  8
Layer_2
  10
196.06169
  20
231.89084
  42
-0.14169566
  0
VERTEX
  5
454
  8
Layer_2
  10
196.16447
  20
232.70187
  42
-0.34706624
  0
VERTEX
  5
455
  8
Layer_2
  10
196.89568
  20
233.05832
  42
-0.32747435
  0
VERTEX
  5
456
  8
Layer_2
  10
197.4594
  20
232.33737
  42
-0.13823111
  0
VERTEX
  5
457
  8
Layer_2
  10
197.3571
  20
231.51584
  42
-0.34397019
  0
SEQEND
  0
POLYLINE
  5
459
  8
Layer_2
  62
12
  66
1
  10
0
  20
0
  30
0
  0
VERTEX
  5
459
  8
Layer_2
  10
137.87762
  20
264.98462
  0
VERTEX
  5
45a
  8
Layer_2
  10
137.59442
  20
264.98462
  0
VERTEX
  5
45b
  8
Layer_2
  10
137.52679
  20
264.86768
  42
-0.13063792
  0
VERTEX
  5
45c
  8
Layer_2
  10
136.55927
  20
264.08618
  0
VERTEX
  5
45d
  8
Layer_2
  10
136.55927
  20
263.66138
  42
0.087475064
  0
VERTEX
  5
45e
  8
Layer_2
  10
137.43817
  20
264.19116
  0
VERTEX
  5
45f
  8
Layer_2
  10
137.43817
  20
261.39087
  0
VERTEX
  5
460
  8
Layer_2
  10
137.87762
  20
261.39087
  0
VERTEX
  5
461
  8
Layer_2
  10
137.87762
  20
264.98462
  0
SEQEND
  0
POLYLINE
  5
463
  8
Layer_2
  62
12
  66
1
  10
0
  20
0
  30
0
  0
VERTEX
  5
463
  8
Layer_2
  10
138.40193
  20
250.81319
  0
VERTEX
  5
464
  8
Layer_2
  10
136.64656
  20
250.81319
  0
VERTEX
  5
465
  8
Layer_2
  10
136.72957
  20
250.93257
  42
-0.028094406
  0
VERTEX
  5
466
  8
Layer_2
  10
137.74593
  20
251.85933
  0
VERTEX
  5
467
  8
Layer_2
  10
137.89851
  20
252.00606
  42
0.14656994
  0
VERTEX
  5
468
  8
Layer_2
  10
138.37508
  20
252.77803
  42
0.38486646
  0
VERTEX
  5
469
  8
Layer_2
  10
137.74275
  20
253.91328
  42
0.25035762
  0
VERTEX
  5
46a
  8
Layer_2
  10
136.46834
  20
253.71968
  42
0.19746383
  0
VERTEX
  5
46b
  8
Layer_2
  10
136.11922
  20
252.94942
  0
VERTEX
  5
46c
  8
Layer_2
  10
136.57088
  20
252.90303
  0
VERTEX
  5
46d
  8
Layer_2
  10
136.58382
  20
253.06221
  42
-0.39365757
  0
VERTEX
  5
46e
  8
Layer_2
  10
137.27156
  20
253.6208
  42
-0.20655505
  0
VERTEX
  5
46f
  8
Layer_2
  10
137.74242
  20
253.45628
  42
-0.20655518
  0
VERTEX
  5
470
  8
Layer_2
  10
137.94539
  20
253.00069
  42
-0.18087201
  0
VERTEX
  5
471
  8
Layer_2
  10
137.61409
  20
252.32002
  42
-0.026344713
  0
VERTEX
  5
472
  8
Layer_2
  10
136.61995
  20
251.42476
  0
VERTEX
  5
473
  8
Layer_2
  10
136.48714
  20
251.2939
  42
0.19686844
  0
VERTEX
  5
474
  8
Layer_2
  10
136.03621
  20
250.39082
  0
VERTEX
  5
475
  8
Layer_2
  10
138.40193
  20
250.39082
  0
VERTEX
  5
476
  8
Layer_2
  10
138.40193
  20
250.81319
  0
SEQEND
  0
POLYLINE
  5
478
  8
Layer_2
  62
12
  66
1
  10
0
  20
0
  30
0
  0
VERTEX
  5
478
  8
Layer_2
  10
137.43427
  20
238.3746
  42
0.23595414
  0
VERTEX
  5
479
  8
Layer_2
  10
138.25252
  20
238.93742
  42
0.23595397
  0
VERTEX
  5
47a
  8
Layer_2
  10
138.29169
  20
239.92978
  42
0.2283183
  0
VERTEX
  5
47b
  8
Layer_2
  10
137.72162
  20
240.35629
  0
VERTEX
  5
47c
  8
Layer_2
  10
137.83612
  20
240.41733
  42
0.38610215
  0
VERTEX
  5
47d
  8
Layer_2
  10
138.1413
  20
241.43246
  42
0.34177483
  0
VERTEX
  5
47e
  8
Layer_2
  10
136.96356
  20
241.99643
  42
0.33616076
  0
VERTEX
  5
47f
  8
Layer_2
  10
136.09076
  20
241.08383
  0
VERTEX
  5
480
  8
Layer_2
  10
136.53021
  20
241.00571
  0
VERTEX
  5
481
  8
Layer_2
  10
136.56219
  20
241.15683
  42
-0.19781075
  0
VERTEX
  5
482
  8
Layer_2
  10
136.83122
  20
241.55142
  42
-0.19781078
  0
VERTEX
  5
483
  8
Layer_2
  10
137.30048
  20
241.64023
  42
-0.37881456
  0
VERTEX
  5
484
  8
Layer_2
  10
137.76312
  20
241.09116
  42
-0.37185922
  0
VERTEX
  5
485
  8
Layer_2
  10
137.29974
  20
240.52963
  42
-0.10159768
  0
VERTEX
  5
486
  8
Layer_2
  10
136.96234
  20
240.49789
  0
VERTEX
  5
487
  8
Layer_2
  10
136.91351
  20
240.11215
  0
VERTEX
  5
488
  8
Layer_2
  10
137.08368
  20
240.14877
  42
-0.2029807
  0
VERTEX
  5
489
  8
Layer_2
  10
137.61208
  20
240.0551
  42
-0.20298069
  0
VERTEX
  5
48a
  8
Layer_2
  10
137.9118
  20
239.60995
  42
-0.19921141
  0
VERTEX
  5
48b
  8
Layer_2
  10
137.80627
  20
239.05113
  42
-0.19921123
  0
VERTEX
  5
48c
  8
Layer_2
  10
137.33588
  20
238.73154
  42
-0.19853067
  0
VERTEX
  5
48d
  8
Layer_2
  10
136.82599
  20
238.82199
  42
-0.19853073
  0
VERTEX
  5
48e
  8
Layer_2
  10
136.5307
  20
239.24741
  0
VERTEX
  5
48f
  8
Layer_2
  10
136.48627
  20
239.42123
  0
VERTEX
  5
490
  8
Layer_2
  10
136.04681
  20
239.36264
  42
0.29614847
  0
VERTEX
  5
491
  8
Layer_2
  10
136.75311
  20
238.42441
  42
0.12266589
  0
VERTEX
  5
492
  8
Layer_2
  10
137.43427
  20
238.3746
  0
SEQEND
  0
POLYLINE
  5
494
  8
Layer_2
  62
12
  66
1
  10
0
  20
0
  30
0
  0
VERTEX
  5
494
  8
Layer_2
  10
137.97351
  20
228.25476
  0
VERTEX
  5
495
  8
Layer_2
  10
138.45691
  20
228.25476
  0
VERTEX
  5
496
  8
Layer_2
  10
138.45691
  20
228.65759
  0
VERTEX
  5
497
  8
Layer_2
  10
137.97351
  20
228.65759
  0
VERTEX
  5
498
  8
Layer_2
  10
137.97351
  20
230.97693
  0
VERTEX
  5
499
  8
Layer_2
  10
137.61462
  20
230.97693
  0
VERTEX
  5
49a
  8
Layer_2
  10
135.98132
  20
228.65759
  0
VERTEX
  5
49b
  8
Layer_2
  10
135.98132
  20
228.25476
  0
VERTEX
  5
49c
  8
Layer_2
  10
137.53406
  20
228.25476
  0
VERTEX
  5
49d
  8
Layer_2
  10
137.53406
  20
227.39783
  0
VERTEX
  5
49e
  8
Layer_2
  10
137.97351
  20
227.39783
  0
VERTEX
  5
49f
  8
Layer_2
  10
137.97351
  20
228.25476
  0
SEQEND
  0
POLYLINE
  5
4a1
  8
Layer_2
  62
12
  70
1
  66
1
  10
0
  20
0
  30
0
  0
VERTEX
  5
4a1
  8
Layer_2
  10
136.41345
  20
228.65759
  0
VERTEX
  5
4a2
  8
Layer_2
  10
137.53406
  20
230.27136
  0
VERTEX
  5
4a3
  8
Layer_2
  10
137.53406
  20
228.65759
  0
SEQEND
  0
POLYLINE
  5
4a5
  8
Layer_0
  62
0
  66
1
  10
0
  20
0
  30
0
  0
VERTEX
  5
4a5
  8
Layer_0
  10
363.40002
  20
80
  0
VERTEX
  5
4a6
  8
Layer_0
  10
300.59998
  20
80
  0
VERTEX
  5
4a7
  8
Layer_0
  10
300.59998
  20
134
  0
VERTEX
  5
4a8
  8
Layer_0
  10
363.40002
  20
134
  0
VERTEX
  5
4a9
  8
Layer_0
  10
363.40002
  20
80
  0
SEQEND
  0
POLYLINE
  5
4ab
  8
Layer_0
  62
0
  66
1
  10
0
  20
0
  30
0
  0
VERTEX
  5
4ab
  8
Layer_0
  10
363.40002
  20
26
  0
VERTEX
  5
4ac
  8
Layer_0
  10
300.59998
  20
26
  0
VERTEX
  5
4ad
  8
Layer_0
  10
300.59998
  20
80
  0
VERTEX
  5
4ae
  8
Layer_0
  10
363.40002
  20
80
  0
VERTEX
  5
4af
  8
Layer_0
  10
363.40002
  20
26
  0
SEQEND
  0
POLYLINE
  5
4b1
  8
Layer_0
  62
0
  66
1
  10
0
  20
0
  30
0
  0
VERTEX
  5
4b1
  8
Layer_0
  10
292.34076
  20
227.18782
  0
VERTEX
  5
4b2
  8
Layer_0
  10
233.34076
  20
227.18782
  0
VERTEX
  5
4b3
  8
Layer_0
  10
233.34076
  20
268.18781
  0
VERTEX
  5
4b4
  8
Layer_0
  10
292.34076
  20
268.18781
  0
VERTEX
  5
4b5
  8
Layer_0
  10
292.34076
  20
227.18782
  0
SEQEND
  0
CIRCLE
  5
4b7
  8
Layer_0
  62
0
  10
291.04074
  20
270.93781
  30
0
  40
1.5
  0
CIRCLE
  5
4b7
  8
Layer_0
  62
0
  10
291.04074
  20
224.43782
  30
0
  40
1.5
  0
CIRCLE
  5
4b7
  8
Layer_0
  62
0
  10
234.64075
  20
270.93781
  30
0
  40
1.5
  0
CIRCLE
  5
4b7
  8
Layer_0
  62
0
  10
234.64075
  20
224.43782
  30
0
  40
1.5
  0
CIRCLE
  5
4b7
  8
Layer_0
  62
0
  10
214.21292
  20
260.68781
  30
0
  40
2.75
  0
CIRCLE
  5
4b7
  8
Layer_0
  62
0
  10
214.21292
  20
246.18782
  30
0
  40
2.75
  0
CIRCLE
  5
4b7
  8
Layer_0
  62
0
  10
214.21292
  20
231.68782
  30
0
  40
2.75
  0
CIRCLE
  5
4b7
  8
Layer_0
  62
0
  10
95.840744
  20
264.18781
  30
0
  40
1.25
  0
CIRCLE
  5
4b7
  8
Layer_0
  62
0
  10
95.840744
  20
230.18782
  30
0
  40
1.25
  0
CIRCLE
  5
4b7
  8
Layer_0
  62
0
  10
52.340744
  20
264.18781
  30
0
  40
1.25
  0
CIRCLE
  5
4b7
  8
Layer_0
  62
0
  10
52.340744
  20
230.18782
  30
0
  40
1.25
  0
CIRCLE
  5
4b7
  8
Layer_0
  62
0
  10
19.725224
  20
222.2878
  30
0
  40
2.0250008
  0
CIRCLE
  5
4b7
  8
Layer_0
  62
0
  10
19.725224
  20
234.98779
  30
0
  40
2.0250008
  0
CIRCLE
  5
4b7
  8
Layer_0
  62
0
  10
19.725224
  20
247.68779
  30
0
  40
2.0250008
  0
CIRCLE
  5
4b7
  8
Layer_0
  62
0
  10
19.725224
  20
260.38782
  30
0
  40
2.0250008
  0
CIRCLE
  5
4b7
  8
Layer_0
  62
0
  10
19.725224
  20
273.08777
  30
0
  40
2.0249999
  0
CIRCLE
  5
4b7
  8
Layer_0
  62
0
  10
324.24622
  20
222.2881
  30
0
  40
2.0250008
  0
CIRCLE
  5
4b7
  8
Layer_0
  62
0
  10
324.24622
  20
234.9881
  30
0
  40
2.0250008
  0
CIRCLE
  5
4b7
  8
Layer_0
  62
0
  10
324.24622
  20
247.6881
  30
0
  40
2.0250008
  0
CIRCLE
  5
4b7
  8
Layer_0
  62
0
  10
324.24622
  20
260.38812
  30
0
  40
2.0250008
  0
CIRCLE
  5
4b7
  8
Layer_0
  62
0
  10
324.24622
  20
273.08807
  30
0
  40
2.0249999
  0
ENDSEC
  0
EOF
