  0
SECTION
  2
HEADER
  9
$ACADVER
  1
AC1009
  0
ENDSEC
  0
SECTION
  2
ENTITIES
  0
POLYLINE
  5
90
  8
Layer_0
  62
0
  66
1
  10
0
  20
0
  30
0
  0
VERTEX
  5
90
  8
Layer_0
  10
314.39999
  20
218.25
  0
VERTEX
  5
91
  8
Layer_0
  10
9.6000061
  20
218.25
  0
VERTEX
  5
92
  8
Layer_0
  10
9.6000061
  20
281.75
  0
VERTEX
  5
93
  8
Layer_0
  10
314.39999
  20
281.75
  0
VERTEX
  5
94
  8
Layer_0
  10
314.39999
  20
218.25
  0
SEQEND
  0
POLYLINE
  5
96
  8
Layer_0
  62
0
  66
1
  10
0
  20
0
  30
0
  0
VERTEX
  5
96
  8
Layer_0
  10
95.5
  20
228.5
  0
VERTEX
  5
97
  8
Layer_0
  10
36.5
  20
228.5
  0
VERTEX
  5
98
  8
Layer_0
  10
36.5
  20
269.5
  0
VERTEX
  5
99
  8
Layer_0
  10
95.5
  20
269.5
  0
VERTEX
  5
9a
  8
Layer_0
  10
95.5
  20
228.5
  0
SEQEND
  0
POLYLINE
  5
9c
  8
Layer_0
  62
0
  66
1
  10
0
  20
0
  30
0
  0
VERTEX
  5
9c
  8
Layer_0
  10
392.25
  20
218.25
  0
VERTEX
  5
9d
  8
Layer_0
  10
331.75
  20
218.25
  0
VERTEX
  5
9e
  8
Layer_0
  10
331.75
  20
275.75
  0
VERTEX
  5
9f
  8
Layer_0
  10
392.25
  20
275.75
  0
VERTEX
  5
a0
  8
Layer_0
  10
392.25
  20
218.25
  0
SEQEND
  0
POLYLINE
  5
a2
  8
Layer_1
  62
52
  66
1
  10
0
  20
0
  30
0
  0
VERTEX
  5
a2
  8
Layer_1
  10
190.5
  20
229.5
  0
VERTEX
  5
a3
  8
Layer_1
  10
127.5
  20
229.5
  0
VERTEX
  5
a4
  8
Layer_1
  10
127.5
  20
270.5
  0
VERTEX
  5
a5
  8
Layer_1
  10
190.5
  20
270.5
  0
VERTEX
  5
a6
  8
Layer_1
  10
190.5
  20
229.5
  0
SEQEND
  0
CIRCLE
  5
a8
  8
Layer_0
  62
0
  10
16
  20
224.60001
  30
0
  40
1.025
  0
CIRCLE
  5
a8
  8
Layer_0
  62
0
  10
16
  20
237.3
  30
0
  40
1.025
  0
CIRCLE
  5
a8
  8
Layer_0
  62
0
  10
16
  20
250
  30
0
  40
1.025
  0
CIRCLE
  5
a8
  8
Layer_0
  62
0
  10
16
  20
262.70001
  30
0
  40
1.025
  0
CIRCLE
  5
a8
  8
Layer_0
  62
0
  10
16
  20
275.39999
  30
0
  40
1.025
  0
CIRCLE
  5
a8
  8
Layer_0
  62
0
  10
308.10001
  20
224.60001
  30
0
  40
1.025
  0
CIRCLE
  5
a8
  8
Layer_0
  62
0
  10
308.10001
  20
237.3
  30
0
  40
1.025
  0
CIRCLE
  5
a8
  8
Layer_0
  62
0
  10
308.10001
  20
250
  30
0
  40
1.025
  0
CIRCLE
  5
a8
  8
Layer_0
  62
0
  10
308.10001
  20
262.70001
  30
0
  40
1.025
  0
CIRCLE
  5
a8
  8
Layer_0
  62
0
  10
308.10001
  20
275.39999
  30
0
  40
1.025
  0
POLYLINE
  5
a8
  8
Layer_0
  62
0
  66
1
  10
0
  20
0
  30
0
  0
VERTEX
  5
a8
  8
Layer_0
  10
289.69998
  20
80.25
  0
VERTEX
  5
a9
  8
Layer_0
  10
10.300018
  20
80.25
  0
VERTEX
  5
aa
  8
Layer_0
  10
10.300018
  20
143.75
  0
VERTEX
  5
ab
  8
Layer_0
  10
289.69998
  20
143.75
  0
VERTEX
  5
ac
  8
Layer_0
  10
289.69998
  20
80.25
  0
SEQEND
  0
POLYLINE
  5
ae
  8
Layer_0
  62
0
  66
1
  10
0
  20
0
  30
0
  0
VERTEX
  5
ae
  8
Layer_0
  10
288.69998
  20
9.2500038
  0
VERTEX
  5
af
  8
Layer_0
  10
9.3000183
  20
9.2500038
  0
VERTEX
  5
b0
  8
Layer_0
  10
9.3000183
  20
72.75
  0
VERTEX
  5
b1
  8
Layer_0
  10
288.69998
  20
72.75
  0
VERTEX
  5
b2
  8
Layer_0
  10
288.69998
  20
9.2500038
  0
SEQEND
  0
CIRCLE
  5
b4
  8
Layer_0
  62
0
  10
21.112
  20
198.166
  30
0
  40
2.5
  0
CIRCLE
  5
b4
  8
Layer_0
  62
0
  10
21.112
  20
178.166
  30
0
  40
2.5
  0
POLYLINE
  5
b4
  8
Layer_0
  62
0
  66
1
  10
0
  20
0
  30
0
  0
VERTEX
  5
b4
  8
Layer_0
  10
288.69998
  20
150.25
  0
VERTEX
  5
b5
  8
Layer_0
  10
9.3000183
  20
150.25
  0
VERTEX
  5
b6
  8
Layer_0
  10
9.3000183
  20
213.75
  0
VERTEX
  5
b7
  8
Layer_0
  10
288.69998
  20
213.75
  0
VERTEX
  5
b8
  8
Layer_0
  10
288.69998
  20
150.25
  0
SEQEND
  0
POLYLINE
  5
ba
  8
Layer_2
  62
12
  66
1
  10
0
  20
0
  30
0
  0
VERTEX
  5
ba
  8
Layer_2
  10
30.703236
  20
195.31589
  42
0.14762395
  0
VERTEX
  5
bb
  8
Layer_2
  10
31.993519
  20
195.8674
  0
VERTEX
  5
bc
  8
Layer_2
  10
31.993519
  20
197.19797
  0
VERTEX
  5
bd
  8
Layer_2
  10
30.474476
  20
197.19553
  0
VERTEX
  5
be
  8
Layer_2
  10
30.474476
  20
196.77487
  0
VERTEX
  5
bf
  8
Layer_2
  10
31.528919
  20
196.77487
  0
VERTEX
  5
c0
  8
Layer_2
  10
31.528919
  20
196.1069
  42
-0.32420203
  0
VERTEX
  5
c1
  8
Layer_2
  10
29.663197
  20
195.98044
  42
-0.22321472
  0
VERTEX
  5
c2
  8
Layer_2
  10
29.176136
  20
196.94357
  42
-0.20905322
  0
VERTEX
  5
c3
  8
Layer_2
  10
29.528919
  20
198.24997
  42
-0.37132753
  0
VERTEX
  5
c4
  8
Layer_2
  10
31.24474
  20
198.33908
  42
-0.12444321
  0
VERTEX
  5
c5
  8
Layer_2
  10
31.511585
  20
197.8342
  0
VERTEX
  5
c6
  8
Layer_2
  10
31.939808
  20
197.95163
  42
0.32976328
  0
VERTEX
  5
c7
  8
Layer_2
  10
30.842396
  20
198.9841
  42
0.20264016
  0
VERTEX
  5
c8
  8
Layer_2
  10
29.331898
  20
198.67087
  42
0.22350815
  0
VERTEX
  5
c9
  8
Layer_2
  10
28.67638
  20
197.14426
  42
0.24210405
  0
VERTEX
  5
ca
  8
Layer_2
  10
29.345814
  20
195.65915
  42
0.17859656
  0
VERTEX
  5
cb
  8
Layer_2
  10
30.703236
  20
195.31589
  0
SEQEND
  0
POLYLINE
  5
cd
  8
Layer_2
  62
12
  66
1
  10
0
  20
0
  30
0
  0
VERTEX
  5
cd
  8
Layer_2
  10
36.637562
  20
195.33371
  42
0.2020466
  0
VERTEX
  5
ce
  8
Layer_2
  10
37.139027
  20
195.69601
  0
VERTEX
  5
cf
  8
Layer_2
  10
37.139027
  20
195.36813
  0
VERTEX
  5
d0
  8
Layer_2
  10
37.547474
  20
195.36813
  0
VERTEX
  5
d1
  8
Layer_2
  10
37.547474
  20
198.95456
  0
VERTEX
  5
d2
  8
Layer_2
  10
37.109486
  20
198.95456
  0
VERTEX
  5
d3
  8
Layer_2
  10
37.109486
  20
197.66769
  0
VERTEX
  5
d4
  8
Layer_2
  10
36.977406
  20
197.81174
  42
0.3710094
  0
VERTEX
  5
d5
  8
Layer_2
  10
35.691517
  20
197.76242
  42
0.2032489
  0
VERTEX
  5
d6
  8
Layer_2
  10
35.294544
  20
196.66476
  42
0.25541554
  0
VERTEX
  5
d7
  8
Layer_2
  10
35.841175
  20
195.48068
  42
0.20338351
  0
VERTEX
  5
d8
  8
Layer_2
  10
36.637562
  20
195.33371
  0
SEQEND
  0
POLYLINE
  5
da
  8
Layer_2
  62
12
  66
1
  10
0
  20
0
  30
0
  0
VERTEX
  5
da
  8
Layer_2
  10
33.088245
  20
196.78708
  0
VERTEX
  5
db
  8
Layer_2
  10
33.100941
  20
197.01657
  42
-0.20152924
  0
VERTEX
  5
dc
  8
Layer_2
  10
33.307751
  20
197.47218
  42
-0.20152921
  0
VERTEX
  5
dd
  8
Layer_2
  10
33.777943
  20
197.64328
  42
-0.20254539
  0
VERTEX
  5
de
  8
Layer_2
  10
34.139679
  20
197.52592
  42
-0.20254525
  0
VERTEX
  5
df
  8
Layer_2
  10
34.305775
  20
197.18381
  42
-0.032065453
  0
VERTEX
  5
e0
  8
Layer_2
  10
34.318714
  20
196.94846
  0
VERTEX
  5
e1
  8
Layer_2
  10
34.318714
  20
195.36813
  0
VERTEX
  5
e2
  8
Layer_2
  10
34.7589
  20
195.36813
  42
0.005177707
  0
VERTEX
  5
e3
  8
Layer_2
  10
34.757435
  20
197.10715
  42
0.28412591
  0
VERTEX
  5
e4
  8
Layer_2
  10
34.39513
  20
197.89499
  42
0.30623693
  0
VERTEX
  5
e5
  8
Layer_2
  10
33.203236
  20
197.78415
  0
VERTEX
  5
e6
  8
Layer_2
  10
33.044056
  20
197.59689
  0
VERTEX
  5
e7
  8
Layer_2
  10
33.044056
  20
197.96628
  0
VERTEX
  5
e8
  8
Layer_2
  10
32.647816
  20
197.96628
  0
VERTEX
  5
e9
  8
Layer_2
  10
32.647816
  20
195.36813
  0
VERTEX
  5
ea
  8
Layer_2
  10
33.088245
  20
195.36813
  0
VERTEX
  5
eb
  8
Layer_2
  10
33.088245
  20
196.78708
  0
SEQEND
  0
POLYLINE
  5
ed
  8
Layer_2
  62
12
  70
1
  66
1
  10
0
  20
0
  30
0
  0
VERTEX
  5
ed
  8
Layer_2
  10
36.31554
  20
195.68698
  0
VERTEX
  5
ee
  8
Layer_2
  10
36.186634
  20
195.73337
  42
-0.25890986
  0
VERTEX
  5
ef
  8
Layer_2
  10
35.76012
  20
196.43112
  42
-0.12923053
  0
VERTEX
  5
f0
  8
Layer_2
  10
35.857777
  20
197.28342
  42
-0.36046413
  0
VERTEX
  5
f1
  8
Layer_2
  10
36.578968
  20
197.64474
  42
-0.28286848
  0
VERTEX
  5
f2
  8
Layer_2
  10
37.094837
  20
197.09055
  42
-0.16446018
  0
VERTEX
  5
f3
  8
Layer_2
  10
37.032825
  20
196.04123
  42
-0.34998029
  0
SEQEND
  0
POLYLINE
  5
f5
  8
Layer_2
  62
12
  66
1
  10
0
  20
0
  30
0
  0
VERTEX
  5
f5
  8
Layer_2
  10
30.156963
  20
178.99422
  0
VERTEX
  5
f6
  8
Layer_2
  10
29.873028
  20
178.99422
  0
VERTEX
  5
f7
  8
Layer_2
  10
29.805401
  20
178.87703
  42
-0.1307374
  0
VERTEX
  5
f8
  8
Layer_2
  10
28.835918
  20
178.09407
  0
VERTEX
  5
f9
  8
Layer_2
  10
28.835918
  20
177.66829
  42
0.087504939
  0
VERTEX
  5
fa
  8
Layer_2
  10
29.716534
  20
178.19905
  0
VERTEX
  5
fb
  8
Layer_2
  10
29.716534
  20
175.39314
  0
VERTEX
  5
fc
  8
Layer_2
  10
30.156963
  20
175.39314
  0
VERTEX
  5
fd
  8
Layer_2
  10
30.156963
  20
178.99422
  0
SEQEND
  0
POLYLINE
  5
ff
  8
Layer_2
  62
12
  66
1
  10
0
  20
0
  30
0
  0
VERTEX
  5
ff
  8
Layer_2
  10
33.618145
  20
175.81648
  0
VERTEX
  5
100
  8
Layer_2
  10
31.859112
  20
175.81648
  42
-0.078223474
  0
VERTEX
  5
101
  8
Layer_2
  10
32.553936
  20
176.50642
  0
VERTEX
  5
102
  8
Layer_2
  10
32.774395
  20
176.69612
  42
0.10641009
  0
VERTEX
  5
103
  8
Layer_2
  10
33.525127
  20
177.57527
  42
0.38241153
  0
VERTEX
  5
104
  8
Layer_2
  10
33.148418
  20
178.83308
  42
0.29492675
  0
VERTEX
  5
105
  8
Layer_2
  10
31.680645
  20
178.72884
  42
0.19733556
  0
VERTEX
  5
106
  8
Layer_2
  10
31.330791
  20
177.95686
  0
VERTEX
  5
107
  8
Layer_2
  10
31.783428
  20
177.91048
  0
VERTEX
  5
108
  8
Layer_2
  10
31.796368
  20
178.07014
  42
-0.39329737
  0
VERTEX
  5
109
  8
Layer_2
  10
32.485332
  20
178.62971
  42
-0.20658555
  0
VERTEX
  5
10a
  8
Layer_2
  10
32.957161
  20
178.46487
  42
-0.20658569
  0
VERTEX
  5
10b
  8
Layer_2
  10
33.160625
  20
178.00838
  42
-0.18150256
  0
VERTEX
  5
10c
  8
Layer_2
  10
32.828594
  20
177.32625
  42
-0.026417706
  0
VERTEX
  5
10d
  8
Layer_2
  10
31.8325
  20
176.42928
  0
VERTEX
  5
10e
  8
Layer_2
  10
31.699688
  20
176.29817
  42
0.19668381
  0
VERTEX
  5
10f
  8
Layer_2
  10
31.24754
  20
175.39314
  0
VERTEX
  5
110
  8
Layer_2
  10
33.618145
  20
175.39314
  0
VERTEX
  5
111
  8
Layer_2
  10
33.618145
  20
175.81648
  0
SEQEND
  0
POLYLINE
  5
113
  8
Layer_2
  62
12
  66
1
  10
0
  20
0
  30
0
  0
VERTEX
  5
113
  8
Layer_2
  10
41.325665
  20
178.97957
  0
VERTEX
  5
114
  8
Layer_2
  10
40.885235
  20
178.97957
  0
VERTEX
  5
115
  8
Layer_2
  10
40.885235
  20
175.39314
  0
VERTEX
  5
116
  8
Layer_2
  10
41.325665
  20
175.39314
  0
VERTEX
  5
117
  8
Layer_2
  10
41.325665
  20
178.97957
  0
SEQEND
  0
POLYLINE
  5
119
  8
Layer_2
  62
12
  66
1
  10
0
  20
0
  30
0
  0
VERTEX
  5
119
  8
Layer_2
  10
42.846172
  20
175.36873
  0
VERTEX
  5
11a
  8
Layer_2
  10
43.022198
  20
175.39803
  0
VERTEX
  5
11b
  8
Layer_2
  10
42.958721
  20
175.78719
  0
VERTEX
  5
11c
  8
Layer_2
  10
42.850323
  20
175.77425
  42
-0.36623343
  0
VERTEX
  5
11d
  8
Layer_2
  10
42.539043
  20
175.88728
  42
-0.078437295
  0
VERTEX
  5
11e
  8
Layer_2
  10
42.51585
  20
176.12947
  0
VERTEX
  5
11f
  8
Layer_2
  10
42.51585
  20
177.64876
  0
VERTEX
  5
120
  8
Layer_2
  10
42.958721
  20
177.64876
  0
VERTEX
  5
121
  8
Layer_2
  10
42.958721
  20
177.99129
  0
VERTEX
  5
122
  8
Layer_2
  10
42.51585
  20
177.99129
  0
VERTEX
  5
123
  8
Layer_2
  10
42.51585
  20
178.89876
  0
VERTEX
  5
124
  8
Layer_2
  10
42.078106
  20
178.6346
  0
VERTEX
  5
125
  8
Layer_2
  10
42.078106
  20
177.99129
  0
VERTEX
  5
126
  8
Layer_2
  10
41.755108
  20
177.99129
  0
VERTEX
  5
127
  8
Layer_2
  10
41.755108
  20
177.64876
  0
VERTEX
  5
128
  8
Layer_2
  10
42.078106
  20
177.64876
  0
VERTEX
  5
129
  8
Layer_2
  10
42.078106
  20
176.15413
  42
0.082946516
  0
VERTEX
  5
12a
  8
Layer_2
  10
42.131817
  20
175.63411
  42
0.3032247
  0
VERTEX
  5
12b
  8
Layer_2
  10
42.689678
  20
175.35896
  0
VERTEX
  5
12c
  8
Layer_2
  10
42.846172
  20
175.36873
  0
SEQEND
  0
POLYLINE
  5
12e
  8
Layer_2
  62
12
  66
1
  10
0
  20
0
  30
0
  0
VERTEX
  5
12e
  8
Layer_2
  10
39.310528
  20
175.34456
  42
0.38627556
  0
VERTEX
  5
12f
  8
Layer_2
  10
40.350323
  20
176.49153
  42
0.15829241
  0
VERTEX
  5
130
  8
Layer_2
  10
40.168438
  20
177.50667
  42
0.26840592
  0
VERTEX
  5
131
  8
Layer_2
  10
39.14378
  20
178.04988
  42
0.20329727
  0
VERTEX
  5
132
  8
Layer_2
  10
38.285839
  20
177.71645
  42
0.20329716
  0
VERTEX
  5
133
  8
Layer_2
  10
37.931866
  20
176.86678
  42
0.14752359
  0
VERTEX
  5
134
  8
Layer_2
  10
38.114727
  20
175.87849
  42
0.2718473
  0
VERTEX
  5
135
  8
Layer_2
  10
39.14378
  20
175.33455
  0
VERTEX
  5
136
  8
Layer_2
  10
39.310528
  20
175.34456
  0
SEQEND
  0
POLYLINE
  5
138
  8
Layer_2
  62
12
  66
1
  10
0
  20
0
  30
0
  0
VERTEX
  5
138
  8
Layer_2
  10
44.483379
  20
175.34114
  42
0.31500837
  0
VERTEX
  5
139
  8
Layer_2
  10
45.34959
  20
175.9427
  42
0.40155857
  0
VERTEX
  5
13a
  8
Layer_2
  10
44.986553
  20
176.76448
  42
0.021958562
  0
VERTEX
  5
13b
  8
Layer_2
  10
43.945538
  20
177.08113
  0
VERTEX
  5
13c
  8
Layer_2
  10
43.845928
  20
177.13387
  42
-0.39955882
  0
VERTEX
  5
13d
  8
Layer_2
  10
43.755352
  20
177.47859
  42
-0.25380473
  0
VERTEX
  5
13e
  8
Layer_2
  10
44.144756
  20
177.68172
  42
-0.25344198
  0
VERTEX
  5
13f
  8
Layer_2
  10
44.746563
  20
177.5135
  42
-0.13814345
  0
VERTEX
  5
140
  8
Layer_2
  10
44.853252
  20
177.26228
  0
VERTEX
  5
141
  8
Layer_2
  10
45.283672
  20
177.32088
  42
0.34259606
  0
VERTEX
  5
142
  8
Layer_2
  10
44.670635
  20
178.00032
  42
0.20515701
  0
VERTEX
  5
143
  8
Layer_2
  10
43.593243
  20
177.86897
  42
0.35449219
  0
VERTEX
  5
144
  8
Layer_2
  10
43.351788
  20
177.03377
  42
0.23782933
  0
VERTEX
  5
145
  8
Layer_2
  10
43.93919
  20
176.60823
  42
0.014426963
  0
VERTEX
  5
146
  8
Layer_2
  10
44.512188
  20
176.45076
  0
VERTEX
  5
147
  8
Layer_2
  10
44.641582
  20
176.41145
  42
-0.21439465
  0
VERTEX
  5
148
  8
Layer_2
  10
44.868034
  20
176.28416
  42
-0.21437992
  0
VERTEX
  5
149
  8
Layer_2
  10
44.919903
  20
176.02962
  42
-0.32433556
  0
VERTEX
  5
14a
  8
Layer_2
  10
44.474102
  20
175.70442
  42
-0.26235329
  0
VERTEX
  5
14b
  8
Layer_2
  10
43.788067
  20
175.91341
  42
-0.1311843
  0
VERTEX
  5
14c
  8
Layer_2
  10
43.659405
  20
176.23714
  0
VERTEX
  5
14d
  8
Layer_2
  10
43.223858
  20
176.16878
  42
0.31293244
  0
VERTEX
  5
14e
  8
Layer_2
  10
43.888409
  20
175.38704
  42
0.081587394
  0
VERTEX
  5
14f
  8
Layer_2
  10
44.483379
  20
175.34114
  0
SEQEND
  0
POLYLINE
  5
151
  8
Layer_2
  62
12
  66
1
  10
0
  20
0
  30
0
  0
VERTEX
  5
151
  8
Layer_2
  10
37.750713
  20
177.99129
  0
VERTEX
  5
152
  8
Layer_2
  10
37.298077
  20
177.99129
  42
0.0067037282
  0
VERTEX
  5
153
  8
Layer_2
  10
36.627178
  20
176.13826
  0
VERTEX
  5
154
  8
Layer_2
  10
36.556866
  20
175.91194
  0
VERTEX
  5
155
  8
Layer_2
  10
36.477276
  20
176.17854
  42
0.0094044949
  0
VERTEX
  5
156
  8
Layer_2
  10
35.832745
  20
177.99129
  0
VERTEX
  5
157
  8
Layer_2
  10
35.367901
  20
177.99129
  0
VERTEX
  5
158
  8
Layer_2
  10
36.356182
  20
175.39314
  0
VERTEX
  5
159
  8
Layer_2
  10
36.767315
  20
175.39314
  0
VERTEX
  5
15a
  8
Layer_2
  10
37.750713
  20
177.99129
  0
SEQEND
  0
POLYLINE
  5
15c
  8
Layer_2
  62
12
  70
1
  66
1
  10
0
  20
0
  30
0
  0
VERTEX
  5
15c
  8
Layer_2
  10
38.985821
  20
175.71199
  42
-0.16623531
  0
VERTEX
  5
15d
  8
Layer_2
  10
38.595928
  20
175.9449
  42
-0.19562472
  0
VERTEX
  5
15e
  8
Layer_2
  10
38.391827
  20
176.9261
  42
-0.33825719
  0
VERTEX
  5
15f
  8
Layer_2
  10
38.985821
  20
177.67
  42
-0.40365841
  0
VERTEX
  5
160
  8
Layer_2
  10
39.852276
  20
177.13045
  42
-0.17202495
  0
VERTEX
  5
161
  8
Layer_2
  10
39.784649
  20
176.08723
  42
-0.34384992
  0
SEQEND
  0
POLYLINE
  5
163
  8
Layer_2
  62
12
  66
1
  10
0
  20
0
  30
0
  0
VERTEX
  5
163
  8
Layer_2
  10
248.52701
  20
196.86554
  0
VERTEX
  5
164
  8
Layer_2
  10
250.20987
  20
196.86554
  0
VERTEX
  5
165
  8
Layer_2
  10
250.20987
  20
197.28864
  0
VERTEX
  5
166
  8
Layer_2
  10
248.52701
  20
197.28864
  0
VERTEX
  5
167
  8
Layer_2
  10
248.52701
  20
198.39923
  0
VERTEX
  5
168
  8
Layer_2
  10
250.47183
  20
198.39923
  0
VERTEX
  5
169
  8
Layer_2
  10
250.47183
  20
198.82257
  0
VERTEX
  5
16a
  8
Layer_2
  10
248.0524
  20
198.82257
  0
VERTEX
  5
16b
  8
Layer_2
  10
248.0524
  20
195.23615
  0
VERTEX
  5
16c
  8
Layer_2
  10
248.52701
  20
195.23615
  0
VERTEX
  5
16d
  8
Layer_2
  10
248.52701
  20
196.86554
  0
SEQEND
  0
POLYLINE
  5
16f
  8
Layer_2
  62
12
  66
1
  10
0
  20
0
  30
0
  0
VERTEX
  5
16f
  8
Layer_2
  10
252.01749
  20
195.19904
  42
0.13555023
  0
VERTEX
  5
170
  8
Layer_2
  10
252.72305
  20
195.5567
  0
VERTEX
  5
171
  8
Layer_2
  10
252.75479
  20
195.38483
  0
VERTEX
  5
172
  8
Layer_2
  10
252.81094
  20
195.23615
  0
VERTEX
  5
173
  8
Layer_2
  10
253.2709
  20
195.23615
  0
VERTEX
  5
174
  8
Layer_2
  10
253.20157
  20
195.38873
  42
-0.068942672
  0
VERTEX
  5
175
  8
Layer_2
  10
253.1315
  20
196.32477
  0
VERTEX
  5
176
  8
Layer_2
  10
253.1315
  20
196.91193
  42
0.1729921
  0
VERTEX
  5
177
  8
Layer_2
  10
252.97256
  20
197.61774
  42
0.20520907
  0
VERTEX
  5
178
  8
Layer_2
  10
252.12613
  20
197.89288
  42
0.18465184
  0
VERTEX
  5
179
  8
Layer_2
  10
251.22232
  20
197.61945
  42
0.15368383
  0
VERTEX
  5
17a
  8
Layer_2
  10
250.95425
  20
197.09308
  0
VERTEX
  5
17b
  8
Layer_2
  10
251.38492
  20
197.03424
  0
VERTEX
  5
17c
  8
Layer_2
  10
251.4252
  20
197.16193
  42
-0.33155617
  0
VERTEX
  5
17d
  8
Layer_2
  10
251.91739
  20
197.52155
  42
-0.20838652
  0
VERTEX
  5
17e
  8
Layer_2
  10
252.56387
  20
197.37921
  42
-0.21260123
  0
VERTEX
  5
17f
  8
Layer_2
  10
252.68619
  20
196.88507
  42
-0.036065035
  0
VERTEX
  5
180
  8
Layer_2
  10
251.58267
  20
196.68439
  0
VERTEX
  5
181
  8
Layer_2
  10
251.50967
  20
196.6673
  42
0.19887249
  0
VERTEX
  5
182
  8
Layer_2
  10
251.01343
  20
196.345
  42
0.19887264
  0
VERTEX
  5
183
  8
Layer_2
  10
250.89297
  20
195.76569
  42
0.33479806
  0
VERTEX
  5
184
  8
Layer_2
  10
251.56485
  20
195.19073
  42
0.075481977
  0
VERTEX
  5
185
  8
Layer_2
  10
252.01749
  20
195.19904
  0
SEQEND
  0
POLYLINE
  5
187
  8
Layer_2
  62
12
  66
1
  10
0
  20
0
  30
0
  0
VERTEX
  5
187
  8
Layer_2
  10
254.27359
  20
196.65509
  0
VERTEX
  5
188
  8
Layer_2
  10
254.28629
  20
196.88458
  42
-0.20146364
  0
VERTEX
  5
189
  8
Layer_2
  10
254.49327
  20
197.34019
  42
-0.20146394
  0
VERTEX
  5
18a
  8
Layer_2
  10
254.96353
  20
197.51129
  42
-0.20238494
  0
VERTEX
  5
18b
  8
Layer_2
  10
255.32516
  20
197.39381
  42
-0.20238251
  0
VERTEX
  5
18c
  8
Layer_2
  10
255.49136
  20
197.05182
  42
-0.030953042
  0
VERTEX
  5
18d
  8
Layer_2
  10
255.50406
  20
196.81647
  0
VERTEX
  5
18e
  8
Layer_2
  10
255.50406
  20
195.23615
  0
VERTEX
  5
18f
  8
Layer_2
  10
255.94449
  20
195.23615
  42
0.0051777091
  0
VERTEX
  5
190
  8
Layer_2
  10
255.94302
  20
196.97516
  42
0.28396212
  0
VERTEX
  5
191
  8
Layer_2
  10
255.58047
  20
197.763
  42
0.30621209
  0
VERTEX
  5
192
  8
Layer_2
  10
254.38858
  20
197.65216
  0
VERTEX
  5
193
  8
Layer_2
  10
254.22964
  20
197.4649
  0
VERTEX
  5
194
  8
Layer_2
  10
254.22964
  20
197.83429
  0
VERTEX
  5
195
  8
Layer_2
  10
253.8334
  20
197.83429
  0
VERTEX
  5
196
  8
Layer_2
  10
253.8334
  20
195.23615
  0
VERTEX
  5
197
  8
Layer_2
  10
254.27359
  20
195.23615
  0
VERTEX
  5
198
  8
Layer_2
  10
254.27359
  20
196.65509
  0
SEQEND
  0
POLYLINE
  5
19a
  8
Layer_2
  62
12
  70
1
  66
1
  10
0
  20
0
  30
0
  0
VERTEX
  5
19a
  8
Layer_2
  10
251.75089
  20
195.52985
  42
-0.40276894
  0
VERTEX
  5
19b
  8
Layer_2
  10
251.34805
  20
195.93341
  42
-0.38317112
  0
VERTEX
  5
19c
  8
Layer_2
  10
251.73526
  20
196.33209
  42
-0.020281619
  0
VERTEX
  5
19d
  8
Layer_2
  10
252.1918
  20
196.40997
  0
VERTEX
  5
19e
  8
Layer_2
  10
252.38663
  20
196.44952
  42
0.039279836
  0
VERTEX
  5
19f
  8
Layer_2
  10
252.68619
  20
196.5401
  42
-0.1619548
  0
VERTEX
  5
1a0
  8
Layer_2
  10
252.56241
  20
195.84674
  42
-0.27552714
  0
SEQEND
  0
POLYLINE
  5
1a2
  8
Layer_2
  62
12
  66
1
  10
0
  20
0
  30
0
  0
VERTEX
  5
1a2
  8
Layer_2
  10
248.94592
  20
178.78812
  0
VERTEX
  5
1a3
  8
Layer_2
  10
249.98303
  20
175.73514
  0
VERTEX
  5
1a4
  8
Layer_2
  10
250.41125
  20
175.73514
  0
VERTEX
  5
1a5
  8
Layer_2
  10
251.45325
  20
178.73685
  0
VERTEX
  5
1a6
  8
Layer_2
  10
251.45325
  20
175.73514
  0
VERTEX
  5
1a7
  8
Layer_2
  10
251.91077
  20
175.73514
  0
VERTEX
  5
1a8
  8
Layer_2
  10
251.91077
  20
179.32156
  0
VERTEX
  5
1a9
  8
Layer_2
  10
251.27234
  20
179.32156
  42
0.0068409416
  0
VERTEX
  5
1aa
  8
Layer_2
  10
250.22278
  20
176.2515
  0
VERTEX
  5
1ab
  8
Layer_2
  10
250.10632
  20
176.616
  0
VERTEX
  5
1ac
  8
Layer_2
  10
249.20276
  20
179.32156
  0
VERTEX
  5
1ad
  8
Layer_2
  10
248.4884
  20
179.32156
  0
VERTEX
  5
1ae
  8
Layer_2
  10
248.4884
  20
175.73514
  0
VERTEX
  5
1af
  8
Layer_2
  10
248.94592
  20
175.73514
  0
VERTEX
  5
1b0
  8
Layer_2
  10
248.94592
  20
178.78812
  0
SEQEND
  0
POLYLINE
  5
1b2
  8
Layer_2
  62
12
  66
1
  10
0
  20
0
  30
0
  0
VERTEX
  5
1b2
  8
Layer_2
  10
255.85364
  20
179.32156
  0
VERTEX
  5
1b3
  8
Layer_2
  10
255.41321
  20
179.32156
  0
VERTEX
  5
1b4
  8
Layer_2
  10
255.41321
  20
178.81522
  0
VERTEX
  5
1b5
  8
Layer_2
  10
255.85364
  20
178.81522
  0
VERTEX
  5
1b6
  8
Layer_2
  10
255.85364
  20
179.32156
  0
SEQEND
  0
POLYLINE
  5
1b8
  8
Layer_2
  62
12
  66
1
  10
0
  20
0
  30
0
  0
VERTEX
  5
1b8
  8
Layer_2
  10
261.15198
  20
179.32156
  0
VERTEX
  5
1b9
  8
Layer_2
  10
260.71155
  20
179.32156
  0
VERTEX
  5
1ba
  8
Layer_2
  10
260.71155
  20
175.73514
  0
VERTEX
  5
1bb
  8
Layer_2
  10
261.15198
  20
175.73514
  0
VERTEX
  5
1bc
  8
Layer_2
  10
261.15198
  20
179.32156
  0
SEQEND
  0
POLYLINE
  5
1be
  8
Layer_2
  62
12
  66
1
  10
0
  20
0
  30
0
  0
VERTEX
  5
1be
  8
Layer_2
  10
262.26624
  20
179.32156
  0
VERTEX
  5
1bf
  8
Layer_2
  10
261.82605
  20
179.32156
  0
VERTEX
  5
1c0
  8
Layer_2
  10
261.82605
  20
178.81522
  0
VERTEX
  5
1c1
  8
Layer_2
  10
262.26624
  20
178.81522
  0
VERTEX
  5
1c2
  8
Layer_2
  10
262.26624
  20
179.32156
  0
SEQEND
  0
POLYLINE
  5
1c4
  8
Layer_2
  62
12
  66
1
  10
0
  20
0
  30
0
  0
VERTEX
  5
1c4
  8
Layer_2
  10
266.1217
  20
177.15652
  0
VERTEX
  5
1c5
  8
Layer_2
  10
266.1261
  20
177.30106
  42
-0.20768451
  0
VERTEX
  5
1c6
  8
Layer_2
  10
266.31189
  20
177.80624
  42
-0.20768505
  0
VERTEX
  5
1c7
  8
Layer_2
  10
266.80896
  20
178.01273
  42
-0.20458954
  0
VERTEX
  5
1c8
  8
Layer_2
  10
267.18134
  20
177.89023
  42
-0.20458969
  0
VERTEX
  5
1c9
  8
Layer_2
  10
267.34802
  20
177.53543
  0
VERTEX
  5
1ca
  8
Layer_2
  10
267.35706
  20
177.38162
  0
VERTEX
  5
1cb
  8
Layer_2
  10
267.35706
  20
175.73514
  0
VERTEX
  5
1cc
  8
Layer_2
  10
267.79724
  20
175.73514
  42
0.015644199
  0
VERTEX
  5
1cd
  8
Layer_2
  10
267.79163
  20
177.56107
  42
0.19937605
  0
VERTEX
  5
1ce
  8
Layer_2
  10
267.58832
  20
178.13089
  42
0.19937564
  0
VERTEX
  5
1cf
  8
Layer_2
  10
267.03918
  20
178.3848
  42
0.26003625
  0
VERTEX
  5
1d0
  8
Layer_2
  10
266.1217
  20
178.0347
  0
VERTEX
  5
1d1
  8
Layer_2
  10
266.1217
  20
179.32156
  0
VERTEX
  5
1d2
  8
Layer_2
  10
265.68127
  20
179.32156
  0
VERTEX
  5
1d3
  8
Layer_2
  10
265.68127
  20
175.73514
  0
VERTEX
  5
1d4
  8
Layer_2
  10
266.1217
  20
175.73514
  0
VERTEX
  5
1d5
  8
Layer_2
  10
266.1217
  20
177.15652
  0
SEQEND
  0
POLYLINE
  5
1d7
  8
Layer_2
  62
12
  66
1
  10
0
  20
0
  30
0
  0
VERTEX
  5
1d7
  8
Layer_2
  10
269.33582
  20
175.71072
  0
VERTEX
  5
1d8
  8
Layer_2
  10
269.51184
  20
175.74002
  0
VERTEX
  5
1d9
  8
Layer_2
  10
269.44836
  20
176.12918
  0
VERTEX
  5
1da
  8
Layer_2
  10
269.33997
  20
176.11624
  42
-0.36635995
  0
VERTEX
  5
1db
  8
Layer_2
  10
269.02869
  20
176.22928
  42
-0.078732965
  0
VERTEX
  5
1dc
  8
Layer_2
  10
269.00549
  20
176.47147
  0
VERTEX
  5
1dd
  8
Layer_2
  10
269.00549
  20
177.99075
  0
VERTEX
  5
1de
  8
Layer_2
  10
269.44836
  20
177.99075
  0
VERTEX
  5
1df
  8
Layer_2
  10
269.44836
  20
178.33328
  0
VERTEX
  5
1e0
  8
Layer_2
  10
269.00549
  20
178.33328
  0
VERTEX
  5
1e1
  8
Layer_2
  10
269.00549
  20
179.24075
  0
VERTEX
  5
1e2
  8
Layer_2
  10
268.5675
  20
178.97659
  0
VERTEX
  5
1e3
  8
Layer_2
  10
268.5675
  20
178.33328
  0
VERTEX
  5
1e4
  8
Layer_2
  10
268.24475
  20
178.33328
  0
VERTEX
  5
1e5
  8
Layer_2
  10
268.24475
  20
177.99075
  0
VERTEX
  5
1e6
  8
Layer_2
  10
268.5675
  20
177.99075
  0
VERTEX
  5
1e7
  8
Layer_2
  10
268.5675
  20
176.49612
  42
0.08344966
  0
VERTEX
  5
1e8
  8
Layer_2
  10
268.62146
  20
175.9761
  42
0.30348411
  0
VERTEX
  5
1e9
  8
Layer_2
  10
269.17908
  20
175.70096
  0
VERTEX
  5
1ea
  8
Layer_2
  10
269.33582
  20
175.71072
  0
SEQEND
  0
POLYLINE
  5
1ec
  8
Layer_2
  62
12
  66
1
  10
0
  20
0
  30
0
  0
VERTEX
  5
1ec
  8
Layer_2
  10
253.59509
  20
175.69803
  42
0.073759981
  0
VERTEX
  5
1ed
  8
Layer_2
  10
253.94373
  20
175.81253
  42
0.057503713
  0
VERTEX
  5
1ee
  8
Layer_2
  10
254.30042
  20
176.05569
  0
VERTEX
  5
1ef
  8
Layer_2
  10
254.33215
  20
175.88382
  0
VERTEX
  5
1f0
  8
Layer_2
  10
254.38855
  20
175.73514
  0
VERTEX
  5
1f1
  8
Layer_2
  10
254.84851
  20
175.73514
  0
VERTEX
  5
1f2
  8
Layer_2
  10
254.77893
  20
175.88773
  42
-0.068814007
  0
VERTEX
  5
1f3
  8
Layer_2
  10
254.70886
  20
176.82376
  0
VERTEX
  5
1f4
  8
Layer_2
  10
254.70886
  20
177.41092
  42
0.17357206
  0
VERTEX
  5
1f5
  8
Layer_2
  10
254.54993
  20
178.11673
  42
0.20537495
  0
VERTEX
  5
1f6
  8
Layer_2
  10
253.70349
  20
178.39188
  42
0.18464949
  0
VERTEX
  5
1f7
  8
Layer_2
  10
252.79968
  20
178.11844
  42
0.15359343
  0
VERTEX
  5
1f8
  8
Layer_2
  10
252.53186
  20
177.59207
  0
VERTEX
  5
1f9
  8
Layer_2
  10
252.96228
  20
177.53323
  0
VERTEX
  5
1fa
  8
Layer_2
  10
253.00256
  20
177.66092
  42
-0.3313588
  0
VERTEX
  5
1fb
  8
Layer_2
  10
253.49475
  20
178.02054
  42
-0.20833613
  0
VERTEX
  5
1fc
  8
Layer_2
  10
254.14148
  20
177.8782
  42
-0.21238675
  0
VERTEX
  5
1fd
  8
Layer_2
  10
254.26379
  20
177.38406
  42
-0.036059147
  0
VERTEX
  5
1fe
  8
Layer_2
  10
253.16028
  20
177.18338
  0
VERTEX
  5
1ff
  8
Layer_2
  10
253.08704
  20
177.16629
  42
0.198764
  0
VERTEX
  5
200
  8
Layer_2
  10
252.59093
  20
176.8439
  42
0.198764
  0
VERTEX
  5
201
  8
Layer_2
  10
252.47034
  20
176.26468
  42
0.33470158
  0
VERTEX
  5
202
  8
Layer_2
  10
253.14221
  20
175.68973
  42
0.0754413
  0
VERTEX
  5
203
  8
Layer_2
  10
253.59509
  20
175.69803
  0
SEQEND
  0
POLYLINE
  5
205
  8
Layer_2
  62
12
  66
1
  10
0
  20
0
  30
0
  0
VERTEX
  5
205
  8
Layer_2
  10
256.95325
  20
177.15408
  42
-0.20894968
  0
VERTEX
  5
206
  8
Layer_2
  10
257.15759
  20
177.83182
  42
-0.35145121
  0
VERTEX
  5
207
  8
Layer_2
  10
258.01062
  20
177.88773
  42
-0.22785976
  0
VERTEX
  5
208
  8
Layer_2
  10
258.18372
  20
177.31546
  0
VERTEX
  5
209
  8
Layer_2
  10
258.18372
  20
175.73514
  0
VERTEX
  5
20a
  8
Layer_2
  10
258.62415
  20
175.73514
  42
0.0051777049
  0
VERTEX
  5
20b
  8
Layer_2
  10
258.62268
  20
177.47415
  42
0.28396204
  0
VERTEX
  5
20c
  8
Layer_2
  10
258.26013
  20
178.26199
  42
0.30621209
  0
VERTEX
  5
20d
  8
Layer_2
  10
257.06824
  20
178.15115
  0
VERTEX
  5
20e
  8
Layer_2
  10
256.9093
  20
177.9639
  0
VERTEX
  5
20f
  8
Layer_2
  10
256.9093
  20
178.33328
  0
VERTEX
  5
210
  8
Layer_2
  10
256.51306
  20
178.33328
  0
VERTEX
  5
211
  8
Layer_2
  10
256.51306
  20
175.73514
  0
VERTEX
  5
212
  8
Layer_2
  10
256.95325
  20
175.73514
  0
VERTEX
  5
213
  8
Layer_2
  10
256.95325
  20
177.15408
  0
SEQEND
  0
POLYLINE
  5
215
  8
Layer_2
  62
12
  66
1
  10
0
  20
0
  30
0
  0
VERTEX
  5
215
  8
Layer_2
  10
264.06042
  20
174.68997
  42
0.38219541
  0
VERTEX
  5
216
  8
Layer_2
  10
265.01575
  20
175.56912
  42
0.034891583
  0
VERTEX
  5
217
  8
Layer_2
  10
265.04675
  20
176.08743
  0
VERTEX
  5
218
  8
Layer_2
  10
265.04675
  20
178.33328
  0
VERTEX
  5
219
  8
Layer_2
  10
264.6405
  20
178.33328
  0
VERTEX
  5
21a
  8
Layer_2
  10
264.6405
  20
178.02005
  0
VERTEX
  5
21b
  8
Layer_2
  10
264.48132
  20
178.18265
  42
0.40471126
  0
VERTEX
  5
21c
  8
Layer_2
  10
263.05627
  20
178.0137
  42
0.31643492
  0
VERTEX
  5
21d
  8
Layer_2
  10
263.05042
  20
176.12186
  42
0.34173499
  0
VERTEX
  5
21e
  8
Layer_2
  10
264.27478
  20
175.82034
  42
0.108143
  0
VERTEX
  5
21f
  8
Layer_2
  10
264.599
  20
176.07523
  42
-0.10795609
  0
VERTEX
  5
220
  8
Layer_2
  10
264.53113
  20
175.40628
  42
-0.32267385
  0
VERTEX
  5
221
  8
Layer_2
  10
263.87
  20
175.04544
  42
-0.28004795
  0
VERTEX
  5
222
  8
Layer_2
  10
263.32385
  20
175.28519
  42
-0.08457036
  0
VERTEX
  5
223
  8
Layer_2
  10
263.27307
  20
175.45633
  0
VERTEX
  5
224
  8
Layer_2
  10
262.84509
  20
175.52005
  42
0.32779658
  0
VERTEX
  5
225
  8
Layer_2
  10
263.27576
  20
174.79861
  42
0.1320963
  0
VERTEX
  5
226
  8
Layer_2
  10
264.06042
  20
174.68997
  0
SEQEND
  0
POLYLINE
  5
228
  8
Layer_2
  62
12
  66
1
  10
0
  20
0
  30
0
  0
VERTEX
  5
228
  8
Layer_2
  10
255.85364
  20
178.33328
  0
VERTEX
  5
229
  8
Layer_2
  10
255.41321
  20
178.33328
  0
VERTEX
  5
22a
  8
Layer_2
  10
255.41321
  20
175.73514
  0
VERTEX
  5
22b
  8
Layer_2
  10
255.85364
  20
175.73514
  0
VERTEX
  5
22c
  8
Layer_2
  10
255.85364
  20
178.33328
  0
SEQEND
  0
POLYLINE
  5
22e
  8
Layer_2
  62
12
  66
1
  10
0
  20
0
  30
0
  0
VERTEX
  5
22e
  8
Layer_2
  10
262.26624
  20
178.33328
  0
VERTEX
  5
22f
  8
Layer_2
  10
261.82605
  20
178.33328
  0
VERTEX
  5
230
  8
Layer_2
  10
261.82605
  20
175.73514
  0
VERTEX
  5
231
  8
Layer_2
  10
262.26624
  20
175.73514
  0
VERTEX
  5
232
  8
Layer_2
  10
262.26624
  20
178.33328
  0
SEQEND
  0
POLYLINE
  5
234
  8
Layer_2
  62
12
  66
1
  10
0
  20
0
  30
0
  0
VERTEX
  5
234
  8
Layer_2
  10
263.77502
  20
176.11453
  0
VERTEX
  5
235
  8
Layer_2
  10
263.64124
  20
176.15848
  42
-0.27229446
  0
VERTEX
  5
236
  8
Layer_2
  10
263.22229
  20
176.84232
  42
-0.14195981
  0
VERTEX
  5
237
  8
Layer_2
  10
263.32507
  20
177.6553
  42
-0.34709006
  0
VERTEX
  5
238
  8
Layer_2
  10
264.05774
  20
178.01224
  42
-0.32768189
  0
VERTEX
  5
239
  8
Layer_2
  10
264.62244
  20
177.28983
  42
-0.13850602
  0
VERTEX
  5
23a
  8
Layer_2
  10
264.52014
  20
176.46683
  42
-0.34417924
  0
VERTEX
  5
23b
  8
Layer_2
  10
263.77502
  20
176.11453
  0
SEQEND
  0
POLYLINE
  5
23d
  8
Layer_2
  62
12
  70
1
  66
1
  10
0
  20
0
  30
0
  0
VERTEX
  5
23d
  8
Layer_2
  10
253.32849
  20
176.02884
  42
-0.30998091
  0
VERTEX
  5
23e
  8
Layer_2
  10
252.95509
  20
176.28441
  42
-0.3099852
  0
VERTEX
  5
23f
  8
Layer_2
  10
253.06067
  20
176.7244
  42
-0.12289411
  0
VERTEX
  5
240
  8
Layer_2
  10
253.41882
  20
176.85257
  0
VERTEX
  5
241
  8
Layer_2
  10
253.76941
  20
176.90897
  42
0.053028151
  0
VERTEX
  5
242
  8
Layer_2
  10
254.26379
  20
177.03909
  42
-0.16176647
  0
VERTEX
  5
243
  8
Layer_2
  10
254.13977
  20
176.34573
  42
-0.27574774
  0
SEQEND
  0
CIRCLE
  5
245
  8
Layer_0
  62
0
  10
275
  20
198
  30
0
  40
2.5
  0
CIRCLE
  5
245
  8
Layer_0
  62
0
  10
275
  20
178
  30
0
  40
2.5
  0
POLYLINE
  5
245
  8
Layer_2
  62
12
  66
1
  10
0
  20
0
  30
0
  0
VERTEX
  5
245
  8
Layer_2
  10
361.06442
  20
108.18317
  42
0.23601986
  0
VERTEX
  5
246
  8
Layer_2
  10
361.88419
  20
108.74706
  42
0.23601916
  0
VERTEX
  5
247
  8
Layer_2
  10
361.92331
  20
109.74128
  42
0.22849729
  0
VERTEX
  5
248
  8
Layer_2
  10
361.35202
  20
110.16853
  0
VERTEX
  5
249
  8
Layer_2
  10
361.46701
  20
110.2298
  42
0.3862896
  0
VERTEX
  5
24a
  8
Layer_2
  10
361.77267
  20
111.24689
  42
0.34174772
  0
VERTEX
  5
24b
  8
Layer_2
  10
360.59274
  20
111.81208
  42
0.33588436
  0
VERTEX
  5
24c
  8
Layer_2
  10
359.71799
  20
110.89753
  0
VERTEX
  5
24d
  8
Layer_2
  10
360.15842
  20
110.8194
  0
VERTEX
  5
24e
  8
Layer_2
  10
360.1904
  20
110.97077
  42
-0.19777681
  0
VERTEX
  5
24f
  8
Layer_2
  10
360.46011
  20
111.36615
  42
-0.19777706
  0
VERTEX
  5
250
  8
Layer_2
  10
360.93039
  20
111.45515
  42
-0.3785965
  0
VERTEX
  5
251
  8
Layer_2
  10
361.39377
  20
110.90485
  42
-0.37178707
  0
VERTEX
  5
252
  8
Layer_2
  10
360.92966
  20
110.34235
  42
-0.10158627
  0
VERTEX
  5
253
  8
Layer_2
  10
360.59128
  20
110.31037
  0
VERTEX
  5
254
  8
Layer_2
  10
360.54245
  20
109.9239
  0
VERTEX
  5
255
  8
Layer_2
  10
360.7131
  20
109.96076
  42
-0.20300911
  0
VERTEX
  5
256
  8
Layer_2
  10
361.24252
  20
109.86681
  42
-0.20300844
  0
VERTEX
  5
257
  8
Layer_2
  10
361.54269
  20
109.42072
  42
-0.1991957
  0
VERTEX
  5
258
  8
Layer_2
  10
361.43704
  20
108.86084
  42
-0.19919728
  0
VERTEX
  5
259
  8
Layer_2
  10
360.96579
  20
108.5406
  42
-0.19863228
  0
VERTEX
  5
25a
  8
Layer_2
  10
360.45471
  20
108.6312
  42
-0.19863253
  0
VERTEX
  5
25b
  8
Layer_2
  10
360.15891
  20
109.05769
  0
VERTEX
  5
25c
  8
Layer_2
  10
360.11423
  20
109.23176
  0
VERTEX
  5
25d
  8
Layer_2
  10
359.67404
  20
109.17292
  42
0.29632249
  0
VERTEX
  5
25e
  8
Layer_2
  10
360.38181
  20
108.23298
  42
0.12320536
  0
VERTEX
  5
25f
  8
Layer_2
  10
361.06442
  20
108.18317
  0
SEQEND
  0
POLYLINE
  5
261
  8
Layer_2
  62
12
  66
1
  10
0
  20
0
  30
0
  0
VERTEX
  5
261
  8
Layer_2
  10
337.18918
  20
111.38923
  0
VERTEX
  5
262
  8
Layer_2
  10
338.3757
  20
111.38923
  0
VERTEX
  5
263
  8
Layer_2
  10
338.3757
  20
111.81257
  0
VERTEX
  5
264
  8
Layer_2
  10
335.53293
  20
111.81257
  0
VERTEX
  5
265
  8
Layer_2
  10
335.53293
  20
111.38923
  0
VERTEX
  5
266
  8
Layer_2
  10
336.71457
  20
111.38923
  0
VERTEX
  5
267
  8
Layer_2
  10
336.71457
  20
108.22614
  0
VERTEX
  5
268
  8
Layer_2
  10
337.18918
  20
108.22614
  0
VERTEX
  5
269
  8
Layer_2
  10
337.18918
  20
111.38923
  0
SEQEND
  0
POLYLINE
  5
26b
  8
Layer_2
  62
12
  66
1
  10
0
  20
0
  30
0
  0
VERTEX
  5
26b
  8
Layer_2
  10
374.46774
  20
111.0174
  0
VERTEX
  5
26c
  8
Layer_2
  10
374.46774
  20
111.81257
  0
VERTEX
  5
26d
  8
Layer_2
  10
373.92209
  20
111.81257
  0
VERTEX
  5
26e
  8
Layer_2
  10
373.92209
  20
111.0174
  0
VERTEX
  5
26f
  8
Layer_2
  10
374.05661
  20
109.11677
  0
VERTEX
  5
270
  8
Layer_2
  10
374.34055
  20
109.11677
  0
VERTEX
  5
271
  8
Layer_2
  10
374.46774
  20
111.0174
  0
SEQEND
  0
POLYLINE
  5
273
  8
Layer_2
  62
12
  66
1
  10
0
  20
0
  30
0
  0
VERTEX
  5
273
  8
Layer_2
  10
339.29245
  20
109.64753
  42
-0.18653928
  0
VERTEX
  5
274
  8
Layer_2
  10
339.46384
  20
110.28278
  42
-0.3419869
  0
VERTEX
  5
275
  8
Layer_2
  10
340.30563
  20
110.41901
  42
-0.25620253
  0
VERTEX
  5
276
  8
Layer_2
  10
340.5278
  20
109.87263
  0
VERTEX
  5
277
  8
Layer_2
  10
340.5278
  20
108.22614
  0
VERTEX
  5
278
  8
Layer_2
  10
340.96799
  20
108.22614
  42
0.015644199
  0
VERTEX
  5
279
  8
Layer_2
  10
340.96237
  20
110.05207
  42
0.19937398
  0
VERTEX
  5
27a
  8
Layer_2
  10
340.75906
  20
110.62189
  42
0.19937764
  0
VERTEX
  5
27b
  8
Layer_2
  10
340.20993
  20
110.8758
  42
0.2598788
  0
VERTEX
  5
27c
  8
Layer_2
  10
339.29245
  20
110.5257
  0
VERTEX
  5
27d
  8
Layer_2
  10
339.29245
  20
111.81257
  0
VERTEX
  5
27e
  8
Layer_2
  10
338.85202
  20
111.81257
  0
VERTEX
  5
27f
  8
Layer_2
  10
338.85202
  20
108.22614
  0
VERTEX
  5
280
  8
Layer_2
  10
339.29245
  20
108.22614
  0
VERTEX
  5
281
  8
Layer_2
  10
339.29245
  20
109.64753
  0
SEQEND
  0
POLYLINE
  5
283
  8
Layer_2
  62
12
  66
1
  10
0
  20
0
  30
0
  0
VERTEX
  5
283
  8
Layer_2
  10
342.10031
  20
111.81257
  0
VERTEX
  5
284
  8
Layer_2
  10
341.66013
  20
111.81257
  0
VERTEX
  5
285
  8
Layer_2
  10
341.66013
  20
111.30622
  0
VERTEX
  5
286
  8
Layer_2
  10
342.10031
  20
111.30622
  0
VERTEX
  5
287
  8
Layer_2
  10
342.10031
  20
111.81257
  0
SEQEND
  0
POLYLINE
  5
289
  8
Layer_2
  62
12
  66
1
  10
0
  20
0
  30
0
  0
VERTEX
  5
289
  8
Layer_2
  10
373.06491
  20
111.0174
  0
VERTEX
  5
28a
  8
Layer_2
  10
373.06491
  20
111.81257
  0
VERTEX
  5
28b
  8
Layer_2
  10
372.51926
  20
111.81257
  0
VERTEX
  5
28c
  8
Layer_2
  10
372.51926
  20
111.0174
  0
VERTEX
  5
28d
  8
Layer_2
  10
372.65378
  20
109.11677
  0
VERTEX
  5
28e
  8
Layer_2
  10
372.93771
  20
109.11677
  0
VERTEX
  5
28f
  8
Layer_2
  10
373.06491
  20
111.0174
  0
SEQEND
  0
POLYLINE
  5
291
  8
Layer_2
  62
12
  66
1
  10
0
  20
0
  30
0
  0
VERTEX
  5
291
  8
Layer_2
  10
345.70773
  20
109.25617
  0
VERTEX
  5
292
  8
Layer_2
  10
346.01828
  20
109.55451
  0
VERTEX
  5
293
  8
Layer_2
  10
346.87692
  20
108.22614
  0
VERTEX
  5
294
  8
Layer_2
  10
347.42014
  20
108.22614
  0
VERTEX
  5
295
  8
Layer_2
  10
346.32663
  20
109.86042
  0
VERTEX
  5
296
  8
Layer_2
  10
347.31979
  20
110.82429
  0
VERTEX
  5
297
  8
Layer_2
  10
346.74973
  20
110.82429
  0
VERTEX
  5
298
  8
Layer_2
  10
345.70773
  20
109.7674
  0
VERTEX
  5
299
  8
Layer_2
  10
345.70773
  20
111.81257
  0
VERTEX
  5
29a
  8
Layer_2
  10
345.2673
  20
111.81257
  0
VERTEX
  5
29b
  8
Layer_2
  10
345.2673
  20
108.22614
  0
VERTEX
  5
29c
  8
Layer_2
  10
345.70773
  20
108.22614
  0
VERTEX
  5
29d
  8
Layer_2
  10
345.70773
  20
109.25617
  0
SEQEND
  0
POLYLINE
  5
29f
  8
Layer_2
  62
12
  66
1
  10
0
  20
0
  30
0
  0
VERTEX
  5
29f
  8
Layer_2
  10
354.46457
  20
108.17414
  42
0.31513624
  0
VERTEX
  5
2a0
  8
Layer_2
  10
355.33054
  20
108.7757
  42
0.40155777
  0
VERTEX
  5
2a1
  8
Layer_2
  10
354.9675
  20
109.59748
  42
0.021959614
  0
VERTEX
  5
2a2
  8
Layer_2
  10
353.92648
  20
109.91413
  0
VERTEX
  5
2a3
  8
Layer_2
  10
353.82687
  20
109.96687
  42
-0.39955989
  0
VERTEX
  5
2a4
  8
Layer_2
  10
353.7363
  20
110.31159
  42
-0.25377112
  0
VERTEX
  5
2a5
  8
Layer_2
  10
354.1257
  20
110.51472
  42
-0.25344217
  0
VERTEX
  5
2a6
  8
Layer_2
  10
354.72751
  20
110.3465
  42
-0.1381438
  0
VERTEX
  5
2a7
  8
Layer_2
  10
354.8342
  20
110.09528
  0
VERTEX
  5
2a8
  8
Layer_2
  10
355.26462
  20
110.15388
  42
0.34259623
  0
VERTEX
  5
2a9
  8
Layer_2
  10
354.65158
  20
110.83332
  42
0.20515711
  0
VERTEX
  5
2aa
  8
Layer_2
  10
353.57419
  20
110.70197
  42
0.35449148
  0
VERTEX
  5
2ab
  8
Layer_2
  10
353.33273
  20
109.86677
  42
0.23782976
  0
VERTEX
  5
2ac
  8
Layer_2
  10
353.92014
  20
109.44123
  42
0.014429249
  0
VERTEX
  5
2ad
  8
Layer_2
  10
354.49313
  20
109.28376
  0
VERTEX
  5
2ae
  8
Layer_2
  10
354.62253
  20
109.24445
  42
-0.2143857
  0
VERTEX
  5
2af
  8
Layer_2
  10
354.84897
  20
109.11716
  42
-0.21438684
  0
VERTEX
  5
2b0
  8
Layer_2
  10
354.90085
  20
108.86262
  42
-0.3243352
  0
VERTEX
  5
2b1
  8
Layer_2
  10
354.45505
  20
108.53742
  42
-0.26235362
  0
VERTEX
  5
2b2
  8
Layer_2
  10
353.76901
  20
108.74641
  42
-0.13118486
  0
VERTEX
  5
2b3
  8
Layer_2
  10
353.64035
  20
109.07014
  0
VERTEX
  5
2b4
  8
Layer_2
  10
353.2048
  20
109.00178
  42
0.31293295
  0
VERTEX
  5
2b5
  8
Layer_2
  10
353.86935
  20
108.22004
  42
0.081557963
  0
VERTEX
  5
2b6
  8
Layer_2
  10
354.46457
  20
108.17414
  0
SEQEND
  0
POLYLINE
  5
2b8
  8
Layer_2
  62
12
  66
1
  10
0
  20
0
  30
0
  0
VERTEX
  5
2b8
  8
Layer_2
  10
367.24826
  20
109.57404
  0
VERTEX
  5
2b9
  8
Layer_2
  10
367.25266
  20
109.74104
  42
-0.20855398
  0
VERTEX
  5
2ba
  8
Layer_2
  10
367.47433
  20
110.34895
  42
-0.3941817
  0
VERTEX
  5
2bb
  8
Layer_2
  10
368.24387
  20
110.35456
  42
-0.15523932
  0
VERTEX
  5
2bc
  8
Layer_2
  10
368.35153
  20
109.91413
  0
VERTEX
  5
2bd
  8
Layer_2
  10
368.35153
  20
108.22614
  0
VERTEX
  5
2be
  8
Layer_2
  10
368.79172
  20
108.22614
  0
VERTEX
  5
2bf
  8
Layer_2
  10
368.79172
  20
109.73566
  42
-0.19676537
  0
VERTEX
  5
2c0
  8
Layer_2
  10
368.97287
  20
110.31916
  42
-0.33075427
  0
VERTEX
  5
2c1
  8
Layer_2
  10
369.69211
  20
110.43024
  42
-0.25493631
  0
VERTEX
  5
2c2
  8
Layer_2
  10
369.88742
  20
109.98566
  42
-0.010931171
  0
VERTEX
  5
2c3
  8
Layer_2
  10
369.89011
  20
108.22614
  0
VERTEX
  5
2c4
  8
Layer_2
  10
370.32809
  20
108.22614
  0
VERTEX
  5
2c5
  8
Layer_2
  10
370.32809
  20
110.00959
  42
0.19585746
  0
VERTEX
  5
2c6
  8
Layer_2
  10
370.12009
  20
110.66877
  42
0.31736219
  0
VERTEX
  5
2c7
  8
Layer_2
  10
369.07809
  20
110.76911
  42
0.11654437
  0
VERTEX
  5
2c8
  8
Layer_2
  10
368.72336
  20
110.4278
  0
VERTEX
  5
2c9
  8
Layer_2
  10
368.67868
  20
110.52961
  42
0.31698509
  0
VERTEX
  5
2ca
  8
Layer_2
  10
367.86325
  20
110.87556
  42
0.22414312
  0
VERTEX
  5
2cb
  8
Layer_2
  10
367.20163
  20
110.45979
  0
VERTEX
  5
2cc
  8
Layer_2
  10
367.20163
  20
110.82429
  0
VERTEX
  5
2cd
  8
Layer_2
  10
366.80783
  20
110.82429
  0
VERTEX
  5
2ce
  8
Layer_2
  10
366.80783
  20
108.22614
  0
VERTEX
  5
2cf
  8
Layer_2
  10
367.24826
  20
108.22614
  0
VERTEX
  5
2d0
  8
Layer_2
  10
367.24826
  20
109.57404
  0
SEQEND
  0
POLYLINE
  5
2d2
  8
Layer_2
  62
12
  66
1
  10
0
  20
0
  30
0
  0
VERTEX
  5
2d2
  8
Layer_2
  10
344.01144
  20
108.18342
  0
VERTEX
  5
2d3
  8
Layer_2
  10
344.19919
  20
108.23078
  42
0.28573149
  0
VERTEX
  5
2d4
  8
Layer_2
  10
344.88815
  20
109.12165
  0
VERTEX
  5
2d5
  8
Layer_2
  10
344.45505
  20
109.1778
  0
VERTEX
  5
2d6
  8
Layer_2
  10
344.42404
  20
109.02351
  42
-0.20337877
  0
VERTEX
  5
2d7
  8
Layer_2
  10
344.13831
  20
108.61846
  42
-0.20338234
  0
VERTEX
  5
2d8
  8
Layer_2
  10
343.64816
  20
108.5445
  42
-0.29639295
  0
VERTEX
  5
2d9
  8
Layer_2
  10
343.1279
  20
109.07575
  42
-0.16147357
  0
VERTEX
  5
2da
  8
Layer_2
  10
343.19479
  20
110.14582
  42
-0.36666489
  0
VERTEX
  5
2db
  8
Layer_2
  10
344.03049
  20
110.48786
  42
-0.26776182
  0
VERTEX
  5
2dc
  8
Layer_2
  10
344.41843
  20
109.99494
  0
VERTEX
  5
2dd
  8
Layer_2
  10
344.84665
  20
110.06086
  42
0.29109078
  0
VERTEX
  5
2de
  8
Layer_2
  10
344.19406
  20
110.82941
  42
0.32826912
  0
VERTEX
  5
2df
  8
Layer_2
  10
342.84348
  20
110.39973
  42
0.24169596
  0
VERTEX
  5
2e0
  8
Layer_2
  10
342.80759
  20
108.7093
  42
0.27736075
  0
VERTEX
  5
2e1
  8
Layer_2
  10
343.80685
  20
108.16755
  0
VERTEX
  5
2e2
  8
Layer_2
  10
344.01144
  20
108.18342
  0
SEQEND
  0
POLYLINE
  5
2e4
  8
Layer_2
  62
12
  66
1
  10
0
  20
0
  30
0
  0
VERTEX
  5
2e4
  8
Layer_2
  10
348.21017
  20
109.64509
  42
-0.2089501
  0
VERTEX
  5
2e5
  8
Layer_2
  10
348.41452
  20
110.32282
  42
-0.35145136
  0
VERTEX
  5
2e6
  8
Layer_2
  10
349.26755
  20
110.37873
  42
-0.22778446
  0
VERTEX
  5
2e7
  8
Layer_2
  10
349.44064
  20
109.80647
  0
VERTEX
  5
2e8
  8
Layer_2
  10
349.44064
  20
108.22614
  0
VERTEX
  5
2e9
  8
Layer_2
  10
349.88107
  20
108.22614
  42
0.0060476691
  0
VERTEX
  5
2ea
  8
Layer_2
  10
349.87936
  20
109.96516
  42
0.28420662
  0
VERTEX
  5
2eb
  8
Layer_2
  10
349.51706
  20
110.753
  42
0.30622602
  0
VERTEX
  5
2ec
  8
Layer_2
  10
348.32516
  20
110.64216
  0
VERTEX
  5
2ed
  8
Layer_2
  10
348.16623
  20
110.4549
  0
VERTEX
  5
2ee
  8
Layer_2
  10
348.16623
  20
110.82429
  0
VERTEX
  5
2ef
  8
Layer_2
  10
347.76974
  20
110.82429
  0
VERTEX
  5
2f0
  8
Layer_2
  10
347.76974
  20
108.22614
  0
VERTEX
  5
2f1
  8
Layer_2
  10
348.21017
  20
108.22614
  0
VERTEX
  5
2f2
  8
Layer_2
  10
348.21017
  20
109.64509
  0
SEQEND
  0
POLYLINE
  5
2f4
  8
Layer_2
  62
12
  66
1
  10
0
  20
0
  30
0
  0
VERTEX
  5
2f4
  8
Layer_2
  10
363.03976
  20
109.57404
  0
VERTEX
  5
2f5
  8
Layer_2
  10
363.04416
  20
109.74104
  42
-0.20831729
  0
VERTEX
  5
2f6
  8
Layer_2
  10
363.26608
  20
110.34895
  42
-0.39429632
  0
VERTEX
  5
2f7
  8
Layer_2
  10
364.03537
  20
110.35456
  42
-0.15621492
  0
VERTEX
  5
2f8
  8
Layer_2
  10
364.14304
  20
109.91413
  0
VERTEX
  5
2f9
  8
Layer_2
  10
364.14304
  20
108.22614
  0
VERTEX
  5
2fa
  8
Layer_2
  10
364.58347
  20
108.22614
  0
VERTEX
  5
2fb
  8
Layer_2
  10
364.58347
  20
109.73566
  42
-0.19705217
  0
VERTEX
  5
2fc
  8
Layer_2
  10
364.76437
  20
110.31916
  42
-0.33060592
  0
VERTEX
  5
2fd
  8
Layer_2
  10
365.48361
  20
110.43024
  42
-0.25449331
  0
VERTEX
  5
2fe
  8
Layer_2
  10
365.67917
  20
109.98566
  42
-0.01093583
  0
VERTEX
  5
2ff
  8
Layer_2
  10
365.68185
  20
108.22614
  0
VERTEX
  5
300
  8
Layer_2
  10
366.1196
  20
108.22614
  0
VERTEX
  5
301
  8
Layer_2
  10
366.1196
  20
110.00959
  42
0.1954874
  0
VERTEX
  5
302
  8
Layer_2
  10
365.91183
  20
110.66877
  42
0.31728308
  0
VERTEX
  5
303
  8
Layer_2
  10
364.8696
  20
110.76911
  42
0.11654437
  0
VERTEX
  5
304
  8
Layer_2
  10
364.51486
  20
110.4278
  0
VERTEX
  5
305
  8
Layer_2
  10
364.47018
  20
110.52961
  42
0.31699083
  0
VERTEX
  5
306
  8
Layer_2
  10
363.65475
  20
110.87556
  42
0.224356
  0
VERTEX
  5
307
  8
Layer_2
  10
362.99338
  20
110.45979
  0
VERTEX
  5
308
  8
Layer_2
  10
362.99338
  20
110.82429
  0
VERTEX
  5
309
  8
Layer_2
  10
362.59933
  20
110.82429
  0
VERTEX
  5
30a
  8
Layer_2
  10
362.59933
  20
108.22614
  0
VERTEX
  5
30b
  8
Layer_2
  10
363.03976
  20
108.22614
  0
VERTEX
  5
30c
  8
Layer_2
  10
363.03976
  20
109.57404
  0
SEQEND
  0
POLYLINE
  5
30e
  8
Layer_2
  62
12
  66
1
  10
0
  20
0
  30
0
  0
VERTEX
  5
30e
  8
Layer_2
  10
351.88278
  20
108.18122
  42
0.13330949
  0
VERTEX
  5
30f
  8
Layer_2
  10
352.41013
  20
108.38776
  42
0.17086172
  0
VERTEX
  5
310
  8
Layer_2
  10
352.80881
  20
109.00666
  0
VERTEX
  5
311
  8
Layer_2
  10
352.35397
  20
109.06281
  0
VERTEX
  5
312
  8
Layer_2
  10
352.29929
  20
108.93293
  42
-0.19898003
  0
VERTEX
  5
313
  8
Layer_2
  10
351.90683
  20
108.56695
  42
-0.19897983
  0
VERTEX
  5
314
  8
Layer_2
  10
351.37057
  20
108.58649
  42
-0.25674379
  0
VERTEX
  5
315
  8
Layer_2
  10
350.90793
  20
109.21125
  0
VERTEX
  5
316
  8
Layer_2
  10
350.88376
  20
109.41267
  0
VERTEX
  5
317
  8
Layer_2
  10
352.82126
  20
109.41267
  42
0.13954123
  0
VERTEX
  5
318
  8
Layer_2
  10
352.63791
  20
110.33283
  42
0.27552084
  0
VERTEX
  5
319
  8
Layer_2
  10
351.64206
  20
110.88288
  42
0.39755719
  0
VERTEX
  5
31a
  8
Layer_2
  10
350.44968
  20
109.81257
  42
0.16506589
  0
VERTEX
  5
31b
  8
Layer_2
  10
350.61642
  20
108.71174
  42
0.27348374
  0
VERTEX
  5
31c
  8
Layer_2
  10
351.66647
  20
108.16755
  0
VERTEX
  5
31d
  8
Layer_2
  10
351.88278
  20
108.18122
  0
SEQEND
  0
POLYLINE
  5
31f
  8
Layer_2
  62
12
  66
1
  10
0
  20
0
  30
0
  0
VERTEX
  5
31f
  8
Layer_2
  10
356.96945
  20
108.17414
  42
0.3152116
  0
VERTEX
  5
320
  8
Layer_2
  10
357.83542
  20
108.7757
  42
0.40176185
  0
VERTEX
  5
321
  8
Layer_2
  10
357.47238
  20
109.59748
  42
0.022044904
  0
VERTEX
  5
322
  8
Layer_2
  10
356.43161
  20
109.91413
  0
VERTEX
  5
323
  8
Layer_2
  10
356.332
  20
109.96687
  42
-0.40113463
  0
VERTEX
  5
324
  8
Layer_2
  10
356.24142
  20
110.31159
  42
-0.25425984
  0
VERTEX
  5
325
  8
Layer_2
  10
356.63083
  20
110.51472
  42
-0.25368203
  0
VERTEX
  5
326
  8
Layer_2
  10
357.23239
  20
110.3465
  42
-0.13970256
  0
VERTEX
  5
327
  8
Layer_2
  10
357.33908
  20
110.09528
  0
VERTEX
  5
328
  8
Layer_2
  10
357.76974
  20
110.15388
  42
0.34237788
  0
VERTEX
  5
329
  8
Layer_2
  10
357.15646
  20
110.83332
  42
0.2052581
  0
VERTEX
  5
32a
  8
Layer_2
  10
356.07932
  20
110.70197
  42
0.35415978
  0
VERTEX
  5
32b
  8
Layer_2
  10
355.83762
  20
109.86677
  42
0.2376292
  0
VERTEX
  5
32c
  8
Layer_2
  10
356.42526
  20
109.44123
  42
0.014687693
  0
VERTEX
  5
32d
  8
Layer_2
  10
356.99826
  20
109.28376
  0
VERTEX
  5
32e
  8
Layer_2
  10
357.12766
  20
109.24445
  42
-0.21452466
  0
VERTEX
  5
32f
  8
Layer_2
  10
357.354
  20
109.11712
  42
-0.21452447
  0
VERTEX
  5
330
  8
Layer_2
  10
357.40573
  20
108.86262
  42
-0.32490562
  0
VERTEX
  5
331
  8
Layer_2
  10
356.95993
  20
108.53742
  42
-0.2623401
  0
VERTEX
  5
332
  8
Layer_2
  10
356.2739
  20
108.74641
  42
-0.13184033
  0
VERTEX
  5
333
  8
Layer_2
  10
356.14548
  20
109.07014
  0
VERTEX
  5
334
  8
Layer_2
  10
355.70993
  20
109.00178
  42
0.3132701
  0
VERTEX
  5
335
  8
Layer_2
  10
356.37448
  20
108.22004
  42
0.08158315
  0
VERTEX
  5
336
  8
Layer_2
  10
356.96945
  20
108.17414
  0
SEQEND
  0
POLYLINE
  5
338
  8
Layer_2
  62
12
  66
1
  10
0
  20
0
  30
0
  0
VERTEX
  5
338
  8
Layer_2
  10
342.10031
  20
110.82429
  0
VERTEX
  5
339
  8
Layer_2
  10
341.66013
  20
110.82429
  0
VERTEX
  5
33a
  8
Layer_2
  10
341.66013
  20
108.22614
  0
VERTEX
  5
33b
  8
Layer_2
  10
342.10031
  20
108.22614
  0
VERTEX
  5
33c
  8
Layer_2
  10
342.10031
  20
110.82429
  0
SEQEND
  0
POLYLINE
  5
33e
  8
Layer_2
  62
12
  66
1
  10
0
  20
0
  30
0
  0
VERTEX
  5
33e
  8
Layer_2
  10
350.90817
  20
109.77473
  42
-0.29839194
  0
VERTEX
  5
33f
  8
Layer_2
  10
351.36765
  20
110.47004
  42
-0.37930014
  0
VERTEX
  5
340
  8
Layer_2
  10
352.25412
  20
110.17414
  42
-0.09592095
  0
VERTEX
  5
341
  8
Layer_2
  10
352.35886
  20
109.77473
  0
VERTEX
  5
342
  8
Layer_2
  10
350.90817
  20
109.77473
  0
SEQEND
  0
POLYLINE
  5
344
  8
Layer_2
  62
12
  66
1
  10
0
  20
0
  30
0
  0
VERTEX
  5
344
  8
Layer_2
  10
373.04538
  20
108.72785
  0
VERTEX
  5
345
  8
Layer_2
  10
372.53903
  20
108.72785
  0
VERTEX
  5
346
  8
Layer_2
  10
372.53903
  20
108.22614
  0
VERTEX
  5
347
  8
Layer_2
  10
373.04538
  20
108.22614
  0
VERTEX
  5
348
  8
Layer_2
  10
373.04538
  20
108.72785
  0
SEQEND
  0
POLYLINE
  5
34a
  8
Layer_2
  62
12
  70
1
  66
1
  10
0
  20
0
  30
0
  0
VERTEX
  5
34a
  8
Layer_2
  10
374.44821
  20
108.72785
  0
VERTEX
  5
34b
  8
Layer_2
  10
373.94162
  20
108.72785
  0
VERTEX
  5
34c
  8
Layer_2
  10
373.94162
  20
108.22614
  0
VERTEX
  5
34d
  8
Layer_2
  10
374.44821
  20
108.22614
  0
SEQEND
  0
POLYLINE
  5
34f
  8
Layer_0
  62
0
  66
1
  10
0
  20
0
  30
0
  0
VERTEX
  5
34f
  8
Layer_0
  10
393.25
  20
151.25
  0
VERTEX
  5
350
  8
Layer_0
  10
332.75
  20
151.25
  0
VERTEX
  5
351
  8
Layer_0
  10
332.75
  20
208.75
  0
VERTEX
  5
352
  8
Layer_0
  10
393.25
  20
208.75
  0
VERTEX
  5
353
  8
Layer_0
  10
393.25
  20
151.25
  0
SEQEND
  0
CIRCLE
  5
355
  8
Layer_0
  62
0
  10
94.199997
  20
272.25
  30
0
  40
1.5
  0
CIRCLE
  5
355
  8
Layer_0
  62
0
  10
94.199997
  20
225.75
  30
0
  40
1.5
  0
CIRCLE
  5
355
  8
Layer_0
  62
0
  10
37.799999
  20
272.25
  30
0
  40
1.5
  0
CIRCLE
  5
355
  8
Layer_0
  62
0
  10
37.799999
  20
225.75
  30
0
  40
1.5
  0
CIRCLE
  5
355
  8
Layer_0
  62
0
  10
229.5
  20
266.5
  30
0
  40
1.25
  0
CIRCLE
  5
355
  8
Layer_0
  62
0
  10
272.5
  20
266.5
  30
0
  40
1.25
  0
POLYLINE
  5
355
  8
Layer_0
  62
0
  66
1
  10
0
  20
0
  30
0
  0
VERTEX
  5
355
  8
Layer_0
  10
229.14645
  20
266.5
  0
VERTEX
  5
356
  8
Layer_0
  10
229.13494
  20
266.36238
  0
VERTEX
  5
357
  8
Layer_0
  10
229.10355
  20
266.25
  0
VERTEX
  5
358
  8
Layer_0
  10
229.057
  20
266.17423
  0
VERTEX
  5
359
  8
Layer_0
  10
229
  20
266.14645
  0
VERTEX
  5
35a
  8
Layer_0
  10
228.943
  20
266.17423
  0
VERTEX
  5
35b
  8
Layer_0
  10
228.89645
  20
266.25
  0
VERTEX
  5
35c
  8
Layer_0
  10
228.86506
  20
266.36238
  0
VERTEX
  5
35d
  8
Layer_0
  10
228.85355
  20
266.5
  0
VERTEX
  5
35e
  8
Layer_0
  10
228.86506
  20
266.63762
  0
VERTEX
  5
35f
  8
Layer_0
  10
228.89645
  20
266.75
  0
VERTEX
  5
360
  8
Layer_0
  10
228.943
  20
266.82577
  0
VERTEX
  5
361
  8
Layer_0
  10
229
  20
266.85355
  0
VERTEX
  5
362
  8
Layer_0
  10
229.057
  20
266.82577
  0
VERTEX
  5
363
  8
Layer_0
  10
229.10355
  20
266.75
  0
VERTEX
  5
364
  8
Layer_0
  10
229.13494
  20
266.63762
  0
VERTEX
  5
365
  8
Layer_0
  10
229.14645
  20
266.5
  0
SEQEND
  0
CIRCLE
  5
367
  8
Layer_0
  62
0
  10
229.5
  20
231.5
  30
0
  40
1.25
  0
CIRCLE
  5
367
  8
Layer_0
  62
0
  10
272.5
  20
231.5
  30
0
  40
1.25
  0
POLYLINE
  5
367
  8
Layer_0
  62
0
  66
1
  10
0
  20
0
  30
0
  0
VERTEX
  5
367
  8
Layer_0
  10
229.14645
  20
231.5
  0
VERTEX
  5
368
  8
Layer_0
  10
229.13494
  20
231.36238
  0
VERTEX
  5
369
  8
Layer_0
  10
229.10355
  20
231.25
  0
VERTEX
  5
36a
  8
Layer_0
  10
229.057
  20
231.17423
  0
VERTEX
  5
36b
  8
Layer_0
  10
229
  20
231.14645
  0
VERTEX
  5
36c
  8
Layer_0
  10
228.943
  20
231.17423
  0
VERTEX
  5
36d
  8
Layer_0
  10
228.89645
  20
231.25
  0
VERTEX
  5
36e
  8
Layer_0
  10
228.86506
  20
231.36238
  0
VERTEX
  5
36f
  8
Layer_0
  10
228.85355
  20
231.5
  0
VERTEX
  5
370
  8
Layer_0
  10
228.86506
  20
231.63762
  0
VERTEX
  5
371
  8
Layer_0
  10
228.89645
  20
231.75
  0
VERTEX
  5
372
  8
Layer_0
  10
228.943
  20
231.82577
  0
VERTEX
  5
373
  8
Layer_0
  10
229
  20
231.85355
  0
VERTEX
  5
374
  8
Layer_0
  10
229.057
  20
231.82577
  0
VERTEX
  5
375
  8
Layer_0
  10
229.10355
  20
231.75
  0
VERTEX
  5
376
  8
Layer_0
  10
229.13494
  20
231.63762
  0
VERTEX
  5
377
  8
Layer_0
  10
229.14645
  20
231.5
  0
SEQEND
  0
CIRCLE
  5
379
  8
Layer_0
  62
0
  10
116
  20
266
  30
0
  40
3.5
  0
CIRCLE
  5
379
  8
Layer_0
  62
0
  10
116
  20
254.66701
  30
0
  40
3.5
  0
CIRCLE
  5
379
  8
Layer_0
  62
0
  10
116
  20
243.33299
  30
0
  40
3.5
  0
CIRCLE
  5
379
  8
Layer_0
  62
0
  10
116
  20
232
  30
0
  40
3.5
  0
CIRCLE
  5
379
  8
Layer_0
  62
0
  10
205.9937
  20
263.5
  30
0
  40
2.5
  0
CIRCLE
  5
379
  8
Layer_0
  62
0
  10
205.9937
  20
249
  30
0
  40
2.5
  0
CIRCLE
  5
379
  8
Layer_0
  62
0
  10
205.9937
  20
234.5
  30
0
  40
2.5
  0
POLYLINE
  5
379
  8
Layer_0
  62
0
  66
1
  10
0
  20
0
  30
0
  0
VERTEX
  5
379
  8
Layer_0
  10
390
  20
140
  0
VERTEX
  5
37a
  8
Layer_0
  10
400
  20
140
  0
VERTEX
  5
37b
  8
Layer_0
  10
390
  20
130
  0
VERTEX
  5
37c
  8
Layer_0
  10
390
  20
140
  0
SEQEND
  0
CIRCLE
  5
37e
  8
Layer_0
  62
0
  10
393
  20
137
  30
0
  40
1.25
  0
POLYLINE
  5
37e
  8
Layer_0
  62
0
  66
1
  10
0
  20
0
  30
0
  0
VERTEX
  5
37e
  8
Layer_0
  10
350
  20
139.99998
  0
VERTEX
  5
37f
  8
Layer_0
  10
360
  20
139.99998
  0
VERTEX
  5
380
  8
Layer_0
  10
350
  20
129.99998
  0
VERTEX
  5
381
  8
Layer_0
  10
350
  20
139.99998
  0
SEQEND
  0
CIRCLE
  5
383
  8
Layer_0
  62
0
  10
353
  20
136.99998
  30
0
  40
1.25
  0
POLYLINE
  5
383
  8
Layer_0
  62
0
  66
1
  10
0
  20
0
  30
0
  0
VERTEX
  5
383
  8
Layer_0
  10
330
  20
140
  0
VERTEX
  5
384
  8
Layer_0
  10
340
  20
140
  0
VERTEX
  5
385
  8
Layer_0
  10
330
  20
130
  0
VERTEX
  5
386
  8
Layer_0
  10
330
  20
140
  0
SEQEND
  0
CIRCLE
  5
388
  8
Layer_0
  62
0
  10
333
  20
137
  30
0
  40
1.25
  0
POLYLINE
  5
388
  8
Layer_0
  62
0
  66
1
  10
0
  20
0
  30
0
  0
VERTEX
  5
388
  8
Layer_0
  10
370.11609
  20
140.1161
  0
VERTEX
  5
389
  8
Layer_0
  10
380.11609
  20
140.1161
  0
VERTEX
  5
38a
  8
Layer_0
  10
370.11609
  20
130.1161
  0
VERTEX
  5
38b
  8
Layer_0
  10
370.11609
  20
140.1161
  0
SEQEND
  0
CIRCLE
  5
38d
  8
Layer_0
  62
0
  10
373.11609
  20
137.1161
  30
0
  40
1.25
  0
POLYLINE
  5
38d
  8
Layer_1
  62
52
  66
1
  10
0
  20
0
  30
0
  0
VERTEX
  5
38d
  8
Layer_1
  10
25
  20
221
  0
VERTEX
  5
38e
  8
Layer_1
  10
35
  20
221
  0
VERTEX
  5
38f
  8
Layer_1
  10
25
  20
231
  0
VERTEX
  5
390
  8
Layer_1
  10
25
  20
221
  0
SEQEND
  0
CIRCLE
  5
392
  8
Layer_1
  62
52
  10
28
  20
224
  30
0
  40
1.25
  0
CIRCLE
  5
392
  8
Layer_0
  62
0
  10
28
  20
224
  30
0
  40
1.25
  0
POLYLINE
  5
392
  8
Layer_1
  62
52
  66
1
  10
0
  20
0
  30
0
  0
VERTEX
  5
392
  8
Layer_1
  10
25
  20
279
  0
VERTEX
  5
393
  8
Layer_1
  10
35
  20
279
  0
VERTEX
  5
394
  8
Layer_1
  10
25
  20
269
  0
VERTEX
  5
395
  8
Layer_1
  10
25
  20
279
  0
SEQEND
  0
CIRCLE
  5
397
  8
Layer_1
  62
52
  10
28
  20
276
  30
0
  40
1.25
  0
CIRCLE
  5
397
  8
Layer_0
  62
0
  10
28
  20
276
  30
0
  40
1.25
  0
POLYLINE
  5
397
  8
Layer_1
  62
52
  66
1
  10
0
  20
0
  30
0
  0
VERTEX
  5
397
  8
Layer_1
  10
299
  20
279
  0
VERTEX
  5
398
  8
Layer_1
  10
289
  20
279
  0
VERTEX
  5
399
  8
Layer_1
  10
299
  20
269
  0
VERTEX
  5
39a
  8
Layer_1
  10
299
  20
279
  0
SEQEND
  0
CIRCLE
  5
39c
  8
Layer_1
  62
52
  10
296
  20
276
  30
0
  40
1.25
  0
CIRCLE
  5
39c
  8
Layer_0
  62
0
  10
296
  20
276
  30
0
  40
1.25
  0
POLYLINE
  5
39c
  8
Layer_1
  62
52
  66
1
  10
0
  20
0
  30
0
  0
VERTEX
  5
39c
  8
Layer_1
  10
299
  20
221
  0
VERTEX
  5
39d
  8
Layer_1
  10
289
  20
221
  0
VERTEX
  5
39e
  8
Layer_1
  10
299
  20
231
  0
VERTEX
  5
39f
  8
Layer_1
  10
299
  20
221
  0
SEQEND
  0
CIRCLE
  5
3a1
  8
Layer_1
  62
52
  10
296
  20
224
  30
0
  40
1.25
  0
CIRCLE
  5
3a1
  8
Layer_0
  62
0
  10
296
  20
224
  30
0
  40
1.25
  0
POLYLINE
  5
3a1
  8
Layer_1
  62
52
  66
1
  10
0
  20
0
  30
0
  0
VERTEX
  5
3a1
  8
Layer_1
  10
301.69998
  20
218.25
  0
VERTEX
  5
3a2
  8
Layer_1
  10
22.300018
  20
218.25
  0
VERTEX
  5
3a3
  8
Layer_1
  10
22.300018
  20
281.75
  0
VERTEX
  5
3a4
  8
Layer_1
  10
301.69998
  20
281.75
  0
VERTEX
  5
3a5
  8
Layer_1
  10
301.69998
  20
218.25
  0
SEQEND
  0
POLYLINE
  5
3a7
  8
Layer_2
  62
12
  66
1
  10
0
  20
0
  30
0
  0
VERTEX
  5
3a7
  8
Layer_2
  10
185.59723
  20
261.76727
  42
0.2563347
  0
VERTEX
  5
3a8
  8
Layer_2
  10
186.85968
  20
262.62494
  42
0.29157154
  0
VERTEX
  5
3a9
  8
Layer_2
  10
186.61481
  20
264.93671
  42
0.35559365
  0
VERTEX
  5
3aa
  8
Layer_2
  10
184.39191
  20
265.17328
  42
0.23530144
  0
VERTEX
  5
3ab
  8
Layer_2
  10
183.66412
  20
263.77435
  42
0.24290664
  0
VERTEX
  5
3ac
  8
Layer_2
  10
184.27789
  20
262.1308
  42
0.20804677
  0
VERTEX
  5
3ad
  8
Layer_2
  10
185.59723
  20
261.76727
  0
SEQEND
  0
POLYLINE
  5
3af
  8
Layer_2
  62
12
  66
1
  10
0
  20
0
  30
0
  0
VERTEX
  5
3af
  8
Layer_2
  10
185.11432
  20
262.18182
  42
-0.32549571
  0
VERTEX
  5
3b0
  8
Layer_2
  10
184.16656
  20
263.24384
  42
-0.16006012
  0
VERTEX
  5
3b1
  8
Layer_2
  10
184.34894
  20
264.50214
  42
-0.3663167
  0
VERTEX
  5
3b2
  8
Layer_2
  10
185.86481
  20
264.94843
  42
-0.25199077
  0
VERTEX
  5
3b3
  8
Layer_2
  10
186.55426
  20
264.01068
  42
-0.16801562
  0
VERTEX
  5
3b4
  8
Layer_2
  10
186.39679
  20
262.74237
  42
-0.32866917
  0
VERTEX
  5
3b5
  8
Layer_2
  10
185.11432
  20
262.18182
  0
SEQEND
  0
POLYLINE
  5
3b7
  8
Layer_2
  62
12
  70
1
  66
1
  10
0
  20
0
  30
0
  0
VERTEX
  5
3b7
  8
Layer_2
  10
188.08405
  20
263.23041
  0
VERTEX
  5
3b8
  8
Layer_2
  10
188.09674
  20
263.45941
  42
-0.20141474
  0
VERTEX
  5
3b9
  8
Layer_2
  10
188.3033
  20
263.91403
  42
-0.20141493
  0
VERTEX
  5
3ba
  8
Layer_2
  10
188.77252
  20
264.0849
  42
-0.20262049
  0
VERTEX
  5
3bb
  8
Layer_2
  10
189.13351
  20
263.96765
  42
-0.20262047
  0
VERTEX
  5
3bc
  8
Layer_2
  10
189.29913
  20
263.62616
  42
-0.032117165
  0
VERTEX
  5
3bd
  8
Layer_2
  10
189.31207
  20
263.39154
  0
VERTEX
  5
3be
  8
Layer_2
  10
189.31207
  20
261.81439
  0
VERTEX
  5
3bf
  8
Layer_2
  10
189.75153
  20
261.81439
  42
0.0051892398
  0
VERTEX
  5
3c0
  8
Layer_2
  10
189.75006
  20
263.54974
  42
0.28413991
  0
VERTEX
  5
3c1
  8
Layer_2
  10
189.38824
  20
264.33612
  42
0.3062529
  0
VERTEX
  5
3c2
  8
Layer_2
  10
188.19879
  20
264.22552
  0
VERTEX
  5
3c3
  8
Layer_2
  10
188.0401
  20
264.03851
  0
VERTEX
  5
3c4
  8
Layer_2
  10
188.0401
  20
264.40717
  0
VERTEX
  5
3c5
  8
Layer_2
  10
187.64459
  20
264.40717
  0
VERTEX
  5
3c6
  8
Layer_2
  10
187.64459
  20
261.81439
  0
VERTEX
  5
3c7
  8
Layer_2
  10
188.08405
  20
261.81439
  0
SEQEND
  0
POLYLINE
  5
3c9
  8
Layer_2
  62
12
  66
1
  10
0
  20
0
  30
0
  0
VERTEX
  5
3c9
  8
Layer_2
  10
183.97993
  20
249.93361
  0
VERTEX
  5
3ca
  8
Layer_2
  10
185.65962
  20
249.93361
  0
VERTEX
  5
3cb
  8
Layer_2
  10
185.65962
  20
250.35597
  0
VERTEX
  5
3cc
  8
Layer_2
  10
183.97993
  20
250.35597
  0
VERTEX
  5
3cd
  8
Layer_2
  10
183.97993
  20
251.46437
  0
VERTEX
  5
3ce
  8
Layer_2
  10
185.92085
  20
251.46437
  0
VERTEX
  5
3cf
  8
Layer_2
  10
185.92085
  20
251.88673
  0
VERTEX
  5
3d0
  8
Layer_2
  10
183.5063
  20
251.88673
  0
VERTEX
  5
3d1
  8
Layer_2
  10
183.5063
  20
248.30763
  0
VERTEX
  5
3d2
  8
Layer_2
  10
183.97993
  20
248.30763
  0
VERTEX
  5
3d3
  8
Layer_2
  10
183.97993
  20
249.93361
  0
SEQEND
  0
POLYLINE
  5
3d5
  8
Layer_2
  62
12
  66
1
  10
0
  20
0
  30
0
  0
VERTEX
  5
3d5
  8
Layer_2
  10
187.46358
  20
248.27028
  42
0.13531745
  0
VERTEX
  5
3d6
  8
Layer_2
  10
188.16768
  20
248.62746
  0
VERTEX
  5
3d7
  8
Layer_2
  10
188.19942
  20
248.45583
  0
VERTEX
  5
3d8
  8
Layer_2
  10
188.25557
  20
248.30763
  0
VERTEX
  5
3d9
  8
Layer_2
  10
188.71455
  20
248.30763
  0
VERTEX
  5
3da
  8
Layer_2
  10
188.64522
  20
248.45998
  42
-0.069229622
  0
VERTEX
  5
3db
  8
Layer_2
  10
188.57539
  20
249.39406
  0
VERTEX
  5
3dc
  8
Layer_2
  10
188.57539
  20
249.98
  42
0.17298697
  0
VERTEX
  5
3dd
  8
Layer_2
  10
188.4167
  20
250.68434
  42
0.2051482
  0
VERTEX
  5
3de
  8
Layer_2
  10
187.57198
  20
250.959
  42
0.18434668
  0
VERTEX
  5
3df
  8
Layer_2
  10
186.66988
  20
250.68629
  42
0.15349092
  0
VERTEX
  5
3e0
  8
Layer_2
  10
186.40254
  20
250.16066
  0
VERTEX
  5
3e1
  8
Layer_2
  10
186.83223
  20
250.10207
  0
VERTEX
  5
3e2
  8
Layer_2
  10
186.87227
  20
250.22951
  42
-0.33137574
  0
VERTEX
  5
3e3
  8
Layer_2
  10
187.36348
  20
250.58839
  42
-0.20818305
  0
VERTEX
  5
3e4
  8
Layer_2
  10
188.00899
  20
250.4463
  42
-0.21236859
  0
VERTEX
  5
3e5
  8
Layer_2
  10
188.13106
  20
249.95314
  42
-0.035922281
  0
VERTEX
  5
3e6
  8
Layer_2
  10
187.0295
  20
249.7527
  0
VERTEX
  5
3e7
  8
Layer_2
  10
186.95674
  20
249.73586
  42
0.19867882
  0
VERTEX
  5
3e8
  8
Layer_2
  10
186.46162
  20
249.41418
  42
0.19867875
  0
VERTEX
  5
3e9
  8
Layer_2
  10
186.34102
  20
248.8362
  42
0.33442376
  0
VERTEX
  5
3ea
  8
Layer_2
  10
187.01167
  20
248.26198
  42
0.074510856
  0
VERTEX
  5
3eb
  8
Layer_2
  10
187.46358
  20
248.27028
  0
SEQEND
  0
POLYLINE
  5
3ed
  8
Layer_2
  62
12
  66
1
  10
0
  20
0
  30
0
  0
VERTEX
  5
3ed
  8
Layer_2
  10
189.71504
  20
249.72365
  0
VERTEX
  5
3ee
  8
Layer_2
  10
189.72798
  20
249.95265
  42
-0.20146551
  0
VERTEX
  5
3ef
  8
Layer_2
  10
189.9344
  20
250.40724
  42
-0.20146582
  0
VERTEX
  5
3f0
  8
Layer_2
  10
190.40352
  20
250.57814
  42
-0.20247785
  0
VERTEX
  5
3f1
  8
Layer_2
  10
190.76454
  20
250.46086
  42
-0.20247706
  0
VERTEX
  5
3f2
  8
Layer_2
  10
190.93037
  20
250.1194
  42
-0.031001742
  0
VERTEX
  5
3f3
  8
Layer_2
  10
190.94307
  20
249.88478
  0
VERTEX
  5
3f4
  8
Layer_2
  10
190.94307
  20
248.30763
  0
VERTEX
  5
3f5
  8
Layer_2
  10
191.38252
  20
248.30763
  42
0.0051892375
  0
VERTEX
  5
3f6
  8
Layer_2
  10
191.38106
  20
250.04298
  42
0.28391614
  0
VERTEX
  5
3f7
  8
Layer_2
  10
191.01949
  20
250.82936
  42
0.30618648
  0
VERTEX
  5
3f8
  8
Layer_2
  10
189.82979
  20
250.71877
  0
VERTEX
  5
3f9
  8
Layer_2
  10
189.6711
  20
250.53175
  0
VERTEX
  5
3fa
  8
Layer_2
  10
189.6711
  20
250.90041
  0
VERTEX
  5
3fb
  8
Layer_2
  10
189.27559
  20
250.90041
  0
VERTEX
  5
3fc
  8
Layer_2
  10
189.27559
  20
248.30763
  0
VERTEX
  5
3fd
  8
Layer_2
  10
189.71504
  20
248.30763
  0
VERTEX
  5
3fe
  8
Layer_2
  10
189.71504
  20
249.72365
  0
SEQEND
  0
POLYLINE
  5
400
  8
Layer_2
  62
12
  70
1
  66
1
  10
0
  20
0
  30
0
  0
VERTEX
  5
400
  8
Layer_2
  10
187.19746
  20
248.6006
  42
-0.40337555
  0
VERTEX
  5
401
  8
Layer_2
  10
186.79561
  20
249.00343
  42
-0.383467
  0
VERTEX
  5
402
  8
Layer_2
  10
187.18184
  20
249.40138
  42
-0.019571965
  0
VERTEX
  5
403
  8
Layer_2
  10
187.63741
  20
249.47878
  0
VERTEX
  5
404
  8
Layer_2
  10
187.83199
  20
249.51857
  42
0.039608699
  0
VERTEX
  5
405
  8
Layer_2
  10
188.13106
  20
249.6089
  42
-0.16174014
  0
VERTEX
  5
406
  8
Layer_2
  10
188.00728
  20
248.91701
  42
-0.27565203
  0
SEQEND
  0
POLYLINE
  5
408
  8
Layer_2
  62
12
  66
1
  10
0
  20
0
  30
0
  0
VERTEX
  5
408
  8
Layer_2
  10
185.92004
  20
234.02037
  0
VERTEX
  5
409
  8
Layer_2
  10
184.15735
  20
234.02037
  0
VERTEX
  5
40a
  8
Layer_2
  10
184.15735
  20
237.17711
  0
VERTEX
  5
40b
  8
Layer_2
  10
183.68372
  20
237.17711
  0
VERTEX
  5
40c
  8
Layer_2
  10
183.68372
  20
233.59801
  0
VERTEX
  5
40d
  8
Layer_2
  10
185.92004
  20
233.59801
  0
VERTEX
  5
40e
  8
Layer_2
  10
185.92004
  20
234.02037
  0
SEQEND
  0
POLYLINE
  5
410
  8
Layer_2
  62
12
  66
1
  10
0
  20
0
  30
0
  0
VERTEX
  5
410
  8
Layer_2
  10
186.88904
  20
237.17711
  0
VERTEX
  5
411
  8
Layer_2
  10
186.44958
  20
237.17711
  0
VERTEX
  5
412
  8
Layer_2
  10
186.44958
  20
236.67174
  0
VERTEX
  5
413
  8
Layer_2
  10
186.88904
  20
236.67174
  0
VERTEX
  5
414
  8
Layer_2
  10
186.88904
  20
237.17711
  0
SEQEND
  0
POLYLINE
  5
416
  8
Layer_2
  62
12
  66
1
  10
0
  20
0
  30
0
  0
VERTEX
  5
416
  8
Layer_2
  10
190.73669
  20
235.01646
  0
VERTEX
  5
417
  8
Layer_2
  10
190.74109
  20
235.16075
  42
-0.20768475
  0
VERTEX
  5
418
  8
Layer_2
  10
190.92659
  20
235.66493
  42
-0.20768505
  0
VERTEX
  5
419
  8
Layer_2
  10
191.42273
  20
235.87096
  42
-0.20459525
  0
VERTEX
  5
41a
  8
Layer_2
  10
191.79431
  20
235.74872
  42
-0.20459548
  0
VERTEX
  5
41b
  8
Layer_2
  10
191.96057
  20
235.39464
  0
VERTEX
  5
41c
  8
Layer_2
  10
191.9696
  20
235.24107
  0
VERTEX
  5
41d
  8
Layer_2
  10
191.9696
  20
233.59801
  0
VERTEX
  5
41e
  8
Layer_2
  10
192.40906
  20
233.59801
  42
0.016344783
  0
VERTEX
  5
41f
  8
Layer_2
  10
192.4032
  20
235.42027
  42
0.19941848
  0
VERTEX
  5
420
  8
Layer_2
  10
192.20032
  20
235.98897
  42
0.19941848
  0
VERTEX
  5
421
  8
Layer_2
  10
191.65222
  20
236.24229
  42
0.25996516
  0
VERTEX
  5
422
  8
Layer_2
  10
190.73669
  20
235.89293
  0
VERTEX
  5
423
  8
Layer_2
  10
190.73669
  20
237.17711
  0
VERTEX
  5
424
  8
Layer_2
  10
190.29724
  20
237.17711
  0
VERTEX
  5
425
  8
Layer_2
  10
190.29724
  20
233.59801
  0
VERTEX
  5
426
  8
Layer_2
  10
190.73669
  20
233.59801
  0
VERTEX
  5
427
  8
Layer_2
  10
190.73669
  20
235.01646
  0
SEQEND
  0
POLYLINE
  5
429
  8
Layer_2
  62
12
  66
1
  10
0
  20
0
  30
0
  0
VERTEX
  5
429
  8
Layer_2
  10
193.94421
  20
233.57359
  0
VERTEX
  5
42a
  8
Layer_2
  10
194.12
  20
233.60289
  0
VERTEX
  5
42b
  8
Layer_2
  10
194.05652
  20
233.99107
  0
VERTEX
  5
42c
  8
Layer_2
  10
193.94861
  20
233.97813
  42
-0.36718879
  0
VERTEX
  5
42d
  8
Layer_2
  10
193.63782
  20
234.09117
  42
-0.07894347
  0
VERTEX
  5
42e
  8
Layer_2
  10
193.61462
  20
234.33287
  0
VERTEX
  5
42f
  8
Layer_2
  10
193.61462
  20
235.84898
  0
VERTEX
  5
430
  8
Layer_2
  10
194.05652
  20
235.84898
  0
VERTEX
  5
431
  8
Layer_2
  10
194.05652
  20
236.19078
  0
VERTEX
  5
432
  8
Layer_2
  10
193.61462
  20
236.19078
  0
VERTEX
  5
433
  8
Layer_2
  10
193.61462
  20
237.09654
  0
VERTEX
  5
434
  8
Layer_2
  10
193.17761
  20
236.83287
  0
VERTEX
  5
435
  8
Layer_2
  10
193.17761
  20
236.19078
  0
VERTEX
  5
436
  8
Layer_2
  10
192.85535
  20
236.19078
  0
VERTEX
  5
437
  8
Layer_2
  10
192.85535
  20
235.84898
  0
VERTEX
  5
438
  8
Layer_2
  10
193.17761
  20
235.84898
  0
VERTEX
  5
439
  8
Layer_2
  10
193.17761
  20
234.35728
  42
0.083018943
  0
VERTEX
  5
43a
  8
Layer_2
  10
193.23132
  20
233.83849
  42
0.30377003
  0
VERTEX
  5
43b
  8
Layer_2
  10
193.78796
  20
233.56383
  0
VERTEX
  5
43c
  8
Layer_2
  10
193.94421
  20
233.57359
  0
SEQEND
  0
POLYLINE
  5
43e
  8
Layer_2
  62
12
  66
1
  10
0
  20
0
  30
0
  0
VERTEX
  5
43e
  8
Layer_2
  10
188.67957
  20
232.55479
  42
0.26703866
  0
VERTEX
  5
43f
  8
Layer_2
  10
189.54065
  20
233.09142
  42
0.10242527
  0
VERTEX
  5
440
  8
Layer_2
  10
189.66394
  20
233.94957
  0
VERTEX
  5
441
  8
Layer_2
  10
189.66394
  20
236.19078
  0
VERTEX
  5
442
  8
Layer_2
  10
189.25867
  20
236.19078
  0
VERTEX
  5
443
  8
Layer_2
  10
189.25867
  20
235.87828
  0
VERTEX
  5
444
  8
Layer_2
  10
189.09949
  20
236.04063
  42
0.40457378
  0
VERTEX
  5
445
  8
Layer_2
  10
187.67737
  20
235.87193
  42
0.31638919
  0
VERTEX
  5
446
  8
Layer_2
  10
187.67175
  20
233.98375
  42
0.34135969
  0
VERTEX
  5
447
  8
Layer_2
  10
188.89368
  20
233.68272
  42
0.10675489
  0
VERTEX
  5
448
  8
Layer_2
  10
189.21716
  20
233.93736
  42
-0.10731541
  0
VERTEX
  5
449
  8
Layer_2
  10
189.14929
  20
233.26964
  42
-0.32272965
  0
VERTEX
  5
44a
  8
Layer_2
  10
188.48962
  20
232.90953
  42
-0.28038311
  0
VERTEX
  5
44b
  8
Layer_2
  10
187.94446
  20
233.14879
  42
-0.086384191
  0
VERTEX
  5
44c
  8
Layer_2
  10
187.89392
  20
233.31969
  0
VERTEX
  5
44d
  8
Layer_2
  10
187.46667
  20
233.38316
  42
0.32776894
  0
VERTEX
  5
44e
  8
Layer_2
  10
187.89636
  20
232.66319
  42
0.132003
  0
VERTEX
  5
44f
  8
Layer_2
  10
188.67957
  20
232.55479
  0
SEQEND
  0
POLYLINE
  5
451
  8
Layer_2
  62
12
  66
1
  10
0
  20
0
  30
0
  0
VERTEX
  5
451
  8
Layer_2
  10
195.57849
  20
233.54601
  42
0.31511821
  0
VERTEX
  5
452
  8
Layer_2
  10
196.44275
  20
234.14635
  42
0.40163789
  0
VERTEX
  5
453
  8
Layer_2
  10
196.08044
  20
234.96642
  42
0.022281912
  0
VERTEX
  5
454
  8
Layer_2
  10
195.04163
  20
235.28258
  0
VERTEX
  5
455
  8
Layer_2
  10
194.94202
  20
235.33507
  42
-0.39948604
  0
VERTEX
  5
456
  8
Layer_2
  10
194.85168
  20
235.67931
  42
-0.25413226
  0
VERTEX
  5
457
  8
Layer_2
  10
195.24036
  20
235.8817
  42
-0.25349016
  0
VERTEX
  5
458
  8
Layer_2
  10
195.84094
  20
235.71422
  42
-0.13716635
  0
VERTEX
  5
459
  8
Layer_2
  10
195.94739
  20
235.46324
  0
VERTEX
  5
45a
  8
Layer_2
  10
196.37708
  20
235.52184
  42
0.34253862
  0
VERTEX
  5
45b
  8
Layer_2
  10
195.76501
  20
236.19981
  42
0.20536546
  0
VERTEX
  5
45c
  8
Layer_2
  10
194.69006
  20
236.06871
  42
0.3543679
  0
VERTEX
  5
45d
  8
Layer_2
  10
194.44885
  20
235.23521
  42
0.23783571
  0
VERTEX
  5
45e
  8
Layer_2
  10
195.03528
  20
234.81041
  42
0.013344905
  0
VERTEX
  5
45f
  8
Layer_2
  10
195.60706
  20
234.65343
  0
VERTEX
  5
460
  8
Layer_2
  10
195.73621
  20
234.61412
  42
-0.21462064
  0
VERTEX
  5
461
  8
Layer_2
  10
195.96219
  20
234.48708
  42
-0.2146136
  0
VERTEX
  5
462
  8
Layer_2
  10
196.01379
  20
234.23302
  42
-0.32472921
  0
VERTEX
  5
463
  8
Layer_2
  10
195.56897
  20
233.90855
  42
-0.26271437
  0
VERTEX
  5
464
  8
Layer_2
  10
194.8844
  20
234.11705
  42
-0.13221585
  0
VERTEX
  5
465
  8
Layer_2
  10
194.75598
  20
234.44029
  0
VERTEX
  5
466
  8
Layer_2
  10
194.32141
  20
234.37193
  42
0.31339932
  0
VERTEX
  5
467
  8
Layer_2
  10
194.9845
  20
233.5919
  42
0.081727529
  0
VERTEX
  5
468
  8
Layer_2
  10
195.57849
  20
233.54601
  0
SEQEND
  0
POLYLINE
  5
46a
  8
Layer_2
  62
12
  66
1
  10
0
  20
0
  30
0
  0
VERTEX
  5
46a
  8
Layer_2
  10
186.88904
  20
236.19078
  0
VERTEX
  5
46b
  8
Layer_2
  10
186.44958
  20
236.19078
  0
VERTEX
  5
46c
  8
Layer_2
  10
186.44958
  20
233.59801
  0
VERTEX
  5
46d
  8
Layer_2
  10
186.88904
  20
233.59801
  0
VERTEX
  5
46e
  8
Layer_2
  10
186.88904
  20
236.19078
  0
SEQEND
  0
POLYLINE
  5
470
  8
Layer_2
  62
12
  70
1
  66
1
  10
0
  20
0
  30
0
  0
VERTEX
  5
470
  8
Layer_2
  10
188.39465
  20
233.97643
  42
-0.2881968
  0
VERTEX
  5
471
  8
Layer_2
  10
187.88098
  20
234.49937
  42
-0.16984828
  0
VERTEX
  5
472
  8
Layer_2
  10
187.94568
  20
235.51402
  42
-0.34706624
  0
VERTEX
  5
473
  8
Layer_2
  10
188.67688
  20
235.87047
  42
-0.32747435
  0
VERTEX
  5
474
  8
Layer_2
  10
189.2406
  20
235.14952
  42
-0.13823111
  0
VERTEX
  5
475
  8
Layer_2
  10
189.13831
  20
234.32799
  42
-0.34397019
  0
SEQEND
  0
POLYLINE
  5
477
  8
Layer_2
  62
12
  66
1
  10
0
  20
0
  30
0
  0
VERTEX
  5
477
  8
Layer_2
  10
129.65918
  20
267.79688
  0
VERTEX
  5
478
  8
Layer_2
  10
129.37598
  20
267.79688
  0
VERTEX
  5
479
  8
Layer_2
  10
129.30835
  20
267.67993
  42
-0.13063792
  0
VERTEX
  5
47a
  8
Layer_2
  10
128.34082
  20
266.89844
  0
VERTEX
  5
47b
  8
Layer_2
  10
128.34082
  20
266.47363
  42
0.087475064
  0
VERTEX
  5
47c
  8
Layer_2
  10
129.21973
  20
267.00342
  0
VERTEX
  5
47d
  8
Layer_2
  10
129.21973
  20
264.20313
  0
VERTEX
  5
47e
  8
Layer_2
  10
129.65918
  20
264.20313
  0
VERTEX
  5
47f
  8
Layer_2
  10
129.65918
  20
267.79688
  0
SEQEND
  0
POLYLINE
  5
481
  8
Layer_2
  62
12
  66
1
  10
0
  20
0
  30
0
  0
VERTEX
  5
481
  8
Layer_2
  10
130.18286
  20
253.62494
  0
VERTEX
  5
482
  8
Layer_2
  10
128.42749
  20
253.62494
  0
VERTEX
  5
483
  8
Layer_2
  10
128.5105
  20
253.74432
  42
-0.028094406
  0
VERTEX
  5
484
  8
Layer_2
  10
129.52686
  20
254.67108
  0
VERTEX
  5
485
  8
Layer_2
  10
129.67944
  20
254.81781
  42
0.14656994
  0
VERTEX
  5
486
  8
Layer_2
  10
130.15601
  20
255.58978
  42
0.38486646
  0
VERTEX
  5
487
  8
Layer_2
  10
129.52368
  20
256.72504
  42
0.25035762
  0
VERTEX
  5
488
  8
Layer_2
  10
128.24927
  20
256.53143
  42
0.19746383
  0
VERTEX
  5
489
  8
Layer_2
  10
127.90015
  20
255.76117
  0
VERTEX
  5
48a
  8
Layer_2
  10
128.35181
  20
255.71478
  0
VERTEX
  5
48b
  8
Layer_2
  10
128.36475
  20
255.87396
  42
-0.39365757
  0
VERTEX
  5
48c
  8
Layer_2
  10
129.05249
  20
256.43256
  42
-0.20655505
  0
VERTEX
  5
48d
  8
Layer_2
  10
129.52335
  20
256.26804
  42
-0.20655518
  0
VERTEX
  5
48e
  8
Layer_2
  10
129.72632
  20
255.81244
  42
-0.18087201
  0
VERTEX
  5
48f
  8
Layer_2
  10
129.39502
  20
255.13177
  42
-0.026344713
  0
VERTEX
  5
490
  8
Layer_2
  10
128.40088
  20
254.23651
  0
VERTEX
  5
491
  8
Layer_2
  10
128.26807
  20
254.10565
  42
0.19686844
  0
VERTEX
  5
492
  8
Layer_2
  10
127.81714
  20
253.20258
  0
VERTEX
  5
493
  8
Layer_2
  10
130.18286
  20
253.20258
  0
VERTEX
  5
494
  8
Layer_2
  10
130.18286
  20
253.62494
  0
SEQEND
  0
POLYLINE
  5
496
  8
Layer_2
  62
12
  66
1
  10
0
  20
0
  30
0
  0
VERTEX
  5
496
  8
Layer_2
  10
129.21558
  20
241.18709
  42
0.37134508
  0
VERTEX
  5
497
  8
Layer_2
  10
130.17188
  20
242.28743
  42
0.37584727
  0
VERTEX
  5
498
  8
Layer_2
  10
129.50293
  20
243.16878
  0
VERTEX
  5
499
  8
Layer_2
  10
129.61743
  20
243.22981
  42
0.38610215
  0
VERTEX
  5
49a
  8
Layer_2
  10
129.92261
  20
244.24495
  42
0.34177483
  0
VERTEX
  5
49b
  8
Layer_2
  10
128.74487
  20
244.80891
  42
0.33616076
  0
VERTEX
  5
49c
  8
Layer_2
  10
127.87207
  20
243.89632
  0
VERTEX
  5
49d
  8
Layer_2
  10
128.31152
  20
243.81819
  0
VERTEX
  5
49e
  8
Layer_2
  10
128.34351
  20
243.96931
  42
-0.19781075
  0
VERTEX
  5
49f
  8
Layer_2
  10
128.61253
  20
244.36391
  42
-0.19781078
  0
VERTEX
  5
4a0
  8
Layer_2
  10
129.08179
  20
244.45271
  42
-0.37881456
  0
VERTEX
  5
4a1
  8
Layer_2
  10
129.54443
  20
243.90364
  42
-0.37185922
  0
VERTEX
  5
4a2
  8
Layer_2
  10
129.08105
  20
243.34212
  42
-0.10159768
  0
VERTEX
  5
4a3
  8
Layer_2
  10
128.74365
  20
243.31038
  0
VERTEX
  5
4a4
  8
Layer_2
  10
128.69482
  20
242.92464
  0
VERTEX
  5
4a5
  8
Layer_2
  10
128.86499
  20
242.96126
  42
-0.2029807
  0
VERTEX
  5
4a6
  8
Layer_2
  10
129.39339
  20
242.86758
  42
-0.20298069
  0
VERTEX
  5
4a7
  8
Layer_2
  10
129.69312
  20
242.42244
  42
-0.19921141
  0
VERTEX
  5
4a8
  8
Layer_2
  10
129.58759
  20
241.86362
  42
-0.19921123
  0
VERTEX
  5
4a9
  8
Layer_2
  10
129.11719
  20
241.54402
  42
-0.19853067
  0
VERTEX
  5
4aa
  8
Layer_2
  10
128.6073
  20
241.63448
  42
-0.19853073
  0
VERTEX
  5
4ab
  8
Layer_2
  10
128.31201
  20
242.05989
  0
VERTEX
  5
4ac
  8
Layer_2
  10
128.26758
  20
242.23372
  0
VERTEX
  5
4ad
  8
Layer_2
  10
127.82813
  20
242.17513
  42
0.29614847
  0
VERTEX
  5
4ae
  8
Layer_2
  10
128.53442
  20
241.23689
  42
0.12266589
  0
VERTEX
  5
4af
  8
Layer_2
  10
129.21558
  20
241.18709
  0
SEQEND
  0
POLYLINE
  5
4b1
  8
Layer_2
  62
12
  66
1
  10
0
  20
0
  30
0
  0
VERTEX
  5
4b1
  8
Layer_2
  10
129.75439
  20
231.06738
  0
VERTEX
  5
4b2
  8
Layer_2
  10
130.23779
  20
231.06738
  0
VERTEX
  5
4b3
  8
Layer_2
  10
130.23779
  20
231.47021
  0
VERTEX
  5
4b4
  8
Layer_2
  10
129.75439
  20
231.47021
  0
VERTEX
  5
4b5
  8
Layer_2
  10
129.75439
  20
233.78955
  0
VERTEX
  5
4b6
  8
Layer_2
  10
129.39551
  20
233.78955
  0
VERTEX
  5
4b7
  8
Layer_2
  10
127.76221
  20
231.47021
  0
VERTEX
  5
4b8
  8
Layer_2
  10
127.76221
  20
231.06738
  0
VERTEX
  5
4b9
  8
Layer_2
  10
129.31494
  20
231.06738
  0
VERTEX
  5
4ba
  8
Layer_2
  10
129.31494
  20
230.21045
  0
VERTEX
  5
4bb
  8
Layer_2
  10
129.75439
  20
230.21045
  0
VERTEX
  5
4bc
  8
Layer_2
  10
129.75439
  20
231.06738
  0
SEQEND
  0
POLYLINE
  5
4be
  8
Layer_2
  62
12
  70
1
  66
1
  10
0
  20
0
  30
0
  0
VERTEX
  5
4be
  8
Layer_2
  10
128.19434
  20
231.47021
  0
VERTEX
  5
4bf
  8
Layer_2
  10
129.31494
  20
233.08398
  0
VERTEX
  5
4c0
  8
Layer_2
  10
129.31494
  20
231.47021
  0
SEQEND
  0
ENDSEC
  0
EOF
