  0
SECTION
  2
HEADER
  9
$ACADVER
  1
AC1009
  0
ENDSEC
  0
SECTION
  2
ENTITIES
  0
POLYLINE
  5
90
  8
Layer_0
  62
0
  66
1
  10
0
  20
0
  30
0
  0
VERTEX
  5
90
  8
Layer_0
  10
314.39999
  20
218.25
  0
VERTEX
  5
91
  8
Layer_0
  10
9.6000061
  20
218.25
  0
VERTEX
  5
92
  8
Layer_0
  10
9.6000061
  20
281.75
  0
VERTEX
  5
93
  8
Layer_0
  10
314.39999
  20
281.75
  0
VERTEX
  5
94
  8
Layer_0
  10
314.39999
  20
218.25
  0
SEQEND
  0
POLYLINE
  5
96
  8
Layer_0
  62
0
  66
1
  10
0
  20
0
  30
0
  0
VERTEX
  5
96
  8
Layer_0
  10
95.5
  20
228.5
  0
VERTEX
  5
97
  8
Layer_0
  10
36.5
  20
228.5
  0
VERTEX
  5
98
  8
Layer_0
  10
36.5
  20
269.5
  0
VERTEX
  5
99
  8
Layer_0
  10
95.5
  20
269.5
  0
VERTEX
  5
9a
  8
Layer_0
  10
95.5
  20
228.5
  0
SEQEND
  0
POLYLINE
  5
9c
  8
Layer_0
  62
0
  66
1
  10
0
  20
0
  30
0
  0
VERTEX
  5
9c
  8
Layer_0
  10
392.25
  20
218.25
  0
VERTEX
  5
9d
  8
Layer_0
  10
331.75
  20
218.25
  0
VERTEX
  5
9e
  8
Layer_0
  10
331.75
  20
275.75
  0
VERTEX
  5
9f
  8
Layer_0
  10
392.25
  20
275.75
  0
VERTEX
  5
a0
  8
Layer_0
  10
392.25
  20
218.25
  0
SEQEND
  0
POLYLINE
  5
a2
  8
Layer_2
  62
52
  66
1
  10
0
  20
0
  30
0
  0
VERTEX
  5
a2
  8
Layer_2
  10
188.5
  20
228.5
  0
VERTEX
  5
a3
  8
Layer_2
  10
125.5
  20
228.5
  0
VERTEX
  5
a4
  8
Layer_2
  10
125.5
  20
269.5
  0
VERTEX
  5
a5
  8
Layer_2
  10
188.5
  20
269.5
  0
VERTEX
  5
a6
  8
Layer_2
  10
188.5
  20
228.5
  0
SEQEND
  0
CIRCLE
  5
a8
  8
Layer_1
  62
5
  10
16
  20
224.60001
  30
0
  40
1.025
  0
CIRCLE
  5
a8
  8
Layer_1
  62
5
  10
16
  20
237.30002
  30
0
  40
1.025
  0
CIRCLE
  5
a8
  8
Layer_1
  62
5
  10
16
  20
250
  30
0
  40
1.025
  0
CIRCLE
  5
a8
  8
Layer_1
  62
5
  10
16
  20
262.70001
  30
0
  40
1.025
  0
CIRCLE
  5
a8
  8
Layer_1
  62
5
  10
16
  20
275.39999
  30
0
  40
1.025
  0
CIRCLE
  5
a8
  8
Layer_1
  62
5
  10
308.10001
  20
224.60001
  30
0
  40
1.025
  0
CIRCLE
  5
a8
  8
Layer_1
  62
5
  10
308.10001
  20
237.3
  30
0
  40
1.025
  0
CIRCLE
  5
a8
  8
Layer_1
  62
5
  10
308.10001
  20
250
  30
0
  40
1.025
  0
CIRCLE
  5
a8
  8
Layer_1
  62
5
  10
308.10001
  20
262.70001
  30
0
  40
1.025
  0
CIRCLE
  5
a8
  8
Layer_1
  62
5
  10
308.10001
  20
275.39999
  30
0
  40
1.025
  0
POLYLINE
  5
a8
  8
Layer_0
  62
0
  66
1
  10
0
  20
0
  30
0
  0
VERTEX
  5
a8
  8
Layer_0
  10
289.69998
  20
80.25
  0
VERTEX
  5
a9
  8
Layer_0
  10
10.300018
  20
80.25
  0
VERTEX
  5
aa
  8
Layer_0
  10
10.300018
  20
143.75
  0
VERTEX
  5
ab
  8
Layer_0
  10
289.69998
  20
143.75
  0
VERTEX
  5
ac
  8
Layer_0
  10
289.69998
  20
80.25
  0
SEQEND
  0
POLYLINE
  5
ae
  8
Layer_0
  62
0
  66
1
  10
0
  20
0
  30
0
  0
VERTEX
  5
ae
  8
Layer_0
  10
288.69998
  20
9.2500038
  0
VERTEX
  5
af
  8
Layer_0
  10
9.3000183
  20
9.2500038
  0
VERTEX
  5
b0
  8
Layer_0
  10
9.3000183
  20
72.75
  0
VERTEX
  5
b1
  8
Layer_0
  10
288.69998
  20
72.75
  0
VERTEX
  5
b2
  8
Layer_0
  10
288.69998
  20
9.2500038
  0
SEQEND
  0
CIRCLE
  5
b4
  8
Layer_0
  62
0
  10
21.111977
  20
202.16574
  30
0
  40
2.5
  0
CIRCLE
  5
b4
  8
Layer_0
  62
0
  10
21.111977
  20
182.16574
  30
0
  40
2.5
  0
POLYLINE
  5
b4
  8
Layer_0
  62
0
  66
1
  10
0
  20
0
  30
0
  0
VERTEX
  5
b4
  8
Layer_0
  10
288.69998
  20
154.25
  0
VERTEX
  5
b5
  8
Layer_0
  10
9.3000183
  20
154.25
  0
VERTEX
  5
b6
  8
Layer_0
  10
9.3000183
  20
217.75
  0
VERTEX
  5
b7
  8
Layer_0
  10
288.69998
  20
217.75
  0
VERTEX
  5
b8
  8
Layer_0
  10
288.69998
  20
154.25
  0
SEQEND
  0
POLYLINE
  5
ba
  8
Layer_3
  62
12
  66
1
  10
0
  20
0
  30
0
  0
VERTEX
  5
ba
  8
Layer_3
  10
30.703285
  20
199.31616
  42
0.14762395
  0
VERTEX
  5
bb
  8
Layer_3
  10
31.993568
  20
199.86768
  0
VERTEX
  5
bc
  8
Layer_3
  10
31.993568
  20
201.19824
  0
VERTEX
  5
bd
  8
Layer_3
  10
30.474525
  20
201.1958
  0
VERTEX
  5
be
  8
Layer_3
  10
30.474525
  20
200.77515
  0
VERTEX
  5
bf
  8
Layer_3
  10
31.528969
  20
200.77515
  0
VERTEX
  5
c0
  8
Layer_3
  10
31.528969
  20
200.10718
  42
-0.32420203
  0
VERTEX
  5
c1
  8
Layer_3
  10
29.663246
  20
199.98071
  42
-0.22321472
  0
VERTEX
  5
c2
  8
Layer_3
  10
29.176186
  20
200.94385
  42
-0.20905322
  0
VERTEX
  5
c3
  8
Layer_3
  10
29.528969
  20
202.25024
  42
-0.37132753
  0
VERTEX
  5
c4
  8
Layer_3
  10
31.244789
  20
202.33936
  42
-0.12444321
  0
VERTEX
  5
c5
  8
Layer_3
  10
31.511635
  20
201.83447
  0
VERTEX
  5
c6
  8
Layer_3
  10
31.939857
  20
201.9519
  42
0.32976328
  0
VERTEX
  5
c7
  8
Layer_3
  10
30.842445
  20
202.98438
  42
0.20264016
  0
VERTEX
  5
c8
  8
Layer_3
  10
29.331947
  20
202.67114
  42
0.22350815
  0
VERTEX
  5
c9
  8
Layer_3
  10
28.67643
  20
201.14453
  42
0.24210405
  0
VERTEX
  5
ca
  8
Layer_3
  10
29.345863
  20
199.65942
  42
0.17859656
  0
VERTEX
  5
cb
  8
Layer_3
  10
30.703285
  20
199.31616
  0
SEQEND
  0
POLYLINE
  5
cd
  8
Layer_3
  62
12
  66
1
  10
0
  20
0
  30
0
  0
VERTEX
  5
cd
  8
Layer_3
  10
36.637611
  20
199.33398
  42
0.2020466
  0
VERTEX
  5
ce
  8
Layer_3
  10
37.139076
  20
199.69629
  0
VERTEX
  5
cf
  8
Layer_3
  10
37.139076
  20
199.36841
  0
VERTEX
  5
d0
  8
Layer_3
  10
37.547523
  20
199.36841
  0
VERTEX
  5
d1
  8
Layer_3
  10
37.547523
  20
202.95483
  0
VERTEX
  5
d2
  8
Layer_3
  10
37.109535
  20
202.95483
  0
VERTEX
  5
d3
  8
Layer_3
  10
37.109535
  20
201.66797
  0
VERTEX
  5
d4
  8
Layer_3
  10
36.977455
  20
201.81201
  42
0.3710094
  0
VERTEX
  5
d5
  8
Layer_3
  10
35.691566
  20
201.7627
  42
0.2032489
  0
VERTEX
  5
d6
  8
Layer_3
  10
35.294594
  20
200.66504
  42
0.25541554
  0
VERTEX
  5
d7
  8
Layer_3
  10
35.841225
  20
199.48096
  42
0.20338351
  0
VERTEX
  5
d8
  8
Layer_3
  10
36.637611
  20
199.33398
  0
SEQEND
  0
POLYLINE
  5
da
  8
Layer_3
  62
12
  66
1
  10
0
  20
0
  30
0
  0
VERTEX
  5
da
  8
Layer_3
  10
33.088295
  20
200.78735
  0
VERTEX
  5
db
  8
Layer_3
  10
33.10099
  20
201.01685
  42
-0.20152924
  0
VERTEX
  5
dc
  8
Layer_3
  10
33.3078
  20
201.47246
  42
-0.20152921
  0
VERTEX
  5
dd
  8
Layer_3
  10
33.777992
  20
201.64355
  42
-0.20254539
  0
VERTEX
  5
de
  8
Layer_3
  10
34.139729
  20
201.5262
  42
-0.20254525
  0
VERTEX
  5
df
  8
Layer_3
  10
34.305824
  20
201.18408
  42
-0.032065453
  0
VERTEX
  5
e0
  8
Layer_3
  10
34.318764
  20
200.94873
  0
VERTEX
  5
e1
  8
Layer_3
  10
34.318764
  20
199.36841
  0
VERTEX
  5
e2
  8
Layer_3
  10
34.758949
  20
199.36841
  42
0.005177707
  0
VERTEX
  5
e3
  8
Layer_3
  10
34.757484
  20
201.10742
  42
0.28412591
  0
VERTEX
  5
e4
  8
Layer_3
  10
34.39518
  20
201.89526
  42
0.30623693
  0
VERTEX
  5
e5
  8
Layer_3
  10
33.203285
  20
201.78442
  0
VERTEX
  5
e6
  8
Layer_3
  10
33.044106
  20
201.59717
  0
VERTEX
  5
e7
  8
Layer_3
  10
33.044106
  20
201.96655
  0
VERTEX
  5
e8
  8
Layer_3
  10
32.647865
  20
201.96655
  0
VERTEX
  5
e9
  8
Layer_3
  10
32.647865
  20
199.36841
  0
VERTEX
  5
ea
  8
Layer_3
  10
33.088295
  20
199.36841
  0
VERTEX
  5
eb
  8
Layer_3
  10
33.088295
  20
200.78735
  0
SEQEND
  0
POLYLINE
  5
ed
  8
Layer_3
  62
12
  70
1
  66
1
  10
0
  20
0
  30
0
  0
VERTEX
  5
ed
  8
Layer_3
  10
36.31559
  20
199.68726
  0
VERTEX
  5
ee
  8
Layer_3
  10
36.186684
  20
199.73364
  42
-0.25890986
  0
VERTEX
  5
ef
  8
Layer_3
  10
35.76017
  20
200.4314
  42
-0.12923053
  0
VERTEX
  5
f0
  8
Layer_3
  10
35.857826
  20
201.28369
  42
-0.36046413
  0
VERTEX
  5
f1
  8
Layer_3
  10
36.579018
  20
201.64502
  42
-0.28286848
  0
VERTEX
  5
f2
  8
Layer_3
  10
37.094887
  20
201.09082
  42
-0.16446018
  0
VERTEX
  5
f3
  8
Layer_3
  10
37.032875
  20
200.0415
  42
-0.34998029
  0
SEQEND
  0
POLYLINE
  5
f5
  8
Layer_3
  62
12
  66
1
  10
0
  20
0
  30
0
  0
VERTEX
  5
f5
  8
Layer_3
  10
30.156986
  20
182.99394
  0
VERTEX
  5
f6
  8
Layer_3
  10
29.873051
  20
182.99394
  0
VERTEX
  5
f7
  8
Layer_3
  10
29.805424
  20
182.87675
  42
-0.1307374
  0
VERTEX
  5
f8
  8
Layer_3
  10
28.835941
  20
182.0938
  0
VERTEX
  5
f9
  8
Layer_3
  10
28.835941
  20
181.66801
  42
0.087504939
  0
VERTEX
  5
fa
  8
Layer_3
  10
29.716557
  20
182.19878
  0
VERTEX
  5
fb
  8
Layer_3
  10
29.716557
  20
179.39287
  0
VERTEX
  5
fc
  8
Layer_3
  10
30.156986
  20
179.39287
  0
VERTEX
  5
fd
  8
Layer_3
  10
30.156986
  20
182.99394
  0
SEQEND
  0
POLYLINE
  5
ff
  8
Layer_3
  62
12
  66
1
  10
0
  20
0
  30
0
  0
VERTEX
  5
ff
  8
Layer_3
  10
33.618168
  20
179.81621
  0
VERTEX
  5
100
  8
Layer_3
  10
31.859135
  20
179.81621
  42
-0.078223474
  0
VERTEX
  5
101
  8
Layer_3
  10
32.553959
  20
180.50615
  0
VERTEX
  5
102
  8
Layer_3
  10
32.774418
  20
180.69585
  42
0.10641009
  0
VERTEX
  5
103
  8
Layer_3
  10
33.52515
  20
181.575
  42
0.38241153
  0
VERTEX
  5
104
  8
Layer_3
  10
33.148441
  20
182.83281
  42
0.29492675
  0
VERTEX
  5
105
  8
Layer_3
  10
31.680668
  20
182.72856
  42
0.19733556
  0
VERTEX
  5
106
  8
Layer_3
  10
31.330814
  20
181.95659
  0
VERTEX
  5
107
  8
Layer_3
  10
31.783451
  20
181.9102
  0
VERTEX
  5
108
  8
Layer_3
  10
31.796391
  20
182.06987
  42
-0.39329737
  0
VERTEX
  5
109
  8
Layer_3
  10
32.485355
  20
182.62944
  42
-0.20658555
  0
VERTEX
  5
10a
  8
Layer_3
  10
32.957184
  20
182.4646
  42
-0.20658569
  0
VERTEX
  5
10b
  8
Layer_3
  10
33.160648
  20
182.0081
  42
-0.18150256
  0
VERTEX
  5
10c
  8
Layer_3
  10
32.828617
  20
181.32597
  42
-0.026417706
  0
VERTEX
  5
10d
  8
Layer_3
  10
31.832523
  20
180.429
  0
VERTEX
  5
10e
  8
Layer_3
  10
31.699711
  20
180.2979
  42
0.19668381
  0
VERTEX
  5
10f
  8
Layer_3
  10
31.247562
  20
179.39287
  0
VERTEX
  5
110
  8
Layer_3
  10
33.618168
  20
179.39287
  0
VERTEX
  5
111
  8
Layer_3
  10
33.618168
  20
179.81621
  0
SEQEND
  0
POLYLINE
  5
113
  8
Layer_3
  62
12
  66
1
  10
0
  20
0
  30
0
  0
VERTEX
  5
113
  8
Layer_3
  10
41.325687
  20
182.97929
  0
VERTEX
  5
114
  8
Layer_3
  10
40.885258
  20
182.97929
  0
VERTEX
  5
115
  8
Layer_3
  10
40.885258
  20
179.39287
  0
VERTEX
  5
116
  8
Layer_3
  10
41.325687
  20
179.39287
  0
VERTEX
  5
117
  8
Layer_3
  10
41.325687
  20
182.97929
  0
SEQEND
  0
POLYLINE
  5
119
  8
Layer_3
  62
12
  66
1
  10
0
  20
0
  30
0
  0
VERTEX
  5
119
  8
Layer_3
  10
42.846195
  20
179.36845
  0
VERTEX
  5
11a
  8
Layer_3
  10
43.022221
  20
179.39775
  0
VERTEX
  5
11b
  8
Layer_3
  10
42.958744
  20
179.78691
  0
VERTEX
  5
11c
  8
Layer_3
  10
42.850346
  20
179.77397
  42
-0.36623343
  0
VERTEX
  5
11d
  8
Layer_3
  10
42.539066
  20
179.88701
  42
-0.078437295
  0
VERTEX
  5
11e
  8
Layer_3
  10
42.515873
  20
180.1292
  0
VERTEX
  5
11f
  8
Layer_3
  10
42.515873
  20
181.64848
  0
VERTEX
  5
120
  8
Layer_3
  10
42.958744
  20
181.64848
  0
VERTEX
  5
121
  8
Layer_3
  10
42.958744
  20
181.99101
  0
VERTEX
  5
122
  8
Layer_3
  10
42.515873
  20
181.99101
  0
VERTEX
  5
123
  8
Layer_3
  10
42.515873
  20
182.89848
  0
VERTEX
  5
124
  8
Layer_3
  10
42.078129
  20
182.63432
  0
VERTEX
  5
125
  8
Layer_3
  10
42.078129
  20
181.99101
  0
VERTEX
  5
126
  8
Layer_3
  10
41.755131
  20
181.99101
  0
VERTEX
  5
127
  8
Layer_3
  10
41.755131
  20
181.64848
  0
VERTEX
  5
128
  8
Layer_3
  10
42.078129
  20
181.64848
  0
VERTEX
  5
129
  8
Layer_3
  10
42.078129
  20
180.15385
  42
0.082946516
  0
VERTEX
  5
12a
  8
Layer_3
  10
42.13184
  20
179.63383
  42
0.3032247
  0
VERTEX
  5
12b
  8
Layer_3
  10
42.689701
  20
179.35869
  0
VERTEX
  5
12c
  8
Layer_3
  10
42.846195
  20
179.36845
  0
SEQEND
  0
POLYLINE
  5
12e
  8
Layer_3
  62
12
  66
1
  10
0
  20
0
  30
0
  0
VERTEX
  5
12e
  8
Layer_3
  10
39.310551
  20
179.34428
  42
0.38627556
  0
VERTEX
  5
12f
  8
Layer_3
  10
40.350346
  20
180.49126
  42
0.15829241
  0
VERTEX
  5
130
  8
Layer_3
  10
40.168461
  20
181.50639
  42
0.26840592
  0
VERTEX
  5
131
  8
Layer_3
  10
39.143803
  20
182.04961
  42
0.20329727
  0
VERTEX
  5
132
  8
Layer_3
  10
38.285862
  20
181.71617
  42
0.20329716
  0
VERTEX
  5
133
  8
Layer_3
  10
37.931889
  20
180.8665
  42
0.14752359
  0
VERTEX
  5
134
  8
Layer_3
  10
38.11475
  20
179.87822
  42
0.2718473
  0
VERTEX
  5
135
  8
Layer_3
  10
39.143803
  20
179.33427
  0
VERTEX
  5
136
  8
Layer_3
  10
39.310551
  20
179.34428
  0
SEQEND
  0
POLYLINE
  5
138
  8
Layer_3
  62
12
  66
1
  10
0
  20
0
  30
0
  0
VERTEX
  5
138
  8
Layer_3
  10
44.483402
  20
179.34087
  42
0.31500837
  0
VERTEX
  5
139
  8
Layer_3
  10
45.349613
  20
179.94243
  42
0.40155857
  0
VERTEX
  5
13a
  8
Layer_3
  10
44.986576
  20
180.76421
  42
0.021958562
  0
VERTEX
  5
13b
  8
Layer_3
  10
43.94556
  20
181.08086
  0
VERTEX
  5
13c
  8
Layer_3
  10
43.845951
  20
181.13359
  42
-0.39955882
  0
VERTEX
  5
13d
  8
Layer_3
  10
43.755375
  20
181.47832
  42
-0.25380473
  0
VERTEX
  5
13e
  8
Layer_3
  10
44.144779
  20
181.68144
  42
-0.25344198
  0
VERTEX
  5
13f
  8
Layer_3
  10
44.746586
  20
181.51323
  42
-0.13814345
  0
VERTEX
  5
140
  8
Layer_3
  10
44.853275
  20
181.26201
  0
VERTEX
  5
141
  8
Layer_3
  10
45.283695
  20
181.3206
  42
0.34259606
  0
VERTEX
  5
142
  8
Layer_3
  10
44.670658
  20
182.00005
  42
0.20515701
  0
VERTEX
  5
143
  8
Layer_3
  10
43.593266
  20
181.8687
  42
0.35449219
  0
VERTEX
  5
144
  8
Layer_3
  10
43.35181
  20
181.03349
  42
0.23782933
  0
VERTEX
  5
145
  8
Layer_3
  10
43.939213
  20
180.60796
  42
0.014426963
  0
VERTEX
  5
146
  8
Layer_3
  10
44.512211
  20
180.45049
  0
VERTEX
  5
147
  8
Layer_3
  10
44.641605
  20
180.41118
  42
-0.21439465
  0
VERTEX
  5
148
  8
Layer_3
  10
44.868057
  20
180.28389
  42
-0.21437992
  0
VERTEX
  5
149
  8
Layer_3
  10
44.919926
  20
180.02934
  42
-0.32433556
  0
VERTEX
  5
14a
  8
Layer_3
  10
44.474125
  20
179.70415
  42
-0.26235329
  0
VERTEX
  5
14b
  8
Layer_3
  10
43.78809
  20
179.91313
  42
-0.1311843
  0
VERTEX
  5
14c
  8
Layer_3
  10
43.659428
  20
180.23686
  0
VERTEX
  5
14d
  8
Layer_3
  10
43.223881
  20
180.1685
  42
0.31293244
  0
VERTEX
  5
14e
  8
Layer_3
  10
43.888432
  20
179.38676
  42
0.081587394
  0
VERTEX
  5
14f
  8
Layer_3
  10
44.483402
  20
179.34087
  0
SEQEND
  0
POLYLINE
  5
151
  8
Layer_3
  62
12
  66
1
  10
0
  20
0
  30
0
  0
VERTEX
  5
151
  8
Layer_3
  10
37.750736
  20
181.99101
  0
VERTEX
  5
152
  8
Layer_3
  10
37.2981
  20
181.99101
  42
0.0067037282
  0
VERTEX
  5
153
  8
Layer_3
  10
36.627201
  20
180.13799
  0
VERTEX
  5
154
  8
Layer_3
  10
36.556889
  20
179.91167
  0
VERTEX
  5
155
  8
Layer_3
  10
36.477299
  20
180.17827
  42
0.0094044949
  0
VERTEX
  5
156
  8
Layer_3
  10
35.832767
  20
181.99101
  0
VERTEX
  5
157
  8
Layer_3
  10
35.367924
  20
181.99101
  0
VERTEX
  5
158
  8
Layer_3
  10
36.356205
  20
179.39287
  0
VERTEX
  5
159
  8
Layer_3
  10
36.767338
  20
179.39287
  0
VERTEX
  5
15a
  8
Layer_3
  10
37.750736
  20
181.99101
  0
SEQEND
  0
POLYLINE
  5
15c
  8
Layer_3
  62
12
  70
1
  66
1
  10
0
  20
0
  30
0
  0
VERTEX
  5
15c
  8
Layer_3
  10
38.985844
  20
179.71172
  42
-0.16623531
  0
VERTEX
  5
15d
  8
Layer_3
  10
38.595951
  20
179.94463
  42
-0.19562472
  0
VERTEX
  5
15e
  8
Layer_3
  10
38.39185
  20
180.92583
  42
-0.33825719
  0
VERTEX
  5
15f
  8
Layer_3
  10
38.985844
  20
181.66972
  42
-0.40365841
  0
VERTEX
  5
160
  8
Layer_3
  10
39.852299
  20
181.13017
  42
-0.17202495
  0
VERTEX
  5
161
  8
Layer_3
  10
39.784672
  20
180.08696
  42
-0.34384992
  0
SEQEND
  0
POLYLINE
  5
163
  8
Layer_3
  62
12
  66
1
  10
0
  20
0
  30
0
  0
VERTEX
  5
163
  8
Layer_3
  10
248.52667
  20
200.86536
  0
VERTEX
  5
164
  8
Layer_3
  10
250.20953
  20
200.86536
  0
VERTEX
  5
165
  8
Layer_3
  10
250.20953
  20
201.28845
  0
VERTEX
  5
166
  8
Layer_3
  10
248.52667
  20
201.28845
  0
VERTEX
  5
167
  8
Layer_3
  10
248.52667
  20
202.39905
  0
VERTEX
  5
168
  8
Layer_3
  10
250.4715
  20
202.39905
  0
VERTEX
  5
169
  8
Layer_3
  10
250.4715
  20
202.82239
  0
VERTEX
  5
16a
  8
Layer_3
  10
248.05206
  20
202.82239
  0
VERTEX
  5
16b
  8
Layer_3
  10
248.05206
  20
199.23596
  0
VERTEX
  5
16c
  8
Layer_3
  10
248.52667
  20
199.23596
  0
VERTEX
  5
16d
  8
Layer_3
  10
248.52667
  20
200.86536
  0
SEQEND
  0
POLYLINE
  5
16f
  8
Layer_3
  62
12
  66
1
  10
0
  20
0
  30
0
  0
VERTEX
  5
16f
  8
Layer_3
  10
252.01715
  20
199.19885
  42
0.13555023
  0
VERTEX
  5
170
  8
Layer_3
  10
252.72272
  20
199.55652
  0
VERTEX
  5
171
  8
Layer_3
  10
252.75446
  20
199.38464
  0
VERTEX
  5
172
  8
Layer_3
  10
252.81061
  20
199.23596
  0
VERTEX
  5
173
  8
Layer_3
  10
253.27057
  20
199.23596
  0
VERTEX
  5
174
  8
Layer_3
  10
253.20123
  20
199.38855
  42
-0.068942672
  0
VERTEX
  5
175
  8
Layer_3
  10
253.13116
  20
200.32458
  0
VERTEX
  5
176
  8
Layer_3
  10
253.13116
  20
200.91174
  42
0.1729921
  0
VERTEX
  5
177
  8
Layer_3
  10
252.97223
  20
201.61755
  42
0.20520907
  0
VERTEX
  5
178
  8
Layer_3
  10
252.12579
  20
201.8927
  42
0.18465184
  0
VERTEX
  5
179
  8
Layer_3
  10
251.22198
  20
201.61926
  42
0.15368383
  0
VERTEX
  5
17a
  8
Layer_3
  10
250.95392
  20
201.0929
  0
VERTEX
  5
17b
  8
Layer_3
  10
251.38458
  20
201.03406
  0
VERTEX
  5
17c
  8
Layer_3
  10
251.42487
  20
201.16174
  42
-0.33155617
  0
VERTEX
  5
17d
  8
Layer_3
  10
251.91705
  20
201.52136
  42
-0.20838652
  0
VERTEX
  5
17e
  8
Layer_3
  10
252.56354
  20
201.37903
  42
-0.21260123
  0
VERTEX
  5
17f
  8
Layer_3
  10
252.68585
  20
200.88489
  42
-0.036065035
  0
VERTEX
  5
180
  8
Layer_3
  10
251.58234
  20
200.6842
  0
VERTEX
  5
181
  8
Layer_3
  10
251.50934
  20
200.66711
  42
0.19887249
  0
VERTEX
  5
182
  8
Layer_3
  10
251.01309
  20
200.34482
  42
0.19887264
  0
VERTEX
  5
183
  8
Layer_3
  10
250.89264
  20
199.7655
  42
0.33479806
  0
VERTEX
  5
184
  8
Layer_3
  10
251.56451
  20
199.19055
  42
0.075481977
  0
VERTEX
  5
185
  8
Layer_3
  10
252.01715
  20
199.19885
  0
SEQEND
  0
POLYLINE
  5
187
  8
Layer_3
  62
12
  66
1
  10
0
  20
0
  30
0
  0
VERTEX
  5
187
  8
Layer_3
  10
254.27325
  20
200.65491
  0
VERTEX
  5
188
  8
Layer_3
  10
254.28595
  20
200.8844
  42
-0.20146364
  0
VERTEX
  5
189
  8
Layer_3
  10
254.49294
  20
201.34001
  42
-0.20146394
  0
VERTEX
  5
18a
  8
Layer_3
  10
254.9632
  20
201.51111
  42
-0.20238494
  0
VERTEX
  5
18b
  8
Layer_3
  10
255.32483
  20
201.39363
  42
-0.20238251
  0
VERTEX
  5
18c
  8
Layer_3
  10
255.49103
  20
201.05164
  42
-0.030953042
  0
VERTEX
  5
18d
  8
Layer_3
  10
255.50372
  20
200.81628
  0
VERTEX
  5
18e
  8
Layer_3
  10
255.50372
  20
199.23596
  0
VERTEX
  5
18f
  8
Layer_3
  10
255.94415
  20
199.23596
  42
0.0051777091
  0
VERTEX
  5
190
  8
Layer_3
  10
255.94269
  20
200.97498
  42
0.28396212
  0
VERTEX
  5
191
  8
Layer_3
  10
255.58014
  20
201.76282
  42
0.30621209
  0
VERTEX
  5
192
  8
Layer_3
  10
254.38824
  20
201.65198
  0
VERTEX
  5
193
  8
Layer_3
  10
254.22931
  20
201.46472
  0
VERTEX
  5
194
  8
Layer_3
  10
254.22931
  20
201.83411
  0
VERTEX
  5
195
  8
Layer_3
  10
253.83307
  20
201.83411
  0
VERTEX
  5
196
  8
Layer_3
  10
253.83307
  20
199.23596
  0
VERTEX
  5
197
  8
Layer_3
  10
254.27325
  20
199.23596
  0
VERTEX
  5
198
  8
Layer_3
  10
254.27325
  20
200.65491
  0
SEQEND
  0
POLYLINE
  5
19a
  8
Layer_3
  62
12
  70
1
  66
1
  10
0
  20
0
  30
0
  0
VERTEX
  5
19a
  8
Layer_3
  10
251.75055
  20
199.52966
  42
-0.40276894
  0
VERTEX
  5
19b
  8
Layer_3
  10
251.34772
  20
199.93323
  42
-0.38317112
  0
VERTEX
  5
19c
  8
Layer_3
  10
251.73492
  20
200.33191
  42
-0.020281619
  0
VERTEX
  5
19d
  8
Layer_3
  10
252.19147
  20
200.40979
  0
VERTEX
  5
19e
  8
Layer_3
  10
252.38629
  20
200.44934
  42
0.039279836
  0
VERTEX
  5
19f
  8
Layer_3
  10
252.68585
  20
200.53992
  42
-0.1619548
  0
VERTEX
  5
1a0
  8
Layer_3
  10
252.56207
  20
199.84656
  42
-0.27552714
  0
SEQEND
  0
POLYLINE
  5
1a2
  8
Layer_3
  62
12
  66
1
  10
0
  20
0
  30
0
  0
VERTEX
  5
1a2
  8
Layer_3
  10
248.9458
  20
182.78828
  0
VERTEX
  5
1a3
  8
Layer_3
  10
249.98291
  20
179.73531
  0
VERTEX
  5
1a4
  8
Layer_3
  10
250.41113
  20
179.73531
  0
VERTEX
  5
1a5
  8
Layer_3
  10
251.45313
  20
182.73701
  0
VERTEX
  5
1a6
  8
Layer_3
  10
251.45313
  20
179.73531
  0
VERTEX
  5
1a7
  8
Layer_3
  10
251.91064
  20
179.73531
  0
VERTEX
  5
1a8
  8
Layer_3
  10
251.91064
  20
183.32173
  0
VERTEX
  5
1a9
  8
Layer_3
  10
251.27222
  20
183.32173
  42
0.0068409416
  0
VERTEX
  5
1aa
  8
Layer_3
  10
250.22266
  20
180.25166
  0
VERTEX
  5
1ab
  8
Layer_3
  10
250.1062
  20
180.61617
  0
VERTEX
  5
1ac
  8
Layer_3
  10
249.20264
  20
183.32173
  0
VERTEX
  5
1ad
  8
Layer_3
  10
248.48828
  20
183.32173
  0
VERTEX
  5
1ae
  8
Layer_3
  10
248.48828
  20
179.73531
  0
VERTEX
  5
1af
  8
Layer_3
  10
248.9458
  20
179.73531
  0
VERTEX
  5
1b0
  8
Layer_3
  10
248.9458
  20
182.78828
  0
SEQEND
  0
POLYLINE
  5
1b2
  8
Layer_3
  62
12
  66
1
  10
0
  20
0
  30
0
  0
VERTEX
  5
1b2
  8
Layer_3
  10
255.85352
  20
183.32173
  0
VERTEX
  5
1b3
  8
Layer_3
  10
255.41309
  20
183.32173
  0
VERTEX
  5
1b4
  8
Layer_3
  10
255.41309
  20
182.81538
  0
VERTEX
  5
1b5
  8
Layer_3
  10
255.85352
  20
182.81538
  0
VERTEX
  5
1b6
  8
Layer_3
  10
255.85352
  20
183.32173
  0
SEQEND
  0
POLYLINE
  5
1b8
  8
Layer_3
  62
12
  66
1
  10
0
  20
0
  30
0
  0
VERTEX
  5
1b8
  8
Layer_3
  10
261.15186
  20
183.32173
  0
VERTEX
  5
1b9
  8
Layer_3
  10
260.71143
  20
183.32173
  0
VERTEX
  5
1ba
  8
Layer_3
  10
260.71143
  20
179.73531
  0
VERTEX
  5
1bb
  8
Layer_3
  10
261.15186
  20
179.73531
  0
VERTEX
  5
1bc
  8
Layer_3
  10
261.15186
  20
183.32173
  0
SEQEND
  0
POLYLINE
  5
1be
  8
Layer_3
  62
12
  66
1
  10
0
  20
0
  30
0
  0
VERTEX
  5
1be
  8
Layer_3
  10
262.26611
  20
183.32173
  0
VERTEX
  5
1bf
  8
Layer_3
  10
261.82593
  20
183.32173
  0
VERTEX
  5
1c0
  8
Layer_3
  10
261.82593
  20
182.81538
  0
VERTEX
  5
1c1
  8
Layer_3
  10
262.26611
  20
182.81538
  0
VERTEX
  5
1c2
  8
Layer_3
  10
262.26611
  20
183.32173
  0
SEQEND
  0
POLYLINE
  5
1c4
  8
Layer_3
  62
12
  66
1
  10
0
  20
0
  30
0
  0
VERTEX
  5
1c4
  8
Layer_3
  10
266.12158
  20
181.15669
  0
VERTEX
  5
1c5
  8
Layer_3
  10
266.12598
  20
181.30122
  42
-0.20768451
  0
VERTEX
  5
1c6
  8
Layer_3
  10
266.31177
  20
181.80641
  42
-0.20768505
  0
VERTEX
  5
1c7
  8
Layer_3
  10
266.80884
  20
182.01289
  42
-0.20458954
  0
VERTEX
  5
1c8
  8
Layer_3
  10
267.18121
  20
181.8904
  42
-0.20458969
  0
VERTEX
  5
1c9
  8
Layer_3
  10
267.3479
  20
181.5356
  0
VERTEX
  5
1ca
  8
Layer_3
  10
267.35693
  20
181.38179
  0
VERTEX
  5
1cb
  8
Layer_3
  10
267.35693
  20
179.73531
  0
VERTEX
  5
1cc
  8
Layer_3
  10
267.79712
  20
179.73531
  42
0.015644199
  0
VERTEX
  5
1cd
  8
Layer_3
  10
267.7915
  20
181.56123
  42
0.19937605
  0
VERTEX
  5
1ce
  8
Layer_3
  10
267.5882
  20
182.13106
  42
0.19937564
  0
VERTEX
  5
1cf
  8
Layer_3
  10
267.03906
  20
182.38496
  42
0.26003625
  0
VERTEX
  5
1d0
  8
Layer_3
  10
266.12158
  20
182.03487
  0
VERTEX
  5
1d1
  8
Layer_3
  10
266.12158
  20
183.32173
  0
VERTEX
  5
1d2
  8
Layer_3
  10
265.68115
  20
183.32173
  0
VERTEX
  5
1d3
  8
Layer_3
  10
265.68115
  20
179.73531
  0
VERTEX
  5
1d4
  8
Layer_3
  10
266.12158
  20
179.73531
  0
VERTEX
  5
1d5
  8
Layer_3
  10
266.12158
  20
181.15669
  0
SEQEND
  0
POLYLINE
  5
1d7
  8
Layer_3
  62
12
  66
1
  10
0
  20
0
  30
0
  0
VERTEX
  5
1d7
  8
Layer_3
  10
269.33569
  20
179.71089
  0
VERTEX
  5
1d8
  8
Layer_3
  10
269.51172
  20
179.74019
  0
VERTEX
  5
1d9
  8
Layer_3
  10
269.44824
  20
180.12935
  0
VERTEX
  5
1da
  8
Layer_3
  10
269.33984
  20
180.11641
  42
-0.36635995
  0
VERTEX
  5
1db
  8
Layer_3
  10
269.02856
  20
180.22945
  42
-0.078732965
  0
VERTEX
  5
1dc
  8
Layer_3
  10
269.00537
  20
180.47163
  0
VERTEX
  5
1dd
  8
Layer_3
  10
269.00537
  20
181.99092
  0
VERTEX
  5
1de
  8
Layer_3
  10
269.44824
  20
181.99092
  0
VERTEX
  5
1df
  8
Layer_3
  10
269.44824
  20
182.33345
  0
VERTEX
  5
1e0
  8
Layer_3
  10
269.00537
  20
182.33345
  0
VERTEX
  5
1e1
  8
Layer_3
  10
269.00537
  20
183.24092
  0
VERTEX
  5
1e2
  8
Layer_3
  10
268.56738
  20
182.97676
  0
VERTEX
  5
1e3
  8
Layer_3
  10
268.56738
  20
182.33345
  0
VERTEX
  5
1e4
  8
Layer_3
  10
268.24463
  20
182.33345
  0
VERTEX
  5
1e5
  8
Layer_3
  10
268.24463
  20
181.99092
  0
VERTEX
  5
1e6
  8
Layer_3
  10
268.56738
  20
181.99092
  0
VERTEX
  5
1e7
  8
Layer_3
  10
268.56738
  20
180.49629
  42
0.08344966
  0
VERTEX
  5
1e8
  8
Layer_3
  10
268.62134
  20
179.97627
  42
0.30348411
  0
VERTEX
  5
1e9
  8
Layer_3
  10
269.17896
  20
179.70113
  0
VERTEX
  5
1ea
  8
Layer_3
  10
269.33569
  20
179.71089
  0
SEQEND
  0
POLYLINE
  5
1ec
  8
Layer_3
  62
12
  66
1
  10
0
  20
0
  30
0
  0
VERTEX
  5
1ec
  8
Layer_3
  10
253.59497
  20
179.6982
  42
0.073759981
  0
VERTEX
  5
1ed
  8
Layer_3
  10
253.9436
  20
179.8127
  42
0.057503713
  0
VERTEX
  5
1ee
  8
Layer_3
  10
254.30029
  20
180.05586
  0
VERTEX
  5
1ef
  8
Layer_3
  10
254.33203
  20
179.88399
  0
VERTEX
  5
1f0
  8
Layer_3
  10
254.38843
  20
179.73531
  0
VERTEX
  5
1f1
  8
Layer_3
  10
254.84839
  20
179.73531
  0
VERTEX
  5
1f2
  8
Layer_3
  10
254.77881
  20
179.88789
  42
-0.068814007
  0
VERTEX
  5
1f3
  8
Layer_3
  10
254.70874
  20
180.82393
  0
VERTEX
  5
1f4
  8
Layer_3
  10
254.70874
  20
181.41109
  42
0.17357206
  0
VERTEX
  5
1f5
  8
Layer_3
  10
254.5498
  20
182.1169
  42
0.20537495
  0
VERTEX
  5
1f6
  8
Layer_3
  10
253.70337
  20
182.39204
  42
0.18464949
  0
VERTEX
  5
1f7
  8
Layer_3
  10
252.79956
  20
182.11861
  42
0.15359343
  0
VERTEX
  5
1f8
  8
Layer_3
  10
252.53174
  20
181.59224
  0
VERTEX
  5
1f9
  8
Layer_3
  10
252.96216
  20
181.5334
  0
VERTEX
  5
1fa
  8
Layer_3
  10
253.00244
  20
181.66109
  42
-0.3313588
  0
VERTEX
  5
1fb
  8
Layer_3
  10
253.49463
  20
182.02071
  42
-0.20833613
  0
VERTEX
  5
1fc
  8
Layer_3
  10
254.14136
  20
181.87837
  42
-0.21238675
  0
VERTEX
  5
1fd
  8
Layer_3
  10
254.26367
  20
181.38423
  42
-0.036059147
  0
VERTEX
  5
1fe
  8
Layer_3
  10
253.16016
  20
181.18355
  0
VERTEX
  5
1ff
  8
Layer_3
  10
253.08691
  20
181.16646
  42
0.198764
  0
VERTEX
  5
200
  8
Layer_3
  10
252.59081
  20
180.84407
  42
0.198764
  0
VERTEX
  5
201
  8
Layer_3
  10
252.47021
  20
180.26485
  42
0.33470158
  0
VERTEX
  5
202
  8
Layer_3
  10
253.14209
  20
179.6899
  42
0.0754413
  0
VERTEX
  5
203
  8
Layer_3
  10
253.59497
  20
179.6982
  0
SEQEND
  0
POLYLINE
  5
205
  8
Layer_3
  62
12
  66
1
  10
0
  20
0
  30
0
  0
VERTEX
  5
205
  8
Layer_3
  10
256.95313
  20
181.15425
  42
-0.20894968
  0
VERTEX
  5
206
  8
Layer_3
  10
257.15747
  20
181.83199
  42
-0.35145121
  0
VERTEX
  5
207
  8
Layer_3
  10
258.0105
  20
181.88789
  42
-0.22785976
  0
VERTEX
  5
208
  8
Layer_3
  10
258.18359
  20
181.31563
  0
VERTEX
  5
209
  8
Layer_3
  10
258.18359
  20
179.73531
  0
VERTEX
  5
20a
  8
Layer_3
  10
258.62402
  20
179.73531
  42
0.0051777049
  0
VERTEX
  5
20b
  8
Layer_3
  10
258.62256
  20
181.47432
  42
0.28396204
  0
VERTEX
  5
20c
  8
Layer_3
  10
258.26001
  20
182.26216
  42
0.30621209
  0
VERTEX
  5
20d
  8
Layer_3
  10
257.06812
  20
182.15132
  0
VERTEX
  5
20e
  8
Layer_3
  10
256.90918
  20
181.96407
  0
VERTEX
  5
20f
  8
Layer_3
  10
256.90918
  20
182.33345
  0
VERTEX
  5
210
  8
Layer_3
  10
256.51294
  20
182.33345
  0
VERTEX
  5
211
  8
Layer_3
  10
256.51294
  20
179.73531
  0
VERTEX
  5
212
  8
Layer_3
  10
256.95313
  20
179.73531
  0
VERTEX
  5
213
  8
Layer_3
  10
256.95313
  20
181.15425
  0
SEQEND
  0
POLYLINE
  5
215
  8
Layer_3
  62
12
  66
1
  10
0
  20
0
  30
0
  0
VERTEX
  5
215
  8
Layer_3
  10
264.0603
  20
178.69014
  42
0.38219541
  0
VERTEX
  5
216
  8
Layer_3
  10
265.01563
  20
179.56929
  42
0.034891583
  0
VERTEX
  5
217
  8
Layer_3
  10
265.04663
  20
180.0876
  0
VERTEX
  5
218
  8
Layer_3
  10
265.04663
  20
182.33345
  0
VERTEX
  5
219
  8
Layer_3
  10
264.64038
  20
182.33345
  0
VERTEX
  5
21a
  8
Layer_3
  10
264.64038
  20
182.02022
  0
VERTEX
  5
21b
  8
Layer_3
  10
264.4812
  20
182.18282
  42
0.40471126
  0
VERTEX
  5
21c
  8
Layer_3
  10
263.05615
  20
182.01387
  42
0.31643492
  0
VERTEX
  5
21d
  8
Layer_3
  10
263.05029
  20
180.12202
  42
0.34173499
  0
VERTEX
  5
21e
  8
Layer_3
  10
264.27466
  20
179.82051
  42
0.108143
  0
VERTEX
  5
21f
  8
Layer_3
  10
264.59888
  20
180.07539
  42
-0.10795609
  0
VERTEX
  5
220
  8
Layer_3
  10
264.53101
  20
179.40645
  42
-0.32267385
  0
VERTEX
  5
221
  8
Layer_3
  10
263.86987
  20
179.04561
  42
-0.28004795
  0
VERTEX
  5
222
  8
Layer_3
  10
263.32373
  20
179.28535
  42
-0.08457036
  0
VERTEX
  5
223
  8
Layer_3
  10
263.27295
  20
179.4565
  0
VERTEX
  5
224
  8
Layer_3
  10
262.84497
  20
179.52022
  42
0.32779658
  0
VERTEX
  5
225
  8
Layer_3
  10
263.27563
  20
178.79878
  42
0.1320963
  0
VERTEX
  5
226
  8
Layer_3
  10
264.0603
  20
178.69014
  0
SEQEND
  0
POLYLINE
  5
228
  8
Layer_3
  62
12
  66
1
  10
0
  20
0
  30
0
  0
VERTEX
  5
228
  8
Layer_3
  10
255.85352
  20
182.33345
  0
VERTEX
  5
229
  8
Layer_3
  10
255.41309
  20
182.33345
  0
VERTEX
  5
22a
  8
Layer_3
  10
255.41309
  20
179.73531
  0
VERTEX
  5
22b
  8
Layer_3
  10
255.85352
  20
179.73531
  0
VERTEX
  5
22c
  8
Layer_3
  10
255.85352
  20
182.33345
  0
SEQEND
  0
POLYLINE
  5
22e
  8
Layer_3
  62
12
  66
1
  10
0
  20
0
  30
0
  0
VERTEX
  5
22e
  8
Layer_3
  10
262.26611
  20
182.33345
  0
VERTEX
  5
22f
  8
Layer_3
  10
261.82593
  20
182.33345
  0
VERTEX
  5
230
  8
Layer_3
  10
261.82593
  20
179.73531
  0
VERTEX
  5
231
  8
Layer_3
  10
262.26611
  20
179.73531
  0
VERTEX
  5
232
  8
Layer_3
  10
262.26611
  20
182.33345
  0
SEQEND
  0
POLYLINE
  5
234
  8
Layer_3
  62
12
  66
1
  10
0
  20
0
  30
0
  0
VERTEX
  5
234
  8
Layer_3
  10
263.7749
  20
180.1147
  0
VERTEX
  5
235
  8
Layer_3
  10
263.64111
  20
180.15865
  42
-0.27229446
  0
VERTEX
  5
236
  8
Layer_3
  10
263.22217
  20
180.84248
  42
-0.14195981
  0
VERTEX
  5
237
  8
Layer_3
  10
263.32495
  20
181.65547
  42
-0.34709006
  0
VERTEX
  5
238
  8
Layer_3
  10
264.05762
  20
182.01241
  42
-0.32768189
  0
VERTEX
  5
239
  8
Layer_3
  10
264.62231
  20
181.28999
  42
-0.13850602
  0
VERTEX
  5
23a
  8
Layer_3
  10
264.52002
  20
180.467
  42
-0.34417924
  0
VERTEX
  5
23b
  8
Layer_3
  10
263.7749
  20
180.1147
  0
SEQEND
  0
POLYLINE
  5
23d
  8
Layer_3
  62
12
  70
1
  66
1
  10
0
  20
0
  30
0
  0
VERTEX
  5
23d
  8
Layer_3
  10
253.32837
  20
180.02901
  42
-0.30998091
  0
VERTEX
  5
23e
  8
Layer_3
  10
252.95497
  20
180.28458
  42
-0.3099852
  0
VERTEX
  5
23f
  8
Layer_3
  10
253.06055
  20
180.72456
  42
-0.12289411
  0
VERTEX
  5
240
  8
Layer_3
  10
253.4187
  20
180.85274
  0
VERTEX
  5
241
  8
Layer_3
  10
253.76929
  20
180.90913
  42
0.053028151
  0
VERTEX
  5
242
  8
Layer_3
  10
254.26367
  20
181.03926
  42
-0.16176647
  0
VERTEX
  5
243
  8
Layer_3
  10
254.13965
  20
180.3459
  42
-0.27574774
  0
SEQEND
  0
CIRCLE
  5
245
  8
Layer_0
  62
0
  10
275
  20
202
  30
0
  40
2.5
  0
CIRCLE
  5
245
  8
Layer_0
  62
0
  10
275
  20
182
  30
0
  40
2.5
  0
POLYLINE
  5
245
  8
Layer_3
  62
12
  66
1
  10
0
  20
0
  30
0
  0
VERTEX
  5
245
  8
Layer_3
  10
361.06409
  20
108.18364
  42
0.23601986
  0
VERTEX
  5
246
  8
Layer_3
  10
361.88385
  20
108.74753
  42
0.23601916
  0
VERTEX
  5
247
  8
Layer_3
  10
361.92297
  20
109.74174
  42
0.22849729
  0
VERTEX
  5
248
  8
Layer_3
  10
361.35168
  20
110.16899
  0
VERTEX
  5
249
  8
Layer_3
  10
361.46667
  20
110.23027
  42
0.3862896
  0
VERTEX
  5
24a
  8
Layer_3
  10
361.77234
  20
111.24736
  42
0.34174772
  0
VERTEX
  5
24b
  8
Layer_3
  10
360.59241
  20
111.81255
  42
0.33588436
  0
VERTEX
  5
24c
  8
Layer_3
  10
359.71765
  20
110.89799
  0
VERTEX
  5
24d
  8
Layer_3
  10
360.15808
  20
110.81987
  0
VERTEX
  5
24e
  8
Layer_3
  10
360.19006
  20
110.97124
  42
-0.19777681
  0
VERTEX
  5
24f
  8
Layer_3
  10
360.45978
  20
111.36662
  42
-0.19777706
  0
VERTEX
  5
250
  8
Layer_3
  10
360.93005
  20
111.45561
  42
-0.3785965
  0
VERTEX
  5
251
  8
Layer_3
  10
361.39343
  20
110.90532
  42
-0.37178707
  0
VERTEX
  5
252
  8
Layer_3
  10
360.92932
  20
110.34282
  42
-0.10158627
  0
VERTEX
  5
253
  8
Layer_3
  10
360.59094
  20
110.31084
  0
VERTEX
  5
254
  8
Layer_3
  10
360.54211
  20
109.92436
  0
VERTEX
  5
255
  8
Layer_3
  10
360.71277
  20
109.96123
  42
-0.20300911
  0
VERTEX
  5
256
  8
Layer_3
  10
361.24219
  20
109.86728
  42
-0.20300844
  0
VERTEX
  5
257
  8
Layer_3
  10
361.54236
  20
109.42119
  42
-0.1991957
  0
VERTEX
  5
258
  8
Layer_3
  10
361.43671
  20
108.86131
  42
-0.19919728
  0
VERTEX
  5
259
  8
Layer_3
  10
360.96545
  20
108.54106
  42
-0.19863228
  0
VERTEX
  5
25a
  8
Layer_3
  10
360.45438
  20
108.63166
  42
-0.19863253
  0
VERTEX
  5
25b
  8
Layer_3
  10
360.15857
  20
109.05815
  0
VERTEX
  5
25c
  8
Layer_3
  10
360.11389
  20
109.23222
  0
VERTEX
  5
25d
  8
Layer_3
  10
359.67371
  20
109.17339
  42
0.29632249
  0
VERTEX
  5
25e
  8
Layer_3
  10
360.38147
  20
108.23344
  42
0.12320536
  0
VERTEX
  5
25f
  8
Layer_3
  10
361.06409
  20
108.18364
  0
SEQEND
  0
POLYLINE
  5
261
  8
Layer_3
  62
12
  66
1
  10
0
  20
0
  30
0
  0
VERTEX
  5
261
  8
Layer_3
  10
337.18884
  20
111.38969
  0
VERTEX
  5
262
  8
Layer_3
  10
338.37537
  20
111.38969
  0
VERTEX
  5
263
  8
Layer_3
  10
338.37537
  20
111.81303
  0
VERTEX
  5
264
  8
Layer_3
  10
335.53259
  20
111.81303
  0
VERTEX
  5
265
  8
Layer_3
  10
335.53259
  20
111.38969
  0
VERTEX
  5
266
  8
Layer_3
  10
336.71423
  20
111.38969
  0
VERTEX
  5
267
  8
Layer_3
  10
336.71423
  20
108.22661
  0
VERTEX
  5
268
  8
Layer_3
  10
337.18884
  20
108.22661
  0
VERTEX
  5
269
  8
Layer_3
  10
337.18884
  20
111.38969
  0
SEQEND
  0
POLYLINE
  5
26b
  8
Layer_3
  62
12
  66
1
  10
0
  20
0
  30
0
  0
VERTEX
  5
26b
  8
Layer_3
  10
374.46741
  20
111.01787
  0
VERTEX
  5
26c
  8
Layer_3
  10
374.46741
  20
111.81303
  0
VERTEX
  5
26d
  8
Layer_3
  10
373.92175
  20
111.81303
  0
VERTEX
  5
26e
  8
Layer_3
  10
373.92175
  20
111.01787
  0
VERTEX
  5
26f
  8
Layer_3
  10
374.05627
  20
109.11723
  0
VERTEX
  5
270
  8
Layer_3
  10
374.34021
  20
109.11723
  0
VERTEX
  5
271
  8
Layer_3
  10
374.46741
  20
111.01787
  0
SEQEND
  0
POLYLINE
  5
273
  8
Layer_3
  62
12
  66
1
  10
0
  20
0
  30
0
  0
VERTEX
  5
273
  8
Layer_3
  10
339.29211
  20
109.64799
  42
-0.18653928
  0
VERTEX
  5
274
  8
Layer_3
  10
339.4635
  20
110.28325
  42
-0.3419869
  0
VERTEX
  5
275
  8
Layer_3
  10
340.3053
  20
110.41948
  42
-0.25620253
  0
VERTEX
  5
276
  8
Layer_3
  10
340.52747
  20
109.87309
  0
VERTEX
  5
277
  8
Layer_3
  10
340.52747
  20
108.22661
  0
VERTEX
  5
278
  8
Layer_3
  10
340.96765
  20
108.22661
  42
0.015644199
  0
VERTEX
  5
279
  8
Layer_3
  10
340.96204
  20
110.05254
  42
0.19937398
  0
VERTEX
  5
27a
  8
Layer_3
  10
340.75873
  20
110.62236
  42
0.19937764
  0
VERTEX
  5
27b
  8
Layer_3
  10
340.20959
  20
110.87627
  42
0.2598788
  0
VERTEX
  5
27c
  8
Layer_3
  10
339.29211
  20
110.52617
  0
VERTEX
  5
27d
  8
Layer_3
  10
339.29211
  20
111.81303
  0
VERTEX
  5
27e
  8
Layer_3
  10
338.85168
  20
111.81303
  0
VERTEX
  5
27f
  8
Layer_3
  10
338.85168
  20
108.22661
  0
VERTEX
  5
280
  8
Layer_3
  10
339.29211
  20
108.22661
  0
VERTEX
  5
281
  8
Layer_3
  10
339.29211
  20
109.64799
  0
SEQEND
  0
POLYLINE
  5
283
  8
Layer_3
  62
12
  66
1
  10
0
  20
0
  30
0
  0
VERTEX
  5
283
  8
Layer_3
  10
342.09998
  20
111.81303
  0
VERTEX
  5
284
  8
Layer_3
  10
341.65979
  20
111.81303
  0
VERTEX
  5
285
  8
Layer_3
  10
341.65979
  20
111.30669
  0
VERTEX
  5
286
  8
Layer_3
  10
342.09998
  20
111.30669
  0
VERTEX
  5
287
  8
Layer_3
  10
342.09998
  20
111.81303
  0
SEQEND
  0
POLYLINE
  5
289
  8
Layer_3
  62
12
  66
1
  10
0
  20
0
  30
0
  0
VERTEX
  5
289
  8
Layer_3
  10
373.06458
  20
111.01787
  0
VERTEX
  5
28a
  8
Layer_3
  10
373.06458
  20
111.81303
  0
VERTEX
  5
28b
  8
Layer_3
  10
372.51892
  20
111.81303
  0
VERTEX
  5
28c
  8
Layer_3
  10
372.51892
  20
111.01787
  0
VERTEX
  5
28d
  8
Layer_3
  10
372.65344
  20
109.11723
  0
VERTEX
  5
28e
  8
Layer_3
  10
372.93738
  20
109.11723
  0
VERTEX
  5
28f
  8
Layer_3
  10
373.06458
  20
111.01787
  0
SEQEND
  0
POLYLINE
  5
291
  8
Layer_3
  62
12
  66
1
  10
0
  20
0
  30
0
  0
VERTEX
  5
291
  8
Layer_3
  10
345.7074
  20
109.25664
  0
VERTEX
  5
292
  8
Layer_3
  10
346.01794
  20
109.55498
  0
VERTEX
  5
293
  8
Layer_3
  10
346.87659
  20
108.22661
  0
VERTEX
  5
294
  8
Layer_3
  10
347.4198
  20
108.22661
  0
VERTEX
  5
295
  8
Layer_3
  10
346.32629
  20
109.86089
  0
VERTEX
  5
296
  8
Layer_3
  10
347.31946
  20
110.82475
  0
VERTEX
  5
297
  8
Layer_3
  10
346.74939
  20
110.82475
  0
VERTEX
  5
298
  8
Layer_3
  10
345.7074
  20
109.76787
  0
VERTEX
  5
299
  8
Layer_3
  10
345.7074
  20
111.81303
  0
VERTEX
  5
29a
  8
Layer_3
  10
345.26697
  20
111.81303
  0
VERTEX
  5
29b
  8
Layer_3
  10
345.26697
  20
108.22661
  0
VERTEX
  5
29c
  8
Layer_3
  10
345.7074
  20
108.22661
  0
VERTEX
  5
29d
  8
Layer_3
  10
345.7074
  20
109.25664
  0
SEQEND
  0
POLYLINE
  5
29f
  8
Layer_3
  62
12
  66
1
  10
0
  20
0
  30
0
  0
VERTEX
  5
29f
  8
Layer_3
  10
354.46423
  20
108.17461
  42
0.31513624
  0
VERTEX
  5
2a0
  8
Layer_3
  10
355.3302
  20
108.77617
  42
0.40155777
  0
VERTEX
  5
2a1
  8
Layer_3
  10
354.96716
  20
109.59795
  42
0.021959614
  0
VERTEX
  5
2a2
  8
Layer_3
  10
353.92615
  20
109.9146
  0
VERTEX
  5
2a3
  8
Layer_3
  10
353.82654
  20
109.96733
  42
-0.39955989
  0
VERTEX
  5
2a4
  8
Layer_3
  10
353.73596
  20
110.31206
  42
-0.25377112
  0
VERTEX
  5
2a5
  8
Layer_3
  10
354.12537
  20
110.51518
  42
-0.25344217
  0
VERTEX
  5
2a6
  8
Layer_3
  10
354.72717
  20
110.34697
  42
-0.1381438
  0
VERTEX
  5
2a7
  8
Layer_3
  10
354.83386
  20
110.09575
  0
VERTEX
  5
2a8
  8
Layer_3
  10
355.26428
  20
110.15434
  42
0.34259623
  0
VERTEX
  5
2a9
  8
Layer_3
  10
354.65125
  20
110.83379
  42
0.20515711
  0
VERTEX
  5
2aa
  8
Layer_3
  10
353.57385
  20
110.70244
  42
0.35449148
  0
VERTEX
  5
2ab
  8
Layer_3
  10
353.3324
  20
109.86723
  42
0.23782976
  0
VERTEX
  5
2ac
  8
Layer_3
  10
353.9198
  20
109.4417
  42
0.014429249
  0
VERTEX
  5
2ad
  8
Layer_3
  10
354.4928
  20
109.28423
  0
VERTEX
  5
2ae
  8
Layer_3
  10
354.62219
  20
109.24492
  42
-0.2143857
  0
VERTEX
  5
2af
  8
Layer_3
  10
354.84863
  20
109.11763
  42
-0.21438684
  0
VERTEX
  5
2b0
  8
Layer_3
  10
354.90051
  20
108.86308
  42
-0.3243352
  0
VERTEX
  5
2b1
  8
Layer_3
  10
354.45471
  20
108.53789
  42
-0.26235362
  0
VERTEX
  5
2b2
  8
Layer_3
  10
353.76868
  20
108.74687
  42
-0.13118486
  0
VERTEX
  5
2b3
  8
Layer_3
  10
353.64001
  20
109.0706
  0
VERTEX
  5
2b4
  8
Layer_3
  10
353.20447
  20
109.00224
  42
0.31293295
  0
VERTEX
  5
2b5
  8
Layer_3
  10
353.86902
  20
108.2205
  42
0.081557963
  0
VERTEX
  5
2b6
  8
Layer_3
  10
354.46423
  20
108.17461
  0
SEQEND
  0
POLYLINE
  5
2b8
  8
Layer_3
  62
12
  66
1
  10
0
  20
0
  30
0
  0
VERTEX
  5
2b8
  8
Layer_3
  10
367.24792
  20
109.57451
  0
VERTEX
  5
2b9
  8
Layer_3
  10
367.25232
  20
109.7415
  42
-0.20855398
  0
VERTEX
  5
2ba
  8
Layer_3
  10
367.474
  20
110.34941
  42
-0.3941817
  0
VERTEX
  5
2bb
  8
Layer_3
  10
368.24353
  20
110.35503
  42
-0.15523932
  0
VERTEX
  5
2bc
  8
Layer_3
  10
368.3512
  20
109.9146
  0
VERTEX
  5
2bd
  8
Layer_3
  10
368.3512
  20
108.22661
  0
VERTEX
  5
2be
  8
Layer_3
  10
368.79138
  20
108.22661
  0
VERTEX
  5
2bf
  8
Layer_3
  10
368.79138
  20
109.73613
  42
-0.19676537
  0
VERTEX
  5
2c0
  8
Layer_3
  10
368.97253
  20
110.31963
  42
-0.33075427
  0
VERTEX
  5
2c1
  8
Layer_3
  10
369.69177
  20
110.43071
  42
-0.25493631
  0
VERTEX
  5
2c2
  8
Layer_3
  10
369.88708
  20
109.98613
  42
-0.010931171
  0
VERTEX
  5
2c3
  8
Layer_3
  10
369.88977
  20
108.22661
  0
VERTEX
  5
2c4
  8
Layer_3
  10
370.32776
  20
108.22661
  0
VERTEX
  5
2c5
  8
Layer_3
  10
370.32776
  20
110.01006
  42
0.19585746
  0
VERTEX
  5
2c6
  8
Layer_3
  10
370.11975
  20
110.66924
  42
0.31736219
  0
VERTEX
  5
2c7
  8
Layer_3
  10
369.07776
  20
110.76958
  42
0.11654437
  0
VERTEX
  5
2c8
  8
Layer_3
  10
368.72302
  20
110.42827
  0
VERTEX
  5
2c9
  8
Layer_3
  10
368.67834
  20
110.53008
  42
0.31698509
  0
VERTEX
  5
2ca
  8
Layer_3
  10
367.86292
  20
110.87602
  42
0.22414312
  0
VERTEX
  5
2cb
  8
Layer_3
  10
367.20129
  20
110.46025
  0
VERTEX
  5
2cc
  8
Layer_3
  10
367.20129
  20
110.82475
  0
VERTEX
  5
2cd
  8
Layer_3
  10
366.8075
  20
110.82475
  0
VERTEX
  5
2ce
  8
Layer_3
  10
366.8075
  20
108.22661
  0
VERTEX
  5
2cf
  8
Layer_3
  10
367.24792
  20
108.22661
  0
VERTEX
  5
2d0
  8
Layer_3
  10
367.24792
  20
109.57451
  0
SEQEND
  0
POLYLINE
  5
2d2
  8
Layer_3
  62
12
  66
1
  10
0
  20
0
  30
0
  0
VERTEX
  5
2d2
  8
Layer_3
  10
344.01111
  20
108.18388
  0
VERTEX
  5
2d3
  8
Layer_3
  10
344.19885
  20
108.23125
  42
0.28573149
  0
VERTEX
  5
2d4
  8
Layer_3
  10
344.88782
  20
109.12212
  0
VERTEX
  5
2d5
  8
Layer_3
  10
344.45471
  20
109.17827
  0
VERTEX
  5
2d6
  8
Layer_3
  10
344.42371
  20
109.02397
  42
-0.20337877
  0
VERTEX
  5
2d7
  8
Layer_3
  10
344.13797
  20
108.61893
  42
-0.20338234
  0
VERTEX
  5
2d8
  8
Layer_3
  10
343.64783
  20
108.54497
  42
-0.29639295
  0
VERTEX
  5
2d9
  8
Layer_3
  10
343.12756
  20
109.07622
  42
-0.16147357
  0
VERTEX
  5
2da
  8
Layer_3
  10
343.19446
  20
110.14629
  42
-0.36666489
  0
VERTEX
  5
2db
  8
Layer_3
  10
344.03015
  20
110.48833
  42
-0.26776182
  0
VERTEX
  5
2dc
  8
Layer_3
  10
344.41809
  20
109.99541
  0
VERTEX
  5
2dd
  8
Layer_3
  10
344.84631
  20
110.06133
  42
0.29109078
  0
VERTEX
  5
2de
  8
Layer_3
  10
344.19373
  20
110.82988
  42
0.32826912
  0
VERTEX
  5
2df
  8
Layer_3
  10
342.84314
  20
110.40019
  42
0.24169596
  0
VERTEX
  5
2e0
  8
Layer_3
  10
342.80725
  20
108.70976
  42
0.27736075
  0
VERTEX
  5
2e1
  8
Layer_3
  10
343.80652
  20
108.16801
  0
VERTEX
  5
2e2
  8
Layer_3
  10
344.01111
  20
108.18388
  0
SEQEND
  0
POLYLINE
  5
2e4
  8
Layer_3
  62
12
  66
1
  10
0
  20
0
  30
0
  0
VERTEX
  5
2e4
  8
Layer_3
  10
348.20984
  20
109.64555
  42
-0.2089501
  0
VERTEX
  5
2e5
  8
Layer_3
  10
348.41418
  20
110.32329
  42
-0.35145136
  0
VERTEX
  5
2e6
  8
Layer_3
  10
349.26721
  20
110.3792
  42
-0.22778446
  0
VERTEX
  5
2e7
  8
Layer_3
  10
349.44031
  20
109.80693
  0
VERTEX
  5
2e8
  8
Layer_3
  10
349.44031
  20
108.22661
  0
VERTEX
  5
2e9
  8
Layer_3
  10
349.88074
  20
108.22661
  42
0.0060476691
  0
VERTEX
  5
2ea
  8
Layer_3
  10
349.87903
  20
109.96562
  42
0.28420662
  0
VERTEX
  5
2eb
  8
Layer_3
  10
349.51672
  20
110.75346
  42
0.30622602
  0
VERTEX
  5
2ec
  8
Layer_3
  10
348.32483
  20
110.64262
  0
VERTEX
  5
2ed
  8
Layer_3
  10
348.16589
  20
110.45537
  0
VERTEX
  5
2ee
  8
Layer_3
  10
348.16589
  20
110.82475
  0
VERTEX
  5
2ef
  8
Layer_3
  10
347.76941
  20
110.82475
  0
VERTEX
  5
2f0
  8
Layer_3
  10
347.76941
  20
108.22661
  0
VERTEX
  5
2f1
  8
Layer_3
  10
348.20984
  20
108.22661
  0
VERTEX
  5
2f2
  8
Layer_3
  10
348.20984
  20
109.64555
  0
SEQEND
  0
POLYLINE
  5
2f4
  8
Layer_3
  62
12
  66
1
  10
0
  20
0
  30
0
  0
VERTEX
  5
2f4
  8
Layer_3
  10
363.03943
  20
109.57451
  0
VERTEX
  5
2f5
  8
Layer_3
  10
363.04382
  20
109.7415
  42
-0.20831729
  0
VERTEX
  5
2f6
  8
Layer_3
  10
363.26575
  20
110.34941
  42
-0.39429632
  0
VERTEX
  5
2f7
  8
Layer_3
  10
364.03503
  20
110.35503
  42
-0.15621492
  0
VERTEX
  5
2f8
  8
Layer_3
  10
364.1427
  20
109.9146
  0
VERTEX
  5
2f9
  8
Layer_3
  10
364.1427
  20
108.22661
  0
VERTEX
  5
2fa
  8
Layer_3
  10
364.58313
  20
108.22661
  0
VERTEX
  5
2fb
  8
Layer_3
  10
364.58313
  20
109.73613
  42
-0.19705217
  0
VERTEX
  5
2fc
  8
Layer_3
  10
364.76404
  20
110.31963
  42
-0.33060592
  0
VERTEX
  5
2fd
  8
Layer_3
  10
365.48328
  20
110.43071
  42
-0.25449331
  0
VERTEX
  5
2fe
  8
Layer_3
  10
365.67883
  20
109.98613
  42
-0.01093583
  0
VERTEX
  5
2ff
  8
Layer_3
  10
365.68152
  20
108.22661
  0
VERTEX
  5
300
  8
Layer_3
  10
366.11926
  20
108.22661
  0
VERTEX
  5
301
  8
Layer_3
  10
366.11926
  20
110.01006
  42
0.1954874
  0
VERTEX
  5
302
  8
Layer_3
  10
365.9115
  20
110.66924
  42
0.31728308
  0
VERTEX
  5
303
  8
Layer_3
  10
364.86926
  20
110.76958
  42
0.11654437
  0
VERTEX
  5
304
  8
Layer_3
  10
364.51453
  20
110.42827
  0
VERTEX
  5
305
  8
Layer_3
  10
364.46985
  20
110.53008
  42
0.31699083
  0
VERTEX
  5
306
  8
Layer_3
  10
363.65442
  20
110.87602
  42
0.224356
  0
VERTEX
  5
307
  8
Layer_3
  10
362.99304
  20
110.46025
  0
VERTEX
  5
308
  8
Layer_3
  10
362.99304
  20
110.82475
  0
VERTEX
  5
309
  8
Layer_3
  10
362.599
  20
110.82475
  0
VERTEX
  5
30a
  8
Layer_3
  10
362.599
  20
108.22661
  0
VERTEX
  5
30b
  8
Layer_3
  10
363.03943
  20
108.22661
  0
VERTEX
  5
30c
  8
Layer_3
  10
363.03943
  20
109.57451
  0
SEQEND
  0
POLYLINE
  5
30e
  8
Layer_3
  62
12
  66
1
  10
0
  20
0
  30
0
  0
VERTEX
  5
30e
  8
Layer_3
  10
351.88245
  20
108.18169
  42
0.13330949
  0
VERTEX
  5
30f
  8
Layer_3
  10
352.40979
  20
108.38823
  42
0.17086172
  0
VERTEX
  5
310
  8
Layer_3
  10
352.80847
  20
109.00713
  0
VERTEX
  5
311
  8
Layer_3
  10
352.35364
  20
109.06328
  0
VERTEX
  5
312
  8
Layer_3
  10
352.29895
  20
108.9334
  42
-0.19898003
  0
VERTEX
  5
313
  8
Layer_3
  10
351.90649
  20
108.56741
  42
-0.19897983
  0
VERTEX
  5
314
  8
Layer_3
  10
351.37024
  20
108.58696
  42
-0.25674379
  0
VERTEX
  5
315
  8
Layer_3
  10
350.90759
  20
109.21172
  0
VERTEX
  5
316
  8
Layer_3
  10
350.88342
  20
109.41313
  0
VERTEX
  5
317
  8
Layer_3
  10
352.82092
  20
109.41313
  42
0.13954123
  0
VERTEX
  5
318
  8
Layer_3
  10
352.63757
  20
110.3333
  42
0.27552084
  0
VERTEX
  5
319
  8
Layer_3
  10
351.64172
  20
110.88335
  42
0.39755719
  0
VERTEX
  5
31a
  8
Layer_3
  10
350.44934
  20
109.81303
  42
0.16506589
  0
VERTEX
  5
31b
  8
Layer_3
  10
350.61609
  20
108.7122
  42
0.27348374
  0
VERTEX
  5
31c
  8
Layer_3
  10
351.66614
  20
108.16801
  0
VERTEX
  5
31d
  8
Layer_3
  10
351.88245
  20
108.18169
  0
SEQEND
  0
POLYLINE
  5
31f
  8
Layer_3
  62
12
  66
1
  10
0
  20
0
  30
0
  0
VERTEX
  5
31f
  8
Layer_3
  10
356.96912
  20
108.17461
  42
0.3152116
  0
VERTEX
  5
320
  8
Layer_3
  10
357.83508
  20
108.77617
  42
0.40176185
  0
VERTEX
  5
321
  8
Layer_3
  10
357.47205
  20
109.59795
  42
0.022044904
  0
VERTEX
  5
322
  8
Layer_3
  10
356.43127
  20
109.9146
  0
VERTEX
  5
323
  8
Layer_3
  10
356.33167
  20
109.96733
  42
-0.40113463
  0
VERTEX
  5
324
  8
Layer_3
  10
356.24109
  20
110.31206
  42
-0.25425984
  0
VERTEX
  5
325
  8
Layer_3
  10
356.63049
  20
110.51518
  42
-0.25368203
  0
VERTEX
  5
326
  8
Layer_3
  10
357.23206
  20
110.34697
  42
-0.13970256
  0
VERTEX
  5
327
  8
Layer_3
  10
357.33875
  20
110.09575
  0
VERTEX
  5
328
  8
Layer_3
  10
357.76941
  20
110.15434
  42
0.34237788
  0
VERTEX
  5
329
  8
Layer_3
  10
357.15613
  20
110.83379
  42
0.2052581
  0
VERTEX
  5
32a
  8
Layer_3
  10
356.07898
  20
110.70244
  42
0.35415978
  0
VERTEX
  5
32b
  8
Layer_3
  10
355.83728
  20
109.86723
  42
0.2376292
  0
VERTEX
  5
32c
  8
Layer_3
  10
356.42493
  20
109.4417
  42
0.014687693
  0
VERTEX
  5
32d
  8
Layer_3
  10
356.99792
  20
109.28423
  0
VERTEX
  5
32e
  8
Layer_3
  10
357.12732
  20
109.24492
  42
-0.21452466
  0
VERTEX
  5
32f
  8
Layer_3
  10
357.35367
  20
109.11758
  42
-0.21452447
  0
VERTEX
  5
330
  8
Layer_3
  10
357.4054
  20
108.86308
  42
-0.32490562
  0
VERTEX
  5
331
  8
Layer_3
  10
356.95959
  20
108.53789
  42
-0.2623401
  0
VERTEX
  5
332
  8
Layer_3
  10
356.27356
  20
108.74687
  42
-0.13184033
  0
VERTEX
  5
333
  8
Layer_3
  10
356.14514
  20
109.0706
  0
VERTEX
  5
334
  8
Layer_3
  10
355.70959
  20
109.00224
  42
0.3132701
  0
VERTEX
  5
335
  8
Layer_3
  10
356.37415
  20
108.2205
  42
0.08158315
  0
VERTEX
  5
336
  8
Layer_3
  10
356.96912
  20
108.17461
  0
SEQEND
  0
POLYLINE
  5
338
  8
Layer_3
  62
12
  66
1
  10
0
  20
0
  30
0
  0
VERTEX
  5
338
  8
Layer_3
  10
342.09998
  20
110.82475
  0
VERTEX
  5
339
  8
Layer_3
  10
341.65979
  20
110.82475
  0
VERTEX
  5
33a
  8
Layer_3
  10
341.65979
  20
108.22661
  0
VERTEX
  5
33b
  8
Layer_3
  10
342.09998
  20
108.22661
  0
VERTEX
  5
33c
  8
Layer_3
  10
342.09998
  20
110.82475
  0
SEQEND
  0
POLYLINE
  5
33e
  8
Layer_3
  62
12
  66
1
  10
0
  20
0
  30
0
  0
VERTEX
  5
33e
  8
Layer_3
  10
350.90784
  20
109.77519
  42
-0.29839194
  0
VERTEX
  5
33f
  8
Layer_3
  10
351.36731
  20
110.4705
  42
-0.37930014
  0
VERTEX
  5
340
  8
Layer_3
  10
352.25378
  20
110.17461
  42
-0.09592095
  0
VERTEX
  5
341
  8
Layer_3
  10
352.35852
  20
109.77519
  0
VERTEX
  5
342
  8
Layer_3
  10
350.90784
  20
109.77519
  0
SEQEND
  0
POLYLINE
  5
344
  8
Layer_3
  62
12
  66
1
  10
0
  20
0
  30
0
  0
VERTEX
  5
344
  8
Layer_3
  10
373.04504
  20
108.72832
  0
VERTEX
  5
345
  8
Layer_3
  10
372.5387
  20
108.72832
  0
VERTEX
  5
346
  8
Layer_3
  10
372.5387
  20
108.22661
  0
VERTEX
  5
347
  8
Layer_3
  10
373.04504
  20
108.22661
  0
VERTEX
  5
348
  8
Layer_3
  10
373.04504
  20
108.72832
  0
SEQEND
  0
POLYLINE
  5
34a
  8
Layer_3
  62
12
  70
1
  66
1
  10
0
  20
0
  30
0
  0
VERTEX
  5
34a
  8
Layer_3
  10
374.44788
  20
108.72832
  0
VERTEX
  5
34b
  8
Layer_3
  10
373.94128
  20
108.72832
  0
VERTEX
  5
34c
  8
Layer_3
  10
373.94128
  20
108.22661
  0
VERTEX
  5
34d
  8
Layer_3
  10
374.44788
  20
108.22661
  0
SEQEND
  0
POLYLINE
  5
34f
  8
Layer_0
  62
0
  66
1
  10
0
  20
0
  30
0
  0
VERTEX
  5
34f
  8
Layer_0
  10
393.25
  20
151.25
  0
VERTEX
  5
350
  8
Layer_0
  10
332.75
  20
151.25
  0
VERTEX
  5
351
  8
Layer_0
  10
332.75
  20
208.75
  0
VERTEX
  5
352
  8
Layer_0
  10
393.25
  20
208.75
  0
VERTEX
  5
353
  8
Layer_0
  10
393.25
  20
151.25
  0
SEQEND
  0
CIRCLE
  5
355
  8
Layer_0
  62
0
  10
94.200005
  20
272.25
  30
0
  40
1.5
  0
CIRCLE
  5
355
  8
Layer_0
  62
0
  10
94.200005
  20
225.75
  30
0
  40
1.5
  0
CIRCLE
  5
355
  8
Layer_0
  62
0
  10
37.800003
  20
272.25
  30
0
  40
1.5
  0
CIRCLE
  5
355
  8
Layer_0
  62
0
  10
37.800003
  20
225.75
  30
0
  40
1.5
  0
CIRCLE
  5
355
  8
Layer_0
  62
0
  10
226.5
  20
266.5
  30
0
  40
1.25
  0
CIRCLE
  5
355
  8
Layer_0
  62
0
  10
269.5
  20
266.5
  30
0
  40
1.25
  0
POLYLINE
  5
355
  8
Layer_0
  62
0
  66
1
  10
0
  20
0
  30
0
  0
VERTEX
  5
355
  8
Layer_0
  10
226.14645
  20
266.5
  0
VERTEX
  5
356
  8
Layer_0
  10
226.13494
  20
266.36238
  0
VERTEX
  5
357
  8
Layer_0
  10
226.10355
  20
266.25
  0
VERTEX
  5
358
  8
Layer_0
  10
226.057
  20
266.17423
  0
VERTEX
  5
359
  8
Layer_0
  10
226
  20
266.14645
  0
VERTEX
  5
35a
  8
Layer_0
  10
225.943
  20
266.17423
  0
VERTEX
  5
35b
  8
Layer_0
  10
225.89645
  20
266.25
  0
VERTEX
  5
35c
  8
Layer_0
  10
225.86506
  20
266.36238
  0
VERTEX
  5
35d
  8
Layer_0
  10
225.85355
  20
266.5
  0
VERTEX
  5
35e
  8
Layer_0
  10
225.86506
  20
266.63762
  0
VERTEX
  5
35f
  8
Layer_0
  10
225.89645
  20
266.75
  0
VERTEX
  5
360
  8
Layer_0
  10
225.943
  20
266.82577
  0
VERTEX
  5
361
  8
Layer_0
  10
226
  20
266.85355
  0
VERTEX
  5
362
  8
Layer_0
  10
226.057
  20
266.82577
  0
VERTEX
  5
363
  8
Layer_0
  10
226.10355
  20
266.75
  0
VERTEX
  5
364
  8
Layer_0
  10
226.13494
  20
266.63762
  0
VERTEX
  5
365
  8
Layer_0
  10
226.14645
  20
266.5
  0
SEQEND
  0
CIRCLE
  5
367
  8
Layer_0
  62
0
  10
226.5
  20
231.5
  30
0
  40
1.25
  0
CIRCLE
  5
367
  8
Layer_0
  62
0
  10
269.5
  20
231.5
  30
0
  40
1.25
  0
POLYLINE
  5
367
  8
Layer_0
  62
0
  66
1
  10
0
  20
0
  30
0
  0
VERTEX
  5
367
  8
Layer_0
  10
226.14645
  20
231.5
  0
VERTEX
  5
368
  8
Layer_0
  10
226.13494
  20
231.36238
  0
VERTEX
  5
369
  8
Layer_0
  10
226.10355
  20
231.25
  0
VERTEX
  5
36a
  8
Layer_0
  10
226.057
  20
231.17423
  0
VERTEX
  5
36b
  8
Layer_0
  10
226
  20
231.14645
  0
VERTEX
  5
36c
  8
Layer_0
  10
225.943
  20
231.17423
  0
VERTEX
  5
36d
  8
Layer_0
  10
225.89645
  20
231.25
  0
VERTEX
  5
36e
  8
Layer_0
  10
225.86506
  20
231.36238
  0
VERTEX
  5
36f
  8
Layer_0
  10
225.85355
  20
231.5
  0
VERTEX
  5
370
  8
Layer_0
  10
225.86506
  20
231.63762
  0
VERTEX
  5
371
  8
Layer_0
  10
225.89645
  20
231.75
  0
VERTEX
  5
372
  8
Layer_0
  10
225.943
  20
231.82577
  0
VERTEX
  5
373
  8
Layer_0
  10
226
  20
231.85355
  0
VERTEX
  5
374
  8
Layer_0
  10
226.057
  20
231.82577
  0
VERTEX
  5
375
  8
Layer_0
  10
226.10355
  20
231.75
  0
VERTEX
  5
376
  8
Layer_0
  10
226.13494
  20
231.63762
  0
VERTEX
  5
377
  8
Layer_0
  10
226.14645
  20
231.5
  0
SEQEND
  0
CIRCLE
  5
379
  8
Layer_0
  62
0
  10
116
  20
266
  30
0
  40
3.5
  0
CIRCLE
  5
379
  8
Layer_0
  62
0
  10
116
  20
254.66666
  30
0
  40
3.5
  0
CIRCLE
  5
379
  8
Layer_0
  62
0
  10
116
  20
243.33333
  30
0
  40
3.5
  0
CIRCLE
  5
379
  8
Layer_0
  62
0
  10
116
  20
232
  30
0
  40
3.5
  0
CIRCLE
  5
379
  8
Layer_0
  62
0
  10
206
  20
263.5
  30
0
  40
2.5
  0
CIRCLE
  5
379
  8
Layer_0
  62
0
  10
206
  20
249
  30
0
  40
2.5
  0
CIRCLE
  5
379
  8
Layer_0
  62
0
  10
206
  20
234.5
  30
0
  40
2.5
  0
POLYLINE
  5
379
  8
Layer_0
  62
0
  66
1
  10
0
  20
0
  30
0
  0
VERTEX
  5
379
  8
Layer_0
  10
390
  20
140
  0
VERTEX
  5
37a
  8
Layer_0
  10
400
  20
140
  0
VERTEX
  5
37b
  8
Layer_0
  10
390
  20
130
  0
VERTEX
  5
37c
  8
Layer_0
  10
390
  20
140
  0
SEQEND
  0
CIRCLE
  5
37e
  8
Layer_0
  62
0
  10
393
  20
137
  30
0
  40
1.25
  0
POLYLINE
  5
37e
  8
Layer_0
  62
0
  66
1
  10
0
  20
0
  30
0
  0
VERTEX
  5
37e
  8
Layer_0
  10
350
  20
140
  0
VERTEX
  5
37f
  8
Layer_0
  10
360
  20
140
  0
VERTEX
  5
380
  8
Layer_0
  10
350
  20
130
  0
VERTEX
  5
381
  8
Layer_0
  10
350
  20
140
  0
SEQEND
  0
CIRCLE
  5
383
  8
Layer_0
  62
0
  10
353
  20
137
  30
0
  40
1.25
  0
POLYLINE
  5
383
  8
Layer_0
  62
0
  66
1
  10
0
  20
0
  30
0
  0
VERTEX
  5
383
  8
Layer_0
  10
330
  20
140
  0
VERTEX
  5
384
  8
Layer_0
  10
340
  20
140
  0
VERTEX
  5
385
  8
Layer_0
  10
330
  20
130
  0
VERTEX
  5
386
  8
Layer_0
  10
330
  20
140
  0
SEQEND
  0
CIRCLE
  5
388
  8
Layer_0
  62
0
  10
333
  20
137
  30
0
  40
1.25
  0
POLYLINE
  5
388
  8
Layer_0
  62
0
  66
1
  10
0
  20
0
  30
0
  0
VERTEX
  5
388
  8
Layer_0
  10
370.11612
  20
140.11612
  0
VERTEX
  5
389
  8
Layer_0
  10
380.11612
  20
140.11612
  0
VERTEX
  5
38a
  8
Layer_0
  10
370.11612
  20
130.11612
  0
VERTEX
  5
38b
  8
Layer_0
  10
370.11612
  20
140.11612
  0
SEQEND
  0
CIRCLE
  5
38d
  8
Layer_0
  62
0
  10
373.11612
  20
137.11612
  30
0
  40
1.25
  0
POLYLINE
  5
38d
  8
Layer_2
  62
52
  66
1
  10
0
  20
0
  30
0
  0
VERTEX
  5
38d
  8
Layer_2
  10
25
  20
221
  0
VERTEX
  5
38e
  8
Layer_2
  10
35
  20
221
  0
VERTEX
  5
38f
  8
Layer_2
  10
25
  20
231
  0
VERTEX
  5
390
  8
Layer_2
  10
25
  20
221
  0
SEQEND
  0
CIRCLE
  5
392
  8
Layer_2
  62
52
  10
28
  20
224
  30
0
  40
1.25
  0
CIRCLE
  5
392
  8
Layer_0
  62
0
  10
28
  20
224
  30
0
  40
1.25
  0
POLYLINE
  5
392
  8
Layer_2
  62
52
  66
1
  10
0
  20
0
  30
0
  0
VERTEX
  5
392
  8
Layer_2
  10
25
  20
279
  0
VERTEX
  5
393
  8
Layer_2
  10
35
  20
279
  0
VERTEX
  5
394
  8
Layer_2
  10
25
  20
269
  0
VERTEX
  5
395
  8
Layer_2
  10
25
  20
279
  0
SEQEND
  0
CIRCLE
  5
397
  8
Layer_2
  62
52
  10
28
  20
276
  30
0
  40
1.25
  0
CIRCLE
  5
397
  8
Layer_0
  62
0
  10
28
  20
276
  30
0
  40
1.25
  0
POLYLINE
  5
397
  8
Layer_2
  62
52
  66
1
  10
0
  20
0
  30
0
  0
VERTEX
  5
397
  8
Layer_2
  10
299
  20
279
  0
VERTEX
  5
398
  8
Layer_2
  10
289
  20
279
  0
VERTEX
  5
399
  8
Layer_2
  10
299
  20
269
  0
VERTEX
  5
39a
  8
Layer_2
  10
299
  20
279
  0
SEQEND
  0
CIRCLE
  5
39c
  8
Layer_2
  62
52
  10
296
  20
276
  30
0
  40
1.25
  0
CIRCLE
  5
39c
  8
Layer_0
  62
0
  10
296
  20
276
  30
0
  40
1.25
  0
POLYLINE
  5
39c
  8
Layer_2
  62
52
  66
1
  10
0
  20
0
  30
0
  0
VERTEX
  5
39c
  8
Layer_2
  10
299
  20
221
  0
VERTEX
  5
39d
  8
Layer_2
  10
289
  20
221
  0
VERTEX
  5
39e
  8
Layer_2
  10
299
  20
231
  0
VERTEX
  5
39f
  8
Layer_2
  10
299
  20
221
  0
SEQEND
  0
CIRCLE
  5
3a1
  8
Layer_2
  62
52
  10
296
  20
224
  30
0
  40
1.25
  0
CIRCLE
  5
3a1
  8
Layer_0
  62
0
  10
296
  20
224
  30
0
  40
1.25
  0
POLYLINE
  5
3a1
  8
Layer_2
  62
52
  66
1
  10
0
  20
0
  30
0
  0
VERTEX
  5
3a1
  8
Layer_2
  10
301.69998
  20
218.25
  0
VERTEX
  5
3a2
  8
Layer_2
  10
22.300018
  20
218.25
  0
VERTEX
  5
3a3
  8
Layer_2
  10
22.300018
  20
281.75
  0
VERTEX
  5
3a4
  8
Layer_2
  10
301.69998
  20
281.75
  0
VERTEX
  5
3a5
  8
Layer_2
  10
301.69998
  20
218.25
  0
SEQEND
  0
ENDSEC
  0
EOF
