  0
SECTION
  2
HEADER
  9
$ACADVER
  1
AC1009
  0
ENDSEC
  0
SECTION
  2
ENTITIES
  0
POLYLINE
  5
90
  8
Layer_0
  62
0
  66
1
  10
0
  20
0
  30
0
  0
VERTEX
  5
90
  8
Layer_0
  10
314.39999
  20
218.25
  0
VERTEX
  5
91
  8
Layer_0
  10
9.6000061
  20
218.25
  0
VERTEX
  5
92
  8
Layer_0
  10
9.6000061
  20
281.75
  0
VERTEX
  5
93
  8
Layer_0
  10
314.39999
  20
281.75
  0
VERTEX
  5
94
  8
Layer_0
  10
314.39999
  20
218.25
  0
SEQEND
  0
POLYLINE
  5
96
  8
Layer_0
  62
0
  66
1
  10
0
  20
0
  30
0
  0
VERTEX
  5
96
  8
Layer_0
  10
382.25
  20
224.25
  0
VERTEX
  5
97
  8
Layer_0
  10
321.75
  20
224.25
  0
VERTEX
  5
98
  8
Layer_0
  10
321.75
  20
281.75
  0
VERTEX
  5
99
  8
Layer_0
  10
382.25
  20
281.75
  0
VERTEX
  5
9a
  8
Layer_0
  10
382.25
  20
224.25
  0
SEQEND
  0
POLYLINE
  5
9c
  8
Layer_1
  62
52
  66
1
  10
0
  20
0
  30
0
  0
VERTEX
  5
9c
  8
Layer_1
  10
188.87814
  20
229
  0
VERTEX
  5
9d
  8
Layer_1
  10
125.87814
  20
229
  0
VERTEX
  5
9e
  8
Layer_1
  10
125.87814
  20
270
  0
VERTEX
  5
9f
  8
Layer_1
  10
188.87814
  20
270
  0
VERTEX
  5
a0
  8
Layer_1
  10
188.87814
  20
229
  0
SEQEND
  0
POLYLINE
  5
a2
  8
Layer_0
  62
0
  66
1
  10
0
  20
0
  30
0
  0
VERTEX
  5
a2
  8
Layer_0
  10
289.69998
  20
80.25
  0
VERTEX
  5
a3
  8
Layer_0
  10
10.300018
  20
80.25
  0
VERTEX
  5
a4
  8
Layer_0
  10
10.300018
  20
143.75
  0
VERTEX
  5
a5
  8
Layer_0
  10
289.69998
  20
143.75
  0
VERTEX
  5
a6
  8
Layer_0
  10
289.69998
  20
80.25
  0
SEQEND
  0
POLYLINE
  5
a8
  8
Layer_0
  62
0
  66
1
  10
0
  20
0
  30
0
  0
VERTEX
  5
a8
  8
Layer_0
  10
288.69998
  20
9.2500038
  0
VERTEX
  5
a9
  8
Layer_0
  10
9.3000183
  20
9.2500038
  0
VERTEX
  5
aa
  8
Layer_0
  10
9.3000183
  20
72.75
  0
VERTEX
  5
ab
  8
Layer_0
  10
288.69998
  20
72.75
  0
VERTEX
  5
ac
  8
Layer_0
  10
288.69998
  20
9.2500038
  0
SEQEND
  0
CIRCLE
  5
ae
  8
Layer_0
  62
0
  10
21.111984
  20
198.166
  30
0
  40
2.5
  0
CIRCLE
  5
ae
  8
Layer_0
  62
0
  10
21.111984
  20
178.166
  30
0
  40
2.5
  0
POLYLINE
  5
ae
  8
Layer_0
  62
0
  66
1
  10
0
  20
0
  30
0
  0
VERTEX
  5
ae
  8
Layer_0
  10
288.69995
  20
150.25
  0
VERTEX
  5
af
  8
Layer_0
  10
9.3000031
  20
150.25
  0
VERTEX
  5
b0
  8
Layer_0
  10
9.3000031
  20
213.75
  0
VERTEX
  5
b1
  8
Layer_0
  10
288.69995
  20
213.75
  0
VERTEX
  5
b2
  8
Layer_0
  10
288.69995
  20
150.25
  0
SEQEND
  0
POLYLINE
  5
b4
  8
Layer_2
  62
12
  66
1
  10
0
  20
0
  30
0
  0
VERTEX
  5
b4
  8
Layer_2
  10
30.70322
  20
195.31589
  42
0.14762395
  0
VERTEX
  5
b5
  8
Layer_2
  10
31.993504
  20
195.8674
  0
VERTEX
  5
b6
  8
Layer_2
  10
31.993504
  20
197.19797
  0
VERTEX
  5
b7
  8
Layer_2
  10
30.474461
  20
197.19553
  0
VERTEX
  5
b8
  8
Layer_2
  10
30.474461
  20
196.77487
  0
VERTEX
  5
b9
  8
Layer_2
  10
31.528904
  20
196.77487
  0
VERTEX
  5
ba
  8
Layer_2
  10
31.528904
  20
196.1069
  42
-0.32420203
  0
VERTEX
  5
bb
  8
Layer_2
  10
29.663181
  20
195.98044
  42
-0.22321472
  0
VERTEX
  5
bc
  8
Layer_2
  10
29.176121
  20
196.94357
  42
-0.20905322
  0
VERTEX
  5
bd
  8
Layer_2
  10
29.528904
  20
198.24997
  42
-0.37132753
  0
VERTEX
  5
be
  8
Layer_2
  10
31.244724
  20
198.33908
  42
-0.12444321
  0
VERTEX
  5
bf
  8
Layer_2
  10
31.51157
  20
197.8342
  0
VERTEX
  5
c0
  8
Layer_2
  10
31.939793
  20
197.95163
  42
0.32976328
  0
VERTEX
  5
c1
  8
Layer_2
  10
30.842381
  20
198.9841
  42
0.20264016
  0
VERTEX
  5
c2
  8
Layer_2
  10
29.331882
  20
198.67087
  42
0.22350815
  0
VERTEX
  5
c3
  8
Layer_2
  10
28.676365
  20
197.14426
  42
0.24210405
  0
VERTEX
  5
c4
  8
Layer_2
  10
29.345798
  20
195.65915
  42
0.17859656
  0
VERTEX
  5
c5
  8
Layer_2
  10
30.70322
  20
195.31589
  0
SEQEND
  0
POLYLINE
  5
c7
  8
Layer_2
  62
12
  66
1
  10
0
  20
0
  30
0
  0
VERTEX
  5
c7
  8
Layer_2
  10
36.637547
  20
195.33371
  42
0.2020466
  0
VERTEX
  5
c8
  8
Layer_2
  10
37.139011
  20
195.69601
  0
VERTEX
  5
c9
  8
Layer_2
  10
37.139011
  20
195.36813
  0
VERTEX
  5
ca
  8
Layer_2
  10
37.547459
  20
195.36813
  0
VERTEX
  5
cb
  8
Layer_2
  10
37.547459
  20
198.95456
  0
VERTEX
  5
cc
  8
Layer_2
  10
37.10947
  20
198.95456
  0
VERTEX
  5
cd
  8
Layer_2
  10
37.10947
  20
197.66769
  0
VERTEX
  5
ce
  8
Layer_2
  10
36.97739
  20
197.81174
  42
0.3710094
  0
VERTEX
  5
cf
  8
Layer_2
  10
35.691502
  20
197.76242
  42
0.2032489
  0
VERTEX
  5
d0
  8
Layer_2
  10
35.294529
  20
196.66476
  42
0.25541554
  0
VERTEX
  5
d1
  8
Layer_2
  10
35.84116
  20
195.48068
  42
0.20338351
  0
VERTEX
  5
d2
  8
Layer_2
  10
36.637547
  20
195.33371
  0
SEQEND
  0
POLYLINE
  5
d4
  8
Layer_2
  62
12
  66
1
  10
0
  20
0
  30
0
  0
VERTEX
  5
d4
  8
Layer_2
  10
33.08823
  20
196.78708
  0
VERTEX
  5
d5
  8
Layer_2
  10
33.100925
  20
197.01657
  42
-0.20152924
  0
VERTEX
  5
d6
  8
Layer_2
  10
33.307735
  20
197.47218
  42
-0.20152921
  0
VERTEX
  5
d7
  8
Layer_2
  10
33.777927
  20
197.64328
  42
-0.20254539
  0
VERTEX
  5
d8
  8
Layer_2
  10
34.139664
  20
197.52592
  42
-0.20254525
  0
VERTEX
  5
d9
  8
Layer_2
  10
34.305759
  20
197.18381
  42
-0.032065453
  0
VERTEX
  5
da
  8
Layer_2
  10
34.318699
  20
196.94846
  0
VERTEX
  5
db
  8
Layer_2
  10
34.318699
  20
195.36813
  0
VERTEX
  5
dc
  8
Layer_2
  10
34.758884
  20
195.36813
  42
0.005177707
  0
VERTEX
  5
dd
  8
Layer_2
  10
34.75742
  20
197.10715
  42
0.28412591
  0
VERTEX
  5
de
  8
Layer_2
  10
34.395115
  20
197.89499
  42
0.30623693
  0
VERTEX
  5
df
  8
Layer_2
  10
33.20322
  20
197.78415
  0
VERTEX
  5
e0
  8
Layer_2
  10
33.044041
  20
197.59689
  0
VERTEX
  5
e1
  8
Layer_2
  10
33.044041
  20
197.96628
  0
VERTEX
  5
e2
  8
Layer_2
  10
32.6478
  20
197.96628
  0
VERTEX
  5
e3
  8
Layer_2
  10
32.6478
  20
195.36813
  0
VERTEX
  5
e4
  8
Layer_2
  10
33.08823
  20
195.36813
  0
VERTEX
  5
e5
  8
Layer_2
  10
33.08823
  20
196.78708
  0
SEQEND
  0
POLYLINE
  5
e7
  8
Layer_2
  62
12
  70
1
  66
1
  10
0
  20
0
  30
0
  0
VERTEX
  5
e7
  8
Layer_2
  10
36.315525
  20
195.68698
  0
VERTEX
  5
e8
  8
Layer_2
  10
36.186619
  20
195.73337
  42
-0.25890986
  0
VERTEX
  5
e9
  8
Layer_2
  10
35.760105
  20
196.43112
  42
-0.12923053
  0
VERTEX
  5
ea
  8
Layer_2
  10
35.857761
  20
197.28342
  42
-0.36046413
  0
VERTEX
  5
eb
  8
Layer_2
  10
36.578953
  20
197.64474
  42
-0.28286848
  0
VERTEX
  5
ec
  8
Layer_2
  10
37.094822
  20
197.09055
  42
-0.16446018
  0
VERTEX
  5
ed
  8
Layer_2
  10
37.03281
  20
196.04123
  42
-0.34998029
  0
SEQEND
  0
POLYLINE
  5
ef
  8
Layer_2
  62
12
  66
1
  10
0
  20
0
  30
0
  0
VERTEX
  5
ef
  8
Layer_2
  10
30.156948
  20
178.99422
  0
VERTEX
  5
f0
  8
Layer_2
  10
29.873013
  20
178.99422
  0
VERTEX
  5
f1
  8
Layer_2
  10
29.805386
  20
178.87703
  42
-0.1307374
  0
VERTEX
  5
f2
  8
Layer_2
  10
28.835903
  20
178.09407
  0
VERTEX
  5
f3
  8
Layer_2
  10
28.835903
  20
177.66829
  42
0.087504939
  0
VERTEX
  5
f4
  8
Layer_2
  10
29.716518
  20
178.19905
  0
VERTEX
  5
f5
  8
Layer_2
  10
29.716518
  20
175.39314
  0
VERTEX
  5
f6
  8
Layer_2
  10
30.156948
  20
175.39314
  0
VERTEX
  5
f7
  8
Layer_2
  10
30.156948
  20
178.99422
  0
SEQEND
  0
POLYLINE
  5
f9
  8
Layer_2
  62
12
  66
1
  10
0
  20
0
  30
0
  0
VERTEX
  5
f9
  8
Layer_2
  10
33.61813
  20
175.81648
  0
VERTEX
  5
fa
  8
Layer_2
  10
31.859097
  20
175.81648
  42
-0.078223474
  0
VERTEX
  5
fb
  8
Layer_2
  10
32.553921
  20
176.50642
  0
VERTEX
  5
fc
  8
Layer_2
  10
32.77438
  20
176.69612
  42
0.10641009
  0
VERTEX
  5
fd
  8
Layer_2
  10
33.525112
  20
177.57527
  42
0.38241153
  0
VERTEX
  5
fe
  8
Layer_2
  10
33.148403
  20
178.83308
  42
0.29492675
  0
VERTEX
  5
ff
  8
Layer_2
  10
31.68063
  20
178.72884
  42
0.19733556
  0
VERTEX
  5
100
  8
Layer_2
  10
31.330776
  20
177.95686
  0
VERTEX
  5
101
  8
Layer_2
  10
31.783413
  20
177.91048
  0
VERTEX
  5
102
  8
Layer_2
  10
31.796352
  20
178.07014
  42
-0.39329737
  0
VERTEX
  5
103
  8
Layer_2
  10
32.485317
  20
178.62971
  42
-0.20658555
  0
VERTEX
  5
104
  8
Layer_2
  10
32.957146
  20
178.46487
  42
-0.20658569
  0
VERTEX
  5
105
  8
Layer_2
  10
33.16061
  20
178.00838
  42
-0.18150256
  0
VERTEX
  5
106
  8
Layer_2
  10
32.828579
  20
177.32625
  42
-0.026417706
  0
VERTEX
  5
107
  8
Layer_2
  10
31.832485
  20
176.42928
  0
VERTEX
  5
108
  8
Layer_2
  10
31.699673
  20
176.29817
  42
0.19668381
  0
VERTEX
  5
109
  8
Layer_2
  10
31.247524
  20
175.39314
  0
VERTEX
  5
10a
  8
Layer_2
  10
33.61813
  20
175.39314
  0
VERTEX
  5
10b
  8
Layer_2
  10
33.61813
  20
175.81648
  0
SEQEND
  0
POLYLINE
  5
10d
  8
Layer_2
  62
12
  66
1
  10
0
  20
0
  30
0
  0
VERTEX
  5
10d
  8
Layer_2
  10
41.325649
  20
178.97957
  0
VERTEX
  5
10e
  8
Layer_2
  10
40.88522
  20
178.97957
  0
VERTEX
  5
10f
  8
Layer_2
  10
40.88522
  20
175.39314
  0
VERTEX
  5
110
  8
Layer_2
  10
41.325649
  20
175.39314
  0
VERTEX
  5
111
  8
Layer_2
  10
41.325649
  20
178.97957
  0
SEQEND
  0
POLYLINE
  5
113
  8
Layer_2
  62
12
  66
1
  10
0
  20
0
  30
0
  0
VERTEX
  5
113
  8
Layer_2
  10
42.846157
  20
175.36873
  0
VERTEX
  5
114
  8
Layer_2
  10
43.022182
  20
175.39803
  0
VERTEX
  5
115
  8
Layer_2
  10
42.958706
  20
175.78719
  0
VERTEX
  5
116
  8
Layer_2
  10
42.850307
  20
175.77425
  42
-0.36623343
  0
VERTEX
  5
117
  8
Layer_2
  10
42.539028
  20
175.88728
  42
-0.078437295
  0
VERTEX
  5
118
  8
Layer_2
  10
42.515835
  20
176.12947
  0
VERTEX
  5
119
  8
Layer_2
  10
42.515835
  20
177.64876
  0
VERTEX
  5
11a
  8
Layer_2
  10
42.958706
  20
177.64876
  0
VERTEX
  5
11b
  8
Layer_2
  10
42.958706
  20
177.99129
  0
VERTEX
  5
11c
  8
Layer_2
  10
42.515835
  20
177.99129
  0
VERTEX
  5
11d
  8
Layer_2
  10
42.515835
  20
178.89876
  0
VERTEX
  5
11e
  8
Layer_2
  10
42.078091
  20
178.6346
  0
VERTEX
  5
11f
  8
Layer_2
  10
42.078091
  20
177.99129
  0
VERTEX
  5
120
  8
Layer_2
  10
41.755093
  20
177.99129
  0
VERTEX
  5
121
  8
Layer_2
  10
41.755093
  20
177.64876
  0
VERTEX
  5
122
  8
Layer_2
  10
42.078091
  20
177.64876
  0
VERTEX
  5
123
  8
Layer_2
  10
42.078091
  20
176.15413
  42
0.082946516
  0
VERTEX
  5
124
  8
Layer_2
  10
42.131802
  20
175.63411
  42
0.3032247
  0
VERTEX
  5
125
  8
Layer_2
  10
42.689663
  20
175.35896
  0
VERTEX
  5
126
  8
Layer_2
  10
42.846157
  20
175.36873
  0
SEQEND
  0
POLYLINE
  5
128
  8
Layer_2
  62
12
  66
1
  10
0
  20
0
  30
0
  0
VERTEX
  5
128
  8
Layer_2
  10
39.310513
  20
175.34456
  42
0.38627556
  0
VERTEX
  5
129
  8
Layer_2
  10
40.350307
  20
176.49153
  42
0.15829241
  0
VERTEX
  5
12a
  8
Layer_2
  10
40.168423
  20
177.50667
  42
0.26840592
  0
VERTEX
  5
12b
  8
Layer_2
  10
39.143764
  20
178.04988
  42
0.20329727
  0
VERTEX
  5
12c
  8
Layer_2
  10
38.285824
  20
177.71645
  42
0.20329716
  0
VERTEX
  5
12d
  8
Layer_2
  10
37.93185
  20
176.86678
  42
0.14752359
  0
VERTEX
  5
12e
  8
Layer_2
  10
38.114712
  20
175.87849
  42
0.2718473
  0
VERTEX
  5
12f
  8
Layer_2
  10
39.143764
  20
175.33455
  0
VERTEX
  5
130
  8
Layer_2
  10
39.310513
  20
175.34456
  0
SEQEND
  0
POLYLINE
  5
132
  8
Layer_2
  62
12
  66
1
  10
0
  20
0
  30
0
  0
VERTEX
  5
132
  8
Layer_2
  10
44.483364
  20
175.34114
  42
0.31500837
  0
VERTEX
  5
133
  8
Layer_2
  10
45.349575
  20
175.9427
  42
0.40155857
  0
VERTEX
  5
134
  8
Layer_2
  10
44.986538
  20
176.76448
  42
0.021958562
  0
VERTEX
  5
135
  8
Layer_2
  10
43.945522
  20
177.08113
  0
VERTEX
  5
136
  8
Layer_2
  10
43.845913
  20
177.13387
  42
-0.39955882
  0
VERTEX
  5
137
  8
Layer_2
  10
43.755337
  20
177.47859
  42
-0.25380473
  0
VERTEX
  5
138
  8
Layer_2
  10
44.144741
  20
177.68172
  42
-0.25344198
  0
VERTEX
  5
139
  8
Layer_2
  10
44.746548
  20
177.5135
  42
-0.13814345
  0
VERTEX
  5
13a
  8
Layer_2
  10
44.853237
  20
177.26228
  0
VERTEX
  5
13b
  8
Layer_2
  10
45.283657
  20
177.32088
  42
0.34259606
  0
VERTEX
  5
13c
  8
Layer_2
  10
44.67062
  20
178.00032
  42
0.20515701
  0
VERTEX
  5
13d
  8
Layer_2
  10
43.593227
  20
177.86897
  42
0.35449219
  0
VERTEX
  5
13e
  8
Layer_2
  10
43.351772
  20
177.03377
  42
0.23782933
  0
VERTEX
  5
13f
  8
Layer_2
  10
43.939175
  20
176.60823
  42
0.014426963
  0
VERTEX
  5
140
  8
Layer_2
  10
44.512173
  20
176.45076
  0
VERTEX
  5
141
  8
Layer_2
  10
44.641567
  20
176.41145
  42
-0.21439465
  0
VERTEX
  5
142
  8
Layer_2
  10
44.868019
  20
176.28416
  42
-0.21437992
  0
VERTEX
  5
143
  8
Layer_2
  10
44.919888
  20
176.02962
  42
-0.32433556
  0
VERTEX
  5
144
  8
Layer_2
  10
44.474087
  20
175.70442
  42
-0.26235329
  0
VERTEX
  5
145
  8
Layer_2
  10
43.788052
  20
175.91341
  42
-0.1311843
  0
VERTEX
  5
146
  8
Layer_2
  10
43.659389
  20
176.23714
  0
VERTEX
  5
147
  8
Layer_2
  10
43.223843
  20
176.16878
  42
0.31293244
  0
VERTEX
  5
148
  8
Layer_2
  10
43.888393
  20
175.38704
  42
0.081587394
  0
VERTEX
  5
149
  8
Layer_2
  10
44.483364
  20
175.34114
  0
SEQEND
  0
POLYLINE
  5
14b
  8
Layer_2
  62
12
  66
1
  10
0
  20
0
  30
0
  0
VERTEX
  5
14b
  8
Layer_2
  10
37.750698
  20
177.99129
  0
VERTEX
  5
14c
  8
Layer_2
  10
37.298061
  20
177.99129
  42
0.0067037282
  0
VERTEX
  5
14d
  8
Layer_2
  10
36.627163
  20
176.13826
  0
VERTEX
  5
14e
  8
Layer_2
  10
36.55685
  20
175.91194
  0
VERTEX
  5
14f
  8
Layer_2
  10
36.477261
  20
176.17854
  42
0.0094044949
  0
VERTEX
  5
150
  8
Layer_2
  10
35.832729
  20
177.99129
  0
VERTEX
  5
151
  8
Layer_2
  10
35.367886
  20
177.99129
  0
VERTEX
  5
152
  8
Layer_2
  10
36.356167
  20
175.39314
  0
VERTEX
  5
153
  8
Layer_2
  10
36.7673
  20
175.39314
  0
VERTEX
  5
154
  8
Layer_2
  10
37.750698
  20
177.99129
  0
SEQEND
  0
POLYLINE
  5
156
  8
Layer_2
  62
12
  70
1
  66
1
  10
0
  20
0
  30
0
  0
VERTEX
  5
156
  8
Layer_2
  10
38.985806
  20
175.71199
  42
-0.16623531
  0
VERTEX
  5
157
  8
Layer_2
  10
38.595913
  20
175.9449
  42
-0.19562472
  0
VERTEX
  5
158
  8
Layer_2
  10
38.391811
  20
176.9261
  42
-0.33825719
  0
VERTEX
  5
159
  8
Layer_2
  10
38.985806
  20
177.67
  42
-0.40365841
  0
VERTEX
  5
15a
  8
Layer_2
  10
39.852261
  20
177.13045
  42
-0.17202495
  0
VERTEX
  5
15b
  8
Layer_2
  10
39.784634
  20
176.08723
  42
-0.34384992
  0
SEQEND
  0
POLYLINE
  5
15d
  8
Layer_2
  62
12
  66
1
  10
0
  20
0
  30
0
  0
VERTEX
  5
15d
  8
Layer_2
  10
248.52699
  20
196.86554
  0
VERTEX
  5
15e
  8
Layer_2
  10
250.20985
  20
196.86554
  0
VERTEX
  5
15f
  8
Layer_2
  10
250.20985
  20
197.28864
  0
VERTEX
  5
160
  8
Layer_2
  10
248.52699
  20
197.28864
  0
VERTEX
  5
161
  8
Layer_2
  10
248.52699
  20
198.39923
  0
VERTEX
  5
162
  8
Layer_2
  10
250.47182
  20
198.39923
  0
VERTEX
  5
163
  8
Layer_2
  10
250.47182
  20
198.82257
  0
VERTEX
  5
164
  8
Layer_2
  10
248.05238
  20
198.82257
  0
VERTEX
  5
165
  8
Layer_2
  10
248.05238
  20
195.23615
  0
VERTEX
  5
166
  8
Layer_2
  10
248.52699
  20
195.23615
  0
VERTEX
  5
167
  8
Layer_2
  10
248.52699
  20
196.86554
  0
SEQEND
  0
POLYLINE
  5
169
  8
Layer_2
  62
12
  66
1
  10
0
  20
0
  30
0
  0
VERTEX
  5
169
  8
Layer_2
  10
252.01747
  20
195.19904
  42
0.13555023
  0
VERTEX
  5
16a
  8
Layer_2
  10
252.72304
  20
195.5567
  0
VERTEX
  5
16b
  8
Layer_2
  10
252.75478
  20
195.38483
  0
VERTEX
  5
16c
  8
Layer_2
  10
252.81093
  20
195.23615
  0
VERTEX
  5
16d
  8
Layer_2
  10
253.27089
  20
195.23615
  0
VERTEX
  5
16e
  8
Layer_2
  10
253.20155
  20
195.38873
  42
-0.068942672
  0
VERTEX
  5
16f
  8
Layer_2
  10
253.13148
  20
196.32477
  0
VERTEX
  5
170
  8
Layer_2
  10
253.13148
  20
196.91193
  42
0.1729921
  0
VERTEX
  5
171
  8
Layer_2
  10
252.97255
  20
197.61774
  42
0.20520907
  0
VERTEX
  5
172
  8
Layer_2
  10
252.12611
  20
197.89288
  42
0.18465184
  0
VERTEX
  5
173
  8
Layer_2
  10
251.22231
  20
197.61945
  42
0.15368383
  0
VERTEX
  5
174
  8
Layer_2
  10
250.95424
  20
197.09308
  0
VERTEX
  5
175
  8
Layer_2
  10
251.3849
  20
197.03424
  0
VERTEX
  5
176
  8
Layer_2
  10
251.42519
  20
197.16193
  42
-0.33155617
  0
VERTEX
  5
177
  8
Layer_2
  10
251.91737
  20
197.52155
  42
-0.20838652
  0
VERTEX
  5
178
  8
Layer_2
  10
252.56386
  20
197.37921
  42
-0.21260123
  0
VERTEX
  5
179
  8
Layer_2
  10
252.68617
  20
196.88507
  42
-0.036065035
  0
VERTEX
  5
17a
  8
Layer_2
  10
251.58266
  20
196.68439
  0
VERTEX
  5
17b
  8
Layer_2
  10
251.50966
  20
196.6673
  42
0.19887249
  0
VERTEX
  5
17c
  8
Layer_2
  10
251.01341
  20
196.345
  42
0.19887264
  0
VERTEX
  5
17d
  8
Layer_2
  10
250.89296
  20
195.76569
  42
0.33479806
  0
VERTEX
  5
17e
  8
Layer_2
  10
251.56483
  20
195.19073
  42
0.075481977
  0
VERTEX
  5
17f
  8
Layer_2
  10
252.01747
  20
195.19904
  0
SEQEND
  0
POLYLINE
  5
181
  8
Layer_2
  62
12
  66
1
  10
0
  20
0
  30
0
  0
VERTEX
  5
181
  8
Layer_2
  10
254.27357
  20
196.65509
  0
VERTEX
  5
182
  8
Layer_2
  10
254.28627
  20
196.88458
  42
-0.20146364
  0
VERTEX
  5
183
  8
Layer_2
  10
254.49326
  20
197.34019
  42
-0.20146394
  0
VERTEX
  5
184
  8
Layer_2
  10
254.96352
  20
197.51129
  42
-0.20238494
  0
VERTEX
  5
185
  8
Layer_2
  10
255.32515
  20
197.39381
  42
-0.20238251
  0
VERTEX
  5
186
  8
Layer_2
  10
255.49135
  20
197.05182
  42
-0.030953042
  0
VERTEX
  5
187
  8
Layer_2
  10
255.50404
  20
196.81647
  0
VERTEX
  5
188
  8
Layer_2
  10
255.50404
  20
195.23615
  0
VERTEX
  5
189
  8
Layer_2
  10
255.94447
  20
195.23615
  42
0.0051777091
  0
VERTEX
  5
18a
  8
Layer_2
  10
255.94301
  20
196.97516
  42
0.28396212
  0
VERTEX
  5
18b
  8
Layer_2
  10
255.58046
  20
197.763
  42
0.30621209
  0
VERTEX
  5
18c
  8
Layer_2
  10
254.38857
  20
197.65216
  0
VERTEX
  5
18d
  8
Layer_2
  10
254.22963
  20
197.4649
  0
VERTEX
  5
18e
  8
Layer_2
  10
254.22963
  20
197.83429
  0
VERTEX
  5
18f
  8
Layer_2
  10
253.83339
  20
197.83429
  0
VERTEX
  5
190
  8
Layer_2
  10
253.83339
  20
195.23615
  0
VERTEX
  5
191
  8
Layer_2
  10
254.27357
  20
195.23615
  0
VERTEX
  5
192
  8
Layer_2
  10
254.27357
  20
196.65509
  0
SEQEND
  0
POLYLINE
  5
194
  8
Layer_2
  62
12
  70
1
  66
1
  10
0
  20
0
  30
0
  0
VERTEX
  5
194
  8
Layer_2
  10
251.75087
  20
195.52985
  42
-0.40276894
  0
VERTEX
  5
195
  8
Layer_2
  10
251.34804
  20
195.93341
  42
-0.38317112
  0
VERTEX
  5
196
  8
Layer_2
  10
251.73524
  20
196.33209
  42
-0.020281619
  0
VERTEX
  5
197
  8
Layer_2
  10
252.19179
  20
196.40997
  0
VERTEX
  5
198
  8
Layer_2
  10
252.38661
  20
196.44952
  42
0.039279836
  0
VERTEX
  5
199
  8
Layer_2
  10
252.68617
  20
196.5401
  42
-0.1619548
  0
VERTEX
  5
19a
  8
Layer_2
  10
252.56239
  20
195.84674
  42
-0.27552714
  0
SEQEND
  0
POLYLINE
  5
19c
  8
Layer_2
  62
12
  66
1
  10
0
  20
0
  30
0
  0
VERTEX
  5
19c
  8
Layer_2
  10
248.94592
  20
178.78812
  0
VERTEX
  5
19d
  8
Layer_2
  10
249.98303
  20
175.73514
  0
VERTEX
  5
19e
  8
Layer_2
  10
250.41125
  20
175.73514
  0
VERTEX
  5
19f
  8
Layer_2
  10
251.45325
  20
178.73685
  0
VERTEX
  5
1a0
  8
Layer_2
  10
251.45325
  20
175.73514
  0
VERTEX
  5
1a1
  8
Layer_2
  10
251.91077
  20
175.73514
  0
VERTEX
  5
1a2
  8
Layer_2
  10
251.91077
  20
179.32156
  0
VERTEX
  5
1a3
  8
Layer_2
  10
251.27234
  20
179.32156
  42
0.0068409416
  0
VERTEX
  5
1a4
  8
Layer_2
  10
250.22278
  20
176.2515
  0
VERTEX
  5
1a5
  8
Layer_2
  10
250.10632
  20
176.616
  0
VERTEX
  5
1a6
  8
Layer_2
  10
249.20276
  20
179.32156
  0
VERTEX
  5
1a7
  8
Layer_2
  10
248.4884
  20
179.32156
  0
VERTEX
  5
1a8
  8
Layer_2
  10
248.4884
  20
175.73514
  0
VERTEX
  5
1a9
  8
Layer_2
  10
248.94592
  20
175.73514
  0
VERTEX
  5
1aa
  8
Layer_2
  10
248.94592
  20
178.78812
  0
SEQEND
  0
POLYLINE
  5
1ac
  8
Layer_2
  62
12
  66
1
  10
0
  20
0
  30
0
  0
VERTEX
  5
1ac
  8
Layer_2
  10
255.85364
  20
179.32156
  0
VERTEX
  5
1ad
  8
Layer_2
  10
255.41321
  20
179.32156
  0
VERTEX
  5
1ae
  8
Layer_2
  10
255.41321
  20
178.81522
  0
VERTEX
  5
1af
  8
Layer_2
  10
255.85364
  20
178.81522
  0
VERTEX
  5
1b0
  8
Layer_2
  10
255.85364
  20
179.32156
  0
SEQEND
  0
POLYLINE
  5
1b2
  8
Layer_2
  62
12
  66
1
  10
0
  20
0
  30
0
  0
VERTEX
  5
1b2
  8
Layer_2
  10
261.15198
  20
179.32156
  0
VERTEX
  5
1b3
  8
Layer_2
  10
260.71155
  20
179.32156
  0
VERTEX
  5
1b4
  8
Layer_2
  10
260.71155
  20
175.73514
  0
VERTEX
  5
1b5
  8
Layer_2
  10
261.15198
  20
175.73514
  0
VERTEX
  5
1b6
  8
Layer_2
  10
261.15198
  20
179.32156
  0
SEQEND
  0
POLYLINE
  5
1b8
  8
Layer_2
  62
12
  66
1
  10
0
  20
0
  30
0
  0
VERTEX
  5
1b8
  8
Layer_2
  10
262.26624
  20
179.32156
  0
VERTEX
  5
1b9
  8
Layer_2
  10
261.82605
  20
179.32156
  0
VERTEX
  5
1ba
  8
Layer_2
  10
261.82605
  20
178.81522
  0
VERTEX
  5
1bb
  8
Layer_2
  10
262.26624
  20
178.81522
  0
VERTEX
  5
1bc
  8
Layer_2
  10
262.26624
  20
179.32156
  0
SEQEND
  0
POLYLINE
  5
1be
  8
Layer_2
  62
12
  66
1
  10
0
  20
0
  30
0
  0
VERTEX
  5
1be
  8
Layer_2
  10
266.1217
  20
177.15652
  0
VERTEX
  5
1bf
  8
Layer_2
  10
266.1261
  20
177.30106
  42
-0.20768451
  0
VERTEX
  5
1c0
  8
Layer_2
  10
266.31189
  20
177.80624
  42
-0.20768505
  0
VERTEX
  5
1c1
  8
Layer_2
  10
266.80896
  20
178.01273
  42
-0.20458954
  0
VERTEX
  5
1c2
  8
Layer_2
  10
267.18134
  20
177.89023
  42
-0.20458969
  0
VERTEX
  5
1c3
  8
Layer_2
  10
267.34802
  20
177.53543
  0
VERTEX
  5
1c4
  8
Layer_2
  10
267.35706
  20
177.38162
  0
VERTEX
  5
1c5
  8
Layer_2
  10
267.35706
  20
175.73514
  0
VERTEX
  5
1c6
  8
Layer_2
  10
267.79724
  20
175.73514
  42
0.015644199
  0
VERTEX
  5
1c7
  8
Layer_2
  10
267.79163
  20
177.56107
  42
0.19937605
  0
VERTEX
  5
1c8
  8
Layer_2
  10
267.58832
  20
178.13089
  42
0.19937564
  0
VERTEX
  5
1c9
  8
Layer_2
  10
267.03918
  20
178.3848
  42
0.26003625
  0
VERTEX
  5
1ca
  8
Layer_2
  10
266.1217
  20
178.0347
  0
VERTEX
  5
1cb
  8
Layer_2
  10
266.1217
  20
179.32156
  0
VERTEX
  5
1cc
  8
Layer_2
  10
265.68127
  20
179.32156
  0
VERTEX
  5
1cd
  8
Layer_2
  10
265.68127
  20
175.73514
  0
VERTEX
  5
1ce
  8
Layer_2
  10
266.1217
  20
175.73514
  0
VERTEX
  5
1cf
  8
Layer_2
  10
266.1217
  20
177.15652
  0
SEQEND
  0
POLYLINE
  5
1d1
  8
Layer_2
  62
12
  66
1
  10
0
  20
0
  30
0
  0
VERTEX
  5
1d1
  8
Layer_2
  10
269.33582
  20
175.71072
  0
VERTEX
  5
1d2
  8
Layer_2
  10
269.51184
  20
175.74002
  0
VERTEX
  5
1d3
  8
Layer_2
  10
269.44836
  20
176.12918
  0
VERTEX
  5
1d4
  8
Layer_2
  10
269.33997
  20
176.11624
  42
-0.36635995
  0
VERTEX
  5
1d5
  8
Layer_2
  10
269.02869
  20
176.22928
  42
-0.078732965
  0
VERTEX
  5
1d6
  8
Layer_2
  10
269.00549
  20
176.47147
  0
VERTEX
  5
1d7
  8
Layer_2
  10
269.00549
  20
177.99075
  0
VERTEX
  5
1d8
  8
Layer_2
  10
269.44836
  20
177.99075
  0
VERTEX
  5
1d9
  8
Layer_2
  10
269.44836
  20
178.33328
  0
VERTEX
  5
1da
  8
Layer_2
  10
269.00549
  20
178.33328
  0
VERTEX
  5
1db
  8
Layer_2
  10
269.00549
  20
179.24075
  0
VERTEX
  5
1dc
  8
Layer_2
  10
268.5675
  20
178.97659
  0
VERTEX
  5
1dd
  8
Layer_2
  10
268.5675
  20
178.33328
  0
VERTEX
  5
1de
  8
Layer_2
  10
268.24475
  20
178.33328
  0
VERTEX
  5
1df
  8
Layer_2
  10
268.24475
  20
177.99075
  0
VERTEX
  5
1e0
  8
Layer_2
  10
268.5675
  20
177.99075
  0
VERTEX
  5
1e1
  8
Layer_2
  10
268.5675
  20
176.49612
  42
0.08344966
  0
VERTEX
  5
1e2
  8
Layer_2
  10
268.62146
  20
175.9761
  42
0.30348411
  0
VERTEX
  5
1e3
  8
Layer_2
  10
269.17908
  20
175.70096
  0
VERTEX
  5
1e4
  8
Layer_2
  10
269.33582
  20
175.71072
  0
SEQEND
  0
POLYLINE
  5
1e6
  8
Layer_2
  62
12
  66
1
  10
0
  20
0
  30
0
  0
VERTEX
  5
1e6
  8
Layer_2
  10
253.59509
  20
175.69803
  42
0.073759981
  0
VERTEX
  5
1e7
  8
Layer_2
  10
253.94373
  20
175.81253
  42
0.057503713
  0
VERTEX
  5
1e8
  8
Layer_2
  10
254.30042
  20
176.05569
  0
VERTEX
  5
1e9
  8
Layer_2
  10
254.33215
  20
175.88382
  0
VERTEX
  5
1ea
  8
Layer_2
  10
254.38855
  20
175.73514
  0
VERTEX
  5
1eb
  8
Layer_2
  10
254.84851
  20
175.73514
  0
VERTEX
  5
1ec
  8
Layer_2
  10
254.77893
  20
175.88773
  42
-0.068814007
  0
VERTEX
  5
1ed
  8
Layer_2
  10
254.70886
  20
176.82376
  0
VERTEX
  5
1ee
  8
Layer_2
  10
254.70886
  20
177.41092
  42
0.17357206
  0
VERTEX
  5
1ef
  8
Layer_2
  10
254.54993
  20
178.11673
  42
0.20537495
  0
VERTEX
  5
1f0
  8
Layer_2
  10
253.70349
  20
178.39188
  42
0.18464949
  0
VERTEX
  5
1f1
  8
Layer_2
  10
252.79968
  20
178.11844
  42
0.15359343
  0
VERTEX
  5
1f2
  8
Layer_2
  10
252.53186
  20
177.59207
  0
VERTEX
  5
1f3
  8
Layer_2
  10
252.96228
  20
177.53323
  0
VERTEX
  5
1f4
  8
Layer_2
  10
253.00256
  20
177.66092
  42
-0.3313588
  0
VERTEX
  5
1f5
  8
Layer_2
  10
253.49475
  20
178.02054
  42
-0.20833613
  0
VERTEX
  5
1f6
  8
Layer_2
  10
254.14148
  20
177.8782
  42
-0.21238675
  0
VERTEX
  5
1f7
  8
Layer_2
  10
254.26379
  20
177.38406
  42
-0.036059147
  0
VERTEX
  5
1f8
  8
Layer_2
  10
253.16028
  20
177.18338
  0
VERTEX
  5
1f9
  8
Layer_2
  10
253.08704
  20
177.16629
  42
0.198764
  0
VERTEX
  5
1fa
  8
Layer_2
  10
252.59093
  20
176.8439
  42
0.198764
  0
VERTEX
  5
1fb
  8
Layer_2
  10
252.47034
  20
176.26468
  42
0.33470158
  0
VERTEX
  5
1fc
  8
Layer_2
  10
253.14221
  20
175.68973
  42
0.0754413
  0
VERTEX
  5
1fd
  8
Layer_2
  10
253.59509
  20
175.69803
  0
SEQEND
  0
POLYLINE
  5
1ff
  8
Layer_2
  62
12
  66
1
  10
0
  20
0
  30
0
  0
VERTEX
  5
1ff
  8
Layer_2
  10
256.95325
  20
177.15408
  42
-0.20894968
  0
VERTEX
  5
200
  8
Layer_2
  10
257.15759
  20
177.83182
  42
-0.35145121
  0
VERTEX
  5
201
  8
Layer_2
  10
258.01062
  20
177.88773
  42
-0.22785976
  0
VERTEX
  5
202
  8
Layer_2
  10
258.18372
  20
177.31546
  0
VERTEX
  5
203
  8
Layer_2
  10
258.18372
  20
175.73514
  0
VERTEX
  5
204
  8
Layer_2
  10
258.62415
  20
175.73514
  42
0.0051777049
  0
VERTEX
  5
205
  8
Layer_2
  10
258.62268
  20
177.47415
  42
0.28396204
  0
VERTEX
  5
206
  8
Layer_2
  10
258.26013
  20
178.26199
  42
0.30621209
  0
VERTEX
  5
207
  8
Layer_2
  10
257.06824
  20
178.15115
  0
VERTEX
  5
208
  8
Layer_2
  10
256.9093
  20
177.9639
  0
VERTEX
  5
209
  8
Layer_2
  10
256.9093
  20
178.33328
  0
VERTEX
  5
20a
  8
Layer_2
  10
256.51306
  20
178.33328
  0
VERTEX
  5
20b
  8
Layer_2
  10
256.51306
  20
175.73514
  0
VERTEX
  5
20c
  8
Layer_2
  10
256.95325
  20
175.73514
  0
VERTEX
  5
20d
  8
Layer_2
  10
256.95325
  20
177.15408
  0
SEQEND
  0
POLYLINE
  5
20f
  8
Layer_2
  62
12
  66
1
  10
0
  20
0
  30
0
  0
VERTEX
  5
20f
  8
Layer_2
  10
264.06042
  20
174.68997
  42
0.38219541
  0
VERTEX
  5
210
  8
Layer_2
  10
265.01575
  20
175.56912
  42
0.034891583
  0
VERTEX
  5
211
  8
Layer_2
  10
265.04675
  20
176.08743
  0
VERTEX
  5
212
  8
Layer_2
  10
265.04675
  20
178.33328
  0
VERTEX
  5
213
  8
Layer_2
  10
264.6405
  20
178.33328
  0
VERTEX
  5
214
  8
Layer_2
  10
264.6405
  20
178.02005
  0
VERTEX
  5
215
  8
Layer_2
  10
264.48132
  20
178.18265
  42
0.40471126
  0
VERTEX
  5
216
  8
Layer_2
  10
263.05627
  20
178.0137
  42
0.31643492
  0
VERTEX
  5
217
  8
Layer_2
  10
263.05042
  20
176.12186
  42
0.34173499
  0
VERTEX
  5
218
  8
Layer_2
  10
264.27478
  20
175.82034
  42
0.108143
  0
VERTEX
  5
219
  8
Layer_2
  10
264.599
  20
176.07523
  42
-0.10795609
  0
VERTEX
  5
21a
  8
Layer_2
  10
264.53113
  20
175.40628
  42
-0.32267385
  0
VERTEX
  5
21b
  8
Layer_2
  10
263.87
  20
175.04544
  42
-0.28004795
  0
VERTEX
  5
21c
  8
Layer_2
  10
263.32385
  20
175.28519
  42
-0.08457036
  0
VERTEX
  5
21d
  8
Layer_2
  10
263.27307
  20
175.45633
  0
VERTEX
  5
21e
  8
Layer_2
  10
262.84509
  20
175.52005
  42
0.32779658
  0
VERTEX
  5
21f
  8
Layer_2
  10
263.27576
  20
174.79861
  42
0.1320963
  0
VERTEX
  5
220
  8
Layer_2
  10
264.06042
  20
174.68997
  0
SEQEND
  0
POLYLINE
  5
222
  8
Layer_2
  62
12
  66
1
  10
0
  20
0
  30
0
  0
VERTEX
  5
222
  8
Layer_2
  10
255.85364
  20
178.33328
  0
VERTEX
  5
223
  8
Layer_2
  10
255.41321
  20
178.33328
  0
VERTEX
  5
224
  8
Layer_2
  10
255.41321
  20
175.73514
  0
VERTEX
  5
225
  8
Layer_2
  10
255.85364
  20
175.73514
  0
VERTEX
  5
226
  8
Layer_2
  10
255.85364
  20
178.33328
  0
SEQEND
  0
POLYLINE
  5
228
  8
Layer_2
  62
12
  66
1
  10
0
  20
0
  30
0
  0
VERTEX
  5
228
  8
Layer_2
  10
262.26624
  20
178.33328
  0
VERTEX
  5
229
  8
Layer_2
  10
261.82605
  20
178.33328
  0
VERTEX
  5
22a
  8
Layer_2
  10
261.82605
  20
175.73514
  0
VERTEX
  5
22b
  8
Layer_2
  10
262.26624
  20
175.73514
  0
VERTEX
  5
22c
  8
Layer_2
  10
262.26624
  20
178.33328
  0
SEQEND
  0
POLYLINE
  5
22e
  8
Layer_2
  62
12
  66
1
  10
0
  20
0
  30
0
  0
VERTEX
  5
22e
  8
Layer_2
  10
263.77502
  20
176.11453
  0
VERTEX
  5
22f
  8
Layer_2
  10
263.64124
  20
176.15848
  42
-0.27229446
  0
VERTEX
  5
230
  8
Layer_2
  10
263.22229
  20
176.84232
  42
-0.14195981
  0
VERTEX
  5
231
  8
Layer_2
  10
263.32507
  20
177.6553
  42
-0.34709006
  0
VERTEX
  5
232
  8
Layer_2
  10
264.05774
  20
178.01224
  42
-0.32768189
  0
VERTEX
  5
233
  8
Layer_2
  10
264.62244
  20
177.28983
  42
-0.13850602
  0
VERTEX
  5
234
  8
Layer_2
  10
264.52014
  20
176.46683
  42
-0.34417924
  0
VERTEX
  5
235
  8
Layer_2
  10
263.77502
  20
176.11453
  0
SEQEND
  0
POLYLINE
  5
237
  8
Layer_2
  62
12
  70
1
  66
1
  10
0
  20
0
  30
0
  0
VERTEX
  5
237
  8
Layer_2
  10
253.32849
  20
176.02884
  42
-0.30998091
  0
VERTEX
  5
238
  8
Layer_2
  10
252.95509
  20
176.28441
  42
-0.3099852
  0
VERTEX
  5
239
  8
Layer_2
  10
253.06067
  20
176.7244
  42
-0.12289411
  0
VERTEX
  5
23a
  8
Layer_2
  10
253.41882
  20
176.85257
  0
VERTEX
  5
23b
  8
Layer_2
  10
253.76941
  20
176.90897
  42
0.053028151
  0
VERTEX
  5
23c
  8
Layer_2
  10
254.26379
  20
177.03909
  42
-0.16176647
  0
VERTEX
  5
23d
  8
Layer_2
  10
254.13977
  20
176.34573
  42
-0.27574774
  0
SEQEND
  0
CIRCLE
  5
23f
  8
Layer_0
  62
0
  10
275
  20
198
  30
0
  40
2.5
  0
CIRCLE
  5
23f
  8
Layer_0
  62
0
  10
275
  20
178
  30
0
  40
2.5
  0
POLYLINE
  5
23f
  8
Layer_2
  62
12
  66
1
  10
0
  20
0
  30
0
  0
VERTEX
  5
23f
  8
Layer_2
  10
338.06445
  20
152.18317
  42
0.23601986
  0
VERTEX
  5
240
  8
Layer_2
  10
338.88422
  20
152.74706
  42
0.23601916
  0
VERTEX
  5
241
  8
Layer_2
  10
338.92334
  20
153.74127
  42
0.22849729
  0
VERTEX
  5
242
  8
Layer_2
  10
338.35205
  20
154.16852
  0
VERTEX
  5
243
  8
Layer_2
  10
338.46704
  20
154.2298
  42
0.3862896
  0
VERTEX
  5
244
  8
Layer_2
  10
338.77271
  20
155.24689
  42
0.34174772
  0
VERTEX
  5
245
  8
Layer_2
  10
337.59277
  20
155.81207
  42
0.33588436
  0
VERTEX
  5
246
  8
Layer_2
  10
336.71802
  20
154.89752
  0
VERTEX
  5
247
  8
Layer_2
  10
337.15845
  20
154.8194
  0
VERTEX
  5
248
  8
Layer_2
  10
337.19043
  20
154.97076
  42
-0.19777681
  0
VERTEX
  5
249
  8
Layer_2
  10
337.46014
  20
155.36613
  42
-0.19777706
  0
VERTEX
  5
24a
  8
Layer_2
  10
337.93042
  20
155.45514
  42
-0.3785965
  0
VERTEX
  5
24b
  8
Layer_2
  10
338.3938
  20
154.90485
  42
-0.37178707
  0
VERTEX
  5
24c
  8
Layer_2
  10
337.92969
  20
154.34235
  42
-0.10158627
  0
VERTEX
  5
24d
  8
Layer_2
  10
337.59131
  20
154.31036
  0
VERTEX
  5
24e
  8
Layer_2
  10
337.54248
  20
153.92389
  0
VERTEX
  5
24f
  8
Layer_2
  10
337.71313
  20
153.96075
  42
-0.20300911
  0
VERTEX
  5
250
  8
Layer_2
  10
338.24255
  20
153.86681
  42
-0.20300844
  0
VERTEX
  5
251
  8
Layer_2
  10
338.54272
  20
153.42072
  42
-0.1991957
  0
VERTEX
  5
252
  8
Layer_2
  10
338.43707
  20
152.86082
  42
-0.19919728
  0
VERTEX
  5
253
  8
Layer_2
  10
337.96582
  20
152.54059
  42
-0.19863228
  0
VERTEX
  5
254
  8
Layer_2
  10
337.45474
  20
152.6312
  42
-0.19863253
  0
VERTEX
  5
255
  8
Layer_2
  10
337.15894
  20
153.05768
  0
VERTEX
  5
256
  8
Layer_2
  10
337.11426
  20
153.23175
  0
VERTEX
  5
257
  8
Layer_2
  10
336.67407
  20
153.17291
  42
0.29632249
  0
VERTEX
  5
258
  8
Layer_2
  10
337.38184
  20
152.23297
  42
0.12320536
  0
VERTEX
  5
259
  8
Layer_2
  10
338.06445
  20
152.18317
  0
SEQEND
  0
POLYLINE
  5
25b
  8
Layer_2
  62
12
  66
1
  10
0
  20
0
  30
0
  0
VERTEX
  5
25b
  8
Layer_2
  10
314.18921
  20
155.38922
  0
VERTEX
  5
25c
  8
Layer_2
  10
315.37573
  20
155.38922
  0
VERTEX
  5
25d
  8
Layer_2
  10
315.37573
  20
155.81256
  0
VERTEX
  5
25e
  8
Layer_2
  10
312.53296
  20
155.81256
  0
VERTEX
  5
25f
  8
Layer_2
  10
312.53296
  20
155.38922
  0
VERTEX
  5
260
  8
Layer_2
  10
313.7146
  20
155.38922
  0
VERTEX
  5
261
  8
Layer_2
  10
313.7146
  20
152.22614
  0
VERTEX
  5
262
  8
Layer_2
  10
314.18921
  20
152.22614
  0
VERTEX
  5
263
  8
Layer_2
  10
314.18921
  20
155.38922
  0
SEQEND
  0
POLYLINE
  5
265
  8
Layer_2
  62
12
  66
1
  10
0
  20
0
  30
0
  0
VERTEX
  5
265
  8
Layer_2
  10
351.46777
  20
155.0174
  0
VERTEX
  5
266
  8
Layer_2
  10
351.46777
  20
155.81256
  0
VERTEX
  5
267
  8
Layer_2
  10
350.92212
  20
155.81256
  0
VERTEX
  5
268
  8
Layer_2
  10
350.92212
  20
155.0174
  0
VERTEX
  5
269
  8
Layer_2
  10
351.05664
  20
153.11676
  0
VERTEX
  5
26a
  8
Layer_2
  10
351.34058
  20
153.11676
  0
VERTEX
  5
26b
  8
Layer_2
  10
351.46777
  20
155.0174
  0
SEQEND
  0
POLYLINE
  5
26d
  8
Layer_2
  62
12
  66
1
  10
0
  20
0
  30
0
  0
VERTEX
  5
26d
  8
Layer_2
  10
316.29248
  20
153.64752
  42
-0.18653928
  0
VERTEX
  5
26e
  8
Layer_2
  10
316.46387
  20
154.28278
  42
-0.3419869
  0
VERTEX
  5
26f
  8
Layer_2
  10
317.30566
  20
154.41901
  42
-0.25620253
  0
VERTEX
  5
270
  8
Layer_2
  10
317.52783
  20
153.87262
  0
VERTEX
  5
271
  8
Layer_2
  10
317.52783
  20
152.22614
  0
VERTEX
  5
272
  8
Layer_2
  10
317.96802
  20
152.22614
  42
0.015644199
  0
VERTEX
  5
273
  8
Layer_2
  10
317.9624
  20
154.05206
  42
0.19937398
  0
VERTEX
  5
274
  8
Layer_2
  10
317.75909
  20
154.62189
  42
0.19937764
  0
VERTEX
  5
275
  8
Layer_2
  10
317.20996
  20
154.87579
  42
0.2598788
  0
VERTEX
  5
276
  8
Layer_2
  10
316.29248
  20
154.5257
  0
VERTEX
  5
277
  8
Layer_2
  10
316.29248
  20
155.81256
  0
VERTEX
  5
278
  8
Layer_2
  10
315.85205
  20
155.81256
  0
VERTEX
  5
279
  8
Layer_2
  10
315.85205
  20
152.22614
  0
VERTEX
  5
27a
  8
Layer_2
  10
316.29248
  20
152.22614
  0
VERTEX
  5
27b
  8
Layer_2
  10
316.29248
  20
153.64752
  0
SEQEND
  0
POLYLINE
  5
27d
  8
Layer_2
  62
12
  66
1
  10
0
  20
0
  30
0
  0
VERTEX
  5
27d
  8
Layer_2
  10
319.10034
  20
155.81256
  0
VERTEX
  5
27e
  8
Layer_2
  10
318.66016
  20
155.81256
  0
VERTEX
  5
27f
  8
Layer_2
  10
318.66016
  20
155.30621
  0
VERTEX
  5
280
  8
Layer_2
  10
319.10034
  20
155.30621
  0
VERTEX
  5
281
  8
Layer_2
  10
319.10034
  20
155.81256
  0
SEQEND
  0
POLYLINE
  5
283
  8
Layer_2
  62
12
  66
1
  10
0
  20
0
  30
0
  0
VERTEX
  5
283
  8
Layer_2
  10
350.06494
  20
155.0174
  0
VERTEX
  5
284
  8
Layer_2
  10
350.06494
  20
155.81256
  0
VERTEX
  5
285
  8
Layer_2
  10
349.51929
  20
155.81256
  0
VERTEX
  5
286
  8
Layer_2
  10
349.51929
  20
155.0174
  0
VERTEX
  5
287
  8
Layer_2
  10
349.65381
  20
153.11676
  0
VERTEX
  5
288
  8
Layer_2
  10
349.93774
  20
153.11676
  0
VERTEX
  5
289
  8
Layer_2
  10
350.06494
  20
155.0174
  0
SEQEND
  0
POLYLINE
  5
28b
  8
Layer_2
  62
12
  66
1
  10
0
  20
0
  30
0
  0
VERTEX
  5
28b
  8
Layer_2
  10
322.70776
  20
153.25616
  0
VERTEX
  5
28c
  8
Layer_2
  10
323.01831
  20
153.5545
  0
VERTEX
  5
28d
  8
Layer_2
  10
323.87695
  20
152.22614
  0
VERTEX
  5
28e
  8
Layer_2
  10
324.42017
  20
152.22614
  0
VERTEX
  5
28f
  8
Layer_2
  10
323.32666
  20
153.86041
  0
VERTEX
  5
290
  8
Layer_2
  10
324.31982
  20
154.82428
  0
VERTEX
  5
291
  8
Layer_2
  10
323.74976
  20
154.82428
  0
VERTEX
  5
292
  8
Layer_2
  10
322.70776
  20
153.7674
  0
VERTEX
  5
293
  8
Layer_2
  10
322.70776
  20
155.81256
  0
VERTEX
  5
294
  8
Layer_2
  10
322.26733
  20
155.81256
  0
VERTEX
  5
295
  8
Layer_2
  10
322.26733
  20
152.22614
  0
VERTEX
  5
296
  8
Layer_2
  10
322.70776
  20
152.22614
  0
VERTEX
  5
297
  8
Layer_2
  10
322.70776
  20
153.25616
  0
SEQEND
  0
POLYLINE
  5
299
  8
Layer_2
  62
12
  66
1
  10
0
  20
0
  30
0
  0
VERTEX
  5
299
  8
Layer_2
  10
331.4646
  20
152.17413
  42
0.31513624
  0
VERTEX
  5
29a
  8
Layer_2
  10
332.33057
  20
152.7757
  42
0.40155777
  0
VERTEX
  5
29b
  8
Layer_2
  10
331.96753
  20
153.59747
  42
0.021959614
  0
VERTEX
  5
29c
  8
Layer_2
  10
330.92651
  20
153.91412
  0
VERTEX
  5
29d
  8
Layer_2
  10
330.8269
  20
153.96686
  42
-0.39955989
  0
VERTEX
  5
29e
  8
Layer_2
  10
330.73633
  20
154.31158
  42
-0.25377112
  0
VERTEX
  5
29f
  8
Layer_2
  10
331.12573
  20
154.51471
  42
-0.25344217
  0
VERTEX
  5
2a0
  8
Layer_2
  10
331.72754
  20
154.3465
  42
-0.1381438
  0
VERTEX
  5
2a1
  8
Layer_2
  10
331.83423
  20
154.09528
  0
VERTEX
  5
2a2
  8
Layer_2
  10
332.26465
  20
154.15387
  42
0.34259623
  0
VERTEX
  5
2a3
  8
Layer_2
  10
331.65161
  20
154.83331
  42
0.20515711
  0
VERTEX
  5
2a4
  8
Layer_2
  10
330.57422
  20
154.70197
  42
0.35449148
  0
VERTEX
  5
2a5
  8
Layer_2
  10
330.33276
  20
153.86676
  42
0.23782976
  0
VERTEX
  5
2a6
  8
Layer_2
  10
330.92017
  20
153.44122
  42
0.014429249
  0
VERTEX
  5
2a7
  8
Layer_2
  10
331.49316
  20
153.28375
  0
VERTEX
  5
2a8
  8
Layer_2
  10
331.62256
  20
153.24445
  42
-0.2143857
  0
VERTEX
  5
2a9
  8
Layer_2
  10
331.849
  20
153.11716
  42
-0.21438684
  0
VERTEX
  5
2aa
  8
Layer_2
  10
331.90088
  20
152.86261
  42
-0.3243352
  0
VERTEX
  5
2ab
  8
Layer_2
  10
331.45508
  20
152.53741
  42
-0.26235362
  0
VERTEX
  5
2ac
  8
Layer_2
  10
330.76904
  20
152.7464
  42
-0.13118486
  0
VERTEX
  5
2ad
  8
Layer_2
  10
330.64038
  20
153.07013
  0
VERTEX
  5
2ae
  8
Layer_2
  10
330.20483
  20
153.00177
  42
0.31293295
  0
VERTEX
  5
2af
  8
Layer_2
  10
330.86938
  20
152.22003
  42
0.081557963
  0
VERTEX
  5
2b0
  8
Layer_2
  10
331.4646
  20
152.17413
  0
SEQEND
  0
POLYLINE
  5
2b2
  8
Layer_2
  62
12
  66
1
  10
0
  20
0
  30
0
  0
VERTEX
  5
2b2
  8
Layer_2
  10
344.24829
  20
153.57404
  0
VERTEX
  5
2b3
  8
Layer_2
  10
344.25269
  20
153.74103
  42
-0.20855398
  0
VERTEX
  5
2b4
  8
Layer_2
  10
344.47437
  20
154.34894
  42
-0.3941817
  0
VERTEX
  5
2b5
  8
Layer_2
  10
345.2439
  20
154.35455
  42
-0.15523932
  0
VERTEX
  5
2b6
  8
Layer_2
  10
345.35156
  20
153.91412
  0
VERTEX
  5
2b7
  8
Layer_2
  10
345.35156
  20
152.22614
  0
VERTEX
  5
2b8
  8
Layer_2
  10
345.79175
  20
152.22614
  0
VERTEX
  5
2b9
  8
Layer_2
  10
345.79175
  20
153.73566
  42
-0.19676537
  0
VERTEX
  5
2ba
  8
Layer_2
  10
345.9729
  20
154.31915
  42
-0.33075427
  0
VERTEX
  5
2bb
  8
Layer_2
  10
346.69214
  20
154.43024
  42
-0.25493631
  0
VERTEX
  5
2bc
  8
Layer_2
  10
346.88745
  20
153.98566
  42
-0.010931171
  0
VERTEX
  5
2bd
  8
Layer_2
  10
346.89014
  20
152.22614
  0
VERTEX
  5
2be
  8
Layer_2
  10
347.32813
  20
152.22614
  0
VERTEX
  5
2bf
  8
Layer_2
  10
347.32813
  20
154.00958
  42
0.19585746
  0
VERTEX
  5
2c0
  8
Layer_2
  10
347.12012
  20
154.66876
  42
0.31736219
  0
VERTEX
  5
2c1
  8
Layer_2
  10
346.07813
  20
154.7691
  42
0.11654437
  0
VERTEX
  5
2c2
  8
Layer_2
  10
345.72339
  20
154.4278
  0
VERTEX
  5
2c3
  8
Layer_2
  10
345.67871
  20
154.5296
  42
0.31698509
  0
VERTEX
  5
2c4
  8
Layer_2
  10
344.86328
  20
154.87555
  42
0.22414312
  0
VERTEX
  5
2c5
  8
Layer_2
  10
344.20166
  20
154.45978
  0
VERTEX
  5
2c6
  8
Layer_2
  10
344.20166
  20
154.82428
  0
VERTEX
  5
2c7
  8
Layer_2
  10
343.80786
  20
154.82428
  0
VERTEX
  5
2c8
  8
Layer_2
  10
343.80786
  20
152.22614
  0
VERTEX
  5
2c9
  8
Layer_2
  10
344.24829
  20
152.22614
  0
VERTEX
  5
2ca
  8
Layer_2
  10
344.24829
  20
153.57404
  0
SEQEND
  0
POLYLINE
  5
2cc
  8
Layer_2
  62
12
  66
1
  10
0
  20
0
  30
0
  0
VERTEX
  5
2cc
  8
Layer_2
  10
321.01147
  20
152.18341
  0
VERTEX
  5
2cd
  8
Layer_2
  10
321.19922
  20
152.23077
  42
0.28573149
  0
VERTEX
  5
2ce
  8
Layer_2
  10
321.88818
  20
153.12164
  0
VERTEX
  5
2cf
  8
Layer_2
  10
321.45508
  20
153.1778
  0
VERTEX
  5
2d0
  8
Layer_2
  10
321.42407
  20
153.0235
  42
-0.20337877
  0
VERTEX
  5
2d1
  8
Layer_2
  10
321.13834
  20
152.61845
  42
-0.20338234
  0
VERTEX
  5
2d2
  8
Layer_2
  10
320.64819
  20
152.54449
  42
-0.29639295
  0
VERTEX
  5
2d3
  8
Layer_2
  10
320.12793
  20
153.07574
  42
-0.16147357
  0
VERTEX
  5
2d4
  8
Layer_2
  10
320.19482
  20
154.14581
  42
-0.36666489
  0
VERTEX
  5
2d5
  8
Layer_2
  10
321.03052
  20
154.48785
  42
-0.26776182
  0
VERTEX
  5
2d6
  8
Layer_2
  10
321.41846
  20
153.99493
  0
VERTEX
  5
2d7
  8
Layer_2
  10
321.84668
  20
154.06085
  42
0.29109078
  0
VERTEX
  5
2d8
  8
Layer_2
  10
321.19409
  20
154.82941
  42
0.32826912
  0
VERTEX
  5
2d9
  8
Layer_2
  10
319.84351
  20
154.39972
  42
0.24169596
  0
VERTEX
  5
2da
  8
Layer_2
  10
319.80762
  20
152.70929
  42
0.27736075
  0
VERTEX
  5
2db
  8
Layer_2
  10
320.80688
  20
152.16754
  0
VERTEX
  5
2dc
  8
Layer_2
  10
321.01147
  20
152.18341
  0
SEQEND
  0
POLYLINE
  5
2de
  8
Layer_2
  62
12
  66
1
  10
0
  20
0
  30
0
  0
VERTEX
  5
2de
  8
Layer_2
  10
325.21021
  20
153.64508
  42
-0.2089501
  0
VERTEX
  5
2df
  8
Layer_2
  10
325.41455
  20
154.32281
  42
-0.35145136
  0
VERTEX
  5
2e0
  8
Layer_2
  10
326.26758
  20
154.37872
  42
-0.22778446
  0
VERTEX
  5
2e1
  8
Layer_2
  10
326.44067
  20
153.80646
  0
VERTEX
  5
2e2
  8
Layer_2
  10
326.44067
  20
152.22614
  0
VERTEX
  5
2e3
  8
Layer_2
  10
326.8811
  20
152.22614
  42
0.0060476691
  0
VERTEX
  5
2e4
  8
Layer_2
  10
326.87939
  20
153.96515
  42
0.28420662
  0
VERTEX
  5
2e5
  8
Layer_2
  10
326.51709
  20
154.75299
  42
0.30622602
  0
VERTEX
  5
2e6
  8
Layer_2
  10
325.3252
  20
154.64215
  0
VERTEX
  5
2e7
  8
Layer_2
  10
325.16626
  20
154.4549
  0
VERTEX
  5
2e8
  8
Layer_2
  10
325.16626
  20
154.82428
  0
VERTEX
  5
2e9
  8
Layer_2
  10
324.76978
  20
154.82428
  0
VERTEX
  5
2ea
  8
Layer_2
  10
324.76978
  20
152.22614
  0
VERTEX
  5
2eb
  8
Layer_2
  10
325.21021
  20
152.22614
  0
VERTEX
  5
2ec
  8
Layer_2
  10
325.21021
  20
153.64508
  0
SEQEND
  0
POLYLINE
  5
2ee
  8
Layer_2
  62
12
  66
1
  10
0
  20
0
  30
0
  0
VERTEX
  5
2ee
  8
Layer_2
  10
340.03979
  20
153.57404
  0
VERTEX
  5
2ef
  8
Layer_2
  10
340.04419
  20
153.74103
  42
-0.20831729
  0
VERTEX
  5
2f0
  8
Layer_2
  10
340.26611
  20
154.34894
  42
-0.39429632
  0
VERTEX
  5
2f1
  8
Layer_2
  10
341.0354
  20
154.35455
  42
-0.15621492
  0
VERTEX
  5
2f2
  8
Layer_2
  10
341.14307
  20
153.91412
  0
VERTEX
  5
2f3
  8
Layer_2
  10
341.14307
  20
152.22614
  0
VERTEX
  5
2f4
  8
Layer_2
  10
341.5835
  20
152.22614
  0
VERTEX
  5
2f5
  8
Layer_2
  10
341.5835
  20
153.73566
  42
-0.19705217
  0
VERTEX
  5
2f6
  8
Layer_2
  10
341.7644
  20
154.31915
  42
-0.33060592
  0
VERTEX
  5
2f7
  8
Layer_2
  10
342.48364
  20
154.43024
  42
-0.25449331
  0
VERTEX
  5
2f8
  8
Layer_2
  10
342.6792
  20
153.98566
  42
-0.01093583
  0
VERTEX
  5
2f9
  8
Layer_2
  10
342.68188
  20
152.22614
  0
VERTEX
  5
2fa
  8
Layer_2
  10
343.11963
  20
152.22614
  0
VERTEX
  5
2fb
  8
Layer_2
  10
343.11963
  20
154.00958
  42
0.1954874
  0
VERTEX
  5
2fc
  8
Layer_2
  10
342.91187
  20
154.66876
  42
0.31728308
  0
VERTEX
  5
2fd
  8
Layer_2
  10
341.86963
  20
154.7691
  42
0.11654437
  0
VERTEX
  5
2fe
  8
Layer_2
  10
341.51489
  20
154.4278
  0
VERTEX
  5
2ff
  8
Layer_2
  10
341.47021
  20
154.5296
  42
0.31699083
  0
VERTEX
  5
300
  8
Layer_2
  10
340.65479
  20
154.87555
  42
0.224356
  0
VERTEX
  5
301
  8
Layer_2
  10
339.99341
  20
154.45978
  0
VERTEX
  5
302
  8
Layer_2
  10
339.99341
  20
154.82428
  0
VERTEX
  5
303
  8
Layer_2
  10
339.59937
  20
154.82428
  0
VERTEX
  5
304
  8
Layer_2
  10
339.59937
  20
152.22614
  0
VERTEX
  5
305
  8
Layer_2
  10
340.03979
  20
152.22614
  0
VERTEX
  5
306
  8
Layer_2
  10
340.03979
  20
153.57404
  0
SEQEND
  0
POLYLINE
  5
308
  8
Layer_2
  62
12
  66
1
  10
0
  20
0
  30
0
  0
VERTEX
  5
308
  8
Layer_2
  10
328.88281
  20
152.18121
  42
0.13330949
  0
VERTEX
  5
309
  8
Layer_2
  10
329.41016
  20
152.38776
  42
0.17086172
  0
VERTEX
  5
30a
  8
Layer_2
  10
329.80884
  20
153.00665
  0
VERTEX
  5
30b
  8
Layer_2
  10
329.354
  20
153.06281
  0
VERTEX
  5
30c
  8
Layer_2
  10
329.29932
  20
152.93292
  42
-0.19898003
  0
VERTEX
  5
30d
  8
Layer_2
  10
328.90686
  20
152.56694
  42
-0.19897983
  0
VERTEX
  5
30e
  8
Layer_2
  10
328.37061
  20
152.58649
  42
-0.25674379
  0
VERTEX
  5
30f
  8
Layer_2
  10
327.90796
  20
153.21124
  0
VERTEX
  5
310
  8
Layer_2
  10
327.88379
  20
153.41266
  0
VERTEX
  5
311
  8
Layer_2
  10
329.82129
  20
153.41266
  42
0.13954123
  0
VERTEX
  5
312
  8
Layer_2
  10
329.63794
  20
154.33282
  42
0.27552084
  0
VERTEX
  5
313
  8
Layer_2
  10
328.64209
  20
154.88287
  42
0.39755719
  0
VERTEX
  5
314
  8
Layer_2
  10
327.44971
  20
153.81256
  42
0.16506589
  0
VERTEX
  5
315
  8
Layer_2
  10
327.61646
  20
152.71173
  42
0.27348374
  0
VERTEX
  5
316
  8
Layer_2
  10
328.6665
  20
152.16754
  0
VERTEX
  5
317
  8
Layer_2
  10
328.88281
  20
152.18121
  0
SEQEND
  0
POLYLINE
  5
319
  8
Layer_2
  62
12
  66
1
  10
0
  20
0
  30
0
  0
VERTEX
  5
319
  8
Layer_2
  10
333.96948
  20
152.17413
  42
0.3152116
  0
VERTEX
  5
31a
  8
Layer_2
  10
334.83545
  20
152.7757
  42
0.40176185
  0
VERTEX
  5
31b
  8
Layer_2
  10
334.47241
  20
153.59747
  42
0.022044904
  0
VERTEX
  5
31c
  8
Layer_2
  10
333.43164
  20
153.91412
  0
VERTEX
  5
31d
  8
Layer_2
  10
333.33203
  20
153.96686
  42
-0.40113463
  0
VERTEX
  5
31e
  8
Layer_2
  10
333.24146
  20
154.31158
  42
-0.25425984
  0
VERTEX
  5
31f
  8
Layer_2
  10
333.63086
  20
154.51471
  42
-0.25368203
  0
VERTEX
  5
320
  8
Layer_2
  10
334.23242
  20
154.3465
  42
-0.13970256
  0
VERTEX
  5
321
  8
Layer_2
  10
334.33911
  20
154.09528
  0
VERTEX
  5
322
  8
Layer_2
  10
334.76978
  20
154.15387
  42
0.34237788
  0
VERTEX
  5
323
  8
Layer_2
  10
334.15649
  20
154.83331
  42
0.2052581
  0
VERTEX
  5
324
  8
Layer_2
  10
333.07935
  20
154.70197
  42
0.35415978
  0
VERTEX
  5
325
  8
Layer_2
  10
332.83765
  20
153.86676
  42
0.2376292
  0
VERTEX
  5
326
  8
Layer_2
  10
333.42529
  20
153.44122
  42
0.014687693
  0
VERTEX
  5
327
  8
Layer_2
  10
333.99829
  20
153.28375
  0
VERTEX
  5
328
  8
Layer_2
  10
334.12769
  20
153.24445
  42
-0.21452466
  0
VERTEX
  5
329
  8
Layer_2
  10
334.35403
  20
153.11711
  42
-0.21452447
  0
VERTEX
  5
32a
  8
Layer_2
  10
334.40576
  20
152.86261
  42
-0.32490562
  0
VERTEX
  5
32b
  8
Layer_2
  10
333.95996
  20
152.53741
  42
-0.2623401
  0
VERTEX
  5
32c
  8
Layer_2
  10
333.27393
  20
152.7464
  42
-0.13184033
  0
VERTEX
  5
32d
  8
Layer_2
  10
333.14551
  20
153.07013
  0
VERTEX
  5
32e
  8
Layer_2
  10
332.70996
  20
153.00177
  42
0.3132701
  0
VERTEX
  5
32f
  8
Layer_2
  10
333.37451
  20
152.22003
  42
0.08158315
  0
VERTEX
  5
330
  8
Layer_2
  10
333.96948
  20
152.17413
  0
SEQEND
  0
POLYLINE
  5
332
  8
Layer_2
  62
12
  66
1
  10
0
  20
0
  30
0
  0
VERTEX
  5
332
  8
Layer_2
  10
319.10034
  20
154.82428
  0
VERTEX
  5
333
  8
Layer_2
  10
318.66016
  20
154.82428
  0
VERTEX
  5
334
  8
Layer_2
  10
318.66016
  20
152.22614
  0
VERTEX
  5
335
  8
Layer_2
  10
319.10034
  20
152.22614
  0
VERTEX
  5
336
  8
Layer_2
  10
319.10034
  20
154.82428
  0
SEQEND
  0
POLYLINE
  5
338
  8
Layer_2
  62
12
  66
1
  10
0
  20
0
  30
0
  0
VERTEX
  5
338
  8
Layer_2
  10
327.9082
  20
153.77472
  42
-0.29839194
  0
VERTEX
  5
339
  8
Layer_2
  10
328.36768
  20
154.47003
  42
-0.37930014
  0
VERTEX
  5
33a
  8
Layer_2
  10
329.25415
  20
154.17413
  42
-0.09592095
  0
VERTEX
  5
33b
  8
Layer_2
  10
329.35889
  20
153.77472
  0
VERTEX
  5
33c
  8
Layer_2
  10
327.9082
  20
153.77472
  0
SEQEND
  0
POLYLINE
  5
33e
  8
Layer_2
  62
12
  66
1
  10
0
  20
0
  30
0
  0
VERTEX
  5
33e
  8
Layer_2
  10
350.04541
  20
152.72784
  0
VERTEX
  5
33f
  8
Layer_2
  10
349.53906
  20
152.72784
  0
VERTEX
  5
340
  8
Layer_2
  10
349.53906
  20
152.22614
  0
VERTEX
  5
341
  8
Layer_2
  10
350.04541
  20
152.22614
  0
VERTEX
  5
342
  8
Layer_2
  10
350.04541
  20
152.72784
  0
SEQEND
  0
POLYLINE
  5
344
  8
Layer_2
  62
12
  70
1
  66
1
  10
0
  20
0
  30
0
  0
VERTEX
  5
344
  8
Layer_2
  10
351.44824
  20
152.72784
  0
VERTEX
  5
345
  8
Layer_2
  10
350.94165
  20
152.72784
  0
VERTEX
  5
346
  8
Layer_2
  10
350.94165
  20
152.22614
  0
VERTEX
  5
347
  8
Layer_2
  10
351.44824
  20
152.22614
  0
SEQEND
  0
POLYLINE
  5
349
  8
Layer_0
  62
0
  66
1
  10
0
  20
0
  30
0
  0
VERTEX
  5
349
  8
Layer_0
  10
383.25
  20
163.25
  0
VERTEX
  5
34a
  8
Layer_0
  10
322.75
  20
163.25
  0
VERTEX
  5
34b
  8
Layer_0
  10
322.75
  20
220.75
  0
VERTEX
  5
34c
  8
Layer_0
  10
383.25
  20
220.75
  0
VERTEX
  5
34d
  8
Layer_0
  10
383.25
  20
163.25
  0
SEQEND
  0
CIRCLE
  5
34f
  8
Layer_0
  62
0
  10
107.99998
  20
266
  30
0
  40
3.5
  0
CIRCLE
  5
34f
  8
Layer_0
  62
0
  10
107.99998
  20
254.66701
  30
0
  40
3.5
  0
CIRCLE
  5
34f
  8
Layer_0
  62
0
  10
107.99998
  20
243.33299
  30
0
  40
3.5
  0
CIRCLE
  5
34f
  8
Layer_0
  62
0
  10
107.99998
  20
232
  30
0
  40
3.5
  0
POLYLINE
  5
34f
  8
Layer_0
  62
0
  66
1
  10
0
  20
0
  30
0
  0
VERTEX
  5
34f
  8
Layer_0
  10
300
  20
176
  0
VERTEX
  5
350
  8
Layer_0
  10
310
  20
176
  0
VERTEX
  5
351
  8
Layer_0
  10
300
  20
166
  0
VERTEX
  5
352
  8
Layer_0
  10
300
  20
176
  0
SEQEND
  0
CIRCLE
  5
354
  8
Layer_0
  62
0
  10
303
  20
173
  30
0
  40
1.25
  0
POLYLINE
  5
354
  8
Layer_0
  62
0
  66
1
  10
0
  20
0
  30
0
  0
VERTEX
  5
354
  8
Layer_0
  10
300
  20
201
  0
VERTEX
  5
355
  8
Layer_0
  10
310
  20
201
  0
VERTEX
  5
356
  8
Layer_0
  10
300
  20
191
  0
VERTEX
  5
357
  8
Layer_0
  10
300
  20
201
  0
SEQEND
  0
CIRCLE
  5
359
  8
Layer_0
  62
0
  10
303
  20
198
  30
0
  40
1.25
  0
POLYLINE
  5
359
  8
Layer_0
  62
0
  66
1
  10
0
  20
0
  30
0
  0
VERTEX
  5
359
  8
Layer_0
  10
300
  20
214
  0
VERTEX
  5
35a
  8
Layer_0
  10
310
  20
214
  0
VERTEX
  5
35b
  8
Layer_0
  10
300
  20
204
  0
VERTEX
  5
35c
  8
Layer_0
  10
300
  20
214
  0
SEQEND
  0
CIRCLE
  5
35e
  8
Layer_0
  62
0
  10
303
  20
211
  30
0
  40
1.25
  0
POLYLINE
  5
35e
  8
Layer_0
  62
0
  66
1
  10
0
  20
0
  30
0
  0
VERTEX
  5
35e
  8
Layer_0
  10
300
  20
190
  0
VERTEX
  5
35f
  8
Layer_0
  10
310
  20
190
  0
VERTEX
  5
360
  8
Layer_0
  10
300
  20
180
  0
VERTEX
  5
361
  8
Layer_0
  10
300
  20
190
  0
SEQEND
  0
CIRCLE
  5
363
  8
Layer_0
  62
0
  10
303
  20
187
  30
0
  40
1.25
  0
POLYLINE
  5
363
  8
Layer_1
  62
52
  66
1
  10
0
  20
0
  30
0
  0
VERTEX
  5
363
  8
Layer_1
  10
25
  20
221
  0
VERTEX
  5
364
  8
Layer_1
  10
35
  20
221
  0
VERTEX
  5
365
  8
Layer_1
  10
25
  20
231
  0
VERTEX
  5
366
  8
Layer_1
  10
25
  20
221
  0
SEQEND
  0
CIRCLE
  5
368
  8
Layer_1
  62
52
  10
28
  20
224
  30
0
  40
1.25
  0
CIRCLE
  5
368
  8
Layer_0
  62
0
  10
28
  20
224
  30
0
  40
1.25
  0
POLYLINE
  5
368
  8
Layer_1
  62
52
  66
1
  10
0
  20
0
  30
0
  0
VERTEX
  5
368
  8
Layer_1
  10
25
  20
279
  0
VERTEX
  5
369
  8
Layer_1
  10
35
  20
279
  0
VERTEX
  5
36a
  8
Layer_1
  10
25
  20
269
  0
VERTEX
  5
36b
  8
Layer_1
  10
25
  20
279
  0
SEQEND
  0
CIRCLE
  5
36d
  8
Layer_1
  62
52
  10
28
  20
276
  30
0
  40
1.25
  0
CIRCLE
  5
36d
  8
Layer_0
  62
0
  10
28
  20
276
  30
0
  40
1.25
  0
POLYLINE
  5
36d
  8
Layer_1
  62
52
  66
1
  10
0
  20
0
  30
0
  0
VERTEX
  5
36d
  8
Layer_1
  10
299
  20
279
  0
VERTEX
  5
36e
  8
Layer_1
  10
289
  20
279
  0
VERTEX
  5
36f
  8
Layer_1
  10
299
  20
269
  0
VERTEX
  5
370
  8
Layer_1
  10
299
  20
279
  0
SEQEND
  0
CIRCLE
  5
372
  8
Layer_1
  62
52
  10
296
  20
276
  30
0
  40
1.25
  0
CIRCLE
  5
372
  8
Layer_0
  62
0
  10
296
  20
276
  30
0
  40
1.25
  0
POLYLINE
  5
372
  8
Layer_1
  62
52
  66
1
  10
0
  20
0
  30
0
  0
VERTEX
  5
372
  8
Layer_1
  10
299
  20
221
  0
VERTEX
  5
373
  8
Layer_1
  10
289
  20
221
  0
VERTEX
  5
374
  8
Layer_1
  10
299
  20
231
  0
VERTEX
  5
375
  8
Layer_1
  10
299
  20
221
  0
SEQEND
  0
CIRCLE
  5
377
  8
Layer_1
  62
52
  10
296
  20
224
  30
0
  40
1.25
  0
CIRCLE
  5
377
  8
Layer_0
  62
0
  10
296
  20
224
  30
0
  40
1.25
  0
POLYLINE
  5
377
  8
Layer_1
  62
52
  66
1
  10
0
  20
0
  30
0
  0
VERTEX
  5
377
  8
Layer_1
  10
301.69998
  20
218.25
  0
VERTEX
  5
378
  8
Layer_1
  10
22.300018
  20
218.25
  0
VERTEX
  5
379
  8
Layer_1
  10
22.300018
  20
281.75
  0
VERTEX
  5
37a
  8
Layer_1
  10
301.69998
  20
281.75
  0
VERTEX
  5
37b
  8
Layer_1
  10
301.69998
  20
218.25
  0
SEQEND
  0
POLYLINE
  5
37d
  8
Layer_2
  62
12
  66
1
  10
0
  20
0
  30
0
  0
VERTEX
  5
37d
  8
Layer_2
  10
183.97583
  20
261.26691
  42
0.2563347
  0
VERTEX
  5
37e
  8
Layer_2
  10
185.23828
  20
262.12457
  42
0.29157154
  0
VERTEX
  5
37f
  8
Layer_2
  10
184.99341
  20
264.43634
  42
0.35559365
  0
VERTEX
  5
380
  8
Layer_2
  10
182.77051
  20
264.67291
  42
0.23530144
  0
VERTEX
  5
381
  8
Layer_2
  10
182.04272
  20
263.27399
  42
0.24290664
  0
VERTEX
  5
382
  8
Layer_2
  10
182.65649
  20
261.63043
  42
0.20804677
  0
VERTEX
  5
383
  8
Layer_2
  10
183.97583
  20
261.26691
  0
SEQEND
  0
POLYLINE
  5
385
  8
Layer_2
  62
12
  66
1
  10
0
  20
0
  30
0
  0
VERTEX
  5
385
  8
Layer_2
  10
183.49292
  20
261.68146
  42
-0.32549571
  0
VERTEX
  5
386
  8
Layer_2
  10
182.54517
  20
262.74347
  42
-0.16006012
  0
VERTEX
  5
387
  8
Layer_2
  10
182.72754
  20
264.00177
  42
-0.3663167
  0
VERTEX
  5
388
  8
Layer_2
  10
184.24341
  20
264.44806
  42
-0.25199077
  0
VERTEX
  5
389
  8
Layer_2
  10
184.93286
  20
263.51031
  42
-0.16801562
  0
VERTEX
  5
38a
  8
Layer_2
  10
184.77539
  20
262.242
  42
-0.32866917
  0
VERTEX
  5
38b
  8
Layer_2
  10
183.49292
  20
261.68146
  0
SEQEND
  0
POLYLINE
  5
38d
  8
Layer_2
  62
12
  70
1
  66
1
  10
0
  20
0
  30
0
  0
VERTEX
  5
38d
  8
Layer_2
  10
186.46265
  20
262.73004
  0
VERTEX
  5
38e
  8
Layer_2
  10
186.47534
  20
262.95905
  42
-0.20141474
  0
VERTEX
  5
38f
  8
Layer_2
  10
186.6819
  20
263.41367
  42
-0.20141493
  0
VERTEX
  5
390
  8
Layer_2
  10
187.15112
  20
263.58453
  42
-0.20262049
  0
VERTEX
  5
391
  8
Layer_2
  10
187.51212
  20
263.46729
  42
-0.20262047
  0
VERTEX
  5
392
  8
Layer_2
  10
187.67773
  20
263.12579
  42
-0.032117165
  0
VERTEX
  5
393
  8
Layer_2
  10
187.69067
  20
262.89117
  0
VERTEX
  5
394
  8
Layer_2
  10
187.69067
  20
261.31403
  0
VERTEX
  5
395
  8
Layer_2
  10
188.13013
  20
261.31403
  42
0.0051892398
  0
VERTEX
  5
396
  8
Layer_2
  10
188.12866
  20
263.04938
  42
0.28413991
  0
VERTEX
  5
397
  8
Layer_2
  10
187.76685
  20
263.83575
  42
0.3062529
  0
VERTEX
  5
398
  8
Layer_2
  10
186.57739
  20
263.72516
  0
VERTEX
  5
399
  8
Layer_2
  10
186.4187
  20
263.53815
  0
VERTEX
  5
39a
  8
Layer_2
  10
186.4187
  20
263.9068
  0
VERTEX
  5
39b
  8
Layer_2
  10
186.02319
  20
263.9068
  0
VERTEX
  5
39c
  8
Layer_2
  10
186.02319
  20
261.31403
  0
VERTEX
  5
39d
  8
Layer_2
  10
186.46265
  20
261.31403
  0
SEQEND
  0
POLYLINE
  5
39f
  8
Layer_2
  62
12
  66
1
  10
0
  20
0
  30
0
  0
VERTEX
  5
39f
  8
Layer_2
  10
182.3584
  20
249.43401
  0
VERTEX
  5
3a0
  8
Layer_2
  10
184.03809
  20
249.43401
  0
VERTEX
  5
3a1
  8
Layer_2
  10
184.03809
  20
249.85637
  0
VERTEX
  5
3a2
  8
Layer_2
  10
182.3584
  20
249.85637
  0
VERTEX
  5
3a3
  8
Layer_2
  10
182.3584
  20
250.96477
  0
VERTEX
  5
3a4
  8
Layer_2
  10
184.29932
  20
250.96477
  0
VERTEX
  5
3a5
  8
Layer_2
  10
184.29932
  20
251.38713
  0
VERTEX
  5
3a6
  8
Layer_2
  10
181.88477
  20
251.38713
  0
VERTEX
  5
3a7
  8
Layer_2
  10
181.88477
  20
247.80803
  0
VERTEX
  5
3a8
  8
Layer_2
  10
182.3584
  20
247.80803
  0
VERTEX
  5
3a9
  8
Layer_2
  10
182.3584
  20
249.43401
  0
SEQEND
  0
POLYLINE
  5
3ab
  8
Layer_2
  62
12
  66
1
  10
0
  20
0
  30
0
  0
VERTEX
  5
3ab
  8
Layer_2
  10
185.84204
  20
247.77068
  42
0.13531745
  0
VERTEX
  5
3ac
  8
Layer_2
  10
186.54614
  20
248.12785
  0
VERTEX
  5
3ad
  8
Layer_2
  10
186.57788
  20
247.95622
  0
VERTEX
  5
3ae
  8
Layer_2
  10
186.63403
  20
247.80803
  0
VERTEX
  5
3af
  8
Layer_2
  10
187.09302
  20
247.80803
  0
VERTEX
  5
3b0
  8
Layer_2
  10
187.02368
  20
247.96037
  42
-0.069229622
  0
VERTEX
  5
3b1
  8
Layer_2
  10
186.95386
  20
248.89445
  0
VERTEX
  5
3b2
  8
Layer_2
  10
186.95386
  20
249.48039
  42
0.17298697
  0
VERTEX
  5
3b3
  8
Layer_2
  10
186.79517
  20
250.18474
  42
0.2051482
  0
VERTEX
  5
3b4
  8
Layer_2
  10
185.95044
  20
250.4594
  42
0.18434668
  0
VERTEX
  5
3b5
  8
Layer_2
  10
185.04834
  20
250.18669
  42
0.15349092
  0
VERTEX
  5
3b6
  8
Layer_2
  10
184.78101
  20
249.66106
  0
VERTEX
  5
3b7
  8
Layer_2
  10
185.21069
  20
249.60246
  0
VERTEX
  5
3b8
  8
Layer_2
  10
185.25073
  20
249.7299
  42
-0.33137574
  0
VERTEX
  5
3b9
  8
Layer_2
  10
185.74194
  20
250.08879
  42
-0.20818305
  0
VERTEX
  5
3ba
  8
Layer_2
  10
186.38745
  20
249.9467
  42
-0.21236859
  0
VERTEX
  5
3bb
  8
Layer_2
  10
186.50952
  20
249.45354
  42
-0.035922281
  0
VERTEX
  5
3bc
  8
Layer_2
  10
185.40796
  20
249.2531
  0
VERTEX
  5
3bd
  8
Layer_2
  10
185.33521
  20
249.23625
  42
0.19867882
  0
VERTEX
  5
3be
  8
Layer_2
  10
184.84009
  20
248.91458
  42
0.19867875
  0
VERTEX
  5
3bf
  8
Layer_2
  10
184.71948
  20
248.33659
  42
0.33442376
  0
VERTEX
  5
3c0
  8
Layer_2
  10
185.39014
  20
247.76237
  42
0.074510856
  0
VERTEX
  5
3c1
  8
Layer_2
  10
185.84204
  20
247.77068
  0
SEQEND
  0
POLYLINE
  5
3c3
  8
Layer_2
  62
12
  66
1
  10
0
  20
0
  30
0
  0
VERTEX
  5
3c3
  8
Layer_2
  10
188.09351
  20
249.22404
  0
VERTEX
  5
3c4
  8
Layer_2
  10
188.10645
  20
249.45305
  42
-0.20146551
  0
VERTEX
  5
3c5
  8
Layer_2
  10
188.31287
  20
249.90764
  42
-0.20146582
  0
VERTEX
  5
3c6
  8
Layer_2
  10
188.78198
  20
250.07854
  42
-0.20247785
  0
VERTEX
  5
3c7
  8
Layer_2
  10
189.14301
  20
249.96126
  42
-0.20247706
  0
VERTEX
  5
3c8
  8
Layer_2
  10
189.30884
  20
249.6198
  42
-0.031001742
  0
VERTEX
  5
3c9
  8
Layer_2
  10
189.32153
  20
249.38518
  0
VERTEX
  5
3ca
  8
Layer_2
  10
189.32153
  20
247.80803
  0
VERTEX
  5
3cb
  8
Layer_2
  10
189.76099
  20
247.80803
  42
0.0051892375
  0
VERTEX
  5
3cc
  8
Layer_2
  10
189.75952
  20
249.54338
  42
0.28391614
  0
VERTEX
  5
3cd
  8
Layer_2
  10
189.39795
  20
250.32976
  42
0.30618648
  0
VERTEX
  5
3ce
  8
Layer_2
  10
188.20825
  20
250.21916
  0
VERTEX
  5
3cf
  8
Layer_2
  10
188.04956
  20
250.03215
  0
VERTEX
  5
3d0
  8
Layer_2
  10
188.04956
  20
250.4008
  0
VERTEX
  5
3d1
  8
Layer_2
  10
187.65405
  20
250.4008
  0
VERTEX
  5
3d2
  8
Layer_2
  10
187.65405
  20
247.80803
  0
VERTEX
  5
3d3
  8
Layer_2
  10
188.09351
  20
247.80803
  0
VERTEX
  5
3d4
  8
Layer_2
  10
188.09351
  20
249.22404
  0
SEQEND
  0
POLYLINE
  5
3d6
  8
Layer_2
  62
12
  70
1
  66
1
  10
0
  20
0
  30
0
  0
VERTEX
  5
3d6
  8
Layer_2
  10
185.57593
  20
248.101
  42
-0.40337555
  0
VERTEX
  5
3d7
  8
Layer_2
  10
185.17407
  20
248.50383
  42
-0.383467
  0
VERTEX
  5
3d8
  8
Layer_2
  10
185.5603
  20
248.90178
  42
-0.019571965
  0
VERTEX
  5
3d9
  8
Layer_2
  10
186.01587
  20
248.97917
  0
VERTEX
  5
3da
  8
Layer_2
  10
186.21045
  20
249.01897
  42
0.039608699
  0
VERTEX
  5
3db
  8
Layer_2
  10
186.50952
  20
249.1093
  42
-0.16174014
  0
VERTEX
  5
3dc
  8
Layer_2
  10
186.38574
  20
248.4174
  42
-0.27565203
  0
SEQEND
  0
POLYLINE
  5
3de
  8
Layer_2
  62
12
  66
1
  10
0
  20
0
  30
0
  0
VERTEX
  5
3de
  8
Layer_2
  10
184.29805
  20
233.5204
  0
VERTEX
  5
3df
  8
Layer_2
  10
182.53535
  20
233.5204
  0
VERTEX
  5
3e0
  8
Layer_2
  10
182.53535
  20
236.67714
  0
VERTEX
  5
3e1
  8
Layer_2
  10
182.06172
  20
236.67714
  0
VERTEX
  5
3e2
  8
Layer_2
  10
182.06172
  20
233.09804
  0
VERTEX
  5
3e3
  8
Layer_2
  10
184.29805
  20
233.09804
  0
VERTEX
  5
3e4
  8
Layer_2
  10
184.29805
  20
233.5204
  0
SEQEND
  0
POLYLINE
  5
3e6
  8
Layer_2
  62
12
  66
1
  10
0
  20
0
  30
0
  0
VERTEX
  5
3e6
  8
Layer_2
  10
185.26704
  20
236.67714
  0
VERTEX
  5
3e7
  8
Layer_2
  10
184.82759
  20
236.67714
  0
VERTEX
  5
3e8
  8
Layer_2
  10
184.82759
  20
236.17177
  0
VERTEX
  5
3e9
  8
Layer_2
  10
185.26704
  20
236.17177
  0
VERTEX
  5
3ea
  8
Layer_2
  10
185.26704
  20
236.67714
  0
SEQEND
  0
POLYLINE
  5
3ec
  8
Layer_2
  62
12
  66
1
  10
0
  20
0
  30
0
  0
VERTEX
  5
3ec
  8
Layer_2
  10
189.1147
  20
234.51649
  0
VERTEX
  5
3ed
  8
Layer_2
  10
189.11909
  20
234.66078
  42
-0.20768475
  0
VERTEX
  5
3ee
  8
Layer_2
  10
189.3046
  20
235.16496
  42
-0.20768505
  0
VERTEX
  5
3ef
  8
Layer_2
  10
189.80074
  20
235.37099
  42
-0.20459525
  0
VERTEX
  5
3f0
  8
Layer_2
  10
190.17232
  20
235.24875
  42
-0.20459548
  0
VERTEX
  5
3f1
  8
Layer_2
  10
190.33858
  20
234.89467
  0
VERTEX
  5
3f2
  8
Layer_2
  10
190.34761
  20
234.7411
  0
VERTEX
  5
3f3
  8
Layer_2
  10
190.34761
  20
233.09804
  0
VERTEX
  5
3f4
  8
Layer_2
  10
190.78706
  20
233.09804
  42
0.016344783
  0
VERTEX
  5
3f5
  8
Layer_2
  10
190.7812
  20
234.9203
  42
0.19941848
  0
VERTEX
  5
3f6
  8
Layer_2
  10
190.57832
  20
235.489
  42
0.19941848
  0
VERTEX
  5
3f7
  8
Layer_2
  10
190.03023
  20
235.74232
  42
0.25996516
  0
VERTEX
  5
3f8
  8
Layer_2
  10
189.1147
  20
235.39296
  0
VERTEX
  5
3f9
  8
Layer_2
  10
189.1147
  20
236.67714
  0
VERTEX
  5
3fa
  8
Layer_2
  10
188.67525
  20
236.67714
  0
VERTEX
  5
3fb
  8
Layer_2
  10
188.67525
  20
233.09804
  0
VERTEX
  5
3fc
  8
Layer_2
  10
189.1147
  20
233.09804
  0
VERTEX
  5
3fd
  8
Layer_2
  10
189.1147
  20
234.51649
  0
SEQEND
  0
POLYLINE
  5
3ff
  8
Layer_2
  62
12
  66
1
  10
0
  20
0
  30
0
  0
VERTEX
  5
3ff
  8
Layer_2
  10
192.32222
  20
233.07362
  0
VERTEX
  5
400
  8
Layer_2
  10
192.498
  20
233.10292
  0
VERTEX
  5
401
  8
Layer_2
  10
192.43452
  20
233.4911
  0
VERTEX
  5
402
  8
Layer_2
  10
192.32661
  20
233.47816
  42
-0.36718879
  0
VERTEX
  5
403
  8
Layer_2
  10
192.01582
  20
233.5912
  42
-0.07894347
  0
VERTEX
  5
404
  8
Layer_2
  10
191.99263
  20
233.8329
  0
VERTEX
  5
405
  8
Layer_2
  10
191.99263
  20
235.34901
  0
VERTEX
  5
406
  8
Layer_2
  10
192.43452
  20
235.34901
  0
VERTEX
  5
407
  8
Layer_2
  10
192.43452
  20
235.69081
  0
VERTEX
  5
408
  8
Layer_2
  10
191.99263
  20
235.69081
  0
VERTEX
  5
409
  8
Layer_2
  10
191.99263
  20
236.59657
  0
VERTEX
  5
40a
  8
Layer_2
  10
191.55562
  20
236.3329
  0
VERTEX
  5
40b
  8
Layer_2
  10
191.55562
  20
235.69081
  0
VERTEX
  5
40c
  8
Layer_2
  10
191.23335
  20
235.69081
  0
VERTEX
  5
40d
  8
Layer_2
  10
191.23335
  20
235.34901
  0
VERTEX
  5
40e
  8
Layer_2
  10
191.55562
  20
235.34901
  0
VERTEX
  5
40f
  8
Layer_2
  10
191.55562
  20
233.85732
  42
0.083018943
  0
VERTEX
  5
410
  8
Layer_2
  10
191.60933
  20
233.33852
  42
0.30377003
  0
VERTEX
  5
411
  8
Layer_2
  10
192.16597
  20
233.06386
  0
VERTEX
  5
412
  8
Layer_2
  10
192.32222
  20
233.07362
  0
SEQEND
  0
POLYLINE
  5
414
  8
Layer_2
  62
12
  66
1
  10
0
  20
0
  30
0
  0
VERTEX
  5
414
  8
Layer_2
  10
187.05757
  20
232.05482
  42
0.26703866
  0
VERTEX
  5
415
  8
Layer_2
  10
187.91866
  20
232.59145
  42
0.10242527
  0
VERTEX
  5
416
  8
Layer_2
  10
188.04195
  20
233.4496
  0
VERTEX
  5
417
  8
Layer_2
  10
188.04195
  20
235.69081
  0
VERTEX
  5
418
  8
Layer_2
  10
187.63667
  20
235.69081
  0
VERTEX
  5
419
  8
Layer_2
  10
187.63667
  20
235.37831
  0
VERTEX
  5
41a
  8
Layer_2
  10
187.47749
  20
235.54066
  42
0.40457378
  0
VERTEX
  5
41b
  8
Layer_2
  10
186.05537
  20
235.37196
  42
0.31638919
  0
VERTEX
  5
41c
  8
Layer_2
  10
186.04976
  20
233.48378
  42
0.34135969
  0
VERTEX
  5
41d
  8
Layer_2
  10
187.27168
  20
233.18275
  42
0.10675489
  0
VERTEX
  5
41e
  8
Layer_2
  10
187.59517
  20
233.43739
  42
-0.10731541
  0
VERTEX
  5
41f
  8
Layer_2
  10
187.5273
  20
232.76967
  42
-0.32272965
  0
VERTEX
  5
420
  8
Layer_2
  10
186.86763
  20
232.40956
  42
-0.28038311
  0
VERTEX
  5
421
  8
Layer_2
  10
186.32246
  20
232.64882
  42
-0.086384191
  0
VERTEX
  5
422
  8
Layer_2
  10
186.27193
  20
232.81972
  0
VERTEX
  5
423
  8
Layer_2
  10
185.84468
  20
232.88319
  42
0.32776894
  0
VERTEX
  5
424
  8
Layer_2
  10
186.27437
  20
232.16322
  42
0.132003
  0
VERTEX
  5
425
  8
Layer_2
  10
187.05757
  20
232.05482
  0
SEQEND
  0
POLYLINE
  5
427
  8
Layer_2
  62
12
  66
1
  10
0
  20
0
  30
0
  0
VERTEX
  5
427
  8
Layer_2
  10
193.9565
  20
233.04604
  42
0.31511821
  0
VERTEX
  5
428
  8
Layer_2
  10
194.82076
  20
233.64638
  42
0.40163789
  0
VERTEX
  5
429
  8
Layer_2
  10
194.45845
  20
234.46645
  42
0.022281912
  0
VERTEX
  5
42a
  8
Layer_2
  10
193.41963
  20
234.78261
  0
VERTEX
  5
42b
  8
Layer_2
  10
193.32002
  20
234.8351
  42
-0.39948604
  0
VERTEX
  5
42c
  8
Layer_2
  10
193.22969
  20
235.17934
  42
-0.25413226
  0
VERTEX
  5
42d
  8
Layer_2
  10
193.61836
  20
235.38173
  42
-0.25349016
  0
VERTEX
  5
42e
  8
Layer_2
  10
194.21895
  20
235.21425
  42
-0.13716635
  0
VERTEX
  5
42f
  8
Layer_2
  10
194.32539
  20
234.96327
  0
VERTEX
  5
430
  8
Layer_2
  10
194.75508
  20
235.02187
  42
0.34253862
  0
VERTEX
  5
431
  8
Layer_2
  10
194.14302
  20
235.69984
  42
0.20536546
  0
VERTEX
  5
432
  8
Layer_2
  10
193.06807
  20
235.56874
  42
0.3543679
  0
VERTEX
  5
433
  8
Layer_2
  10
192.82686
  20
234.73524
  42
0.23783571
  0
VERTEX
  5
434
  8
Layer_2
  10
193.41328
  20
234.31044
  42
0.013344905
  0
VERTEX
  5
435
  8
Layer_2
  10
193.98506
  20
234.15346
  0
VERTEX
  5
436
  8
Layer_2
  10
194.11421
  20
234.11415
  42
-0.21462064
  0
VERTEX
  5
437
  8
Layer_2
  10
194.34019
  20
233.98711
  42
-0.2146136
  0
VERTEX
  5
438
  8
Layer_2
  10
194.3918
  20
233.73305
  42
-0.32472921
  0
VERTEX
  5
439
  8
Layer_2
  10
193.94698
  20
233.40858
  42
-0.26271437
  0
VERTEX
  5
43a
  8
Layer_2
  10
193.26241
  20
233.61708
  42
-0.13221585
  0
VERTEX
  5
43b
  8
Layer_2
  10
193.13399
  20
233.94032
  0
VERTEX
  5
43c
  8
Layer_2
  10
192.69942
  20
233.87196
  42
0.31339932
  0
VERTEX
  5
43d
  8
Layer_2
  10
193.3625
  20
233.09193
  42
0.081727529
  0
VERTEX
  5
43e
  8
Layer_2
  10
193.9565
  20
233.04604
  0
SEQEND
  0
POLYLINE
  5
440
  8
Layer_2
  62
12
  66
1
  10
0
  20
0
  30
0
  0
VERTEX
  5
440
  8
Layer_2
  10
185.26704
  20
235.69081
  0
VERTEX
  5
441
  8
Layer_2
  10
184.82759
  20
235.69081
  0
VERTEX
  5
442
  8
Layer_2
  10
184.82759
  20
233.09804
  0
VERTEX
  5
443
  8
Layer_2
  10
185.26704
  20
233.09804
  0
VERTEX
  5
444
  8
Layer_2
  10
185.26704
  20
235.69081
  0
SEQEND
  0
POLYLINE
  5
446
  8
Layer_2
  62
12
  70
1
  66
1
  10
0
  20
0
  30
0
  0
VERTEX
  5
446
  8
Layer_2
  10
186.77266
  20
233.47646
  42
-0.2881968
  0
VERTEX
  5
447
  8
Layer_2
  10
186.25899
  20
233.9994
  42
-0.16984828
  0
VERTEX
  5
448
  8
Layer_2
  10
186.32368
  20
235.01405
  42
-0.34706624
  0
VERTEX
  5
449
  8
Layer_2
  10
187.05489
  20
235.3705
  42
-0.32747435
  0
VERTEX
  5
44a
  8
Layer_2
  10
187.61861
  20
234.64955
  42
-0.13823111
  0
VERTEX
  5
44b
  8
Layer_2
  10
187.51631
  20
233.82802
  42
-0.34397019
  0
SEQEND
  0
POLYLINE
  5
44d
  8
Layer_2
  62
12
  66
1
  10
0
  20
0
  30
0
  0
VERTEX
  5
44d
  8
Layer_2
  10
128.03705
  20
267.29675
  0
VERTEX
  5
44e
  8
Layer_2
  10
127.75385
  20
267.29675
  0
VERTEX
  5
44f
  8
Layer_2
  10
127.68622
  20
267.17981
  42
-0.13063792
  0
VERTEX
  5
450
  8
Layer_2
  10
126.71869
  20
266.39832
  0
VERTEX
  5
451
  8
Layer_2
  10
126.71869
  20
265.97351
  42
0.087475064
  0
VERTEX
  5
452
  8
Layer_2
  10
127.5976
  20
266.5033
  0
VERTEX
  5
453
  8
Layer_2
  10
127.5976
  20
263.703
  0
VERTEX
  5
454
  8
Layer_2
  10
128.03705
  20
263.703
  0
VERTEX
  5
455
  8
Layer_2
  10
128.03705
  20
267.29675
  0
SEQEND
  0
POLYLINE
  5
457
  8
Layer_2
  62
12
  66
1
  10
0
  20
0
  30
0
  0
VERTEX
  5
457
  8
Layer_2
  10
128.56134
  20
253.12537
  0
VERTEX
  5
458
  8
Layer_2
  10
126.80597
  20
253.12537
  0
VERTEX
  5
459
  8
Layer_2
  10
126.88898
  20
253.24475
  42
-0.028094406
  0
VERTEX
  5
45a
  8
Layer_2
  10
127.90533
  20
254.17151
  0
VERTEX
  5
45b
  8
Layer_2
  10
128.05792
  20
254.31824
  42
0.14656994
  0
VERTEX
  5
45c
  8
Layer_2
  10
128.53448
  20
255.09021
  42
0.38486646
  0
VERTEX
  5
45d
  8
Layer_2
  10
127.90216
  20
256.22546
  42
0.25035762
  0
VERTEX
  5
45e
  8
Layer_2
  10
126.62775
  20
256.03186
  42
0.19746383
  0
VERTEX
  5
45f
  8
Layer_2
  10
126.27863
  20
255.2616
  0
VERTEX
  5
460
  8
Layer_2
  10
126.73029
  20
255.21521
  0
VERTEX
  5
461
  8
Layer_2
  10
126.74323
  20
255.37439
  42
-0.39365757
  0
VERTEX
  5
462
  8
Layer_2
  10
127.43097
  20
255.93298
  42
-0.20655505
  0
VERTEX
  5
463
  8
Layer_2
  10
127.90182
  20
255.76846
  42
-0.20655518
  0
VERTEX
  5
464
  8
Layer_2
  10
128.1048
  20
255.31287
  42
-0.18087201
  0
VERTEX
  5
465
  8
Layer_2
  10
127.7735
  20
254.6322
  42
-0.026344713
  0
VERTEX
  5
466
  8
Layer_2
  10
126.77936
  20
253.73694
  0
VERTEX
  5
467
  8
Layer_2
  10
126.64655
  20
253.60608
  42
0.19686844
  0
VERTEX
  5
468
  8
Layer_2
  10
126.19562
  20
252.703
  0
VERTEX
  5
469
  8
Layer_2
  10
128.56134
  20
252.703
  0
VERTEX
  5
46a
  8
Layer_2
  10
128.56134
  20
253.12537
  0
SEQEND
  0
POLYLINE
  5
46c
  8
Layer_2
  62
12
  66
1
  10
0
  20
0
  30
0
  0
VERTEX
  5
46c
  8
Layer_2
  10
127.59366
  20
240.68677
  42
0.37134508
  0
VERTEX
  5
46d
  8
Layer_2
  10
128.54996
  20
241.78711
  42
0.37584727
  0
VERTEX
  5
46e
  8
Layer_2
  10
127.88101
  20
242.66846
  0
VERTEX
  5
46f
  8
Layer_2
  10
127.99551
  20
242.72949
  42
0.38610215
  0
VERTEX
  5
470
  8
Layer_2
  10
128.30069
  20
243.74463
  42
0.34177483
  0
VERTEX
  5
471
  8
Layer_2
  10
127.12296
  20
244.30859
  42
0.33616076
  0
VERTEX
  5
472
  8
Layer_2
  10
126.25015
  20
243.396
  0
VERTEX
  5
473
  8
Layer_2
  10
126.68961
  20
243.31787
  0
VERTEX
  5
474
  8
Layer_2
  10
126.72159
  20
243.46899
  42
-0.19781075
  0
VERTEX
  5
475
  8
Layer_2
  10
126.99062
  20
243.86359
  42
-0.19781078
  0
VERTEX
  5
476
  8
Layer_2
  10
127.45987
  20
243.95239
  42
-0.37881456
  0
VERTEX
  5
477
  8
Layer_2
  10
127.92252
  20
243.40332
  42
-0.37185922
  0
VERTEX
  5
478
  8
Layer_2
  10
127.45914
  20
242.8418
  42
-0.10159768
  0
VERTEX
  5
479
  8
Layer_2
  10
127.12173
  20
242.81006
  0
VERTEX
  5
47a
  8
Layer_2
  10
127.07291
  20
242.42432
  0
VERTEX
  5
47b
  8
Layer_2
  10
127.24307
  20
242.46094
  42
-0.2029807
  0
VERTEX
  5
47c
  8
Layer_2
  10
127.77148
  20
242.36726
  42
-0.20298069
  0
VERTEX
  5
47d
  8
Layer_2
  10
128.0712
  20
241.92212
  42
-0.19921141
  0
VERTEX
  5
47e
  8
Layer_2
  10
127.96567
  20
241.3633
  42
-0.19921123
  0
VERTEX
  5
47f
  8
Layer_2
  10
127.49527
  20
241.0437
  42
-0.19853067
  0
VERTEX
  5
480
  8
Layer_2
  10
126.98537
  20
241.13416
  42
-0.19853073
  0
VERTEX
  5
481
  8
Layer_2
  10
126.69009
  20
241.55957
  0
VERTEX
  5
482
  8
Layer_2
  10
126.64566
  20
241.7334
  0
VERTEX
  5
483
  8
Layer_2
  10
126.20621
  20
241.6748
  42
0.29614847
  0
VERTEX
  5
484
  8
Layer_2
  10
126.91251
  20
240.73657
  42
0.12266589
  0
VERTEX
  5
485
  8
Layer_2
  10
127.59366
  20
240.68677
  0
SEQEND
  0
POLYLINE
  5
487
  8
Layer_2
  62
12
  66
1
  10
0
  20
0
  30
0
  0
VERTEX
  5
487
  8
Layer_2
  10
128.1329
  20
230.56696
  0
VERTEX
  5
488
  8
Layer_2
  10
128.6163
  20
230.56696
  0
VERTEX
  5
489
  8
Layer_2
  10
128.6163
  20
230.96979
  0
VERTEX
  5
48a
  8
Layer_2
  10
128.1329
  20
230.96979
  0
VERTEX
  5
48b
  8
Layer_2
  10
128.1329
  20
233.28912
  0
VERTEX
  5
48c
  8
Layer_2
  10
127.77402
  20
233.28912
  0
VERTEX
  5
48d
  8
Layer_2
  10
126.14072
  20
230.96979
  0
VERTEX
  5
48e
  8
Layer_2
  10
126.14072
  20
230.56696
  0
VERTEX
  5
48f
  8
Layer_2
  10
127.69345
  20
230.56696
  0
VERTEX
  5
490
  8
Layer_2
  10
127.69345
  20
229.71002
  0
VERTEX
  5
491
  8
Layer_2
  10
128.1329
  20
229.71002
  0
VERTEX
  5
492
  8
Layer_2
  10
128.1329
  20
230.56696
  0
SEQEND
  0
POLYLINE
  5
494
  8
Layer_2
  62
12
  70
1
  66
1
  10
0
  20
0
  30
0
  0
VERTEX
  5
494
  8
Layer_2
  10
126.57285
  20
230.96979
  0
VERTEX
  5
495
  8
Layer_2
  10
127.69345
  20
232.58356
  0
VERTEX
  5
496
  8
Layer_2
  10
127.69345
  20
230.96979
  0
SEQEND
  0
POLYLINE
  5
498
  8
Layer_0
  62
0
  66
1
  10
0
  20
0
  30
0
  0
VERTEX
  5
498
  8
Layer_0
  10
363.40002
  20
80
  0
VERTEX
  5
499
  8
Layer_0
  10
300.59998
  20
80
  0
VERTEX
  5
49a
  8
Layer_0
  10
300.59998
  20
134
  0
VERTEX
  5
49b
  8
Layer_0
  10
363.40002
  20
134
  0
VERTEX
  5
49c
  8
Layer_0
  10
363.40002
  20
80
  0
SEQEND
  0
POLYLINE
  5
49e
  8
Layer_0
  62
0
  66
1
  10
0
  20
0
  30
0
  0
VERTEX
  5
49e
  8
Layer_0
  10
363.40002
  20
26
  0
VERTEX
  5
49f
  8
Layer_0
  10
300.59998
  20
26
  0
VERTEX
  5
4a0
  8
Layer_0
  10
300.59998
  20
80
  0
VERTEX
  5
4a1
  8
Layer_0
  10
363.40002
  20
80
  0
VERTEX
  5
4a2
  8
Layer_0
  10
363.40002
  20
26
  0
SEQEND
  0
POLYLINE
  5
4a4
  8
Layer_0
  62
0
  66
1
  10
0
  20
0
  30
0
  0
VERTEX
  5
4a4
  8
Layer_0
  10
282.5
  20
229.5
  0
VERTEX
  5
4a5
  8
Layer_0
  10
223.5
  20
229.5
  0
VERTEX
  5
4a6
  8
Layer_0
  10
223.5
  20
270.5
  0
VERTEX
  5
4a7
  8
Layer_0
  10
282.5
  20
270.5
  0
VERTEX
  5
4a8
  8
Layer_0
  10
282.5
  20
229.5
  0
SEQEND
  0
CIRCLE
  5
4aa
  8
Layer_0
  62
0
  10
281.20001
  20
273.25
  30
0
  40
1.5
  0
CIRCLE
  5
4aa
  8
Layer_0
  62
0
  10
281.20001
  20
226.75
  30
0
  40
1.5
  0
CIRCLE
  5
4aa
  8
Layer_0
  62
0
  10
224.8
  20
273.25
  30
0
  40
1.5
  0
CIRCLE
  5
4aa
  8
Layer_0
  62
0
  10
224.8
  20
226.75
  30
0
  40
1.5
  0
CIRCLE
  5
4aa
  8
Layer_0
  62
0
  10
204.37187
  20
263
  30
0
  40
2.75
  0
CIRCLE
  5
4aa
  8
Layer_0
  62
0
  10
204.37187
  20
248.5
  30
0
  40
2.75
  0
CIRCLE
  5
4aa
  8
Layer_0
  62
0
  10
204.37187
  20
234
  30
0
  40
2.75
  0
CIRCLE
  5
4aa
  8
Layer_0
  62
0
  10
86
  20
266.5
  30
0
  40
1.25
  0
CIRCLE
  5
4aa
  8
Layer_0
  62
0
  10
86
  20
232.5
  30
0
  40
1.25
  0
CIRCLE
  5
4aa
  8
Layer_0
  62
0
  10
42.5
  20
266.5
  30
0
  40
1.25
  0
CIRCLE
  5
4aa
  8
Layer_0
  62
0
  10
42.5
  20
232.5
  30
0
  40
1.25
  0
CIRCLE
  5
4aa
  8
Layer_0
  62
0
  10
16
  20
224.60001
  30
0
  40
2.0250008
  0
CIRCLE
  5
4aa
  8
Layer_0
  62
0
  10
16
  20
237.3
  30
0
  40
2.0250008
  0
CIRCLE
  5
4aa
  8
Layer_0
  62
0
  10
16
  20
250
  30
0
  40
2.0250008
  0
CIRCLE
  5
4aa
  8
Layer_0
  62
0
  10
16
  20
262.70001
  30
0
  40
2.0250008
  0
CIRCLE
  5
4aa
  8
Layer_0
  62
0
  10
16
  20
275.39999
  30
0
  40
2.0249999
  0
CIRCLE
  5
4aa
  8
Layer_0
  62
0
  10
308.10004
  20
224.60001
  30
0
  40
2.0250008
  0
CIRCLE
  5
4aa
  8
Layer_0
  62
0
  10
308.10004
  20
237.3
  30
0
  40
2.0250008
  0
CIRCLE
  5
4aa
  8
Layer_0
  62
0
  10
308.10004
  20
250
  30
0
  40
2.0250008
  0
CIRCLE
  5
4aa
  8
Layer_0
  62
0
  10
308.10004
  20
262.70001
  30
0
  40
2.0250008
  0
CIRCLE
  5
4aa
  8
Layer_0
  62
0
  10
308.10004
  20
275.39999
  30
0
  40
2.0249999
  0
ENDSEC
  0
EOF
