0
SECTION
2
ENTITIES
0
LINE
8
MyLayer
10
0.000000
20
6.350000
11
0.000000
21
95.250000
62
0
0
LINE
8
MyLayer
10
6.350000
20
101.600000
11
69.850000
21
101.600000
62
0
0
LINE
8
MyLayer
10
76.200000
20
95.250000
11
76.200000
21
6.350000
62
0
0
LINE
8
MyLayer
10
69.850000
20
0.000000
11
6.350000
21
0.000000
62
0
0
ARC
8
MyLayer
10
6.350000
20
6.350000
30
0.0
40
6.350000
50
180.000000
51
270.000000
62
0
0
ARC
8
MyLayer
10
6.350000
20
95.250000
30
0.0
40
6.350000
50
90.000000
51
180.000000
62
0
0
ARC
8
MyLayer
10
69.850000
20
95.250000
30
0.0
40
6.350000
50
0.000000
51
90.000000
62
0
0
ARC
8
MyLayer
10
69.850000
20
6.350000
30
0.0
40
6.350000
50
270.000000
51
0.000000
62
0
0
CIRCLE
8
MyLayer
10
57.150000
20
6.350000
30
0.0
40
2.050000
62
0
0
CIRCLE
8
MyLayer
10
44.450000
20
57.150000
30
0.0
40
2.050000
62
0
0
CIRCLE
8
MyLayer
10
57.150000
20
44.450000
30
0.0
40
2.050000
62
0
0
CIRCLE
8
MyLayer
10
44.450000
20
19.050000
30
0.0
40
2.050000
62
0
0
CIRCLE
8
MyLayer
10
44.450000
20
95.250000
30
0.0
40
2.050000
62
0
0
CIRCLE
8
MyLayer
10
69.850000
20
57.150000
30
0.0
40
2.050000
62
0
0
CIRCLE
8
MyLayer
10
57.150000
20
82.550000
30
0.0
40
2.050000
62
0
0
CIRCLE
8
MyLayer
10
69.850000
20
19.050000
30
0.0
40
2.050000
62
0
0
CIRCLE
8
MyLayer
10
69.850000
20
95.250000
30
0.0
40
2.050000
62
0
0
CIRCLE
8
MyLayer
10
6.350000
20
31.750000
30
0.0
40
2.050000
62
0
0
CIRCLE
8
MyLayer
10
6.350000
20
69.850000
30
0.0
40
2.050000
62
0
0
CIRCLE
8
MyLayer
10
31.750000
20
31.750000
30
0.0
40
2.050000
62
0
0
CIRCLE
8
MyLayer
10
19.050000
20
6.350000
30
0.0
40
2.050000
62
0
0
CIRCLE
8
MyLayer
10
19.050000
20
82.550000
30
0.0
40
2.050000
62
0
0
CIRCLE
8
MyLayer
10
31.750000
20
69.850000
30
0.0
40
2.050000
62
0
0
CIRCLE
8
MyLayer
10
19.050000
20
44.450000
30
0.0
40
2.050000
62
0
0
CIRCLE
8
MyLayer
10
57.150000
20
31.750000
30
0.0
40
2.050000
62
0
0
CIRCLE
8
MyLayer
10
44.450000
20
6.350000
30
0.0
40
2.050000
62
0
0
CIRCLE
8
MyLayer
10
57.150000
20
69.850000
30
0.0
40
2.050000
62
0
0
CIRCLE
8
MyLayer
10
44.450000
20
44.450000
30
0.0
40
2.050000
62
0
0
CIRCLE
8
MyLayer
10
69.850000
20
6.350000
30
0.0
40
2.050000
62
0
0
CIRCLE
8
MyLayer
10
69.850000
20
82.550000
30
0.0
40
2.050000
62
0
0
CIRCLE
8
MyLayer
10
44.450000
20
82.550000
30
0.0
40
2.050000
62
0
0
CIRCLE
8
MyLayer
10
69.850000
20
44.450000
30
0.0
40
2.050000
62
0
0
CIRCLE
8
MyLayer
10
6.350000
20
19.050000
30
0.0
40
2.050000
62
0
0
CIRCLE
8
MyLayer
10
6.350000
20
95.250000
30
0.0
40
2.050000
62
0
0
CIRCLE
8
MyLayer
10
31.750000
20
57.150000
30
0.0
40
2.050000
62
0
0
CIRCLE
8
MyLayer
10
19.050000
20
31.750000
30
0.0
40
2.050000
62
0
0
CIRCLE
8
MyLayer
10
6.350000
20
57.150000
30
0.0
40
2.050000
62
0
0
CIRCLE
8
MyLayer
10
31.750000
20
19.050000
30
0.0
40
2.050000
62
0
0
CIRCLE
8
MyLayer
10
31.750000
20
95.250000
30
0.0
40
2.050000
62
0
0
CIRCLE
8
MyLayer
10
19.050000
20
69.850000
30
0.0
40
2.050000
62
0
0
CIRCLE
8
MyLayer
10
44.450000
20
31.750000
30
0.0
40
2.050000
62
0
0
CIRCLE
8
MyLayer
10
57.150000
20
19.050000
30
0.0
40
2.050000
62
0
0
CIRCLE
8
MyLayer
10
57.150000
20
95.250000
30
0.0
40
2.050000
62
0
0
CIRCLE
8
MyLayer
10
44.450000
20
69.850000
30
0.0
40
2.050000
62
0
0
CIRCLE
8
MyLayer
10
69.850000
20
31.750000
30
0.0
40
2.050000
62
0
0
CIRCLE
8
MyLayer
10
57.150000
20
57.150000
30
0.0
40
2.050000
62
0
0
CIRCLE
8
MyLayer
10
69.850000
20
69.850000
30
0.0
40
2.050000
62
0
0
CIRCLE
8
MyLayer
10
6.350000
20
6.350000
30
0.0
40
2.050000
62
0
0
CIRCLE
8
MyLayer
10
19.050000
20
19.050000
30
0.0
40
2.050000
62
0
0
CIRCLE
8
MyLayer
10
6.350000
20
44.450000
30
0.0
40
2.050000
62
0
0
CIRCLE
8
MyLayer
10
31.750000
20
6.350000
30
0.0
40
2.050000
62
0
0
CIRCLE
8
MyLayer
10
19.050000
20
57.150000
30
0.0
40
2.050000
62
0
0
CIRCLE
8
MyLayer
10
6.350000
20
82.550000
30
0.0
40
2.050000
62
0
0
CIRCLE
8
MyLayer
10
31.750000
20
44.450000
30
0.0
40
2.050000
62
0
0
CIRCLE
8
MyLayer
10
19.050000
20
95.250000
30
0.0
40
2.050000
62
0
0
CIRCLE
8
MyLayer
10
31.750000
20
82.550000
30
0.0
40
2.050000
62
0
0
ENDSEC
0
EOF
