0
SECTION
2
ENTITIES
0
LINE
8
Undeflected
10
0.000000
20
0.000000
11
317.500000
21
0.000000
62
0
0
CIRCLE
8
Undeflected
10
6.350000
20
6.350000
30
0.0
40
2.050000
62
0
0
CIRCLE
8
Undeflected
10
19.050000
20
6.350000
30
0.0
40
2.050000
62
0
0
CIRCLE
8
Undeflected
10
31.750000
20
6.350000
30
0.0
40
2.050000
62
0
0
CIRCLE
8
Undeflected
10
44.450000
20
6.350000
30
0.0
40
2.050000
62
0
0
CIRCLE
8
Undeflected
10
57.150000
20
6.350000
30
0.0
40
2.050000
62
0
0
CIRCLE
8
Undeflected
10
69.850000
20
6.350000
30
0.0
40
2.050000
62
0
0
CIRCLE
8
Undeflected
10
82.550000
20
6.350000
30
0.0
40
2.050000
62
0
0
CIRCLE
8
Undeflected
10
95.250000
20
6.350000
30
0.0
40
2.050000
62
0
0
CIRCLE
8
Undeflected
10
107.950000
20
6.350000
30
0.0
40
2.050000
62
0
0
CIRCLE
8
Undeflected
10
120.650000
20
6.350000
30
0.0
40
2.050000
62
0
0
CIRCLE
8
Undeflected
10
133.350000
20
6.350000
30
0.0
40
2.050000
62
0
0
CIRCLE
8
Undeflected
10
146.050000
20
6.350000
30
0.0
40
2.050000
62
0
0
CIRCLE
8
Undeflected
10
158.750000
20
6.350000
30
0.0
40
2.050000
62
0
0
CIRCLE
8
Undeflected
10
171.450000
20
6.350000
30
0.0
40
2.050000
62
0
0
CIRCLE
8
Undeflected
10
184.150000
20
6.350000
30
0.0
40
2.050000
62
0
0
CIRCLE
8
Undeflected
10
196.850000
20
6.350000
30
0.0
40
2.050000
62
0
0
CIRCLE
8
Undeflected
10
209.550000
20
6.350000
30
0.0
40
2.050000
62
0
0
CIRCLE
8
Undeflected
10
222.250000
20
6.350000
30
0.0
40
2.050000
62
0
0
CIRCLE
8
Undeflected
10
234.950000
20
6.350000
30
0.0
40
2.050000
62
0
0
CIRCLE
8
Undeflected
10
247.650000
20
6.350000
30
0.0
40
2.050000
62
0
0
CIRCLE
8
Undeflected
10
260.350000
20
6.350000
30
0.0
40
2.050000
62
0
0
CIRCLE
8
Undeflected
10
273.050000
20
6.350000
30
0.0
40
2.050000
62
0
0
CIRCLE
8
Undeflected
10
285.750000
20
6.350000
30
0.0
40
2.050000
62
0
0
CIRCLE
8
Undeflected
10
298.450000
20
6.350000
30
0.0
40
2.050000
62
0
0
CIRCLE
8
Undeflected
10
311.150000
20
6.350000
30
0.0
40
2.050000
62
0
0
LINE
8
Undeflected
10
317.500000
20
0.000000
11
317.500000
21
203.200000
62
0
0
CIRCLE
8
Undeflected
10
311.150000
20
19.050000
30
0.0
40
2.050000
62
0
0
CIRCLE
8
Undeflected
10
311.150000
20
31.750000
30
0.0
40
2.050000
62
0
0
CIRCLE
8
Undeflected
10
311.150000
20
44.450000
30
0.0
40
2.050000
62
0
0
CIRCLE
8
Undeflected
10
311.150000
20
57.150000
30
0.0
40
2.050000
62
0
0
CIRCLE
8
Undeflected
10
311.150000
20
69.850000
30
0.0
40
2.050000
62
0
0
CIRCLE
8
Undeflected
10
311.150000
20
82.550000
30
0.0
40
2.050000
62
0
0
CIRCLE
8
Undeflected
10
311.150000
20
95.250000
30
0.0
40
2.050000
62
0
0
CIRCLE
8
Undeflected
10
311.150000
20
107.950000
30
0.0
40
2.050000
62
0
0
CIRCLE
8
Undeflected
10
311.150000
20
120.650000
30
0.0
40
2.050000
62
0
0
CIRCLE
8
Undeflected
10
311.150000
20
133.350000
30
0.0
40
2.050000
62
0
0
CIRCLE
8
Undeflected
10
311.150000
20
146.050000
30
0.0
40
2.050000
62
0
0
CIRCLE
8
Undeflected
10
311.150000
20
158.750000
30
0.0
40
2.050000
62
0
0
CIRCLE
8
Undeflected
10
311.150000
20
171.450000
30
0.0
40
2.050000
62
0
0
CIRCLE
8
Undeflected
10
311.150000
20
184.150000
30
0.0
40
2.050000
62
0
0
CIRCLE
8
Undeflected
10
311.150000
20
196.850000
30
0.0
40
2.050000
62
0
0
LINE
8
Undeflected
10
317.500000
20
203.200000
11
0.000000
21
203.200000
62
0
0
CIRCLE
8
Undeflected
10
298.450000
20
196.850000
30
0.0
40
2.050000
62
4
0
CIRCLE
8
Undeflected
10
285.750000
20
196.850000
30
0.0
40
2.050000
62
4
0
CIRCLE
8
Undeflected
10
273.050000
20
196.850000
30
0.0
40
2.050000
62
4
0
CIRCLE
8
Undeflected
10
260.350000
20
196.850000
30
0.0
40
2.050000
62
4
0
CIRCLE
8
Undeflected
10
247.650000
20
196.850000
30
0.0
40
2.050000
62
4
0
CIRCLE
8
Undeflected
10
234.950000
20
196.850000
30
0.0
40
2.050000
62
4
0
CIRCLE
8
Undeflected
10
222.250000
20
196.850000
30
0.0
40
2.050000
62
4
0
CIRCLE
8
Undeflected
10
209.550000
20
196.850000
30
0.0
40
2.050000
62
4
0
CIRCLE
8
Undeflected
10
196.850000
20
196.850000
30
0.0
40
2.050000
62
4
0
CIRCLE
8
Undeflected
10
184.150000
20
196.850000
30
0.0
40
2.050000
62
4
0
CIRCLE
8
Undeflected
10
171.450000
20
196.850000
30
0.0
40
2.050000
62
4
0
CIRCLE
8
Undeflected
10
158.750000
20
196.850000
30
0.0
40
2.050000
62
4
0
CIRCLE
8
Undeflected
10
146.050000
20
196.850000
30
0.0
40
2.050000
62
4
0
CIRCLE
8
Undeflected
10
133.350000
20
196.850000
30
0.0
40
2.050000
62
4
0
CIRCLE
8
Undeflected
10
120.650000
20
196.850000
30
0.0
40
2.050000
62
4
0
CIRCLE
8
Undeflected
10
107.950000
20
196.850000
30
0.0
40
2.050000
62
4
0
CIRCLE
8
Undeflected
10
95.250000
20
196.850000
30
0.0
40
2.050000
62
4
0
CIRCLE
8
Undeflected
10
82.550000
20
196.850000
30
0.0
40
2.050000
62
4
0
CIRCLE
8
Undeflected
10
69.850000
20
196.850000
30
0.0
40
2.050000
62
4
0
CIRCLE
8
Undeflected
10
57.150000
20
196.850000
30
0.0
40
2.050000
62
4
0
CIRCLE
8
Undeflected
10
44.450000
20
196.850000
30
0.0
40
2.050000
62
4
0
CIRCLE
8
Undeflected
10
31.750000
20
196.850000
30
0.0
40
2.050000
62
4
0
CIRCLE
8
Undeflected
10
19.050000
20
196.850000
30
0.0
40
2.050000
62
4
0
CIRCLE
8
Undeflected
10
6.350000
20
196.850000
30
0.0
40
2.050000
62
4
0
LINE
8
Undeflected
10
0.000000
20
203.200000
11
0.000000
21
0.000000
62
0
0
CIRCLE
8
Undeflected
10
6.350000
20
184.150000
30
0.0
40
2.050000
62
5
0
CIRCLE
8
Undeflected
10
6.350000
20
171.450000
30
0.0
40
2.050000
62
5
0
CIRCLE
8
Undeflected
10
6.350000
20
158.750000
30
0.0
40
2.050000
62
5
0
CIRCLE
8
Undeflected
10
6.350000
20
146.050000
30
0.0
40
2.050000
62
5
0
CIRCLE
8
Undeflected
10
6.350000
20
133.350000
30
0.0
40
2.050000
62
5
0
CIRCLE
8
Undeflected
10
6.350000
20
120.650000
30
0.0
40
2.050000
62
5
0
CIRCLE
8
Undeflected
10
6.350000
20
107.950000
30
0.0
40
2.050000
62
5
0
CIRCLE
8
Undeflected
10
6.350000
20
95.250000
30
0.0
40
2.050000
62
5
0
CIRCLE
8
Undeflected
10
6.350000
20
82.550000
30
0.0
40
2.050000
62
5
0
CIRCLE
8
Undeflected
10
6.350000
20
69.850000
30
0.0
40
2.050000
62
5
0
CIRCLE
8
Undeflected
10
6.350000
20
57.150000
30
0.0
40
2.050000
62
5
0
CIRCLE
8
Undeflected
10
6.350000
20
44.450000
30
0.0
40
2.050000
62
5
0
CIRCLE
8
Undeflected
10
6.350000
20
31.750000
30
0.0
40
2.050000
62
5
0
CIRCLE
8
Undeflected
10
6.350000
20
19.050000
30
0.0
40
2.050000
62
5
0
LINE
8
Undeflected
10
0.000000
20
203.200000
11
317.500000
21
203.200000
62
0
0
CIRCLE
8
Undeflected
10
6.350000
20
209.550000
30
0.0
40
2.050000
62
0
0
CIRCLE
8
Undeflected
10
19.050000
20
209.550000
30
0.0
40
2.050000
62
0
0
CIRCLE
8
Undeflected
10
31.750000
20
209.550000
30
0.0
40
2.050000
62
0
0
CIRCLE
8
Undeflected
10
44.450000
20
209.550000
30
0.0
40
2.050000
62
0
0
CIRCLE
8
Undeflected
10
57.150000
20
209.550000
30
0.0
40
2.050000
62
0
0
CIRCLE
8
Undeflected
10
69.850000
20
209.550000
30
0.0
40
2.050000
62
0
0
CIRCLE
8
Undeflected
10
82.550000
20
209.550000
30
0.0
40
2.050000
62
0
0
CIRCLE
8
Undeflected
10
95.250000
20
209.550000
30
0.0
40
2.050000
62
0
0
CIRCLE
8
Undeflected
10
107.950000
20
209.550000
30
0.0
40
2.050000
62
0
0
CIRCLE
8
Undeflected
10
120.650000
20
209.550000
30
0.0
40
2.050000
62
0
0
CIRCLE
8
Undeflected
10
133.350000
20
209.550000
30
0.0
40
2.050000
62
0
0
CIRCLE
8
Undeflected
10
146.050000
20
209.550000
30
0.0
40
2.050000
62
0
0
CIRCLE
8
Undeflected
10
158.750000
20
209.550000
30
0.0
40
2.050000
62
0
0
CIRCLE
8
Undeflected
10
171.450000
20
209.550000
30
0.0
40
2.050000
62
0
0
CIRCLE
8
Undeflected
10
184.150000
20
209.550000
30
0.0
40
2.050000
62
0
0
CIRCLE
8
Undeflected
10
196.850000
20
209.550000
30
0.0
40
2.050000
62
0
0
CIRCLE
8
Undeflected
10
209.550000
20
209.550000
30
0.0
40
2.050000
62
0
0
CIRCLE
8
Undeflected
10
222.250000
20
209.550000
30
0.0
40
2.050000
62
0
0
CIRCLE
8
Undeflected
10
234.950000
20
209.550000
30
0.0
40
2.050000
62
0
0
CIRCLE
8
Undeflected
10
247.650000
20
209.550000
30
0.0
40
2.050000
62
0
0
CIRCLE
8
Undeflected
10
260.350000
20
209.550000
30
0.0
40
2.050000
62
0
0
CIRCLE
8
Undeflected
10
273.050000
20
209.550000
30
0.0
40
2.050000
62
0
0
CIRCLE
8
Undeflected
10
285.750000
20
209.550000
30
0.0
40
2.050000
62
0
0
CIRCLE
8
Undeflected
10
298.450000
20
209.550000
30
0.0
40
2.050000
62
0
0
CIRCLE
8
Undeflected
10
311.150000
20
209.550000
30
0.0
40
2.050000
62
0
0
LINE
8
Undeflected
10
317.500000
20
203.200000
11
317.500000
21
330.200000
62
0
0
CIRCLE
8
Undeflected
10
311.150000
20
222.250000
30
0.0
40
2.050000
62
0
0
CIRCLE
8
Undeflected
10
311.150000
20
234.950000
30
0.0
40
2.050000
62
0
0
CIRCLE
8
Undeflected
10
311.150000
20
247.650000
30
0.0
40
2.050000
62
0
0
CIRCLE
8
Undeflected
10
311.150000
20
260.350000
30
0.0
40
2.050000
62
0
0
CIRCLE
8
Undeflected
10
311.150000
20
273.050000
30
0.0
40
2.050000
62
0
0
CIRCLE
8
Undeflected
10
311.150000
20
285.750000
30
0.0
40
2.050000
62
0
0
CIRCLE
8
Undeflected
10
311.150000
20
298.450000
30
0.0
40
2.050000
62
0
0
CIRCLE
8
Undeflected
10
311.150000
20
311.150000
30
0.0
40
2.050000
62
0
0
CIRCLE
8
Undeflected
10
311.150000
20
323.850000
30
0.0
40
2.050000
62
0
0
LINE
8
Undeflected
10
317.500000
20
330.200000
11
0.000000
21
330.200000
62
0
0
CIRCLE
8
Undeflected
10
298.450000
20
323.850000
30
0.0
40
2.050000
62
4
0
CIRCLE
8
Undeflected
10
285.750000
20
323.850000
30
0.0
40
2.050000
62
4
0
CIRCLE
8
Undeflected
10
273.050000
20
323.850000
30
0.0
40
2.050000
62
4
0
CIRCLE
8
Undeflected
10
260.350000
20
323.850000
30
0.0
40
2.050000
62
4
0
CIRCLE
8
Undeflected
10
247.650000
20
323.850000
30
0.0
40
2.050000
62
4
0
CIRCLE
8
Undeflected
10
234.950000
20
323.850000
30
0.0
40
2.050000
62
4
0
CIRCLE
8
Undeflected
10
222.250000
20
323.850000
30
0.0
40
2.050000
62
4
0
CIRCLE
8
Undeflected
10
209.550000
20
323.850000
30
0.0
40
2.050000
62
4
0
CIRCLE
8
Undeflected
10
196.850000
20
323.850000
30
0.0
40
2.050000
62
4
0
CIRCLE
8
Undeflected
10
184.150000
20
323.850000
30
0.0
40
2.050000
62
4
0
CIRCLE
8
Undeflected
10
171.450000
20
323.850000
30
0.0
40
2.050000
62
4
0
CIRCLE
8
Undeflected
10
158.750000
20
323.850000
30
0.0
40
2.050000
62
4
0
CIRCLE
8
Undeflected
10
146.050000
20
323.850000
30
0.0
40
2.050000
62
4
0
CIRCLE
8
Undeflected
10
133.350000
20
323.850000
30
0.0
40
2.050000
62
4
0
CIRCLE
8
Undeflected
10
120.650000
20
323.850000
30
0.0
40
2.050000
62
4
0
CIRCLE
8
Undeflected
10
107.950000
20
323.850000
30
0.0
40
2.050000
62
4
0
CIRCLE
8
Undeflected
10
95.250000
20
323.850000
30
0.0
40
2.050000
62
4
0
CIRCLE
8
Undeflected
10
82.550000
20
323.850000
30
0.0
40
2.050000
62
4
0
CIRCLE
8
Undeflected
10
69.850000
20
323.850000
30
0.0
40
2.050000
62
4
0
CIRCLE
8
Undeflected
10
57.150000
20
323.850000
30
0.0
40
2.050000
62
4
0
CIRCLE
8
Undeflected
10
44.450000
20
323.850000
30
0.0
40
2.050000
62
4
0
CIRCLE
8
Undeflected
10
31.750000
20
323.850000
30
0.0
40
2.050000
62
4
0
CIRCLE
8
Undeflected
10
19.050000
20
323.850000
30
0.0
40
2.050000
62
4
0
CIRCLE
8
Undeflected
10
6.350000
20
323.850000
30
0.0
40
2.050000
62
4
0
LINE
8
Undeflected
10
0.000000
20
330.200000
11
0.000000
21
203.200000
62
0
0
CIRCLE
8
Undeflected
10
6.350000
20
311.150000
30
0.0
40
2.050000
62
5
0
CIRCLE
8
Undeflected
10
6.350000
20
298.450000
30
0.0
40
2.050000
62
5
0
CIRCLE
8
Undeflected
10
6.350000
20
285.750000
30
0.0
40
2.050000
62
5
0
CIRCLE
8
Undeflected
10
6.350000
20
273.050000
30
0.0
40
2.050000
62
5
0
CIRCLE
8
Undeflected
10
6.350000
20
260.350000
30
0.0
40
2.050000
62
5
0
CIRCLE
8
Undeflected
10
6.350000
20
247.650000
30
0.0
40
2.050000
62
5
0
CIRCLE
8
Undeflected
10
6.350000
20
234.950000
30
0.0
40
2.050000
62
5
0
CIRCLE
8
Undeflected
10
6.350000
20
222.250000
30
0.0
40
2.050000
62
5
0
LINE
8
Undeflected
10
0.000000
20
330.200000
11
317.500000
21
330.200000
62
0
0
CIRCLE
8
Undeflected
10
6.350000
20
336.550000
30
0.0
40
2.050000
62
0
0
CIRCLE
8
Undeflected
10
19.050000
20
336.550000
30
0.0
40
2.050000
62
0
0
CIRCLE
8
Undeflected
10
31.750000
20
336.550000
30
0.0
40
2.050000
62
0
0
CIRCLE
8
Undeflected
10
44.450000
20
336.550000
30
0.0
40
2.050000
62
0
0
CIRCLE
8
Undeflected
10
57.150000
20
336.550000
30
0.0
40
2.050000
62
0
0
CIRCLE
8
Undeflected
10
69.850000
20
336.550000
30
0.0
40
2.050000
62
0
0
CIRCLE
8
Undeflected
10
82.550000
20
336.550000
30
0.0
40
2.050000
62
0
0
CIRCLE
8
Undeflected
10
95.250000
20
336.550000
30
0.0
40
2.050000
62
0
0
CIRCLE
8
Undeflected
10
107.950000
20
336.550000
30
0.0
40
2.050000
62
0
0
CIRCLE
8
Undeflected
10
120.650000
20
336.550000
30
0.0
40
2.050000
62
0
0
CIRCLE
8
Undeflected
10
133.350000
20
336.550000
30
0.0
40
2.050000
62
0
0
CIRCLE
8
Undeflected
10
146.050000
20
336.550000
30
0.0
40
2.050000
62
0
0
CIRCLE
8
Undeflected
10
158.750000
20
336.550000
30
0.0
40
2.050000
62
0
0
CIRCLE
8
Undeflected
10
171.450000
20
336.550000
30
0.0
40
2.050000
62
0
0
CIRCLE
8
Undeflected
10
184.150000
20
336.550000
30
0.0
40
2.050000
62
0
0
CIRCLE
8
Undeflected
10
196.850000
20
336.550000
30
0.0
40
2.050000
62
0
0
CIRCLE
8
Undeflected
10
209.550000
20
336.550000
30
0.0
40
2.050000
62
0
0
CIRCLE
8
Undeflected
10
222.250000
20
336.550000
30
0.0
40
2.050000
62
0
0
CIRCLE
8
Undeflected
10
234.950000
20
336.550000
30
0.0
40
2.050000
62
0
0
CIRCLE
8
Undeflected
10
247.650000
20
336.550000
30
0.0
40
2.050000
62
0
0
CIRCLE
8
Undeflected
10
260.350000
20
336.550000
30
0.0
40
2.050000
62
0
0
CIRCLE
8
Undeflected
10
273.050000
20
336.550000
30
0.0
40
2.050000
62
0
0
CIRCLE
8
Undeflected
10
285.750000
20
336.550000
30
0.0
40
2.050000
62
0
0
CIRCLE
8
Undeflected
10
298.450000
20
336.550000
30
0.0
40
2.050000
62
0
0
CIRCLE
8
Undeflected
10
311.150000
20
336.550000
30
0.0
40
2.050000
62
0
0
LINE
8
Undeflected
10
317.500000
20
330.200000
11
317.500000
21
469.900000
62
0
0
CIRCLE
8
Undeflected
10
311.150000
20
349.250000
30
0.0
40
2.050000
62
0
0
CIRCLE
8
Undeflected
10
311.150000
20
361.950000
30
0.0
40
2.050000
62
0
0
CIRCLE
8
Undeflected
10
311.150000
20
374.650000
30
0.0
40
2.050000
62
0
0
CIRCLE
8
Undeflected
10
311.150000
20
387.350000
30
0.0
40
2.050000
62
0
0
CIRCLE
8
Undeflected
10
311.150000
20
400.050000
30
0.0
40
2.050000
62
0
0
CIRCLE
8
Undeflected
10
311.150000
20
412.750000
30
0.0
40
2.050000
62
0
0
CIRCLE
8
Undeflected
10
311.150000
20
425.450000
30
0.0
40
2.050000
62
0
0
CIRCLE
8
Undeflected
10
311.150000
20
438.150000
30
0.0
40
2.050000
62
0
0
CIRCLE
8
Undeflected
10
311.150000
20
450.850000
30
0.0
40
2.050000
62
0
0
CIRCLE
8
Undeflected
10
311.150000
20
463.550000
30
0.0
40
2.050000
62
0
0
LINE
8
Undeflected
10
317.500000
20
469.900000
11
0.000000
21
469.900000
62
0
0
CIRCLE
8
Undeflected
10
298.450000
20
463.550000
30
0.0
40
2.050000
62
4
0
CIRCLE
8
Undeflected
10
285.750000
20
463.550000
30
0.0
40
2.050000
62
4
0
CIRCLE
8
Undeflected
10
273.050000
20
463.550000
30
0.0
40
2.050000
62
4
0
CIRCLE
8
Undeflected
10
260.350000
20
463.550000
30
0.0
40
2.050000
62
4
0
CIRCLE
8
Undeflected
10
247.650000
20
463.550000
30
0.0
40
2.050000
62
4
0
CIRCLE
8
Undeflected
10
234.950000
20
463.550000
30
0.0
40
2.050000
62
4
0
CIRCLE
8
Undeflected
10
222.250000
20
463.550000
30
0.0
40
2.050000
62
4
0
CIRCLE
8
Undeflected
10
209.550000
20
463.550000
30
0.0
40
2.050000
62
4
0
CIRCLE
8
Undeflected
10
196.850000
20
463.550000
30
0.0
40
2.050000
62
4
0
CIRCLE
8
Undeflected
10
184.150000
20
463.550000
30
0.0
40
2.050000
62
4
0
CIRCLE
8
Undeflected
10
171.450000
20
463.550000
30
0.0
40
2.050000
62
4
0
CIRCLE
8
Undeflected
10
158.750000
20
463.550000
30
0.0
40
2.050000
62
4
0
CIRCLE
8
Undeflected
10
146.050000
20
463.550000
30
0.0
40
2.050000
62
4
0
CIRCLE
8
Undeflected
10
133.350000
20
463.550000
30
0.0
40
2.050000
62
4
0
CIRCLE
8
Undeflected
10
120.650000
20
463.550000
30
0.0
40
2.050000
62
4
0
CIRCLE
8
Undeflected
10
107.950000
20
463.550000
30
0.0
40
2.050000
62
4
0
CIRCLE
8
Undeflected
10
95.250000
20
463.550000
30
0.0
40
2.050000
62
4
0
CIRCLE
8
Undeflected
10
82.550000
20
463.550000
30
0.0
40
2.050000
62
4
0
CIRCLE
8
Undeflected
10
69.850000
20
463.550000
30
0.0
40
2.050000
62
4
0
CIRCLE
8
Undeflected
10
57.150000
20
463.550000
30
0.0
40
2.050000
62
4
0
CIRCLE
8
Undeflected
10
44.450000
20
463.550000
30
0.0
40
2.050000
62
4
0
CIRCLE
8
Undeflected
10
31.750000
20
463.550000
30
0.0
40
2.050000
62
4
0
CIRCLE
8
Undeflected
10
19.050000
20
463.550000
30
0.0
40
2.050000
62
4
0
CIRCLE
8
Undeflected
10
6.350000
20
463.550000
30
0.0
40
2.050000
62
4
0
LINE
8
Undeflected
10
0.000000
20
469.900000
11
0.000000
21
330.200000
62
0
0
CIRCLE
8
Undeflected
10
6.350000
20
450.850000
30
0.0
40
2.050000
62
5
0
CIRCLE
8
Undeflected
10
6.350000
20
438.150000
30
0.0
40
2.050000
62
5
0
CIRCLE
8
Undeflected
10
6.350000
20
425.450000
30
0.0
40
2.050000
62
5
0
CIRCLE
8
Undeflected
10
6.350000
20
412.750000
30
0.0
40
2.050000
62
5
0
CIRCLE
8
Undeflected
10
6.350000
20
400.050000
30
0.0
40
2.050000
62
5
0
CIRCLE
8
Undeflected
10
6.350000
20
387.350000
30
0.0
40
2.050000
62
5
0
CIRCLE
8
Undeflected
10
6.350000
20
374.650000
30
0.0
40
2.050000
62
5
0
CIRCLE
8
Undeflected
10
6.350000
20
361.950000
30
0.0
40
2.050000
62
5
0
CIRCLE
8
Undeflected
10
6.350000
20
349.250000
30
0.0
40
2.050000
62
5
0
LINE
8
Undeflected
10
0.000000
20
469.900000
11
317.500000
21
469.900000
62
0
0
CIRCLE
8
Undeflected
10
6.350000
20
476.250000
30
0.0
40
2.050000
62
0
0
CIRCLE
8
Undeflected
10
19.050000
20
476.250000
30
0.0
40
2.050000
62
0
0
CIRCLE
8
Undeflected
10
31.750000
20
476.250000
30
0.0
40
2.050000
62
0
0
CIRCLE
8
Undeflected
10
44.450000
20
476.250000
30
0.0
40
2.050000
62
0
0
CIRCLE
8
Undeflected
10
57.150000
20
476.250000
30
0.0
40
2.050000
62
0
0
CIRCLE
8
Undeflected
10
69.850000
20
476.250000
30
0.0
40
2.050000
62
0
0
CIRCLE
8
Undeflected
10
82.550000
20
476.250000
30
0.0
40
2.050000
62
0
0
CIRCLE
8
Undeflected
10
95.250000
20
476.250000
30
0.0
40
2.050000
62
0
0
CIRCLE
8
Undeflected
10
107.950000
20
476.250000
30
0.0
40
2.050000
62
0
0
CIRCLE
8
Undeflected
10
120.650000
20
476.250000
30
0.0
40
2.050000
62
0
0
CIRCLE
8
Undeflected
10
133.350000
20
476.250000
30
0.0
40
2.050000
62
0
0
CIRCLE
8
Undeflected
10
146.050000
20
476.250000
30
0.0
40
2.050000
62
0
0
CIRCLE
8
Undeflected
10
158.750000
20
476.250000
30
0.0
40
2.050000
62
0
0
CIRCLE
8
Undeflected
10
171.450000
20
476.250000
30
0.0
40
2.050000
62
0
0
CIRCLE
8
Undeflected
10
184.150000
20
476.250000
30
0.0
40
2.050000
62
0
0
CIRCLE
8
Undeflected
10
196.850000
20
476.250000
30
0.0
40
2.050000
62
0
0
CIRCLE
8
Undeflected
10
209.550000
20
476.250000
30
0.0
40
2.050000
62
0
0
CIRCLE
8
Undeflected
10
222.250000
20
476.250000
30
0.0
40
2.050000
62
0
0
CIRCLE
8
Undeflected
10
234.950000
20
476.250000
30
0.0
40
2.050000
62
0
0
CIRCLE
8
Undeflected
10
247.650000
20
476.250000
30
0.0
40
2.050000
62
0
0
CIRCLE
8
Undeflected
10
260.350000
20
476.250000
30
0.0
40
2.050000
62
0
0
CIRCLE
8
Undeflected
10
273.050000
20
476.250000
30
0.0
40
2.050000
62
0
0
CIRCLE
8
Undeflected
10
285.750000
20
476.250000
30
0.0
40
2.050000
62
0
0
CIRCLE
8
Undeflected
10
298.450000
20
476.250000
30
0.0
40
2.050000
62
0
0
CIRCLE
8
Undeflected
10
311.150000
20
476.250000
30
0.0
40
2.050000
62
0
0
LINE
8
Undeflected
10
317.500000
20
469.900000
11
317.500000
21
596.900000
62
0
0
CIRCLE
8
Undeflected
10
311.150000
20
488.950000
30
0.0
40
2.050000
62
0
0
CIRCLE
8
Undeflected
10
311.150000
20
501.650000
30
0.0
40
2.050000
62
0
0
CIRCLE
8
Undeflected
10
311.150000
20
514.350000
30
0.0
40
2.050000
62
0
0
CIRCLE
8
Undeflected
10
311.150000
20
527.050000
30
0.0
40
2.050000
62
0
0
CIRCLE
8
Undeflected
10
311.150000
20
539.750000
30
0.0
40
2.050000
62
0
0
CIRCLE
8
Undeflected
10
311.150000
20
552.450000
30
0.0
40
2.050000
62
0
0
CIRCLE
8
Undeflected
10
311.150000
20
565.150000
30
0.0
40
2.050000
62
0
0
CIRCLE
8
Undeflected
10
311.150000
20
577.850000
30
0.0
40
2.050000
62
0
0
CIRCLE
8
Undeflected
10
311.150000
20
590.550000
30
0.0
40
2.050000
62
0
0
LINE
8
Undeflected
10
317.500000
20
596.900000
11
0.000000
21
596.900000
62
0
0
CIRCLE
8
Undeflected
10
298.450000
20
590.550000
30
0.0
40
2.050000
62
4
0
CIRCLE
8
Undeflected
10
285.750000
20
590.550000
30
0.0
40
2.050000
62
4
0
CIRCLE
8
Undeflected
10
273.050000
20
590.550000
30
0.0
40
2.050000
62
4
0
CIRCLE
8
Undeflected
10
260.350000
20
590.550000
30
0.0
40
2.050000
62
4
0
CIRCLE
8
Undeflected
10
247.650000
20
590.550000
30
0.0
40
2.050000
62
4
0
CIRCLE
8
Undeflected
10
234.950000
20
590.550000
30
0.0
40
2.050000
62
4
0
CIRCLE
8
Undeflected
10
222.250000
20
590.550000
30
0.0
40
2.050000
62
4
0
CIRCLE
8
Undeflected
10
209.550000
20
590.550000
30
0.0
40
2.050000
62
4
0
CIRCLE
8
Undeflected
10
196.850000
20
590.550000
30
0.0
40
2.050000
62
4
0
CIRCLE
8
Undeflected
10
184.150000
20
590.550000
30
0.0
40
2.050000
62
4
0
CIRCLE
8
Undeflected
10
171.450000
20
590.550000
30
0.0
40
2.050000
62
4
0
CIRCLE
8
Undeflected
10
158.750000
20
590.550000
30
0.0
40
2.050000
62
4
0
CIRCLE
8
Undeflected
10
146.050000
20
590.550000
30
0.0
40
2.050000
62
4
0
CIRCLE
8
Undeflected
10
133.350000
20
590.550000
30
0.0
40
2.050000
62
4
0
CIRCLE
8
Undeflected
10
120.650000
20
590.550000
30
0.0
40
2.050000
62
4
0
CIRCLE
8
Undeflected
10
107.950000
20
590.550000
30
0.0
40
2.050000
62
4
0
CIRCLE
8
Undeflected
10
95.250000
20
590.550000
30
0.0
40
2.050000
62
4
0
CIRCLE
8
Undeflected
10
82.550000
20
590.550000
30
0.0
40
2.050000
62
4
0
CIRCLE
8
Undeflected
10
69.850000
20
590.550000
30
0.0
40
2.050000
62
4
0
CIRCLE
8
Undeflected
10
57.150000
20
590.550000
30
0.0
40
2.050000
62
4
0
CIRCLE
8
Undeflected
10
44.450000
20
590.550000
30
0.0
40
2.050000
62
4
0
CIRCLE
8
Undeflected
10
31.750000
20
590.550000
30
0.0
40
2.050000
62
4
0
CIRCLE
8
Undeflected
10
19.050000
20
590.550000
30
0.0
40
2.050000
62
4
0
CIRCLE
8
Undeflected
10
6.350000
20
590.550000
30
0.0
40
2.050000
62
4
0
LINE
8
Undeflected
10
0.000000
20
596.900000
11
0.000000
21
469.900000
62
0
0
CIRCLE
8
Undeflected
10
6.350000
20
577.850000
30
0.0
40
2.050000
62
5
0
CIRCLE
8
Undeflected
10
6.350000
20
565.150000
30
0.0
40
2.050000
62
5
0
CIRCLE
8
Undeflected
10
6.350000
20
552.450000
30
0.0
40
2.050000
62
5
0
CIRCLE
8
Undeflected
10
6.350000
20
539.750000
30
0.0
40
2.050000
62
5
0
CIRCLE
8
Undeflected
10
6.350000
20
527.050000
30
0.0
40
2.050000
62
5
0
CIRCLE
8
Undeflected
10
6.350000
20
514.350000
30
0.0
40
2.050000
62
5
0
CIRCLE
8
Undeflected
10
6.350000
20
501.650000
30
0.0
40
2.050000
62
5
0
CIRCLE
8
Undeflected
10
6.350000
20
488.950000
30
0.0
40
2.050000
62
5
0
LINE
8
Undeflected
10
317.500000
20
0.000000
11
635.000000
21
0.000000
62
0
0
CIRCLE
8
Undeflected
10
323.850000
20
6.350000
30
0.0
40
2.050000
62
0
0
CIRCLE
8
Undeflected
10
336.550000
20
6.350000
30
0.0
40
2.050000
62
0
0
CIRCLE
8
Undeflected
10
349.250000
20
6.350000
30
0.0
40
2.050000
62
0
0
CIRCLE
8
Undeflected
10
361.950000
20
6.350000
30
0.0
40
2.050000
62
0
0
CIRCLE
8
Undeflected
10
374.650000
20
6.350000
30
0.0
40
2.050000
62
0
0
CIRCLE
8
Undeflected
10
387.350000
20
6.350000
30
0.0
40
2.050000
62
0
0
CIRCLE
8
Undeflected
10
400.050000
20
6.350000
30
0.0
40
2.050000
62
0
0
CIRCLE
8
Undeflected
10
412.750000
20
6.350000
30
0.0
40
2.050000
62
0
0
CIRCLE
8
Undeflected
10
425.450000
20
6.350000
30
0.0
40
2.050000
62
0
0
CIRCLE
8
Undeflected
10
438.150000
20
6.350000
30
0.0
40
2.050000
62
0
0
CIRCLE
8
Undeflected
10
450.850000
20
6.350000
30
0.0
40
2.050000
62
0
0
CIRCLE
8
Undeflected
10
463.550000
20
6.350000
30
0.0
40
2.050000
62
0
0
CIRCLE
8
Undeflected
10
476.250000
20
6.350000
30
0.0
40
2.050000
62
0
0
CIRCLE
8
Undeflected
10
488.950000
20
6.350000
30
0.0
40
2.050000
62
0
0
CIRCLE
8
Undeflected
10
501.650000
20
6.350000
30
0.0
40
2.050000
62
0
0
CIRCLE
8
Undeflected
10
514.350000
20
6.350000
30
0.0
40
2.050000
62
0
0
CIRCLE
8
Undeflected
10
527.050000
20
6.350000
30
0.0
40
2.050000
62
0
0
CIRCLE
8
Undeflected
10
539.750000
20
6.350000
30
0.0
40
2.050000
62
0
0
CIRCLE
8
Undeflected
10
552.450000
20
6.350000
30
0.0
40
2.050000
62
0
0
CIRCLE
8
Undeflected
10
565.150000
20
6.350000
30
0.0
40
2.050000
62
0
0
CIRCLE
8
Undeflected
10
577.850000
20
6.350000
30
0.0
40
2.050000
62
0
0
CIRCLE
8
Undeflected
10
590.550000
20
6.350000
30
0.0
40
2.050000
62
0
0
CIRCLE
8
Undeflected
10
603.250000
20
6.350000
30
0.0
40
2.050000
62
0
0
CIRCLE
8
Undeflected
10
615.950000
20
6.350000
30
0.0
40
2.050000
62
0
0
CIRCLE
8
Undeflected
10
628.650000
20
6.350000
30
0.0
40
2.050000
62
0
0
LINE
8
Undeflected
10
635.000000
20
0.000000
11
635.000000
21
203.200000
62
0
0
CIRCLE
8
Undeflected
10
628.650000
20
19.050000
30
0.0
40
2.050000
62
0
0
CIRCLE
8
Undeflected
10
628.650000
20
31.750000
30
0.0
40
2.050000
62
0
0
CIRCLE
8
Undeflected
10
628.650000
20
44.450000
30
0.0
40
2.050000
62
0
0
CIRCLE
8
Undeflected
10
628.650000
20
57.150000
30
0.0
40
2.050000
62
0
0
CIRCLE
8
Undeflected
10
628.650000
20
69.850000
30
0.0
40
2.050000
62
0
0
CIRCLE
8
Undeflected
10
628.650000
20
82.550000
30
0.0
40
2.050000
62
0
0
CIRCLE
8
Undeflected
10
628.650000
20
95.250000
30
0.0
40
2.050000
62
0
0
CIRCLE
8
Undeflected
10
628.650000
20
107.950000
30
0.0
40
2.050000
62
0
0
CIRCLE
8
Undeflected
10
628.650000
20
120.650000
30
0.0
40
2.050000
62
0
0
CIRCLE
8
Undeflected
10
628.650000
20
133.350000
30
0.0
40
2.050000
62
0
0
CIRCLE
8
Undeflected
10
628.650000
20
146.050000
30
0.0
40
2.050000
62
0
0
CIRCLE
8
Undeflected
10
628.650000
20
158.750000
30
0.0
40
2.050000
62
0
0
CIRCLE
8
Undeflected
10
628.650000
20
171.450000
30
0.0
40
2.050000
62
0
0
CIRCLE
8
Undeflected
10
628.650000
20
184.150000
30
0.0
40
2.050000
62
0
0
CIRCLE
8
Undeflected
10
628.650000
20
196.850000
30
0.0
40
2.050000
62
0
0
LINE
8
Undeflected
10
635.000000
20
203.200000
11
317.500000
21
203.200000
62
0
0
CIRCLE
8
Undeflected
10
615.950000
20
196.850000
30
0.0
40
2.050000
62
4
0
CIRCLE
8
Undeflected
10
603.250000
20
196.850000
30
0.0
40
2.050000
62
4
0
CIRCLE
8
Undeflected
10
590.550000
20
196.850000
30
0.0
40
2.050000
62
4
0
CIRCLE
8
Undeflected
10
577.850000
20
196.850000
30
0.0
40
2.050000
62
4
0
CIRCLE
8
Undeflected
10
565.150000
20
196.850000
30
0.0
40
2.050000
62
4
0
CIRCLE
8
Undeflected
10
552.450000
20
196.850000
30
0.0
40
2.050000
62
4
0
CIRCLE
8
Undeflected
10
539.750000
20
196.850000
30
0.0
40
2.050000
62
4
0
CIRCLE
8
Undeflected
10
527.050000
20
196.850000
30
0.0
40
2.050000
62
4
0
CIRCLE
8
Undeflected
10
514.350000
20
196.850000
30
0.0
40
2.050000
62
4
0
CIRCLE
8
Undeflected
10
501.650000
20
196.850000
30
0.0
40
2.050000
62
4
0
CIRCLE
8
Undeflected
10
488.950000
20
196.850000
30
0.0
40
2.050000
62
4
0
CIRCLE
8
Undeflected
10
476.250000
20
196.850000
30
0.0
40
2.050000
62
4
0
CIRCLE
8
Undeflected
10
463.550000
20
196.850000
30
0.0
40
2.050000
62
4
0
CIRCLE
8
Undeflected
10
450.850000
20
196.850000
30
0.0
40
2.050000
62
4
0
CIRCLE
8
Undeflected
10
438.150000
20
196.850000
30
0.0
40
2.050000
62
4
0
CIRCLE
8
Undeflected
10
425.450000
20
196.850000
30
0.0
40
2.050000
62
4
0
CIRCLE
8
Undeflected
10
412.750000
20
196.850000
30
0.0
40
2.050000
62
4
0
CIRCLE
8
Undeflected
10
400.050000
20
196.850000
30
0.0
40
2.050000
62
4
0
CIRCLE
8
Undeflected
10
387.350000
20
196.850000
30
0.0
40
2.050000
62
4
0
CIRCLE
8
Undeflected
10
374.650000
20
196.850000
30
0.0
40
2.050000
62
4
0
CIRCLE
8
Undeflected
10
361.950000
20
196.850000
30
0.0
40
2.050000
62
4
0
CIRCLE
8
Undeflected
10
349.250000
20
196.850000
30
0.0
40
2.050000
62
4
0
CIRCLE
8
Undeflected
10
336.550000
20
196.850000
30
0.0
40
2.050000
62
4
0
CIRCLE
8
Undeflected
10
323.850000
20
196.850000
30
0.0
40
2.050000
62
4
0
LINE
8
Undeflected
10
317.500000
20
203.200000
11
317.500000
21
0.000000
62
0
0
CIRCLE
8
Undeflected
10
323.850000
20
184.150000
30
0.0
40
2.050000
62
5
0
CIRCLE
8
Undeflected
10
323.850000
20
171.450000
30
0.0
40
2.050000
62
5
0
CIRCLE
8
Undeflected
10
323.850000
20
158.750000
30
0.0
40
2.050000
62
5
0
CIRCLE
8
Undeflected
10
323.850000
20
146.050000
30
0.0
40
2.050000
62
5
0
CIRCLE
8
Undeflected
10
323.850000
20
133.350000
30
0.0
40
2.050000
62
5
0
CIRCLE
8
Undeflected
10
323.850000
20
120.650000
30
0.0
40
2.050000
62
5
0
CIRCLE
8
Undeflected
10
323.850000
20
107.950000
30
0.0
40
2.050000
62
5
0
CIRCLE
8
Undeflected
10
323.850000
20
95.250000
30
0.0
40
2.050000
62
5
0
CIRCLE
8
Undeflected
10
323.850000
20
82.550000
30
0.0
40
2.050000
62
5
0
CIRCLE
8
Undeflected
10
323.850000
20
69.850000
30
0.0
40
2.050000
62
5
0
CIRCLE
8
Undeflected
10
323.850000
20
57.150000
30
0.0
40
2.050000
62
5
0
CIRCLE
8
Undeflected
10
323.850000
20
44.450000
30
0.0
40
2.050000
62
5
0
CIRCLE
8
Undeflected
10
323.850000
20
31.750000
30
0.0
40
2.050000
62
5
0
CIRCLE
8
Undeflected
10
323.850000
20
19.050000
30
0.0
40
2.050000
62
5
0
LINE
8
Undeflected
10
317.500000
20
203.200000
11
635.000000
21
203.200000
62
0
0
CIRCLE
8
Undeflected
10
323.850000
20
209.550000
30
0.0
40
2.050000
62
0
0
CIRCLE
8
Undeflected
10
336.550000
20
209.550000
30
0.0
40
2.050000
62
0
0
CIRCLE
8
Undeflected
10
349.250000
20
209.550000
30
0.0
40
2.050000
62
0
0
CIRCLE
8
Undeflected
10
361.950000
20
209.550000
30
0.0
40
2.050000
62
0
0
CIRCLE
8
Undeflected
10
374.650000
20
209.550000
30
0.0
40
2.050000
62
0
0
CIRCLE
8
Undeflected
10
387.350000
20
209.550000
30
0.0
40
2.050000
62
0
0
CIRCLE
8
Undeflected
10
400.050000
20
209.550000
30
0.0
40
2.050000
62
0
0
CIRCLE
8
Undeflected
10
412.750000
20
209.550000
30
0.0
40
2.050000
62
0
0
CIRCLE
8
Undeflected
10
425.450000
20
209.550000
30
0.0
40
2.050000
62
0
0
CIRCLE
8
Undeflected
10
438.150000
20
209.550000
30
0.0
40
2.050000
62
0
0
CIRCLE
8
Undeflected
10
450.850000
20
209.550000
30
0.0
40
2.050000
62
0
0
CIRCLE
8
Undeflected
10
463.550000
20
209.550000
30
0.0
40
2.050000
62
0
0
CIRCLE
8
Undeflected
10
476.250000
20
209.550000
30
0.0
40
2.050000
62
0
0
CIRCLE
8
Undeflected
10
488.950000
20
209.550000
30
0.0
40
2.050000
62
0
0
CIRCLE
8
Undeflected
10
501.650000
20
209.550000
30
0.0
40
2.050000
62
0
0
CIRCLE
8
Undeflected
10
514.350000
20
209.550000
30
0.0
40
2.050000
62
0
0
CIRCLE
8
Undeflected
10
527.050000
20
209.550000
30
0.0
40
2.050000
62
0
0
CIRCLE
8
Undeflected
10
539.750000
20
209.550000
30
0.0
40
2.050000
62
0
0
CIRCLE
8
Undeflected
10
552.450000
20
209.550000
30
0.0
40
2.050000
62
0
0
CIRCLE
8
Undeflected
10
565.150000
20
209.550000
30
0.0
40
2.050000
62
0
0
CIRCLE
8
Undeflected
10
577.850000
20
209.550000
30
0.0
40
2.050000
62
0
0
CIRCLE
8
Undeflected
10
590.550000
20
209.550000
30
0.0
40
2.050000
62
0
0
CIRCLE
8
Undeflected
10
603.250000
20
209.550000
30
0.0
40
2.050000
62
0
0
CIRCLE
8
Undeflected
10
615.950000
20
209.550000
30
0.0
40
2.050000
62
0
0
CIRCLE
8
Undeflected
10
628.650000
20
209.550000
30
0.0
40
2.050000
62
0
0
LINE
8
Undeflected
10
635.000000
20
203.200000
11
635.000000
21
330.200000
62
0
0
CIRCLE
8
Undeflected
10
628.650000
20
222.250000
30
0.0
40
2.050000
62
0
0
CIRCLE
8
Undeflected
10
628.650000
20
234.950000
30
0.0
40
2.050000
62
0
0
CIRCLE
8
Undeflected
10
628.650000
20
247.650000
30
0.0
40
2.050000
62
0
0
CIRCLE
8
Undeflected
10
628.650000
20
260.350000
30
0.0
40
2.050000
62
0
0
CIRCLE
8
Undeflected
10
628.650000
20
273.050000
30
0.0
40
2.050000
62
0
0
CIRCLE
8
Undeflected
10
628.650000
20
285.750000
30
0.0
40
2.050000
62
0
0
CIRCLE
8
Undeflected
10
628.650000
20
298.450000
30
0.0
40
2.050000
62
0
0
CIRCLE
8
Undeflected
10
628.650000
20
311.150000
30
0.0
40
2.050000
62
0
0
CIRCLE
8
Undeflected
10
628.650000
20
323.850000
30
0.0
40
2.050000
62
0
0
LINE
8
Undeflected
10
635.000000
20
330.200000
11
317.500000
21
330.200000
62
0
0
CIRCLE
8
Undeflected
10
615.950000
20
323.850000
30
0.0
40
2.050000
62
4
0
CIRCLE
8
Undeflected
10
603.250000
20
323.850000
30
0.0
40
2.050000
62
4
0
CIRCLE
8
Undeflected
10
590.550000
20
323.850000
30
0.0
40
2.050000
62
4
0
CIRCLE
8
Undeflected
10
577.850000
20
323.850000
30
0.0
40
2.050000
62
4
0
CIRCLE
8
Undeflected
10
565.150000
20
323.850000
30
0.0
40
2.050000
62
4
0
CIRCLE
8
Undeflected
10
552.450000
20
323.850000
30
0.0
40
2.050000
62
4
0
CIRCLE
8
Undeflected
10
539.750000
20
323.850000
30
0.0
40
2.050000
62
4
0
CIRCLE
8
Undeflected
10
527.050000
20
323.850000
30
0.0
40
2.050000
62
4
0
CIRCLE
8
Undeflected
10
514.350000
20
323.850000
30
0.0
40
2.050000
62
4
0
CIRCLE
8
Undeflected
10
501.650000
20
323.850000
30
0.0
40
2.050000
62
4
0
CIRCLE
8
Undeflected
10
488.950000
20
323.850000
30
0.0
40
2.050000
62
4
0
CIRCLE
8
Undeflected
10
476.250000
20
323.850000
30
0.0
40
2.050000
62
4
0
CIRCLE
8
Undeflected
10
463.550000
20
323.850000
30
0.0
40
2.050000
62
4
0
CIRCLE
8
Undeflected
10
450.850000
20
323.850000
30
0.0
40
2.050000
62
4
0
CIRCLE
8
Undeflected
10
438.150000
20
323.850000
30
0.0
40
2.050000
62
4
0
CIRCLE
8
Undeflected
10
425.450000
20
323.850000
30
0.0
40
2.050000
62
4
0
CIRCLE
8
Undeflected
10
412.750000
20
323.850000
30
0.0
40
2.050000
62
4
0
CIRCLE
8
Undeflected
10
400.050000
20
323.850000
30
0.0
40
2.050000
62
4
0
CIRCLE
8
Undeflected
10
387.350000
20
323.850000
30
0.0
40
2.050000
62
4
0
CIRCLE
8
Undeflected
10
374.650000
20
323.850000
30
0.0
40
2.050000
62
4
0
CIRCLE
8
Undeflected
10
361.950000
20
323.850000
30
0.0
40
2.050000
62
4
0
CIRCLE
8
Undeflected
10
349.250000
20
323.850000
30
0.0
40
2.050000
62
4
0
CIRCLE
8
Undeflected
10
336.550000
20
323.850000
30
0.0
40
2.050000
62
4
0
CIRCLE
8
Undeflected
10
323.850000
20
323.850000
30
0.0
40
2.050000
62
4
0
LINE
8
Undeflected
10
317.500000
20
330.200000
11
317.500000
21
203.200000
62
0
0
CIRCLE
8
Undeflected
10
323.850000
20
311.150000
30
0.0
40
2.050000
62
5
0
CIRCLE
8
Undeflected
10
323.850000
20
298.450000
30
0.0
40
2.050000
62
5
0
CIRCLE
8
Undeflected
10
323.850000
20
285.750000
30
0.0
40
2.050000
62
5
0
CIRCLE
8
Undeflected
10
323.850000
20
273.050000
30
0.0
40
2.050000
62
5
0
CIRCLE
8
Undeflected
10
323.850000
20
260.350000
30
0.0
40
2.050000
62
5
0
CIRCLE
8
Undeflected
10
323.850000
20
247.650000
30
0.0
40
2.050000
62
5
0
CIRCLE
8
Undeflected
10
323.850000
20
234.950000
30
0.0
40
2.050000
62
5
0
CIRCLE
8
Undeflected
10
323.850000
20
222.250000
30
0.0
40
2.050000
62
5
0
LINE
8
Undeflected
10
317.500000
20
330.200000
11
635.000000
21
330.200000
62
0
0
CIRCLE
8
Undeflected
10
323.850000
20
336.550000
30
0.0
40
2.050000
62
0
0
CIRCLE
8
Undeflected
10
336.550000
20
336.550000
30
0.0
40
2.050000
62
0
0
CIRCLE
8
Undeflected
10
349.250000
20
336.550000
30
0.0
40
2.050000
62
0
0
CIRCLE
8
Undeflected
10
361.950000
20
336.550000
30
0.0
40
2.050000
62
0
0
CIRCLE
8
Undeflected
10
374.650000
20
336.550000
30
0.0
40
2.050000
62
0
0
CIRCLE
8
Undeflected
10
387.350000
20
336.550000
30
0.0
40
2.050000
62
0
0
CIRCLE
8
Undeflected
10
400.050000
20
336.550000
30
0.0
40
2.050000
62
0
0
CIRCLE
8
Undeflected
10
412.750000
20
336.550000
30
0.0
40
2.050000
62
0
0
CIRCLE
8
Undeflected
10
425.450000
20
336.550000
30
0.0
40
2.050000
62
0
0
CIRCLE
8
Undeflected
10
438.150000
20
336.550000
30
0.0
40
2.050000
62
0
0
CIRCLE
8
Undeflected
10
450.850000
20
336.550000
30
0.0
40
2.050000
62
0
0
CIRCLE
8
Undeflected
10
463.550000
20
336.550000
30
0.0
40
2.050000
62
0
0
CIRCLE
8
Undeflected
10
476.250000
20
336.550000
30
0.0
40
2.050000
62
0
0
CIRCLE
8
Undeflected
10
488.950000
20
336.550000
30
0.0
40
2.050000
62
0
0
CIRCLE
8
Undeflected
10
501.650000
20
336.550000
30
0.0
40
2.050000
62
0
0
CIRCLE
8
Undeflected
10
514.350000
20
336.550000
30
0.0
40
2.050000
62
0
0
CIRCLE
8
Undeflected
10
527.050000
20
336.550000
30
0.0
40
2.050000
62
0
0
CIRCLE
8
Undeflected
10
539.750000
20
336.550000
30
0.0
40
2.050000
62
0
0
CIRCLE
8
Undeflected
10
552.450000
20
336.550000
30
0.0
40
2.050000
62
0
0
CIRCLE
8
Undeflected
10
565.150000
20
336.550000
30
0.0
40
2.050000
62
0
0
CIRCLE
8
Undeflected
10
577.850000
20
336.550000
30
0.0
40
2.050000
62
0
0
CIRCLE
8
Undeflected
10
590.550000
20
336.550000
30
0.0
40
2.050000
62
0
0
CIRCLE
8
Undeflected
10
603.250000
20
336.550000
30
0.0
40
2.050000
62
0
0
CIRCLE
8
Undeflected
10
615.950000
20
336.550000
30
0.0
40
2.050000
62
0
0
CIRCLE
8
Undeflected
10
628.650000
20
336.550000
30
0.0
40
2.050000
62
0
0
LINE
8
Undeflected
10
635.000000
20
330.200000
11
635.000000
21
469.900000
62
0
0
CIRCLE
8
Undeflected
10
628.650000
20
349.250000
30
0.0
40
2.050000
62
0
0
CIRCLE
8
Undeflected
10
628.650000
20
361.950000
30
0.0
40
2.050000
62
0
0
CIRCLE
8
Undeflected
10
628.650000
20
374.650000
30
0.0
40
2.050000
62
0
0
CIRCLE
8
Undeflected
10
628.650000
20
387.350000
30
0.0
40
2.050000
62
0
0
CIRCLE
8
Undeflected
10
628.650000
20
400.050000
30
0.0
40
2.050000
62
0
0
CIRCLE
8
Undeflected
10
628.650000
20
412.750000
30
0.0
40
2.050000
62
0
0
CIRCLE
8
Undeflected
10
628.650000
20
425.450000
30
0.0
40
2.050000
62
0
0
CIRCLE
8
Undeflected
10
628.650000
20
438.150000
30
0.0
40
2.050000
62
0
0
CIRCLE
8
Undeflected
10
628.650000
20
450.850000
30
0.0
40
2.050000
62
0
0
CIRCLE
8
Undeflected
10
628.650000
20
463.550000
30
0.0
40
2.050000
62
0
0
LINE
8
Undeflected
10
635.000000
20
469.900000
11
317.500000
21
469.900000
62
0
0
CIRCLE
8
Undeflected
10
615.950000
20
463.550000
30
0.0
40
2.050000
62
4
0
CIRCLE
8
Undeflected
10
603.250000
20
463.550000
30
0.0
40
2.050000
62
4
0
CIRCLE
8
Undeflected
10
590.550000
20
463.550000
30
0.0
40
2.050000
62
4
0
CIRCLE
8
Undeflected
10
577.850000
20
463.550000
30
0.0
40
2.050000
62
4
0
CIRCLE
8
Undeflected
10
565.150000
20
463.550000
30
0.0
40
2.050000
62
4
0
CIRCLE
8
Undeflected
10
552.450000
20
463.550000
30
0.0
40
2.050000
62
4
0
CIRCLE
8
Undeflected
10
539.750000
20
463.550000
30
0.0
40
2.050000
62
4
0
CIRCLE
8
Undeflected
10
527.050000
20
463.550000
30
0.0
40
2.050000
62
4
0
CIRCLE
8
Undeflected
10
514.350000
20
463.550000
30
0.0
40
2.050000
62
4
0
CIRCLE
8
Undeflected
10
501.650000
20
463.550000
30
0.0
40
2.050000
62
4
0
CIRCLE
8
Undeflected
10
488.950000
20
463.550000
30
0.0
40
2.050000
62
4
0
CIRCLE
8
Undeflected
10
476.250000
20
463.550000
30
0.0
40
2.050000
62
4
0
CIRCLE
8
Undeflected
10
463.550000
20
463.550000
30
0.0
40
2.050000
62
4
0
CIRCLE
8
Undeflected
10
450.850000
20
463.550000
30
0.0
40
2.050000
62
4
0
CIRCLE
8
Undeflected
10
438.150000
20
463.550000
30
0.0
40
2.050000
62
4
0
CIRCLE
8
Undeflected
10
425.450000
20
463.550000
30
0.0
40
2.050000
62
4
0
CIRCLE
8
Undeflected
10
412.750000
20
463.550000
30
0.0
40
2.050000
62
4
0
CIRCLE
8
Undeflected
10
400.050000
20
463.550000
30
0.0
40
2.050000
62
4
0
CIRCLE
8
Undeflected
10
387.350000
20
463.550000
30
0.0
40
2.050000
62
4
0
CIRCLE
8
Undeflected
10
374.650000
20
463.550000
30
0.0
40
2.050000
62
4
0
CIRCLE
8
Undeflected
10
361.950000
20
463.550000
30
0.0
40
2.050000
62
4
0
CIRCLE
8
Undeflected
10
349.250000
20
463.550000
30
0.0
40
2.050000
62
4
0
CIRCLE
8
Undeflected
10
336.550000
20
463.550000
30
0.0
40
2.050000
62
4
0
CIRCLE
8
Undeflected
10
323.850000
20
463.550000
30
0.0
40
2.050000
62
4
0
LINE
8
Undeflected
10
317.500000
20
469.900000
11
317.500000
21
330.200000
62
0
0
CIRCLE
8
Undeflected
10
323.850000
20
450.850000
30
0.0
40
2.050000
62
5
0
CIRCLE
8
Undeflected
10
323.850000
20
438.150000
30
0.0
40
2.050000
62
5
0
CIRCLE
8
Undeflected
10
323.850000
20
425.450000
30
0.0
40
2.050000
62
5
0
CIRCLE
8
Undeflected
10
323.850000
20
412.750000
30
0.0
40
2.050000
62
5
0
CIRCLE
8
Undeflected
10
323.850000
20
400.050000
30
0.0
40
2.050000
62
5
0
CIRCLE
8
Undeflected
10
323.850000
20
387.350000
30
0.0
40
2.050000
62
5
0
CIRCLE
8
Undeflected
10
323.850000
20
374.650000
30
0.0
40
2.050000
62
5
0
CIRCLE
8
Undeflected
10
323.850000
20
361.950000
30
0.0
40
2.050000
62
5
0
CIRCLE
8
Undeflected
10
323.850000
20
349.250000
30
0.0
40
2.050000
62
5
0
LINE
8
Undeflected
10
317.500000
20
469.900000
11
635.000000
21
469.900000
62
0
0
CIRCLE
8
Undeflected
10
323.850000
20
476.250000
30
0.0
40
2.050000
62
0
0
CIRCLE
8
Undeflected
10
336.550000
20
476.250000
30
0.0
40
2.050000
62
0
0
CIRCLE
8
Undeflected
10
349.250000
20
476.250000
30
0.0
40
2.050000
62
0
0
CIRCLE
8
Undeflected
10
361.950000
20
476.250000
30
0.0
40
2.050000
62
0
0
CIRCLE
8
Undeflected
10
374.650000
20
476.250000
30
0.0
40
2.050000
62
0
0
CIRCLE
8
Undeflected
10
387.350000
20
476.250000
30
0.0
40
2.050000
62
0
0
CIRCLE
8
Undeflected
10
400.050000
20
476.250000
30
0.0
40
2.050000
62
0
0
CIRCLE
8
Undeflected
10
412.750000
20
476.250000
30
0.0
40
2.050000
62
0
0
CIRCLE
8
Undeflected
10
425.450000
20
476.250000
30
0.0
40
2.050000
62
0
0
CIRCLE
8
Undeflected
10
438.150000
20
476.250000
30
0.0
40
2.050000
62
0
0
CIRCLE
8
Undeflected
10
450.850000
20
476.250000
30
0.0
40
2.050000
62
0
0
CIRCLE
8
Undeflected
10
463.550000
20
476.250000
30
0.0
40
2.050000
62
0
0
CIRCLE
8
Undeflected
10
476.250000
20
476.250000
30
0.0
40
2.050000
62
0
0
CIRCLE
8
Undeflected
10
488.950000
20
476.250000
30
0.0
40
2.050000
62
0
0
CIRCLE
8
Undeflected
10
501.650000
20
476.250000
30
0.0
40
2.050000
62
0
0
CIRCLE
8
Undeflected
10
514.350000
20
476.250000
30
0.0
40
2.050000
62
0
0
CIRCLE
8
Undeflected
10
527.050000
20
476.250000
30
0.0
40
2.050000
62
0
0
CIRCLE
8
Undeflected
10
539.750000
20
476.250000
30
0.0
40
2.050000
62
0
0
CIRCLE
8
Undeflected
10
552.450000
20
476.250000
30
0.0
40
2.050000
62
0
0
CIRCLE
8
Undeflected
10
565.150000
20
476.250000
30
0.0
40
2.050000
62
0
0
CIRCLE
8
Undeflected
10
577.850000
20
476.250000
30
0.0
40
2.050000
62
0
0
CIRCLE
8
Undeflected
10
590.550000
20
476.250000
30
0.0
40
2.050000
62
0
0
CIRCLE
8
Undeflected
10
603.250000
20
476.250000
30
0.0
40
2.050000
62
0
0
CIRCLE
8
Undeflected
10
615.950000
20
476.250000
30
0.0
40
2.050000
62
0
0
CIRCLE
8
Undeflected
10
628.650000
20
476.250000
30
0.0
40
2.050000
62
0
0
LINE
8
Undeflected
10
635.000000
20
469.900000
11
635.000000
21
596.900000
62
0
0
CIRCLE
8
Undeflected
10
628.650000
20
488.950000
30
0.0
40
2.050000
62
0
0
CIRCLE
8
Undeflected
10
628.650000
20
501.650000
30
0.0
40
2.050000
62
0
0
CIRCLE
8
Undeflected
10
628.650000
20
514.350000
30
0.0
40
2.050000
62
0
0
CIRCLE
8
Undeflected
10
628.650000
20
527.050000
30
0.0
40
2.050000
62
0
0
CIRCLE
8
Undeflected
10
628.650000
20
539.750000
30
0.0
40
2.050000
62
0
0
CIRCLE
8
Undeflected
10
628.650000
20
552.450000
30
0.0
40
2.050000
62
0
0
CIRCLE
8
Undeflected
10
628.650000
20
565.150000
30
0.0
40
2.050000
62
0
0
CIRCLE
8
Undeflected
10
628.650000
20
577.850000
30
0.0
40
2.050000
62
0
0
CIRCLE
8
Undeflected
10
628.650000
20
590.550000
30
0.0
40
2.050000
62
0
0
LINE
8
Undeflected
10
635.000000
20
596.900000
11
317.500000
21
596.900000
62
0
0
CIRCLE
8
Undeflected
10
615.950000
20
590.550000
30
0.0
40
2.050000
62
4
0
CIRCLE
8
Undeflected
10
603.250000
20
590.550000
30
0.0
40
2.050000
62
4
0
CIRCLE
8
Undeflected
10
590.550000
20
590.550000
30
0.0
40
2.050000
62
4
0
CIRCLE
8
Undeflected
10
577.850000
20
590.550000
30
0.0
40
2.050000
62
4
0
CIRCLE
8
Undeflected
10
565.150000
20
590.550000
30
0.0
40
2.050000
62
4
0
CIRCLE
8
Undeflected
10
552.450000
20
590.550000
30
0.0
40
2.050000
62
4
0
CIRCLE
8
Undeflected
10
539.750000
20
590.550000
30
0.0
40
2.050000
62
4
0
CIRCLE
8
Undeflected
10
527.050000
20
590.550000
30
0.0
40
2.050000
62
4
0
CIRCLE
8
Undeflected
10
514.350000
20
590.550000
30
0.0
40
2.050000
62
4
0
CIRCLE
8
Undeflected
10
501.650000
20
590.550000
30
0.0
40
2.050000
62
4
0
CIRCLE
8
Undeflected
10
488.950000
20
590.550000
30
0.0
40
2.050000
62
4
0
CIRCLE
8
Undeflected
10
476.250000
20
590.550000
30
0.0
40
2.050000
62
4
0
CIRCLE
8
Undeflected
10
463.550000
20
590.550000
30
0.0
40
2.050000
62
4
0
CIRCLE
8
Undeflected
10
450.850000
20
590.550000
30
0.0
40
2.050000
62
4
0
CIRCLE
8
Undeflected
10
438.150000
20
590.550000
30
0.0
40
2.050000
62
4
0
CIRCLE
8
Undeflected
10
425.450000
20
590.550000
30
0.0
40
2.050000
62
4
0
CIRCLE
8
Undeflected
10
412.750000
20
590.550000
30
0.0
40
2.050000
62
4
0
CIRCLE
8
Undeflected
10
400.050000
20
590.550000
30
0.0
40
2.050000
62
4
0
CIRCLE
8
Undeflected
10
387.350000
20
590.550000
30
0.0
40
2.050000
62
4
0
CIRCLE
8
Undeflected
10
374.650000
20
590.550000
30
0.0
40
2.050000
62
4
0
CIRCLE
8
Undeflected
10
361.950000
20
590.550000
30
0.0
40
2.050000
62
4
0
CIRCLE
8
Undeflected
10
349.250000
20
590.550000
30
0.0
40
2.050000
62
4
0
CIRCLE
8
Undeflected
10
336.550000
20
590.550000
30
0.0
40
2.050000
62
4
0
CIRCLE
8
Undeflected
10
323.850000
20
590.550000
30
0.0
40
2.050000
62
4
0
LINE
8
Undeflected
10
317.500000
20
596.900000
11
317.500000
21
469.900000
62
0
0
CIRCLE
8
Undeflected
10
323.850000
20
577.850000
30
0.0
40
2.050000
62
5
0
CIRCLE
8
Undeflected
10
323.850000
20
565.150000
30
0.0
40
2.050000
62
5
0
CIRCLE
8
Undeflected
10
323.850000
20
552.450000
30
0.0
40
2.050000
62
5
0
CIRCLE
8
Undeflected
10
323.850000
20
539.750000
30
0.0
40
2.050000
62
5
0
CIRCLE
8
Undeflected
10
323.850000
20
527.050000
30
0.0
40
2.050000
62
5
0
CIRCLE
8
Undeflected
10
323.850000
20
514.350000
30
0.0
40
2.050000
62
5
0
CIRCLE
8
Undeflected
10
323.850000
20
501.650000
30
0.0
40
2.050000
62
5
0
CIRCLE
8
Undeflected
10
323.850000
20
488.950000
30
0.0
40
2.050000
62
5
0
LINE
8
Undeflected
10
635.000000
20
0.000000
11
952.500000
21
0.000000
62
0
0
CIRCLE
8
Undeflected
10
641.350000
20
6.350000
30
0.0
40
2.050000
62
0
0
CIRCLE
8
Undeflected
10
654.050000
20
6.350000
30
0.0
40
2.050000
62
0
0
CIRCLE
8
Undeflected
10
666.750000
20
6.350000
30
0.0
40
2.050000
62
0
0
CIRCLE
8
Undeflected
10
679.450000
20
6.350000
30
0.0
40
2.050000
62
0
0
CIRCLE
8
Undeflected
10
692.150000
20
6.350000
30
0.0
40
2.050000
62
0
0
CIRCLE
8
Undeflected
10
704.850000
20
6.350000
30
0.0
40
2.050000
62
0
0
CIRCLE
8
Undeflected
10
717.550000
20
6.350000
30
0.0
40
2.050000
62
0
0
CIRCLE
8
Undeflected
10
730.250000
20
6.350000
30
0.0
40
2.050000
62
0
0
CIRCLE
8
Undeflected
10
742.950000
20
6.350000
30
0.0
40
2.050000
62
0
0
CIRCLE
8
Undeflected
10
755.650000
20
6.350000
30
0.0
40
2.050000
62
0
0
CIRCLE
8
Undeflected
10
768.350000
20
6.350000
30
0.0
40
2.050000
62
0
0
CIRCLE
8
Undeflected
10
781.050000
20
6.350000
30
0.0
40
2.050000
62
0
0
CIRCLE
8
Undeflected
10
793.750000
20
6.350000
30
0.0
40
2.050000
62
0
0
CIRCLE
8
Undeflected
10
806.450000
20
6.350000
30
0.0
40
2.050000
62
0
0
CIRCLE
8
Undeflected
10
819.150000
20
6.350000
30
0.0
40
2.050000
62
0
0
CIRCLE
8
Undeflected
10
831.850000
20
6.350000
30
0.0
40
2.050000
62
0
0
CIRCLE
8
Undeflected
10
844.550000
20
6.350000
30
0.0
40
2.050000
62
0
0
CIRCLE
8
Undeflected
10
857.250000
20
6.350000
30
0.0
40
2.050000
62
0
0
CIRCLE
8
Undeflected
10
869.950000
20
6.350000
30
0.0
40
2.050000
62
0
0
CIRCLE
8
Undeflected
10
882.650000
20
6.350000
30
0.0
40
2.050000
62
0
0
CIRCLE
8
Undeflected
10
895.350000
20
6.350000
30
0.0
40
2.050000
62
0
0
CIRCLE
8
Undeflected
10
908.050000
20
6.350000
30
0.0
40
2.050000
62
0
0
CIRCLE
8
Undeflected
10
920.750000
20
6.350000
30
0.0
40
2.050000
62
0
0
CIRCLE
8
Undeflected
10
933.450000
20
6.350000
30
0.0
40
2.050000
62
0
0
CIRCLE
8
Undeflected
10
946.150000
20
6.350000
30
0.0
40
2.050000
62
0
0
LINE
8
Undeflected
10
952.500000
20
0.000000
11
952.500000
21
203.200000
62
0
0
CIRCLE
8
Undeflected
10
946.150000
20
19.050000
30
0.0
40
2.050000
62
0
0
CIRCLE
8
Undeflected
10
946.150000
20
31.750000
30
0.0
40
2.050000
62
0
0
CIRCLE
8
Undeflected
10
946.150000
20
44.450000
30
0.0
40
2.050000
62
0
0
CIRCLE
8
Undeflected
10
946.150000
20
57.150000
30
0.0
40
2.050000
62
0
0
CIRCLE
8
Undeflected
10
946.150000
20
69.850000
30
0.0
40
2.050000
62
0
0
CIRCLE
8
Undeflected
10
946.150000
20
82.550000
30
0.0
40
2.050000
62
0
0
CIRCLE
8
Undeflected
10
946.150000
20
95.250000
30
0.0
40
2.050000
62
0
0
CIRCLE
8
Undeflected
10
946.150000
20
107.950000
30
0.0
40
2.050000
62
0
0
CIRCLE
8
Undeflected
10
946.150000
20
120.650000
30
0.0
40
2.050000
62
0
0
CIRCLE
8
Undeflected
10
946.150000
20
133.350000
30
0.0
40
2.050000
62
0
0
CIRCLE
8
Undeflected
10
946.150000
20
146.050000
30
0.0
40
2.050000
62
0
0
CIRCLE
8
Undeflected
10
946.150000
20
158.750000
30
0.0
40
2.050000
62
0
0
CIRCLE
8
Undeflected
10
946.150000
20
171.450000
30
0.0
40
2.050000
62
0
0
CIRCLE
8
Undeflected
10
946.150000
20
184.150000
30
0.0
40
2.050000
62
0
0
CIRCLE
8
Undeflected
10
946.150000
20
196.850000
30
0.0
40
2.050000
62
0
0
LINE
8
Undeflected
10
952.500000
20
203.200000
11
635.000000
21
203.200000
62
0
0
CIRCLE
8
Undeflected
10
933.450000
20
196.850000
30
0.0
40
2.050000
62
4
0
CIRCLE
8
Undeflected
10
920.750000
20
196.850000
30
0.0
40
2.050000
62
4
0
CIRCLE
8
Undeflected
10
908.050000
20
196.850000
30
0.0
40
2.050000
62
4
0
CIRCLE
8
Undeflected
10
895.350000
20
196.850000
30
0.0
40
2.050000
62
4
0
CIRCLE
8
Undeflected
10
882.650000
20
196.850000
30
0.0
40
2.050000
62
4
0
CIRCLE
8
Undeflected
10
869.950000
20
196.850000
30
0.0
40
2.050000
62
4
0
CIRCLE
8
Undeflected
10
857.250000
20
196.850000
30
0.0
40
2.050000
62
4
0
CIRCLE
8
Undeflected
10
844.550000
20
196.850000
30
0.0
40
2.050000
62
4
0
CIRCLE
8
Undeflected
10
831.850000
20
196.850000
30
0.0
40
2.050000
62
4
0
CIRCLE
8
Undeflected
10
819.150000
20
196.850000
30
0.0
40
2.050000
62
4
0
CIRCLE
8
Undeflected
10
806.450000
20
196.850000
30
0.0
40
2.050000
62
4
0
CIRCLE
8
Undeflected
10
793.750000
20
196.850000
30
0.0
40
2.050000
62
4
0
CIRCLE
8
Undeflected
10
781.050000
20
196.850000
30
0.0
40
2.050000
62
4
0
CIRCLE
8
Undeflected
10
768.350000
20
196.850000
30
0.0
40
2.050000
62
4
0
CIRCLE
8
Undeflected
10
755.650000
20
196.850000
30
0.0
40
2.050000
62
4
0
CIRCLE
8
Undeflected
10
742.950000
20
196.850000
30
0.0
40
2.050000
62
4
0
CIRCLE
8
Undeflected
10
730.250000
20
196.850000
30
0.0
40
2.050000
62
4
0
CIRCLE
8
Undeflected
10
717.550000
20
196.850000
30
0.0
40
2.050000
62
4
0
CIRCLE
8
Undeflected
10
704.850000
20
196.850000
30
0.0
40
2.050000
62
4
0
CIRCLE
8
Undeflected
10
692.150000
20
196.850000
30
0.0
40
2.050000
62
4
0
CIRCLE
8
Undeflected
10
679.450000
20
196.850000
30
0.0
40
2.050000
62
4
0
CIRCLE
8
Undeflected
10
666.750000
20
196.850000
30
0.0
40
2.050000
62
4
0
CIRCLE
8
Undeflected
10
654.050000
20
196.850000
30
0.0
40
2.050000
62
4
0
CIRCLE
8
Undeflected
10
641.350000
20
196.850000
30
0.0
40
2.050000
62
4
0
LINE
8
Undeflected
10
635.000000
20
203.200000
11
635.000000
21
0.000000
62
0
0
CIRCLE
8
Undeflected
10
641.350000
20
184.150000
30
0.0
40
2.050000
62
5
0
CIRCLE
8
Undeflected
10
641.350000
20
171.450000
30
0.0
40
2.050000
62
5
0
CIRCLE
8
Undeflected
10
641.350000
20
158.750000
30
0.0
40
2.050000
62
5
0
CIRCLE
8
Undeflected
10
641.350000
20
146.050000
30
0.0
40
2.050000
62
5
0
CIRCLE
8
Undeflected
10
641.350000
20
133.350000
30
0.0
40
2.050000
62
5
0
CIRCLE
8
Undeflected
10
641.350000
20
120.650000
30
0.0
40
2.050000
62
5
0
CIRCLE
8
Undeflected
10
641.350000
20
107.950000
30
0.0
40
2.050000
62
5
0
CIRCLE
8
Undeflected
10
641.350000
20
95.250000
30
0.0
40
2.050000
62
5
0
CIRCLE
8
Undeflected
10
641.350000
20
82.550000
30
0.0
40
2.050000
62
5
0
CIRCLE
8
Undeflected
10
641.350000
20
69.850000
30
0.0
40
2.050000
62
5
0
CIRCLE
8
Undeflected
10
641.350000
20
57.150000
30
0.0
40
2.050000
62
5
0
CIRCLE
8
Undeflected
10
641.350000
20
44.450000
30
0.0
40
2.050000
62
5
0
CIRCLE
8
Undeflected
10
641.350000
20
31.750000
30
0.0
40
2.050000
62
5
0
CIRCLE
8
Undeflected
10
641.350000
20
19.050000
30
0.0
40
2.050000
62
5
0
LINE
8
Undeflected
10
635.000000
20
203.200000
11
952.500000
21
203.200000
62
0
0
CIRCLE
8
Undeflected
10
641.350000
20
209.550000
30
0.0
40
2.050000
62
0
0
CIRCLE
8
Undeflected
10
654.050000
20
209.550000
30
0.0
40
2.050000
62
0
0
CIRCLE
8
Undeflected
10
666.750000
20
209.550000
30
0.0
40
2.050000
62
0
0
CIRCLE
8
Undeflected
10
679.450000
20
209.550000
30
0.0
40
2.050000
62
0
0
CIRCLE
8
Undeflected
10
692.150000
20
209.550000
30
0.0
40
2.050000
62
0
0
CIRCLE
8
Undeflected
10
704.850000
20
209.550000
30
0.0
40
2.050000
62
0
0
CIRCLE
8
Undeflected
10
717.550000
20
209.550000
30
0.0
40
2.050000
62
0
0
CIRCLE
8
Undeflected
10
730.250000
20
209.550000
30
0.0
40
2.050000
62
0
0
CIRCLE
8
Undeflected
10
742.950000
20
209.550000
30
0.0
40
2.050000
62
0
0
CIRCLE
8
Undeflected
10
755.650000
20
209.550000
30
0.0
40
2.050000
62
0
0
CIRCLE
8
Undeflected
10
768.350000
20
209.550000
30
0.0
40
2.050000
62
0
0
CIRCLE
8
Undeflected
10
781.050000
20
209.550000
30
0.0
40
2.050000
62
0
0
CIRCLE
8
Undeflected
10
793.750000
20
209.550000
30
0.0
40
2.050000
62
0
0
CIRCLE
8
Undeflected
10
806.450000
20
209.550000
30
0.0
40
2.050000
62
0
0
CIRCLE
8
Undeflected
10
819.150000
20
209.550000
30
0.0
40
2.050000
62
0
0
CIRCLE
8
Undeflected
10
831.850000
20
209.550000
30
0.0
40
2.050000
62
0
0
CIRCLE
8
Undeflected
10
844.550000
20
209.550000
30
0.0
40
2.050000
62
0
0
CIRCLE
8
Undeflected
10
857.250000
20
209.550000
30
0.0
40
2.050000
62
0
0
CIRCLE
8
Undeflected
10
869.950000
20
209.550000
30
0.0
40
2.050000
62
0
0
CIRCLE
8
Undeflected
10
882.650000
20
209.550000
30
0.0
40
2.050000
62
0
0
CIRCLE
8
Undeflected
10
895.350000
20
209.550000
30
0.0
40
2.050000
62
0
0
CIRCLE
8
Undeflected
10
908.050000
20
209.550000
30
0.0
40
2.050000
62
0
0
CIRCLE
8
Undeflected
10
920.750000
20
209.550000
30
0.0
40
2.050000
62
0
0
CIRCLE
8
Undeflected
10
933.450000
20
209.550000
30
0.0
40
2.050000
62
0
0
CIRCLE
8
Undeflected
10
946.150000
20
209.550000
30
0.0
40
2.050000
62
0
0
LINE
8
Undeflected
10
952.500000
20
203.200000
11
952.500000
21
330.200000
62
0
0
CIRCLE
8
Undeflected
10
946.150000
20
222.250000
30
0.0
40
2.050000
62
0
0
CIRCLE
8
Undeflected
10
946.150000
20
234.950000
30
0.0
40
2.050000
62
0
0
CIRCLE
8
Undeflected
10
946.150000
20
247.650000
30
0.0
40
2.050000
62
0
0
CIRCLE
8
Undeflected
10
946.150000
20
260.350000
30
0.0
40
2.050000
62
0
0
CIRCLE
8
Undeflected
10
946.150000
20
273.050000
30
0.0
40
2.050000
62
0
0
CIRCLE
8
Undeflected
10
946.150000
20
285.750000
30
0.0
40
2.050000
62
0
0
CIRCLE
8
Undeflected
10
946.150000
20
298.450000
30
0.0
40
2.050000
62
0
0
CIRCLE
8
Undeflected
10
946.150000
20
311.150000
30
0.0
40
2.050000
62
0
0
CIRCLE
8
Undeflected
10
946.150000
20
323.850000
30
0.0
40
2.050000
62
0
0
LINE
8
Undeflected
10
952.500000
20
330.200000
11
635.000000
21
330.200000
62
0
0
CIRCLE
8
Undeflected
10
933.450000
20
323.850000
30
0.0
40
2.050000
62
4
0
CIRCLE
8
Undeflected
10
920.750000
20
323.850000
30
0.0
40
2.050000
62
4
0
CIRCLE
8
Undeflected
10
908.050000
20
323.850000
30
0.0
40
2.050000
62
4
0
CIRCLE
8
Undeflected
10
895.350000
20
323.850000
30
0.0
40
2.050000
62
4
0
CIRCLE
8
Undeflected
10
882.650000
20
323.850000
30
0.0
40
2.050000
62
4
0
CIRCLE
8
Undeflected
10
869.950000
20
323.850000
30
0.0
40
2.050000
62
4
0
CIRCLE
8
Undeflected
10
857.250000
20
323.850000
30
0.0
40
2.050000
62
4
0
CIRCLE
8
Undeflected
10
844.550000
20
323.850000
30
0.0
40
2.050000
62
4
0
CIRCLE
8
Undeflected
10
831.850000
20
323.850000
30
0.0
40
2.050000
62
4
0
CIRCLE
8
Undeflected
10
819.150000
20
323.850000
30
0.0
40
2.050000
62
4
0
CIRCLE
8
Undeflected
10
806.450000
20
323.850000
30
0.0
40
2.050000
62
4
0
CIRCLE
8
Undeflected
10
793.750000
20
323.850000
30
0.0
40
2.050000
62
4
0
CIRCLE
8
Undeflected
10
781.050000
20
323.850000
30
0.0
40
2.050000
62
4
0
CIRCLE
8
Undeflected
10
768.350000
20
323.850000
30
0.0
40
2.050000
62
4
0
CIRCLE
8
Undeflected
10
755.650000
20
323.850000
30
0.0
40
2.050000
62
4
0
CIRCLE
8
Undeflected
10
742.950000
20
323.850000
30
0.0
40
2.050000
62
4
0
CIRCLE
8
Undeflected
10
730.250000
20
323.850000
30
0.0
40
2.050000
62
4
0
CIRCLE
8
Undeflected
10
717.550000
20
323.850000
30
0.0
40
2.050000
62
4
0
CIRCLE
8
Undeflected
10
704.850000
20
323.850000
30
0.0
40
2.050000
62
4
0
CIRCLE
8
Undeflected
10
692.150000
20
323.850000
30
0.0
40
2.050000
62
4
0
CIRCLE
8
Undeflected
10
679.450000
20
323.850000
30
0.0
40
2.050000
62
4
0
CIRCLE
8
Undeflected
10
666.750000
20
323.850000
30
0.0
40
2.050000
62
4
0
CIRCLE
8
Undeflected
10
654.050000
20
323.850000
30
0.0
40
2.050000
62
4
0
CIRCLE
8
Undeflected
10
641.350000
20
323.850000
30
0.0
40
2.050000
62
4
0
LINE
8
Undeflected
10
635.000000
20
330.200000
11
635.000000
21
203.200000
62
0
0
CIRCLE
8
Undeflected
10
641.350000
20
311.150000
30
0.0
40
2.050000
62
5
0
CIRCLE
8
Undeflected
10
641.350000
20
298.450000
30
0.0
40
2.050000
62
5
0
CIRCLE
8
Undeflected
10
641.350000
20
285.750000
30
0.0
40
2.050000
62
5
0
CIRCLE
8
Undeflected
10
641.350000
20
273.050000
30
0.0
40
2.050000
62
5
0
CIRCLE
8
Undeflected
10
641.350000
20
260.350000
30
0.0
40
2.050000
62
5
0
CIRCLE
8
Undeflected
10
641.350000
20
247.650000
30
0.0
40
2.050000
62
5
0
CIRCLE
8
Undeflected
10
641.350000
20
234.950000
30
0.0
40
2.050000
62
5
0
CIRCLE
8
Undeflected
10
641.350000
20
222.250000
30
0.0
40
2.050000
62
5
0
LINE
8
Undeflected
10
635.000000
20
330.200000
11
952.500000
21
330.200000
62
0
0
CIRCLE
8
Undeflected
10
641.350000
20
336.550000
30
0.0
40
2.050000
62
0
0
CIRCLE
8
Undeflected
10
654.050000
20
336.550000
30
0.0
40
2.050000
62
0
0
CIRCLE
8
Undeflected
10
666.750000
20
336.550000
30
0.0
40
2.050000
62
0
0
CIRCLE
8
Undeflected
10
679.450000
20
336.550000
30
0.0
40
2.050000
62
0
0
CIRCLE
8
Undeflected
10
692.150000
20
336.550000
30
0.0
40
2.050000
62
0
0
CIRCLE
8
Undeflected
10
704.850000
20
336.550000
30
0.0
40
2.050000
62
0
0
CIRCLE
8
Undeflected
10
717.550000
20
336.550000
30
0.0
40
2.050000
62
0
0
CIRCLE
8
Undeflected
10
730.250000
20
336.550000
30
0.0
40
2.050000
62
0
0
CIRCLE
8
Undeflected
10
742.950000
20
336.550000
30
0.0
40
2.050000
62
0
0
CIRCLE
8
Undeflected
10
755.650000
20
336.550000
30
0.0
40
2.050000
62
0
0
CIRCLE
8
Undeflected
10
768.350000
20
336.550000
30
0.0
40
2.050000
62
0
0
CIRCLE
8
Undeflected
10
781.050000
20
336.550000
30
0.0
40
2.050000
62
0
0
CIRCLE
8
Undeflected
10
793.750000
20
336.550000
30
0.0
40
2.050000
62
0
0
CIRCLE
8
Undeflected
10
806.450000
20
336.550000
30
0.0
40
2.050000
62
0
0
CIRCLE
8
Undeflected
10
819.150000
20
336.550000
30
0.0
40
2.050000
62
0
0
CIRCLE
8
Undeflected
10
831.850000
20
336.550000
30
0.0
40
2.050000
62
0
0
CIRCLE
8
Undeflected
10
844.550000
20
336.550000
30
0.0
40
2.050000
62
0
0
CIRCLE
8
Undeflected
10
857.250000
20
336.550000
30
0.0
40
2.050000
62
0
0
CIRCLE
8
Undeflected
10
869.950000
20
336.550000
30
0.0
40
2.050000
62
0
0
CIRCLE
8
Undeflected
10
882.650000
20
336.550000
30
0.0
40
2.050000
62
0
0
CIRCLE
8
Undeflected
10
895.350000
20
336.550000
30
0.0
40
2.050000
62
0
0
CIRCLE
8
Undeflected
10
908.050000
20
336.550000
30
0.0
40
2.050000
62
0
0
CIRCLE
8
Undeflected
10
920.750000
20
336.550000
30
0.0
40
2.050000
62
0
0
CIRCLE
8
Undeflected
10
933.450000
20
336.550000
30
0.0
40
2.050000
62
0
0
CIRCLE
8
Undeflected
10
946.150000
20
336.550000
30
0.0
40
2.050000
62
0
0
LINE
8
Undeflected
10
952.500000
20
330.200000
11
952.500000
21
469.900000
62
0
0
CIRCLE
8
Undeflected
10
946.150000
20
349.250000
30
0.0
40
2.050000
62
0
0
CIRCLE
8
Undeflected
10
946.150000
20
361.950000
30
0.0
40
2.050000
62
0
0
CIRCLE
8
Undeflected
10
946.150000
20
374.650000
30
0.0
40
2.050000
62
0
0
CIRCLE
8
Undeflected
10
946.150000
20
387.350000
30
0.0
40
2.050000
62
0
0
CIRCLE
8
Undeflected
10
946.150000
20
400.050000
30
0.0
40
2.050000
62
0
0
CIRCLE
8
Undeflected
10
946.150000
20
412.750000
30
0.0
40
2.050000
62
0
0
CIRCLE
8
Undeflected
10
946.150000
20
425.450000
30
0.0
40
2.050000
62
0
0
CIRCLE
8
Undeflected
10
946.150000
20
438.150000
30
0.0
40
2.050000
62
0
0
CIRCLE
8
Undeflected
10
946.150000
20
450.850000
30
0.0
40
2.050000
62
0
0
CIRCLE
8
Undeflected
10
946.150000
20
463.550000
30
0.0
40
2.050000
62
0
0
LINE
8
Undeflected
10
952.500000
20
469.900000
11
635.000000
21
469.900000
62
0
0
CIRCLE
8
Undeflected
10
933.450000
20
463.550000
30
0.0
40
2.050000
62
4
0
CIRCLE
8
Undeflected
10
920.750000
20
463.550000
30
0.0
40
2.050000
62
4
0
CIRCLE
8
Undeflected
10
908.050000
20
463.550000
30
0.0
40
2.050000
62
4
0
CIRCLE
8
Undeflected
10
895.350000
20
463.550000
30
0.0
40
2.050000
62
4
0
CIRCLE
8
Undeflected
10
882.650000
20
463.550000
30
0.0
40
2.050000
62
4
0
CIRCLE
8
Undeflected
10
869.950000
20
463.550000
30
0.0
40
2.050000
62
4
0
CIRCLE
8
Undeflected
10
857.250000
20
463.550000
30
0.0
40
2.050000
62
4
0
CIRCLE
8
Undeflected
10
844.550000
20
463.550000
30
0.0
40
2.050000
62
4
0
CIRCLE
8
Undeflected
10
831.850000
20
463.550000
30
0.0
40
2.050000
62
4
0
CIRCLE
8
Undeflected
10
819.150000
20
463.550000
30
0.0
40
2.050000
62
4
0
CIRCLE
8
Undeflected
10
806.450000
20
463.550000
30
0.0
40
2.050000
62
4
0
CIRCLE
8
Undeflected
10
793.750000
20
463.550000
30
0.0
40
2.050000
62
4
0
CIRCLE
8
Undeflected
10
781.050000
20
463.550000
30
0.0
40
2.050000
62
4
0
CIRCLE
8
Undeflected
10
768.350000
20
463.550000
30
0.0
40
2.050000
62
4
0
CIRCLE
8
Undeflected
10
755.650000
20
463.550000
30
0.0
40
2.050000
62
4
0
CIRCLE
8
Undeflected
10
742.950000
20
463.550000
30
0.0
40
2.050000
62
4
0
CIRCLE
8
Undeflected
10
730.250000
20
463.550000
30
0.0
40
2.050000
62
4
0
CIRCLE
8
Undeflected
10
717.550000
20
463.550000
30
0.0
40
2.050000
62
4
0
CIRCLE
8
Undeflected
10
704.850000
20
463.550000
30
0.0
40
2.050000
62
4
0
CIRCLE
8
Undeflected
10
692.150000
20
463.550000
30
0.0
40
2.050000
62
4
0
CIRCLE
8
Undeflected
10
679.450000
20
463.550000
30
0.0
40
2.050000
62
4
0
CIRCLE
8
Undeflected
10
666.750000
20
463.550000
30
0.0
40
2.050000
62
4
0
CIRCLE
8
Undeflected
10
654.050000
20
463.550000
30
0.0
40
2.050000
62
4
0
CIRCLE
8
Undeflected
10
641.350000
20
463.550000
30
0.0
40
2.050000
62
4
0
LINE
8
Undeflected
10
635.000000
20
469.900000
11
635.000000
21
330.200000
62
0
0
CIRCLE
8
Undeflected
10
641.350000
20
450.850000
30
0.0
40
2.050000
62
5
0
CIRCLE
8
Undeflected
10
641.350000
20
438.150000
30
0.0
40
2.050000
62
5
0
CIRCLE
8
Undeflected
10
641.350000
20
425.450000
30
0.0
40
2.050000
62
5
0
CIRCLE
8
Undeflected
10
641.350000
20
412.750000
30
0.0
40
2.050000
62
5
0
CIRCLE
8
Undeflected
10
641.350000
20
400.050000
30
0.0
40
2.050000
62
5
0
CIRCLE
8
Undeflected
10
641.350000
20
387.350000
30
0.0
40
2.050000
62
5
0
CIRCLE
8
Undeflected
10
641.350000
20
374.650000
30
0.0
40
2.050000
62
5
0
CIRCLE
8
Undeflected
10
641.350000
20
361.950000
30
0.0
40
2.050000
62
5
0
CIRCLE
8
Undeflected
10
641.350000
20
349.250000
30
0.0
40
2.050000
62
5
0
LINE
8
Undeflected
10
635.000000
20
469.900000
11
952.500000
21
469.900000
62
0
0
CIRCLE
8
Undeflected
10
641.350000
20
476.250000
30
0.0
40
2.050000
62
0
0
CIRCLE
8
Undeflected
10
654.050000
20
476.250000
30
0.0
40
2.050000
62
0
0
CIRCLE
8
Undeflected
10
666.750000
20
476.250000
30
0.0
40
2.050000
62
0
0
CIRCLE
8
Undeflected
10
679.450000
20
476.250000
30
0.0
40
2.050000
62
0
0
CIRCLE
8
Undeflected
10
692.150000
20
476.250000
30
0.0
40
2.050000
62
0
0
CIRCLE
8
Undeflected
10
704.850000
20
476.250000
30
0.0
40
2.050000
62
0
0
CIRCLE
8
Undeflected
10
717.550000
20
476.250000
30
0.0
40
2.050000
62
0
0
CIRCLE
8
Undeflected
10
730.250000
20
476.250000
30
0.0
40
2.050000
62
0
0
CIRCLE
8
Undeflected
10
742.950000
20
476.250000
30
0.0
40
2.050000
62
0
0
CIRCLE
8
Undeflected
10
755.650000
20
476.250000
30
0.0
40
2.050000
62
0
0
CIRCLE
8
Undeflected
10
768.350000
20
476.250000
30
0.0
40
2.050000
62
0
0
CIRCLE
8
Undeflected
10
781.050000
20
476.250000
30
0.0
40
2.050000
62
0
0
CIRCLE
8
Undeflected
10
793.750000
20
476.250000
30
0.0
40
2.050000
62
0
0
CIRCLE
8
Undeflected
10
806.450000
20
476.250000
30
0.0
40
2.050000
62
0
0
CIRCLE
8
Undeflected
10
819.150000
20
476.250000
30
0.0
40
2.050000
62
0
0
CIRCLE
8
Undeflected
10
831.850000
20
476.250000
30
0.0
40
2.050000
62
0
0
CIRCLE
8
Undeflected
10
844.550000
20
476.250000
30
0.0
40
2.050000
62
0
0
CIRCLE
8
Undeflected
10
857.250000
20
476.250000
30
0.0
40
2.050000
62
0
0
CIRCLE
8
Undeflected
10
869.950000
20
476.250000
30
0.0
40
2.050000
62
0
0
CIRCLE
8
Undeflected
10
882.650000
20
476.250000
30
0.0
40
2.050000
62
0
0
CIRCLE
8
Undeflected
10
895.350000
20
476.250000
30
0.0
40
2.050000
62
0
0
CIRCLE
8
Undeflected
10
908.050000
20
476.250000
30
0.0
40
2.050000
62
0
0
CIRCLE
8
Undeflected
10
920.750000
20
476.250000
30
0.0
40
2.050000
62
0
0
CIRCLE
8
Undeflected
10
933.450000
20
476.250000
30
0.0
40
2.050000
62
0
0
CIRCLE
8
Undeflected
10
946.150000
20
476.250000
30
0.0
40
2.050000
62
0
0
LINE
8
Undeflected
10
952.500000
20
469.900000
11
952.500000
21
596.900000
62
0
0
CIRCLE
8
Undeflected
10
946.150000
20
488.950000
30
0.0
40
2.050000
62
0
0
CIRCLE
8
Undeflected
10
946.150000
20
501.650000
30
0.0
40
2.050000
62
0
0
CIRCLE
8
Undeflected
10
946.150000
20
514.350000
30
0.0
40
2.050000
62
0
0
CIRCLE
8
Undeflected
10
946.150000
20
527.050000
30
0.0
40
2.050000
62
0
0
CIRCLE
8
Undeflected
10
946.150000
20
539.750000
30
0.0
40
2.050000
62
0
0
CIRCLE
8
Undeflected
10
946.150000
20
552.450000
30
0.0
40
2.050000
62
0
0
CIRCLE
8
Undeflected
10
946.150000
20
565.150000
30
0.0
40
2.050000
62
0
0
CIRCLE
8
Undeflected
10
946.150000
20
577.850000
30
0.0
40
2.050000
62
0
0
CIRCLE
8
Undeflected
10
946.150000
20
590.550000
30
0.0
40
2.050000
62
0
0
LINE
8
Undeflected
10
952.500000
20
596.900000
11
635.000000
21
596.900000
62
0
0
CIRCLE
8
Undeflected
10
933.450000
20
590.550000
30
0.0
40
2.050000
62
4
0
CIRCLE
8
Undeflected
10
920.750000
20
590.550000
30
0.0
40
2.050000
62
4
0
CIRCLE
8
Undeflected
10
908.050000
20
590.550000
30
0.0
40
2.050000
62
4
0
CIRCLE
8
Undeflected
10
895.350000
20
590.550000
30
0.0
40
2.050000
62
4
0
CIRCLE
8
Undeflected
10
882.650000
20
590.550000
30
0.0
40
2.050000
62
4
0
CIRCLE
8
Undeflected
10
869.950000
20
590.550000
30
0.0
40
2.050000
62
4
0
CIRCLE
8
Undeflected
10
857.250000
20
590.550000
30
0.0
40
2.050000
62
4
0
CIRCLE
8
Undeflected
10
844.550000
20
590.550000
30
0.0
40
2.050000
62
4
0
CIRCLE
8
Undeflected
10
831.850000
20
590.550000
30
0.0
40
2.050000
62
4
0
CIRCLE
8
Undeflected
10
819.150000
20
590.550000
30
0.0
40
2.050000
62
4
0
CIRCLE
8
Undeflected
10
806.450000
20
590.550000
30
0.0
40
2.050000
62
4
0
CIRCLE
8
Undeflected
10
793.750000
20
590.550000
30
0.0
40
2.050000
62
4
0
CIRCLE
8
Undeflected
10
781.050000
20
590.550000
30
0.0
40
2.050000
62
4
0
CIRCLE
8
Undeflected
10
768.350000
20
590.550000
30
0.0
40
2.050000
62
4
0
CIRCLE
8
Undeflected
10
755.650000
20
590.550000
30
0.0
40
2.050000
62
4
0
CIRCLE
8
Undeflected
10
742.950000
20
590.550000
30
0.0
40
2.050000
62
4
0
CIRCLE
8
Undeflected
10
730.250000
20
590.550000
30
0.0
40
2.050000
62
4
0
CIRCLE
8
Undeflected
10
717.550000
20
590.550000
30
0.0
40
2.050000
62
4
0
CIRCLE
8
Undeflected
10
704.850000
20
590.550000
30
0.0
40
2.050000
62
4
0
CIRCLE
8
Undeflected
10
692.150000
20
590.550000
30
0.0
40
2.050000
62
4
0
CIRCLE
8
Undeflected
10
679.450000
20
590.550000
30
0.0
40
2.050000
62
4
0
CIRCLE
8
Undeflected
10
666.750000
20
590.550000
30
0.0
40
2.050000
62
4
0
CIRCLE
8
Undeflected
10
654.050000
20
590.550000
30
0.0
40
2.050000
62
4
0
CIRCLE
8
Undeflected
10
641.350000
20
590.550000
30
0.0
40
2.050000
62
4
0
LINE
8
Undeflected
10
635.000000
20
596.900000
11
635.000000
21
469.900000
62
0
0
CIRCLE
8
Undeflected
10
641.350000
20
577.850000
30
0.0
40
2.050000
62
5
0
CIRCLE
8
Undeflected
10
641.350000
20
565.150000
30
0.0
40
2.050000
62
5
0
CIRCLE
8
Undeflected
10
641.350000
20
552.450000
30
0.0
40
2.050000
62
5
0
CIRCLE
8
Undeflected
10
641.350000
20
539.750000
30
0.0
40
2.050000
62
5
0
CIRCLE
8
Undeflected
10
641.350000
20
527.050000
30
0.0
40
2.050000
62
5
0
CIRCLE
8
Undeflected
10
641.350000
20
514.350000
30
0.0
40
2.050000
62
5
0
CIRCLE
8
Undeflected
10
641.350000
20
501.650000
30
0.0
40
2.050000
62
5
0
CIRCLE
8
Undeflected
10
641.350000
20
488.950000
30
0.0
40
2.050000
62
5
0
ENDSEC
0
EOF
